<?xml version="1.0" encoding="UTF-8" standalone="no"?>
<!-- Created with Inkscape (http://www.inkscape.org/) -->

<svg
   version="1.1"
   id="svg1"
   width="4266.6665"
   height="2666.6667"
   viewBox="0 0 4266.6665 2666.6667"
   sodipodi:docname="faq.eps"
   xmlns:inkscape="http://www.inkscape.org/namespaces/inkscape"
   xmlns:sodipodi="http://sodipodi.sourceforge.net/DTD/sodipodi-0.dtd"
   xmlns="http://www.w3.org/2000/svg"
   xmlns:svg="http://www.w3.org/2000/svg">
  <defs
     id="defs1" />
  <sodipodi:namedview
     id="namedview1"
     pagecolor="#ffffff"
     bordercolor="#000000"
     borderopacity="0.25"
     inkscape:showpageshadow="2"
     inkscape:pageopacity="0.0"
     inkscape:pagecheckerboard="0"
     inkscape:deskcolor="#d1d1d1">
    <inkscape:page
       x="0"
       y="0"
       inkscape:label="1"
       id="page1"
       width="4266.6665"
       height="2666.6667"
       margin="0"
       bleed="0" />
  </sodipodi:namedview>
  <g
     id="g1"
     inkscape:groupmode="layer"
     inkscape:label="1">
    <g
       id="group-R5">
      <path
         id="path2"
         d="M 32000,0 H 0 V 20000 H 32000 V 0"
         style="fill:#ffffff;fill-opacity:1;fill-rule:nonzero;stroke:none"
         transform="matrix(0.13333333,0,0,-0.13333333,0,2666.6667)" />
      <path
         id="path3"
         d="m 30238.5,4003.8 -5399.4,13.4 -2469.6,6.1 -530.3,1.3 -1923.1,4.7 -2343.8,5.8 -2031.7,4.9 -115.1,0.3 -535.9,1.3 -4701,11.6 -2360.17,5.9 -222.64,0.5 -1293.16,3.2 -3369.7,8.3 c 0,0 -4180.19,7912.3 1470.64,10841.8 7279.63,3773.8 12470.93,-1663.1 15259.43,-1457.1 4101.2,303 12127.3,2596.7 10565.5,-9452"
         style="fill:#ebf3fa;fill-opacity:1;fill-rule:nonzero;stroke:none"
         transform="matrix(0.13333333,0,0,-0.13333333,0,2666.6667)" />
      <path
         id="path4"
         d="m 21636.7,10392.7 c 0,0 1387.7,2119 1981.8,1841.6 594.1,-277.3 -1981.8,-1841.6 -1981.8,-1841.6"
         style="fill:#dfebfd;fill-opacity:1;fill-rule:nonzero;stroke:none"
         transform="matrix(0.13333333,0,0,-0.13333333,0,2666.6667)" />
      <path
         id="path5"
         d="m 21584.4,10035.4 c 0,0 2974.8,2269 3946.1,1666.8 971.3,-602.1 -750.3,-904 -1400,-963.7 -649.8,-59.7 -2546.1,-703.1 -2546.1,-703.1"
         style="fill:#dfebfd;fill-opacity:1;fill-rule:nonzero;stroke:none"
         transform="matrix(0.13333333,0,0,-0.13333333,0,2666.6667)" />
      <path
         id="path6"
         d="m 21359.2,10366.9 c 0,0 -4,87.4 -11.5,214.9 -14.5,248.7 -42.1,650.2 -78.3,854.2 -54.8,308.5 139.4,582.3 481.1,335.4 341.8,-247 -307.6,-1296.6 -307.6,-1296.6 l -83.7,-107.9"
         style="fill:#dfebfd;fill-opacity:1;fill-rule:nonzero;stroke:none"
         transform="matrix(0.13333333,0,0,-0.13333333,0,2666.6667)" />
      <path
         id="path7"
         d="m 11328.7,4057.8 -1355.68,3.7 c -43.36,7.1 -85.42,6 -127.89,0.3 l -742.83,2 c -264.79,196.5 -305.63,793.4 -305.63,793.4 222.66,-158.1 711.8,-166.9 756.84,-87.1 45.11,79.9 -615.67,286.9 -709.83,346.1 -94.16,59.2 -206.4,323.2 39.08,696.9 245.49,373.8 895.64,18.9 895.64,18.9 0,0 234.8,-871.8 365.9,-933.7 131.2,-61.9 -55.2,784.5 -55.2,784.5 273.3,-61.2 842,-607 842,-607 0,0 -317.1,-823.4 -174.8,-851.1 142.4,-27.7 243.6,743.4 243.6,743.4 231.2,-161 372.4,-538.4 372.4,-538.4 36.2,-151.6 12.1,-273.9 -43.6,-371.9"
         style="fill:#cde0fb;fill-opacity:1;fill-rule:nonzero;stroke:none"
         transform="matrix(0.13333333,0,0,-0.13333333,0,2666.6667)" />
      <path
         id="path8"
         d="m 4886.04,13395.9 c 340.42,584.8 1351.77,101.5 1351.77,101.5 0,0 425.91,-1298.1 629.08,-1380.9 203.18,-82.8 -147.42,1180.9 -147.42,1180.9 417.94,-70.1 1321.74,-848.5 1321.74,-848.5 0,0 -411.96,-1270.1 -194.65,-1300.3 217.31,-30.3 307.4,1143.2 307.4,1143.2 362.4,-224.3 606.66,-783.1 606.66,-783.1 258.5,-872.7 -875.41,-1159.6 -875.41,-1159.6 0,0 -133.26,-443.2 4.88,-1029.9 h 0.01 c 0,0 36.83,-111.3 56.89,-289.2 l -107.47,28.9 c -1.03,31.2 -3.21,61.6 -6.74,91.3 0.06,0.2 0.03,0.3 -0.07,0.5 -0.05,0.4 -0.11,0.9 -0.16,1.3 -2.9,18.6 -7.13,45.1 -12.57,77.4 -0.01,0 -0.02,0.1 -0.02,0.1 0.01,0.1 -0.06,0.1 -0.04,0.2 -15.54,73.1 -24.96,126.5 -29.77,164.6 -0.03,0.1 -0.03,0.2 -0.02,0.3 -44.13,228.2 -115.17,529.2 -194.87,609.8 0,0 16.39,13.5 36.25,43.1 -11.56,-13.7 -23.61,-28.1 -36.25,-43.1 -289.96,-344.7 -1227.43,-163.1 -1711.63,79.8 -484.2,242.9 -221.95,327.4 117.07,487.8 339.02,160.4 900.56,-56.9 1096.11,-10.9 195.55,46.1 -29.37,205.2 -378.08,270.8 -348.71,65.6 -611.4,-230.1 -1177.41,-134.3 -566.02,95.8 -707.37,1247 -707.37,1247 349.26,-220.8 1089.08,-194.3 1150.69,-69.9 61.61,124.3 -953.71,383.2 -1100.79,465.1 -147.08,81.8 -338.22,471.3 2.19,1056.1"
         style="fill:#dfebfd;fill-opacity:1;fill-rule:nonzero;stroke:none"
         transform="matrix(0.13333333,0,0,-0.13333333,0,2666.6667)" />
      <path
         id="path9"
         d="m 12711.3,10429.8 c 395.3,544.6 1347.7,-34.7 1347.7,-34.7 0,0 291.7,-1326.9 484.5,-1429.2 192.8,-102.2 -27.9,1183.3 -27.9,1183.3 406.5,-111.2 1223,-971.7 1223,-971.7 0,0 -534.5,-1215.5 -322.5,-1267.2 212,-51.6 418.4,1100.5 418.4,1100.5 336.2,-258.1 522,-835.5 522,-835.5 168.6,-889.3 -982,-1059.8 -982,-1059.8 0,0 -176.1,-425.3 -98.1,-1019.6 h 0.1 c 0,0 25.3,-113.8 27.4,-291.8 l -103.5,39.3 c 2.1,31 3,61.3 2.5,91 0,0.2 0,0.3 -0.1,0.5 0,0.5 0,0.9 0,1.3 -1,18.7 -2.5,45.3 -4.7,77.8 0,0.1 0,0.1 0,0.2 0,0 -0.1,0.1 0,0.1 -8.1,73.9 -12.1,127.7 -13,165.9 -0.1,0.1 -0.1,0.2 0,0.3 -20.9,230.2 -61.1,535.2 -131.9,622.8 0,0 17.5,11.8 40.2,39.1 -12.9,-12.5 -26.2,-25.5 -40.2,-39.1 -321.4,-312.1 -1230.8,-38.7 -1685.6,250 -454.9,288.7 -186.9,346.1 164.5,470.9 351.5,124.9 885.4,-146.2 1083.5,-120.2 198.1,26 -8.6,205.9 -347,305.6 -338.5,99.8 -628,-166.6 -1178.5,-15.2 -550.4,151.4 -575.3,1304.5 -575.3,1304.5 323.5,-253.3 1058.2,-301 1131.6,-184.1 73.4,116.9 -905.4,474.5 -1042.7,570.1 -137.4,95.7 -287.6,500.2 107.6,1044.9"
         style="fill:#dfebfd;fill-opacity:1;fill-rule:nonzero;stroke:none"
         transform="matrix(0.13333333,0,0,-0.13333333,0,2666.6667)" />
      <path
         id="path10"
         d="m 15346.2,4741.7 c 0,0 -143.4,-502.7 -115.8,-698 l -542.8,1.5 c -11.3,110.2 15.3,230 107,352.7 0,0 277.5,288.4 551.6,343.8"
         style="fill:#dfebfd;fill-opacity:1;fill-rule:nonzero;stroke:none"
         transform="matrix(0.13333333,0,0,-0.13333333,0,2666.6667)" />
      <path
         id="path11"
         d="m 17405.1,4038 -2058.1,5.4 c 81.5,207.3 104.3,769.4 104.3,769.4 0,0 733.2,273.3 1006.3,221.3 0,0 -503.3,-697.8 -359.5,-693 143.9,4.6 701.4,706.4 701.4,706.4 0,0 732.2,67.3 808.6,-370 68.6,-392.6 -90.7,-590.9 -203,-639.5"
         style="fill:#dfebfd;fill-opacity:1;fill-rule:nonzero;stroke:none"
         transform="matrix(0.13333333,0,0,-0.13333333,0,2666.6667)" />
      <path
         id="path12"
         d="m 21727.4,4026.5 -1948.1,5.2 c 126.3,54 291.1,104.8 468.1,165.3 443.3,151.5 1047.4,-57.4 1480,-170.5"
         style="fill:#dfebfd;fill-opacity:1;fill-rule:nonzero;stroke:none"
         transform="matrix(0.13333333,0,0,-0.13333333,0,2666.6667)" />
      <path
         id="path13"
         d="m 22717.3,4018.4 -1763.4,4.7 c 36.8,78.1 -188.2,237.9 -513.9,338.2 -414.6,127.6 -774.4,-195.5 -1448.9,-1.3 -674.4,194.3 -687.9,1612.2 -687.9,1612.2 393.9,-316.2 1296.4,-385.8 1388.3,-243.1 92,142.6 -1105.9,596.7 -1273.3,716.3 -167.4,119.6 -346.1,619.2 147.8,1282.8 494,663.7 1656.2,-62.5 1656.2,-62.5 0,0 339,-1635.6 574.4,-1764.2 235.4,-128.5 -16.8,1455 -16.8,1455 498.2,-142.6 1489.1,-1212.6 1489.1,-1212.6 0,0 -675.1,-1486.3 -415.2,-1552.9 259.9,-66.6 530.6,1346.5 530.6,1346.5 409.5,-322.3 629.3,-1034.7 629.3,-1034.7 72.2,-407.6 -78.6,-690.2 -296.3,-884.4"
         style="fill:#dfebfd;fill-opacity:1;fill-rule:nonzero;stroke:none"
         transform="matrix(0.13333333,0,0,-0.13333333,0,2666.6667)" />
      <path
         id="path14"
         d="m 6083.08,8570.8 c 0.02,3.7 -53.8,114.9 -36.68,123.4 17.11,8.6 47.77,7.3 51.34,-12.2 3.57,-19.5 -14.66,-111.2 -14.66,-111.2"
         style="fill:#ffb27d;fill-opacity:1;fill-rule:nonzero;stroke:none"
         transform="matrix(0.13333333,0,0,-0.13333333,0,2666.6667)" />
      <path
         id="path15"
         d="m 5279.98,9953.4 c 0,0 -315.47,379.1 -482.48,136.5 0,0 -124.6,-51.6 -169.66,-263.7 -45.98,-216.4 97.91,-380.9 172.31,-340.2 47.72,26 83.84,-57.5 83.84,-57.5 l 395.99,524.9"
         style="fill:#233862;fill-opacity:1;fill-rule:nonzero;stroke:none"
         transform="matrix(0.13333333,0,0,-0.13333333,0,2666.6667)" />
      <path
         id="path16"
         d="m 5671.25,7936.2 c 250.81,92.4 492.37,521.5 492.37,521.5 l -79.1,55.4 c -65.88,-96.4 -362.27,-281.4 -362.27,-281.4 -6.77,81.2 -16.59,154.9 -28.71,221.6 -82.29,453.6 -270.51,588 -321.04,616.5 -8.15,4.7 -12.75,6.5 -12.75,6.5 0,0 0.17,-3.4 0.56,-9.7 0.73,-13.6 2.33,-41.2 4.96,-78.8 19.6,-280.9 96.41,-1128.9 305.98,-1051.6"
         style="fill:#ffb27d;fill-opacity:1;fill-rule:nonzero;stroke:none"
         transform="matrix(0.13333333,0,0,-0.13333333,0,2666.6667)" />
      <path
         id="path17"
         d="m 4831.96,10128.4 c 0,0 -42.41,169.7 -291.61,116.6 0,0 119.3,15.1 151.99,-30.9 0,0 -94.55,43.3 -153.76,7.1 -59.2,-36.3 -68.92,-158.2 -60.08,-195.3 8.83,-37.1 74.22,-147.6 117.53,-147.6 43.29,0 94.55,38 94.55,38 l 141.38,212.1"
         style="fill:#233862;fill-opacity:1;fill-rule:nonzero;stroke:none"
         transform="matrix(0.13333333,0,0,-0.13333333,0,2666.6667)" />
      <path
         id="path18"
         d="m 4459.07,7473 c 123.91,277.9 183.19,356.5 185.26,443.9 1.64,69.1 -32.45,143.7 -98.68,326.6 -15.58,43.1 -26.35,87.5 -32.97,132.3 -52.38,352.6 151.54,733.8 278.29,759.8 35.26,9.3 95.04,136.7 94.3,341.9 l 15.88,-3.1 266.87,-52.9 c 0,0 -6.07,-84 -6.25,-163.1 -0.18,-65.9 3.81,-128.4 18.74,-136.3 19.21,-1.7 30.54,-2.9 30.54,-2.9 0,0 222.53,-309 241.24,-596.4 18.72,-287.4 -178.19,-412.3 1.49,-986.7 183.45,-586.6 -1063.15,-216.6 -994.71,-63.1"
         style="fill:#ffb27d;fill-opacity:1;fill-rule:nonzero;stroke:none"
         transform="matrix(0.13333333,0,0,-0.13333333,0,2666.6667)" />
      <path
         id="path19"
         d="m 5168.03,9421.5 c 0,0 -6.08,-84 -6.26,-163.1 -149.34,4.2 -228.28,140.5 -260.62,216 l 266.88,-52.9"
         style="fill:#e8945b;fill-opacity:1;fill-rule:nonzero;stroke:none"
         transform="matrix(0.13333333,0,0,-0.13333333,0,2666.6667)" />
      <path
         id="path20"
         d="m 4873.58,9503.4 c 0,0 -78.26,123.7 -97.04,229.4 -13.41,75.5 25.04,355.3 306.23,315.1 0,0 81.67,-8.1 158.43,-60 61.05,-41.2 149.16,-130.2 50.65,-374.4 l -25.6,-82.5 -392.67,-27.6"
         style="fill:#233862;fill-opacity:1;fill-rule:nonzero;stroke:none"
         transform="matrix(0.13333333,0,0,-0.13333333,0,2666.6667)" />
      <path
         id="path21"
         d="m 5217.9,9346.6 c 0,0 -353.34,-5.8 -353.58,214.3 -0.25,220.1 -46.01,367.6 179.57,380.6 225.59,13 269.51,-70.9 287.46,-144.4 17.95,-73.4 -21.55,-443.3 -113.45,-450.5"
         style="fill:#ffb27d;fill-opacity:1;fill-rule:nonzero;stroke:none"
         transform="matrix(0.13333333,0,0,-0.13333333,0,2666.6667)" />
      <path
         id="path22"
         d="m 5204.82,9946.9 c 0,0 -96.74,-258.2 -245.21,-296.4 -148.47,-38.2 -212.87,1.6 -212.87,1.6 0,0 113.88,90.5 137.51,248.4 0,0 247.6,169.3 320.57,46.4"
         style="fill:#233862;fill-opacity:1;fill-rule:nonzero;stroke:none"
         transform="matrix(0.13333333,0,0,-0.13333333,0,2666.6667)" />
      <path
         id="path23"
         d="m 5180.84,9925.9 c 0,0 72.25,-57.6 89.87,-113.7 17.61,-56 25.54,-171.4 59.16,-167.5 0,0 72.89,175.5 -9.03,274.8 -86.85,105.3 -140,6.4 -140,6.4"
         style="fill:#233862;fill-opacity:1;fill-rule:nonzero;stroke:none"
         transform="matrix(0.13333333,0,0,-0.13333333,0,2666.6667)" />
      <path
         id="path24"
         d="m 4771.94,4806.6 c 88.89,-353.7 222.71,-624.8 222.71,-624.8 l 116.52,8.1 c 0,0 -57.14,271.8 -53.86,639.1 2.31,256.8 34.07,560.3 135.53,850 348.64,995.7 292.29,1720.4 292.29,1720.4 l -655.63,-76.7 -30.54,-3.6 c -2.73,-301.1 -10.51,-709.9 -17.31,-1029.6 -6.01,-287.5 -11.29,-502.8 -11.29,-502.8 -126.05,-271.5 -80.27,-654.7 1.58,-980.1"
         style="fill:#163560;fill-opacity:1;fill-rule:nonzero;stroke:none"
         transform="matrix(0.13333333,0,0,-0.13333333,0,2666.6667)" />
      <path
         id="path25"
         d="m 3999.54,7177.8 106.08,-31.8 c 0,0 349.91,580.6 381.73,731.7 10.38,49.2 35.82,147.6 65.52,257.9 61.44,228.3 140.74,507.7 140.74,507.7 l 26.11,113.2 89.07,385.7 c 0,0 -170.56,-17.4 -270.31,-59.1 -33.04,-13.8 -58.24,-30.3 -67.04,-49.6 -73.29,-161.1 -146.45,-567.8 -197.88,-857.9 -28.66,-161.7 -50.52,-287.2 -61.93,-313.8 -31.82,-74.2 -129.03,-482.5 -212.09,-684"
         style="fill:#ffb27d;fill-opacity:1;fill-rule:nonzero;stroke:none"
         transform="matrix(0.13333333,0,0,-0.13333333,0,2666.6667)" />
      <path
         id="path26"
         d="m 4395.79,4863 c 37.7,-402.3 203.69,-662.5 203.69,-662.5 l 55.66,-40.4 c 0,0 52.68,283.4 89.96,620.7 35.52,320.5 84.22,659.6 139.28,763.2 218.65,410.6 284.47,1960.5 284.47,1960.5 l -664.74,33 c -66.85,-112.4 -96,-296.7 -102.92,-506.3 -17.49,-529 106.86,-1218.8 125.45,-1318.5 0,-0.1 0,-0.2 0.05,-0.3 1.46,-7.7 -0.78,-15.3 -4.37,-22.3 -132.24,-261.8 -151.37,-561.3 -126.53,-827.1"
         style="fill:#1c468a;fill-opacity:1;fill-rule:nonzero;stroke:none"
         transform="matrix(0.13333333,0,0,-0.13333333,0,2666.6667)" />
      <path
         id="path27"
         d="m 5194.26,9917.2 c 0,0 -68.92,-270.4 -256.26,-357 0,0 187.34,166.1 203.25,344.6 15.9,178.5 53.01,12.4 53.01,12.4"
         style="fill:#233862;fill-opacity:1;fill-rule:nonzero;stroke:none"
         transform="matrix(0.13333333,0,0,-0.13333333,0,2666.6667)" />
      <path
         id="path28"
         d="m 4375.75,7272.4 c -1.16,-22.4 0.06,-40.3 4.13,-53.1 14.14,-44.6 62.72,-64.8 180.15,-52.7 71.77,7.5 103.77,127.8 118.04,230.4 43.11,-146.8 103.46,-229.2 181.48,-246.5 113.85,-25.4 688.12,-95.2 725.71,177.8 41.35,300.3 -82.46,831.9 -89.26,1118.6 16.88,101.6 22.65,189.8 20.83,265.6 -4.8,204.2 -64.73,318.7 -110.81,364.7 -13.06,10.1 -26.11,16.3 -78.51,25.3 -26.78,4.6 -63.87,9.8 -116.46,16.7 0,0 -21.45,2.5 -20.96,1.7 9.71,-17.4 139.79,-214.3 129.65,-265 -10.63,-53 -471.9,-5.3 -503.72,23.9 -31.82,29.1 -82.15,252.4 -82.15,252.4 0,0 -163.34,-17.8 -243.24,-75.9 0,0 0.3,-0.4 0.85,-1 -9.65,-7 -16.88,-14.3 -21.01,-22.1 -85.25,-162.4 -170.38,-572 -230.25,-864.1 145.12,-80 271.9,-56.2 311.25,-45.6 -51.43,-336.5 -168.07,-697.8 -175.72,-851.1"
         style="fill:#f99746;fill-opacity:1;fill-rule:nonzero;stroke:none"
         transform="matrix(0.13333333,0,0,-0.13333333,0,2666.6667)" />
      <path
         id="path29"
         d="m 6084.52,8513.1 c -0.04,10.9 -9.15,168.8 18.94,201.9 28.09,33.2 85.46,80.3 103.5,78.9 18.05,-1.5 88.61,-95.2 67.39,-167.1 -21.21,-71.8 -110.73,-169.1 -110.73,-169.1 l -79.1,55.4"
         style="fill:#ffb27d;fill-opacity:1;fill-rule:nonzero;stroke:none"
         transform="matrix(0.13333333,0,0,-0.13333333,0,2666.6667)" />
      <path
         id="path30"
         d="m 5955.68,8706.2 163.56,-49 c 5.43,-1.7 11.15,1.4 12.77,6.8 l 93.47,311.9 c 1.63,5.4 -1.45,11.2 -6.88,12.8 l -163.55,49 c -5.43,1.6 -11.15,-1.5 -12.77,-6.9 L 5948.8,8719 c -1.63,-5.5 1.45,-11.2 6.88,-12.8"
         style="fill:#f1a34f;fill-opacity:1;fill-rule:nonzero;stroke:none"
         transform="matrix(0.13333333,0,0,-0.13333333,0,2666.6667)" />
      <path
         id="path31"
         d="m 5998.18,8693.4 148.35,-44.4 c 9.63,-2.9 19.77,2.6 22.65,12.2 l 88.93,296.7 c 2.88,9.6 -2.58,19.7 -12.21,22.6 l -148.36,44.5 c -9.62,2.9 -19.76,-2.6 -22.65,-12.2 l -88.91,-296.7 c -2.89,-9.6 2.57,-19.8 12.2,-22.7"
         style="fill:#d86713;fill-opacity:1;fill-rule:nonzero;stroke:none"
         transform="matrix(0.13333333,0,0,-0.13333333,0,2666.6667)" />
      <path
         id="path32"
         d="m 4395.79,4863 c 37.7,-402.3 203.69,-662.5 203.69,-662.5 l 56.67,-51.6 c 0,0 51.67,294.6 88.95,631.9 -39.28,-2.9 -212.45,-9.2 -349.31,82.2"
         style="fill:#ffb27d;fill-opacity:1;fill-rule:nonzero;stroke:none"
         transform="matrix(0.13333333,0,0,-0.13333333,0,2666.6667)" />
      <path
         id="path33"
         d="m 4771.94,4806.6 c 88.89,-353.7 222.71,-624.8 222.71,-624.8 l 116.52,8.1 c 0,0 -57.14,271.8 -53.86,639.1 -39.53,-19.9 -121.13,-40.1 -285.37,-22.4"
         style="fill:#d9935c;fill-opacity:1;fill-rule:nonzero;stroke:none"
         transform="matrix(0.13333333,0,0,-0.13333333,0,2666.6667)" />
      <path
         id="path34"
         d="m 4927.55,4084.1 h 74.39 c 24.92,3.9 43.31,11.2 68.87,14.5 38.81,5.1 56.68,-10.8 60.23,-14.5 0.48,-0.5 0.69,-0.7 0.69,-0.7 h 316 c 7.95,11.3 0.32,37.6 -7.16,57 -5.03,13.1 -16.01,23.1 -29.58,27 -33.51,9.7 -99.57,18.4 -160.07,73.1 -34.04,30.8 -164.36,113.1 -164.36,113.1 l -0.69,0.2 c -2.87,-0.1 -16.49,-4.3 -75.77,-54.3 -30.64,-25.8 -82.87,36.5 -82.87,36.5 0,0 -9.81,-8.1 -17.12,-23.3 -5.89,-11.9 -10.18,-28.3 -6.79,-48.5 4.72,-28.4 -10.5,-81.4 -22.64,-117.1 -7.37,-21.7 -13.57,-37.1 -13.57,-37.1 0,0 -3.56,-17.9 60.44,-25.9"
         style="fill:#233862;fill-opacity:1;fill-rule:nonzero;stroke:none"
         transform="matrix(0.13333333,0,0,-0.13333333,0,2666.6667)" />
      <path
         id="path35"
         d="m 4910.11,4312.7 c 17.76,-12.5 55.24,-37.1 80.11,-40.4 33.56,-4.4 96.34,81.3 96.34,81.3 l -0.69,0.2 c -2.87,-0.1 -16.49,-4.3 -75.77,-54.3 -30.64,-25.8 -82.87,36.5 -82.87,36.5 0,0 -9.81,-8.1 -17.12,-23.3"
         style="fill:#466aa5;fill-opacity:1;fill-rule:nonzero;stroke:none"
         transform="matrix(0.13333333,0,0,-0.13333333,0,2666.6667)" />
      <path
         id="path36"
         d="m 4927.55,4084.1 h 74.39 c 24.92,3.9 43.31,11.2 68.87,14.5 38.81,5.1 56.68,-10.8 60.23,-14.5 0.48,-0.5 0.69,-0.7 0.69,-0.7 h 316 c 7.95,11.3 0.32,37.6 -7.16,57 -9.59,8.5 -12.3,-37.1 -17.6,-44.3 -5.3,-7.3 -257.78,-2.7 -272.36,7.9 -14.58,10.6 -58.32,29.2 -119.3,14.6 -53.07,-12.7 -131.28,19.8 -150.63,28.5 -7.37,-21.7 -13.57,-37.1 -13.57,-37.1 0,0 -3.56,-17.9 60.44,-25.9"
         style="fill:#466aa5;fill-opacity:1;fill-rule:nonzero;stroke:none"
         transform="matrix(0.13333333,0,0,-0.13333333,0,2666.6667)" />
      <path
         id="path37"
         d="m 4530.59,4084.1 h 74.39 c 24.91,3.9 43.32,11.2 68.87,14.5 38.81,5.1 56.68,-10.8 60.23,-14.5 0.48,-0.5 0.69,-0.7 0.69,-0.7 h 316 c 7.95,11.3 0.31,37.6 -7.16,57 -5.04,13.1 -16.01,23.1 -29.59,27 -33.5,9.7 -99.57,18.4 -160.06,73.1 -34.04,30.8 -164.37,113.1 -164.37,113.1 l -0.68,0.2 c -2.87,-0.1 -16.49,-4.3 -75.77,-54.3 -30.64,-25.8 -82.87,36.5 -82.87,36.5 0,0 -9.81,-8.1 -17.13,-23.3 -5.88,-11.9 -10.18,-28.3 -6.78,-48.5 4.72,-28.4 -10.5,-81.4 -22.64,-117.1 -7.37,-21.7 -13.57,-37.1 -13.57,-37.1 0,0 -3.56,-17.9 60.44,-25.9"
         style="fill:#233862;fill-opacity:1;fill-rule:nonzero;stroke:none"
         transform="matrix(0.13333333,0,0,-0.13333333,0,2666.6667)" />
      <path
         id="path38"
         d="m 4513.14,4312.7 c 17.77,-12.5 55.25,-37.1 80.12,-40.4 33.56,-4.4 96.33,81.3 96.33,81.3 l -0.68,0.2 c -2.87,-0.1 -16.49,-4.3 -75.77,-54.3 -30.64,-25.8 -82.87,36.5 -82.87,36.5 0,0 -9.81,-8.1 -17.13,-23.3"
         style="fill:#466aa5;fill-opacity:1;fill-rule:nonzero;stroke:none"
         transform="matrix(0.13333333,0,0,-0.13333333,0,2666.6667)" />
      <path
         id="path39"
         d="m 4530.59,4084.1 h 74.39 c 24.91,3.9 43.32,11.2 68.87,14.5 38.81,5.1 56.68,-10.8 60.23,-14.5 0.48,-0.5 0.69,-0.7 0.69,-0.7 h 316 c 7.95,11.3 0.31,37.6 -7.16,57 -9.6,8.5 -12.3,-37.1 -17.6,-44.3 -5.31,-7.3 -257.79,-2.7 -272.37,7.9 -14.58,10.6 -58.32,29.2 -119.29,14.6 -53.08,-12.7 -131.28,19.8 -150.63,28.5 -7.37,-21.7 -13.57,-37.1 -13.57,-37.1 0,0 -3.56,-17.9 60.44,-25.9"
         style="fill:#466aa5;fill-opacity:1;fill-rule:nonzero;stroke:none"
         transform="matrix(0.13333333,0,0,-0.13333333,0,2666.6667)" />
      <path
         id="path40"
         d="m 5386.28,9086.6 c 0,0 220.37,-110.9 293.76,-558.4 0,0 -72.17,-99 -173.83,-128.2 -14.53,-4.1 -29.65,-6.9 -45.26,-7.7 -124.82,-6.6 -74.67,694.3 -74.67,694.3"
         style="fill:#f99746;fill-opacity:1;fill-rule:nonzero;stroke:none"
         transform="matrix(0.13333333,0,0,-0.13333333,0,2666.6667)" />
      <path
         id="path41"
         d="m 6223.84,8781.7 c 0,0 -68.11,104.8 -84.75,99 -23.76,-8.3 61.75,-141.3 61.75,-141.3 0,0 -63.36,99.4 -73.26,91.9 -22.55,-17 13.35,-79.5 48.94,-127.3 0,0 -63.71,58.3 -65.78,47.8 -7.28,-36.8 69.94,-126 69.94,-126 l 43.16,98.6 v 57.3"
         style="fill:#ffb27d;fill-opacity:1;fill-rule:nonzero;stroke:none"
         transform="matrix(0.13333333,0,0,-0.13333333,0,2666.6667)" />
      <path
         id="path42"
         d="m 6274.93,8684.5 c -3.29,12.8 -19.93,263 -27.04,239.3 -7.11,-23.8 -24.05,-155 -24.05,-155 l 51.09,-84.3"
         style="fill:#ffb27d;fill-opacity:1;fill-rule:nonzero;stroke:none"
         transform="matrix(0.13333333,0,0,-0.13333333,0,2666.6667)" />
      <path
         id="path43"
         d="m 5148.87,9477.3 c 0,0 6.11,-26 70.63,-22 0,0 54.18,3.4 52.52,31.9 0,0 -52.53,20.3 -123.15,-9.9"
         style="fill:#ffffff;fill-opacity:1;fill-rule:nonzero;stroke:none"
         transform="matrix(0.13333333,0,0,-0.13333333,0,2666.6667)" />
      <path
         id="path44"
         d="m 3999.54,7177.8 c 0,0 -127.98,-85 -147.54,-120.9 -19.56,-35.8 -65.2,-167.9 -65.2,-167.9 0,0 32.6,-4.9 65.2,52.2 32.6,57 140.18,52.1 176.04,83.1 35.86,31 77.58,121.7 77.58,121.7 l -106.08,31.8"
         style="fill:#ffb27d;fill-opacity:1;fill-rule:nonzero;stroke:none"
         transform="matrix(0.13333333,0,0,-0.13333333,0,2666.6667)" />
      <path
         id="path45"
         d="m 4091.7,7118 c 0,0 -21.28,-100.2 -47.36,-129.6 -26.08,-29.3 -61.94,-78.2 -76.61,-65.1 -14.67,13 16.3,122.2 16.3,122.2 l 107.67,72.5"
         style="fill:#ffb27d;fill-opacity:1;fill-rule:nonzero;stroke:none"
         transform="matrix(0.13333333,0,0,-0.13333333,0,2666.6667)" />
      <path
         id="path46"
         d="m 3869.93,7045.5 c -3.26,-4.9 -115.73,-124.4 -115.73,-124.4 0,0 40.75,-18.5 52.16,0 11.41,18.5 63.57,124.4 63.57,124.4"
         style="fill:#ffb27d;fill-opacity:1;fill-rule:nonzero;stroke:none"
         transform="matrix(0.13333333,0,0,-0.13333333,0,2666.6667)" />
      <path
         id="path47"
         d="m 13130,12940.6 1042.9,-161.9 -687.5,481.1 -37.1,-151 -254.6,-42.9 -63.7,-125.3"
         style="fill:#9ec3f6;fill-opacity:1;fill-rule:nonzero;stroke:none"
         transform="matrix(0.13333333,0,0,-0.13333333,0,2666.6667)" />
      <path
         id="path48"
         d="m 14172.9,12778.7 -863.9,459 -851.5,53.3 z"
         style="fill:#ffffff;fill-opacity:1;fill-rule:nonzero;stroke:none"
         transform="matrix(0.13333333,0,0,-0.13333333,0,2666.6667)" />
      <path
         id="path49"
         d="m 13485.4,13259.8 687.5,-481.1 -527.6,745.2 z"
         style="fill:#ffffff;fill-opacity:1;fill-rule:nonzero;stroke:none"
         transform="matrix(0.13333333,0,0,-0.13333333,0,2666.6667)" />
      <path
         id="path50"
         d="m 28398.6,9946.7 -854,-121.8 566.7,386.2 28.8,-123.8 207.7,-37.6 50.8,-103"
         style="fill:#9ec3f6;fill-opacity:1;fill-rule:nonzero;stroke:none"
         transform="matrix(0.13333333,0,0,-0.13333333,0,2666.6667)" />
      <path
         id="path51"
         d="m 27544.6,9824.9 710.7,366.4 696.4,35 z"
         style="fill:#ffffff;fill-opacity:1;fill-rule:nonzero;stroke:none"
         transform="matrix(0.13333333,0,0,-0.13333333,0,2666.6667)" />
      <path
         id="path52"
         d="m 28111.3,10211.1 -566.7,-386.2 438.7,603.6 z"
         style="fill:#ffffff;fill-opacity:1;fill-rule:nonzero;stroke:none"
         transform="matrix(0.13333333,0,0,-0.13333333,0,2666.6667)" />
      <path
         id="path53"
         d="M 7010.58,10892.9 H 12200.2 V 9529.8 H 8510.01 V 8079.1 H 11762 V 6716 H 8510.01 V 4077.4 H 7010.58 v 6815.5"
         style="fill:#699ff0;fill-opacity:1;fill-rule:nonzero;stroke:none"
         transform="matrix(0.13333333,0,0,-0.13333333,0,2666.6667)" />
      <path
         id="path54"
         d="M 15993.8,6853 15112.3,9004.5 14230.9,6853 Z m -1535.5,3904.9 h 1345.9 L 18647.6,4076 h -1526 L 16515,5564 H 13709.6 L 13103,4076 h -1488 l 2843.3,6681.9"
         style="fill:#699ff0;fill-opacity:1;fill-rule:nonzero;stroke:none"
         transform="matrix(0.13333333,0,0,-0.13333333,0,2666.6667)" />
      <path
         id="path55"
         d="m 22982.3,5615.1 c 0,0 662.2,340.7 938.3,976.2 120,276.2 180,578.1 180,928.8 0,1137.4 -834,2085.1 -2009.3,2085.1 -1175.2,0 -1990.3,-928.8 -1990.3,-2085.1 0,-1137.3 834,-2085.1 2009.3,-2085.1 322.2,0 616.1,66.3 872,180.1 z m 1080.4,-957.3 c -559.2,-360.2 -1232.1,-568.7 -1971.4,-568.7 -2047.2,0 -3516.3,1526 -3516.3,3431 0,1886.1 1488.1,3431 3535.3,3431 2047.2,0 3516.3,-1525.9 3516.3,-3431 0,-691.9 -208.5,-1355.3 -587.7,-1905 l 682.5,-578.2 -928.9,-1033.1 -729.8,654"
         style="fill:#699ff0;fill-opacity:1;fill-rule:nonzero;stroke:none"
         transform="matrix(0.13333333,0,0,-0.13333333,0,2666.6667)" />
      <path
         id="path56"
         d="m 22171.5,7619.5 c 0,0 -111.9,-165.6 -175.7,-513.6 -55.8,-304.7 -104.8,-417.3 -185.5,-479.8 -80.7,-62.5 -530.3,-247 -530.3,-247 l 33.6,-78.8 c 0,0 659,89.8 733,199.9 74,110.2 356.2,760.9 334.3,910.8 -21.9,149.8 -209.4,208.5 -209.4,208.5"
         style="fill:#f4a269;fill-opacity:1;fill-rule:nonzero;stroke:none"
         transform="matrix(0.13333333,0,0,-0.13333333,0,2666.6667)" />
      <path
         id="path57"
         d="m 20341.7,4140.3 c -6.7,-64.2 -97.5,-62.1 -200.2,-46.9 -102.6,15.1 -76.1,-11.8 -220.4,-9.4 -144.3,2.5 -192.5,51.7 -198.9,72.6 -5.6,18.4 64.3,31.7 139.2,47.5 9.4,1.9 18.9,4 28.3,6.1 84.5,18.7 142,79.7 215.4,132.2 69.5,49.8 162.9,234.8 162.9,234.8 l 197.3,2.8 c 0,0 -88.2,-165.7 -121.6,-237.3 -19.7,-42.1 -13.5,-94.8 -6.8,-135.3 3.6,-22 7.2,-44.5 4.8,-67.1"
         style="fill:#ffb27d;fill-opacity:1;fill-rule:nonzero;stroke:none"
         transform="matrix(0.13333333,0,0,-0.13333333,0,2666.6667)" />
      <path
         id="path58"
         d="m 20141.5,4093.4 c -102.6,15.1 -76.1,-11.8 -220.4,-9.4 -144.3,2.5 -192.5,51.7 -198.9,72.6 -5.6,18.4 64.3,31.7 139.2,47.5 l 0.9,-1.4 c 0,0 91.3,-52.7 210.5,-44.5 97.1,6.7 197.1,44.1 264.1,49.2 3.6,-22 7.2,-44.5 4.8,-67.1 -6.7,-64.2 -97.5,-62.1 -200.2,-46.9"
         style="fill:#c65447;fill-opacity:1;fill-rule:nonzero;stroke:none"
         transform="matrix(0.13333333,0,0,-0.13333333,0,2666.6667)" />
      <path
         id="path59"
         d="m 22479.6,6272.7 c 0,0 -1293.4,-6.3 -1534.9,-158.7 -241.4,-152.4 -791,-1721.9 -791,-1721.9 0,0 42.8,-56.3 95.9,-63.6 85.3,-11.8 133.7,21.5 133.7,21.5 0,0 736.5,732.6 775.7,932.6 39.2,200.1 29.6,378.6 118.9,383.4 89.2,4.8 1201.9,-135.3 1370.2,161.2 168.3,296.5 29.2,590 29.2,590 l -197.7,-144.5"
         style="fill:#ef7e29;fill-opacity:1;fill-rule:nonzero;stroke:none"
         transform="matrix(0.13333333,0,0,-0.13333333,0,2666.6667)" />
      <path
         id="path60"
         d="m 21028.8,4169.9 c -1.4,-64.5 -92,-70 -195.6,-63.5 -103.5,6.5 -74.8,-18.1 -218.8,-27.7 -144,-9.6 -196.2,35.4 -204.3,55.6 -7.2,17.9 61.4,37 134.7,59 9.3,2.7 18.5,5.6 27.7,8.4 82.7,25.8 134.8,91.3 203.5,149.9 65.2,55.4 142.7,247.6 142.7,247.6 l 196.4,19.3 c 0,0 -74,-172.6 -101.3,-246.7 -16,-43.6 -5.5,-95.6 4.6,-135.4 5.4,-21.6 10.9,-43.7 10.4,-66.5"
         style="fill:#ffb27d;fill-opacity:1;fill-rule:nonzero;stroke:none"
         transform="matrix(0.13333333,0,0,-0.13333333,0,2666.6667)" />
      <path
         id="path61"
         d="m 20833.2,4106.4 c -103.5,6.5 -74.8,-18.1 -218.8,-27.7 -144,-9.6 -196.2,35.4 -204.3,55.6 -7.2,17.9 61.4,37 134.7,59 l 1,-1.3 c 0,0 95.4,-44.9 213.5,-26.7 96.2,14.8 192.8,60.4 259.1,71.1 5.4,-21.6 10.9,-43.7 10.4,-66.5 -1.4,-64.5 -92,-70 -195.6,-63.5"
         style="fill:#c65447;fill-opacity:1;fill-rule:nonzero;stroke:none"
         transform="matrix(0.13333333,0,0,-0.13333333,0,2666.6667)" />
      <path
         id="path62"
         d="m 22730.8,6193.2 c 0,0 -1139.3,-53.9 -1374.6,-215.6 -235.3,-161.6 -565.8,-1523.1 -565.8,-1523.1 0,0 49.5,-65.5 100.1,-83.6 64.2,-23 150.8,3 150.8,3 0,0 457.4,551.1 488.8,752.6 31.3,201.4 80.5,305 169.5,313.3 89,8.2 963.3,-162.5 1362.9,214.4 248,234 -331.7,539 -331.7,539"
         style="fill:#f99746;fill-opacity:1;fill-rule:nonzero;stroke:none"
         transform="matrix(0.13333333,0,0,-0.13333333,0,2666.6667)" />
      <path
         id="path63"
         d="m 22340.8,7710.6 c -22.1,38.8 -48.6,108.6 -67.7,234.8 2.5,-12.5 35.1,-171.1 102.7,-257.6 263.8,-149.2 680.7,-709.3 678.1,-814.9 0,0 256.1,339 258.9,341 0,0 288.1,421.3 -100.3,625.8 -197.4,103.9 -206.4,253.6 -207.2,384 -0.7,130.5 -97.7,685.9 -467.8,514.2 0,0 -62.8,23.1 -89.8,17.2 0,0 22.5,-2.8 34.7,-13.8 -44.2,-0.3 -107,-7.7 -157.6,-41.1 -134,-88.4 -211.2,-806.8 16,-989.6"
         style="fill:#b5453c;fill-opacity:1;fill-rule:nonzero;stroke:none"
         transform="matrix(0.13333333,0,0,-0.13333333,0,2666.6667)" />
      <path
         id="path64"
         d="m 22778.7,7810.2 c 0,0 -106.1,10 -212.2,0 -72.1,-6.9 -143.5,-29.3 -184.1,-46.3 -100.4,-41.9 -89.9,-219.7 120.8,-186.8 210.7,32.9 290.3,180.3 275.5,233.1"
         style="fill:#ffb27d;fill-opacity:1;fill-rule:nonzero;stroke:none"
         transform="matrix(0.13333333,0,0,-0.13333333,0,2666.6667)" />
      <path
         id="path65"
         d="m 22391.3,7680.5 c -1.3,-0.6 -30.1,-152.9 107.9,-146.8 90.5,4 285.8,113.5 268.6,191.1 -8.2,36.9 -76.6,132.5 -90.4,350.7 l -16.5,-4.4 -277.2,-74.3 c 0,0 12.3,-88 18,-171.2 4.9,-70 5.1,-136.6 -10.4,-145.1"
         style="fill:#ffb27d;fill-opacity:1;fill-rule:nonzero;stroke:none"
         transform="matrix(0.13333333,0,0,-0.13333333,0,2666.6667)" />
      <path
         id="path66"
         d="m 22383.7,7996.8 c 0,0 12.3,-88 18,-171.2 156.9,14.9 230.5,163.8 259.2,245.5 l -277.2,-74.3"
         style="fill:#f4a269;fill-opacity:1;fill-rule:nonzero;stroke:none"
         transform="matrix(0.13333333,0,0,-0.13333333,0,2666.6667)" />
      <path
         id="path67"
         d="m 22687.9,8103.7 c 0,0 73.7,135.6 86,248.2 8.8,80.4 -51.3,372.2 -344.4,310.1 0,0 -85.4,-14.2 -162.5,-74.2 -61.4,-47.7 -147.9,-147.5 -27.1,-397.6 l 32.7,-85.1 415.3,-1.4"
         style="fill:#b5453c;fill-opacity:1;fill-rule:nonzero;stroke:none"
         transform="matrix(0.13333333,0,0,-0.13333333,0,2666.6667)" />
      <path
         id="path68"
         d="m 22336.5,7914.4 c 0,0 372.3,18.7 357.1,250.4 -15.2,231.7 22.6,390.1 -215.7,388 -238.4,-2.1 -278.7,-93.6 -292.5,-172.1 -13.7,-78.6 53.8,-465.1 151.1,-466.3"
         style="fill:#ffb27d;fill-opacity:1;fill-rule:nonzero;stroke:none"
         transform="matrix(0.13333333,0,0,-0.13333333,0,2666.6667)" />
      <path
         id="path69"
         d="m 22308.1,8547.2 c 0,0 120,-265 278.9,-294.8 159,-29.8 224,16.6 224,16.6 0,0 -126.3,87.2 -162.2,251.8 0,0 -272.5,160.8 -340.7,26.4"
         style="fill:#b5453c;fill-opacity:1;fill-rule:nonzero;stroke:none"
         transform="matrix(0.13333333,0,0,-0.13333333,0,2666.6667)" />
      <path
         id="path70"
         d="m 22334.8,8526.8 c 0,0 -72,-65.8 -86.6,-126 -14.6,-60.2 -14.8,-182.2 -50.5,-180.5 0,0 -89,179.7 -9.8,289.9 84.1,116.9 146.9,16.6 146.9,16.6"
         style="fill:#b5453c;fill-opacity:1;fill-rule:nonzero;stroke:none"
         transform="matrix(0.13333333,0,0,-0.13333333,0,2666.6667)" />
      <path
         id="path71"
         d="m 21964,6253.3 c 30.1,-36 124.2,-47.1 224.7,-63.6 79.1,-13.1 162.2,-29.5 221.3,-64.2 134.2,-78.8 572.7,-345.1 701.3,-333 49.8,4.7 40.5,99.8 10.3,226 -47.5,199.4 -147,476.1 -147,596.5 0,65.7 -21.8,221.1 -51,398.8 -2.4,14.4 -4.8,28.8 -7.2,43.4 -57.8,345.5 -137.7,752.9 -137.7,752.9 0,0 -89.2,-194.5 -262.9,-194.5 -173.8,0 -133.4,148.3 -133.4,148.3 0,0 -158.6,-18.6 -196,-59 -37.5,-40.3 -132.5,-214.7 -151.3,-262.3 0,0 -3.9,-60.5 146,-89.3 0,0 -36.5,-164.3 -40.8,-273.8 -3.3,-80.9 55.2,-334.1 72,-491.6 5.9,-55.8 6.7,-99.5 -2.4,-119.4 -11.6,-25.4 -49.1,-50.8 -91.7,-75.6 -84.7,-49.3 -190,-96.8 -154.2,-139.6"
         style="fill:#2b478b;fill-opacity:1;fill-rule:nonzero;stroke:none"
         transform="matrix(0.13333333,0,0,-0.13333333,0,2666.6667)" />
      <path
         id="path72"
         d="m 22118.2,6392.9 c -96.2,-164 260.8,-213.3 319.9,-248 134.2,-78.8 544.6,-364.5 673.2,-352.4 49.8,4.7 40.5,99.8 10.3,226 -47.5,199.4 -147,476.1 -147,596.5 0,65.7 -21.8,221.1 -51,398.8 l -154.7,148.6 c 0,0 -165.8,-428.5 -323.8,-498.7 -82.8,-36.7 -169.3,-61 -232.8,-75.8 5.9,-55.8 6.7,-99.5 -2.4,-119.4 -11.6,-25.4 -49.1,-50.8 -91.7,-75.6"
         style="fill:#233862;fill-opacity:1;fill-rule:nonzero;stroke:none"
         transform="matrix(0.13333333,0,0,-0.13333333,0,2666.6667)" />
      <path
         id="path73"
         d="m 22826.2,7681.9 c 0,0 132.3,80.3 260.2,-72.1 127.9,-152.3 -90.9,-1241.6 -280.4,-1297.5 -210.5,-62.2 -818.5,9.9 -818.5,9.9 l 11.7,95 c 0,0 647.3,124.1 674.2,158.7 26.9,34.6 85.6,1088.4 152.8,1106"
         style="fill:#ffb27d;fill-opacity:1;fill-rule:nonzero;stroke:none"
         transform="matrix(0.13333333,0,0,-0.13333333,0,2666.6667)" />
      <path
         id="path74"
         d="m 22778.7,7810.2 c 0,0 271.6,-24.6 350.5,-113.9 78.9,-89.3 102,-331.4 102,-331.4 0,0 -239.3,-193.2 -527.5,-118.2 l 75,563.5"
         style="fill:#2b478b;fill-opacity:1;fill-rule:nonzero;stroke:none"
         transform="matrix(0.13333333,0,0,-0.13333333,0,2666.6667)" />
      <path
         id="path75"
         d="m 22052,6422.9 c 0,0 -210.8,40.8 -234.6,30.6 -23.7,-10.2 -156.3,-129.2 -142.7,-153 13.6,-23.8 68,-40.8 129.1,-20.4 61.2,20.4 193.8,30.6 217.6,61.2 23.8,30.6 30.6,81.6 30.6,81.6"
         style="fill:#ffb27d;fill-opacity:1;fill-rule:nonzero;stroke:none"
         transform="matrix(0.13333333,0,0,-0.13333333,0,2666.6667)" />
      <path
         id="path76"
         d="m 21882.4,6147.7 h 358.8 v 42.4 h -358.8 v -42.4"
         style="fill:#9e332e;fill-opacity:1;fill-rule:nonzero;stroke:none"
         transform="matrix(0.13333333,0,0,-0.13333333,0,2666.6667)" />
      <path
         id="path77"
         d="m 21958.6,6153.5 c -3.5,14 -329.8,526.4 -329.8,526.4 h -726.1 l 364.2,-512.7 691.7,-13.7"
         style="fill:#9e332e;fill-opacity:1;fill-rule:nonzero;stroke:none"
         transform="matrix(0.13333333,0,0,-0.13333333,0,2666.6667)" />
      <path
         id="path78"
         d="m 21928,6147.7 c -3.5,14 -330.9,532.2 -330.9,532.2 h -694.4 l 346.5,-532.2 h 678.8"
         style="fill:#b5453c;fill-opacity:1;fill-rule:nonzero;stroke:none"
         transform="matrix(0.13333333,0,0,-0.13333333,0,2666.6667)" />
      <path
         id="path79"
         d="m 21315.8,6412.1 c 7.2,-20.8 29.8,-37.6 50.6,-37.6 20.7,0 31.8,16.8 24.6,37.6 -7.1,20.7 -29.8,37.6 -50.5,37.6 -20.8,0 -31.8,-16.9 -24.7,-37.6"
         style="fill:#9e332e;fill-opacity:1;fill-rule:nonzero;stroke:none"
         transform="matrix(0.13333333,0,0,-0.13333333,0,2666.6667)" />
      <path
         id="path80"
         d="m 27008.2,7929.8 c 0,0 173.2,-98.5 221.7,-98.5 48.5,0 238.9,36.8 291.9,9.7 53.1,-27.1 149.1,-136.2 167.2,-171.8 32.4,-64.1 -130.5,-35.8 -207.5,18.8 -11.1,7.9 -25,10.8 -38.4,7.9 -39.9,-8.7 -122.7,-23.7 -162.7,-8.9 -53.8,19.9 -337.1,42 -337.1,42 l 64.9,200.8"
         style="fill:#ea9963;fill-opacity:1;fill-rule:nonzero;stroke:none"
         transform="matrix(0.13333333,0,0,-0.13333333,0,2666.6667)" />
      <path
         id="path81"
         d="m 25690.2,9271.4 c 0,0 179.6,-1276.3 477,-1390.6 146.7,-56.4 795.1,-184.3 986.9,-197.2 0,0 47,38.2 35.6,193.3 0,0 -679.4,249.4 -775.9,385.1 -143.6,201.8 89.2,824.7 -91.1,1014.3 -180.2,189.6 -483.8,271 -632.5,-4.9"
         style="fill:#ed7d2b;fill-opacity:1;fill-rule:nonzero;stroke:none"
         transform="matrix(0.13333333,0,0,-0.13333333,0,2666.6667)" />
      <path
         id="path82"
         d="m 25750.8,6582.4 c 52.3,-88.8 112.9,-172.1 175.4,-250.9 193,-243.7 403.1,-444.6 439.7,-634.5 7.2,-37.8 18.8,-78.6 33.9,-121.5 15.3,-43.5 34.2,-89.3 56,-136.6 81.9,-177.9 204.4,-377.2 326.7,-558.4 211.4,-313.3 410.2,-574.7 410.2,-574.7 l 364.5,15.6 c -14.6,36.5 -173.6,469 -386.3,997.6 -86.4,214.6 -178.2,442.8 -266.8,662.9 -11.8,29.4 -23.6,58.7 -35.3,87.7 -27.1,67.4 -53.8,133.7 -79.8,198.2 -199.7,496.3 -358.8,891.5 -358.8,891.5 0,0 -798.3,302.4 -881.2,106.5 -68.3,-161.6 -12.6,-319.8 201.8,-683.4"
         style="fill:#233862;fill-opacity:1;fill-rule:nonzero;stroke:none"
         transform="matrix(0.13333333,0,0,-0.13333333,0,2666.6667)" />
      <path
         id="path83"
         d="m 27204,4372.1 c 0,0 18.7,-300.8 76.9,-305.1 7.7,-0.6 295.2,-0.6 295.2,-0.6 l 366.9,2.1 c 0,0 -2.4,88.5 -109.6,107.2 -107.3,18.6 -286.8,94 -351.8,235.8 -68.4,149.1 -277.6,-39.4 -277.6,-39.4"
         style="fill:#163560;fill-opacity:1;fill-rule:nonzero;stroke:none"
         transform="matrix(0.13333333,0,0,-0.13333333,0,2666.6667)" />
      <path
         id="path84"
         d="m 25908.7,5318.2 c 0,0 -272.5,-128.9 -254.9,-184.6 2.4,-7.4 109,-274.3 109,-274.3 l 138.2,-339.9 c 0,0 81.2,35 58.8,141.5 -22.5,106.6 -19.1,301.3 88.4,414.2 113.1,118.8 -139.5,243.1 -139.5,243.1"
         style="fill:#163560;fill-opacity:1;fill-rule:nonzero;stroke:none"
         transform="matrix(0.13333333,0,0,-0.13333333,0,2666.6667)" />
      <path
         id="path85"
         d="m 26005.8,5018 c 0,0 -153,154.8 -180.9,257.3 0,0 526.3,511.5 714.4,635.7 216,142.5 356.2,143.3 321.6,178.3 -113.6,114.4 -1067.5,448.1 -1222.8,689.7 -53.5,83.3 -83.8,162.3 -100.3,231.3 -35.2,147.5 -7.4,249.3 -7.4,249.3 l 1186.6,34.3 c 0,0 882.2,-915.1 877.2,-1259.5 C 27588.7,5662.1 26005.8,5018 26005.8,5018"
         style="fill:#2b478b;fill-opacity:1;fill-rule:nonzero;stroke:none"
         transform="matrix(0.13333333,0,0,-0.13333333,0,2666.6667)" />
      <path
         id="path86"
         d="m 26392.3,9351.8 c -240.1,-62 -638,160.4 -638,160.4 0,0 154.5,103.8 211.8,332 2.9,11.4 5.5,23.2 7.8,35.3 25.2,5.4 72.6,15.4 123.3,26.2 l 183.4,-164.3 c 0,0 -4.2,-68.2 -27.2,-185.4 -3.9,-20.5 -8.5,-42.4 -13.8,-65.8 98.4,-61 152.7,-138.4 152.7,-138.4"
         style="fill:#ffb27d;fill-opacity:1;fill-rule:nonzero;stroke:none"
         transform="matrix(0.13333333,0,0,-0.13333333,0,2666.6667)" />
      <path
         id="path87"
         d="m 25500.1,8356.8 c 34.4,-462.4 -10.8,-1165.7 28.2,-1287.5 33.7,-105.1 417.2,-42.6 570.3,-7.5 56.7,13 125.3,31.5 196.2,53.4 197.7,61.3 413.2,148.7 436.3,213.6 0.9,2.5 1.7,5 2.1,7.5 2.2,9.4 1.7,18.2 -0.4,27.2 -7.7,33 -37.4,68.8 -40.9,150.7 -3.9,91.5 -3.3,199.2 -6.7,315 -0.2,13.1 -0.4,27.3 -1.8,40.3 l -0.1,4.7 c 0,2.5 -0.1,4.9 -0.2,7.4 -3.3,129.2 -10,265 -17.9,399.6 -4.9,84.6 -10.7,168.4 -17.3,248.6 -17.3,207.2 -40.5,391.4 -71.3,507.8 -50.2,189.9 -161.1,313.7 -261.9,404.5 l -73,62.5 c -81.4,-17.7 -177.7,-5.9 -264.8,35.3 -94.2,44.8 -126.8,76.8 -143.2,64.7 -217.6,-167.9 -374.1,-682.4 -333.6,-1247.8"
         style="fill:#f99746;fill-opacity:1;fill-rule:nonzero;stroke:none"
         transform="matrix(0.13333333,0,0,-0.13333333,0,2666.6667)" />
      <path
         id="path88"
         d="m 26294.8,7115.2 c 197.7,61.3 413.2,148.7 436.3,213.6 0.9,2.5 1.7,5 2.1,7.5 -0.1,9 -0.2,18.1 -0.4,27.2 -7.7,33 -37.4,68.8 -40.9,150.7 -3.9,91.5 -3.3,199.2 -6.7,315 -0.2,13.1 -0.4,27.3 -1.8,40.3 l -0.1,4.7 c 0,2.5 -0.1,4.9 -0.2,7.4 L 25883.8,8900 c 0,0 -537.3,-1118.9 411,-1784.8"
         style="fill:#ed7d2b;fill-opacity:1;fill-rule:nonzero;stroke:none"
         transform="matrix(0.13333333,0,0,-0.13333333,0,2666.6667)" />
      <path
         id="path89"
         d="m 26280.6,9741.4 c 0,0 -4.2,-68.2 -27.2,-185.4 -179,57.8 -260.2,219.6 -287.3,288.2 2.9,11.4 5.5,23.2 7.8,35.3 25.2,5.4 72.6,15.4 123.3,26.2 l 183.4,-164.3"
         style="fill:#ea9963;fill-opacity:1;fill-rule:nonzero;stroke:none"
         transform="matrix(0.13333333,0,0,-0.13333333,0,2666.6667)" />
      <path
         id="path90"
         d="m 26304.6,9638 c 0,0 -390.4,65.2 -346.1,307.7 44.3,242.5 23.8,414.3 275,382.9 251.1,-31.3 282.5,-132.7 287.4,-217.2 4.9,-84.6 -113.5,-484.1 -216.3,-473.4"
         style="fill:#ffb27d;fill-opacity:1;fill-rule:nonzero;stroke:none"
         transform="matrix(0.13333333,0,0,-0.13333333,0,2666.6667)" />
      <path
         id="path91"
         d="m 27841.5,7562.9 34.5,-11.2 292.9,901.6 -34.4,11.2 -293,-901.6"
         style="fill:#4a75cb;fill-opacity:1;fill-rule:nonzero;stroke:none"
         transform="matrix(0.13333333,0,0,-0.13333333,0,2666.6667)" />
      <path
         id="path92"
         d="m 26882.7,7632.5 994.5,-21.3 -1.2,-59.5 -994.6,21.3 1.3,59.5"
         style="fill:#4a75cb;fill-opacity:1;fill-rule:nonzero;stroke:none"
         transform="matrix(0.13333333,0,0,-0.13333333,0,2666.6667)" />
      <path
         id="path93"
         d="m 26901.3,7525.5 c 0,0 319.6,-84.3 439.4,-75.4 119.9,8.8 219.5,65.8 234.6,95.6 15.1,29.7 46.8,82.5 -34.8,72.7 -81.6,-9.7 -193,-27 -196.4,-11.4 -3.5,15.7 66.5,14.2 66.5,14.2 0,0 21.1,30.8 -5.5,31.9 -26.6,1.1 -104.3,22.2 -133.2,7.7 -28.8,-14.4 -55.5,-67.6 -76.5,-65.4 -21.1,2.2 -267.5,110.9 -267.5,110.9 l -26.6,-180.8"
         style="fill:#ffb27d;fill-opacity:1;fill-rule:nonzero;stroke:none"
         transform="matrix(0.13333333,0,0,-0.13333333,0,2666.6667)" />
      <path
         id="path94"
         d="m 25769.5,9219 c 0,0 37.8,-1288.3 320.7,-1434.7 139.6,-72.3 770,-270.8 959.2,-304.7 0,0 50.9,32.7 56.6,188.1 0,0 -647.7,322.8 -728.7,468.3 -120.5,216.5 179.6,809.8 21.4,1018.1 -158.3,208.3 -451,322.8 -629.2,64.9"
         style="fill:#f99746;fill-opacity:1;fill-rule:nonzero;stroke:none"
         transform="matrix(0.13333333,0,0,-0.13333333,0,2666.6667)" />
      <path
         id="path95"
         d="m 25966.1,9844.2 c 0,0 -4.5,83.2 46.8,130.8 0,0 -17.8,83.5 15.2,97.2 33,13.8 39.9,-56.4 55,-45.4 15.1,11 82.5,63.3 111.4,140.3 28.9,77 293.2,-16.3 324,-30.1 30.8,-13.9 129.8,37 149,78.2 0,0 -55,44 -79.7,77.1 -24.8,33 -198.1,255.7 -440.1,192.5 -242,-63.3 -275,-178.8 -261.3,-277.8 13.8,-99 -19.4,-329.6 79.7,-362.8"
         style="fill:#2b478b;fill-opacity:1;fill-rule:nonzero;stroke:none"
         transform="matrix(0.13333333,0,0,-0.13333333,0,2666.6667)" />
      <path
         id="path96"
         d="m 18494.9,8962.7 c -26.6,-71.4 -72.6,-154.3 -120.9,-174.9 -54.8,-23.3 -77.6,-56.3 -77.6,-56.3 l -44.3,25.6 -52.8,30.7 c 0,0 1.3,5.9 3.8,15.5 2.6,9.5 6.6,22.7 11.9,37.4 0,0 16.2,20.8 6.3,47 -9.9,26.1 -8,66.5 9,91.2 16.9,24.6 33.3,85.2 43.5,83.4 24.7,-4.2 -12.2,-87.6 -1.6,-103.1 9.6,-13.9 21.5,-9.1 23.7,-8.1 0.2,0.1 0.3,0.2 0.5,0.3 69.3,30.4 153.3,194.7 190.5,172.5 13.9,-8.3 19.3,-130.8 8,-161.2"
         style="fill:#ffb27d;fill-opacity:1;fill-rule:nonzero;stroke:none"
         transform="matrix(0.13333333,0,0,-0.13333333,0,2666.6667)" />
      <path
         id="path97"
         d="m 18255.1,8863.3 86.8,-61 c 6.2,-4.3 14.7,-2.8 19,3.3 l 222.4,316.4 c 4.3,6.1 2.8,14.7 -3.3,19 l -86.8,61 c -6.2,4.3 -14.7,2.8 -19,-3.3 l -222.4,-316.4 c -4.3,-6.2 -2.8,-14.7 3.3,-19"
         style="fill:#2b478b;fill-opacity:1;fill-rule:nonzero;stroke:none"
         transform="matrix(0.13333333,0,0,-0.13333333,0,2666.6667)" />
      <path
         id="path98"
         d="m 18334.6,8807.4 50.9,-35.7 c 4.7,-3.3 11.2,-2.2 14.4,2.5 l 226.2,321.7 c 3.2,4.7 2.1,11.2 -2.6,14.5 l -50.9,35.7 c -4.6,3.3 -11.1,2.2 -14.4,-2.5 l -226.1,-321.7 c -3.3,-4.7 -2.2,-11.2 2.5,-14.5"
         style="fill:#233862;fill-opacity:1;fill-rule:nonzero;stroke:none"
         transform="matrix(0.13333333,0,0,-0.13333333,0,2666.6667)" />
      <path
         id="path99"
         d="m 17009.8,9317.3 c 0,0 441.7,-770.4 602,-912.2 l 587.5,438.1 c 0,0 85.3,-26.1 122.6,-111.7 0,0 -356.8,-727 -708.1,-757.8 -351.3,-30.8 -844.4,871.3 -844.4,871.3 l 240.4,472.3"
         style="fill:#233862;fill-opacity:1;fill-rule:nonzero;stroke:none"
         transform="matrix(0.13333333,0,0,-0.13333333,0,2666.6667)" />
      <path
         id="path100"
         d="M 16010.3,4077.4 H 15755 c -32.1,17.4 -60.7,57.3 -69.8,116.9 -12.4,82.2 -104.6,127 -124.5,194.3 -19.9,67.2 82.2,161.9 82.2,161.9 l 17.1,22 17.8,22.9 169.3,-39.9 c 0,0 4.2,-40.4 6.8,-91.8 1.8,-37 2.8,-79.9 0.7,-117.5 -5,-89.6 25.1,-186.2 104.8,-203.7 58.9,-12.8 56.3,-47.8 50.9,-65.1"
         style="fill:#233862;fill-opacity:1;fill-rule:nonzero;stroke:none"
         transform="matrix(0.13333333,0,0,-0.13333333,0,2666.6667)" />
      <path
         id="path101"
         d="m 17491.4,4077.4 h -583.7 c -28,34.2 -17.7,160.6 -13.4,201.9 0.8,8.3 1.4,13.2 1.4,13.2 0,0 199.3,159.4 226.7,37.3 0.9,-3.8 1.9,-7.6 3,-11.3 34.5,-114.1 189.2,-166 278.5,-180.5 58.1,-9.4 79.5,-39.6 87.5,-60.6"
         style="fill:#233862;fill-opacity:1;fill-rule:nonzero;stroke:none"
         transform="matrix(0.13333333,0,0,-0.13333333,0,2666.6667)" />
      <path
         id="path102"
         d="m 17380.2,7335.2 c 0,0 -30.3,-377.6 -65.8,-831.4 -48.4,-616.6 -106.5,-1373.9 -112.3,-1517.4 -9.9,-249.1 -49.8,-647.6 -49.8,-647.6 0,0 -94.6,-94.7 -284,-54.8 0,0 -168.7,568.9 -216.9,1170.8 -0.7,9.8 -1.5,19.8 -2.2,29.7 -44.9,612.8 -114.6,1903 -114.6,1903 l 845.6,-52.3"
         style="fill:#f99746;fill-opacity:1;fill-rule:nonzero;stroke:none"
         transform="matrix(0.13333333,0,0,-0.13333333,0,2666.6667)" />
      <path
         id="path103"
         d="m 17380.2,7335.2 c 0,0 -30.3,-377.6 -65.8,-831.4 l -663,-1049 c -0.7,9.8 -1.5,19.8 -2.2,29.7 -44.9,612.8 -114.6,1903 -114.6,1903 l 845.6,-52.3"
         style="fill:#ed7d2b;fill-opacity:1;fill-rule:nonzero;stroke:none"
         transform="matrix(0.13333333,0,0,-0.13333333,0,2666.6667)" />
      <path
         id="path104"
         d="m 17242,7290.4 c 0,0 -545.5,-1367.5 -904.2,-2010.1 -358.6,-642.6 -470.7,-822 -470.7,-822 0,0 -205.5,82.2 -224.2,138.3 0,0 137.1,1240.6 377.3,1543 135.8,170.9 295.2,683.7 302.7,863.1 7.5,179.3 48.5,534.3 48.5,534.3 l 870.6,-246.6"
         style="fill:#f99746;fill-opacity:1;fill-rule:nonzero;stroke:none"
         transform="matrix(0.13333333,0,0,-0.13333333,0,2666.6667)" />
      <path
         id="path105"
         d="m 17106.2,9283.8 c -213.2,-67.2 -582,114.3 -582,114.3 0,0 196.5,147.5 186.2,454.2 l 164.9,-132.8 111.9,-90.3 c 0,0 -0.4,-53.1 -12.7,-146.4 -3.2,-24.5 -7.2,-51.8 -12.3,-81.7 91.5,-50.2 144,-117.3 144,-117.3"
         style="fill:#ffb27d;fill-opacity:1;fill-rule:nonzero;stroke:none"
         transform="matrix(0.13333333,0,0,-0.13333333,0,2666.6667)" />
      <path
         id="path106"
         d="m 16987.2,9629.2 c 0,0 -0.4,-53.1 -12.7,-146.4 -124,21.3 -264.8,221.8 -264.8,221.8 63.2,18.3 118.5,21.5 165.6,14.9 l 111.9,-90.3"
         style="fill:#ed975d;fill-opacity:1;fill-rule:nonzero;stroke:none"
         transform="matrix(0.13333333,0,0,-0.13333333,0,2666.6667)" />
      <path
         id="path107"
         d="m 17052.4,9634.3 c 0,0 -352.1,-58.5 -385.1,161.3 -33.1,219.8 -100.8,360.3 122.6,407 223.4,46.6 279.8,-30.7 308.7,-101.4 28.9,-70.6 44.5,-446 -46.2,-466.9"
         style="fill:#ffb27d;fill-opacity:1;fill-rule:nonzero;stroke:none"
         transform="matrix(0.13333333,0,0,-0.13333333,0,2666.6667)" />
      <path
         id="path108"
         d="m 17403.7,7303.8 c -6.4,-5.4 -13.9,-8.6 -22.4,-8.6 -80,1.1 -313.5,-43.4 -511,-23.1 -166.5,16 -313.9,65.3 -472.1,136.3 -21,9.4 -69.4,35.2 -68.3,58.7 0.7,25.7 3.2,63 6.4,110 11.2,163.4 30.8,444.4 11.7,768.5 -3.4,60.4 -5.2,120.2 -5.4,179.2 -1.6,439.3 85.5,825.7 260.5,956.5 15,10.7 106.8,-34.1 191.1,-75.7 77.9,-38.5 155.9,-42.7 229.5,-27.8 l 73.6,-65.1 c 89.7,-83.3 187.9,-196.4 230.6,-368.3 36.3,-146.2 57.6,-409.9 69.4,-683.1 5.3,-123.9 9.6,-248.8 10.7,-367.3 v -4.2 c 1,-11.7 1,-24.6 1,-36.3 4.3,-304.2 0,-545.4 -5.3,-549.7"
         style="fill:#2b478b;fill-opacity:1;fill-rule:nonzero;stroke:none"
         transform="matrix(0.13333333,0,0,-0.13333333,0,2666.6667)" />
      <path
         id="path109"
         d="m 16336.3,7577.1 c 11.2,163.4 30.8,444.4 11.7,768.5 -3.4,60.4 -5.2,120.2 -5.4,179.2 72.9,176.9 132.5,305.2 132.5,305.2 h 183.8 c 0,0 134.8,-920.5 -322.6,-1252.9"
         style="fill:#233862;fill-opacity:1;fill-rule:nonzero;stroke:none"
         transform="matrix(0.13333333,0,0,-0.13333333,0,2666.6667)" />
      <path
         id="path110"
         d="m 15394.8,6534 783.9,-111.7 c 102.1,-14.6 197.4,57 212,159 l 48.4,339.7 c 14.5,102.1 -57.1,197.4 -159.1,212 l -783.9,111.7 c -102,14.5 -197.4,-57.1 -211.9,-159.1 l -48.4,-339.7 c -14.6,-102 57,-197.4 159,-211.9"
         style="fill:#233862;fill-opacity:1;fill-rule:nonzero;stroke:none"
         transform="matrix(0.13333333,0,0,-0.13333333,0,2666.6667)" />
      <path
         id="path111"
         d="m 15712,7289.6 c 1.4,10.3 9.5,18 19.2,19.6 2.3,0.4 4.6,0.4 7,0.1 l 34.8,-4.9 129,-18.5 70.3,-10 c 12.7,-1.8 21.5,-13.6 19.7,-26.2 l -10.5,-73.3 -280,40 z m 612.3,-257.9 v 0 c -22,55.2 -69.6,98.7 -129.9,113.5 v 0 c -0.1,0 -0.1,0 -0.2,0 -5.9,1.4 -11.9,2.7 -18.1,3.5 l -156.1,22.2 10.5,73.3 c 2.3,16.4 -1.9,32.7 -11.8,46 -10,13.3 -24.6,21.9 -40.9,24.2 l -40.7,5.8 -163.9,23.4 -29.6,4.2 c -33.8,4.8 -65.3,-18.8 -70.1,-52.7 l -10.5,-73.3 -269.4,38.4 c -102.4,14.6 -198.1,-57.2 -212.7,-159.6 l -49,-343.7 c -14.6,-102.4 57.3,-198.1 159.7,-212.7 l 782.5,-111.5 c 13.8,-2 27.4,-2.4 40.8,-1.3 v 0 c 0.1,0 0.1,0 0.1,0 21.4,1.6 42,6.9 61.1,15.4 57.5,25.4 101.2,79 110.7,145.6 l 49,343.6 c 4.7,33.5 0.3,66.2 -11.5,95.7"
         style="fill:#2b478b;fill-opacity:1;fill-rule:nonzero;stroke:none"
         transform="matrix(0.13333333,0,0,-0.13333333,0,2666.6667)" />
      <path
         id="path112"
         d="m 15990.9,7545.5 c 0,0 -41.1,-54.8 -42.8,-76.8 -11,-148.5 56.8,-169 -118.9,-251.5 0,0 -75,-28.6 -76.2,29.6 -1.3,58.2 52,59.2 42.3,140.7 -11.3,94 -10.1,94.9 51.6,144 l 40.8,67.6 103.2,-53.6"
         style="fill:#ffb27d;fill-opacity:1;fill-rule:nonzero;stroke:none"
         transform="matrix(0.13333333,0,0,-0.13333333,0,2666.6667)" />
      <path
         id="path113"
         d="m 15886.3,7503.5 c 66.1,-12.9 137.9,-7.7 137.9,-7.7 0,0 196.5,607 221.8,662.4 25.3,55.5 583.6,711.8 583.6,711.8 l -232.6,582.1 c 0,0 -603.9,-1008.8 -665.2,-1150.5 -101.4,-234.3 -136.5,-759.5 -136.5,-759.5 0,0 39,-28.5 91,-38.6"
         style="fill:#2b478b;fill-opacity:1;fill-rule:nonzero;stroke:none"
         transform="matrix(0.13333333,0,0,-0.13333333,0,2666.6667)" />
      <path
         id="path114"
         d="m 16667,9816.8 c 0,0 36.1,6 30.3,55.8 -5.9,49.8 -5.8,114.8 34.7,102.7 40.5,-12.1 42.5,-44.5 59.1,-25.6 16.6,18.9 16.9,98.6 137.3,104.2 120.4,5.5 169.3,-36.4 225.3,-11.8 56,24.6 59,109.4 59,109.4 0,0 -16,-30.3 -40,-39.9 0,0 93.4,127.7 -14.8,215.3 -108.1,87.6 -218.4,30.3 -280.9,26.5 -137.9,-8.3 -227,-16.6 -272,-107.2 -45.1,-90.6 -26.5,-342.2 62,-429.4"
         style="fill:#2b478b;fill-opacity:1;fill-rule:nonzero;stroke:none"
         transform="matrix(0.13333333,0,0,-0.13333333,0,2666.6667)" />
      <path
         id="path115"
         d="m 15926,7480.2 c 0,0 39.6,-41.3 42.1,-58.5 8.1,-55.2 26.5,-79.1 17.3,-85.1 -19.2,-12.4 -44.6,28.4 -56.8,65.1 -12.1,36.6 -2.6,78.5 -2.6,78.5"
         style="fill:#ffb27d;fill-opacity:1;fill-rule:nonzero;stroke:none"
         transform="matrix(0.13333333,0,0,-0.13333333,0,2666.6667)" />
      <path
         id="path116"
         d="M 30776.8,4003.8 H 2365.11 c -18.27,0 -33.22,15 -33.22,33.3 v 13.6 c 0,18.2 14.95,33.2 33.22,33.2 H 30776.8 c 18.3,0 33.2,-15 33.2,-33.2 v -13.6 c 0,-18.3 -14.9,-33.3 -33.2,-33.3"
         style="fill:#2e3552;fill-opacity:1;fill-rule:nonzero;stroke:none"
         transform="matrix(0.13333333,0,0,-0.13333333,0,2666.6667)" />
      <path
         id="path117"
         d="m 9288.12,11219.7 c 117.27,-217.6 272.34,-326.8 272.34,-326.8 H 10206 c 0,0 -1007.34,492.8 -917.88,326.8"
         style="fill:#233862;fill-opacity:1;fill-rule:nonzero;stroke:none"
         transform="matrix(0.13333333,0,0,-0.13333333,0,2666.6667)" />
      <path
         id="path118"
         d="m 9737.71,9548.4 c 16.25,-19.7 17.81,-41.2 8.88,-64 -0.01,-0.1 -0.07,-0.2 -0.17,-0.3 -16.53,-42 -68.58,-88 -128.83,-133.8 -7.7,-5.9 -14.55,-11.2 -20.53,-16.2 -1.57,-1.3 -3.14,-2.6 -4.61,-3.9 -1.22,-1 -2.4,-2.1 -3.56,-3 -56.36,-49.2 -35.99,-61.4 -137.57,-161.5 -115.82,-114.2 -193.42,-114.2 -215.19,-102.9 -18.42,9.6 21.19,70.7 65.11,139.5 2.13,3.3 4.22,6.6 6.4,10 5.85,9.1 11.67,18.4 17.48,27.6 51.53,82.7 39.95,122.5 31.69,247.9 -6.71,102 -142.7,572.4 -142.7,572.4 l 216.85,31.3 c 0,0 54.88,-373.2 124.94,-432.3 37.47,-31.5 80.32,-33.1 116.51,-56.7 2.57,-1.6 5.07,-3.3 7.53,-5 20.54,-14.5 41.46,-29.3 57.77,-49.1"
         style="fill:#ffb27d;fill-opacity:1;fill-rule:nonzero;stroke:none"
         transform="matrix(0.13333333,0,0,-0.13333333,0,2666.6667)" />
      <path
         id="path119"
         d="m 9737.71,9548.4 c 16.25,-19.7 17.81,-41.2 8.88,-64 -0.01,-0.1 -0.07,-0.2 -0.17,-0.3 -19.97,-41.9 -70.74,-87.7 -129.02,-133.3 -7.61,-6 -14.34,-11.5 -20.34,-16.7 -1.57,-1.3 -3.14,-2.6 -4.61,-3.9 -1.22,-1 -2.4,-2.1 -3.56,-3 -56.36,-49.2 -35.99,-61.4 -137.57,-161.5 -115.82,-114.2 -193.42,-114.2 -215.19,-102.9 -18.42,9.6 21.19,70.7 65.11,139.5 22.15,7.4 125.12,46 204.8,142.4 70.18,84.7 118.44,194.7 166.37,257.8 2.57,-1.6 5.07,-3.3 7.53,-5 20.54,-14.5 41.46,-29.3 57.77,-49.1"
         style="fill:#233862;fill-opacity:1;fill-rule:nonzero;stroke:none"
         transform="matrix(0.13333333,0,0,-0.13333333,0,2666.6667)" />
      <path
         id="path120"
         d="m 8000.96,9730.6 c -15.14,-66.2 -109.8,-52.5 -215.2,-23.7 -105.4,28.8 -81.02,-2.7 -231.57,18.1 -150.55,20.9 -194.76,78.4 -198.76,101 -3.57,20 71.23,25 151.51,32.1 10.1,0.8 20.24,1.8 30.38,2.8 90.68,8.8 158.44,65.3 241.82,111 78.98,43.2 200.03,224.9 200.03,224.9 l 206.65,-22.1 c 0,0 -113.17,-162.1 -157.16,-232.7 -25.87,-41.5 -26.08,-97.4 -24.17,-140.6 0.96,-23.4 1.84,-47.4 -3.53,-70.8"
         style="fill:#ffb27d;fill-opacity:1;fill-rule:nonzero;stroke:none"
         transform="matrix(0.13333333,0,0,-0.13333333,0,2666.6667)" />
      <path
         id="path121"
         d="m 7785.76,9706.9 c -105.4,28.8 -81.02,-2.7 -231.57,18.1 -150.55,20.9 -194.76,78.4 -198.76,101 -3.57,20 71.23,25 151.51,32.1 l 0.71,-1.6 c 0,0 88.81,-66.7 214.43,-73.1 102.38,-5.3 211.69,21.1 282.41,18 0.96,-23.4 1.84,-47.4 -3.53,-70.8 -15.14,-66.2 -109.8,-52.5 -215.2,-23.7"
         style="fill:#233862;fill-opacity:1;fill-rule:nonzero;stroke:none"
         transform="matrix(0.13333333,0,0,-0.13333333,0,2666.6667)" />
      <path
         id="path122"
         d="m 8830.67,11033.2 179.4,-526.2 234.22,-687.1 c 0,0 68.41,-8.5 134.6,8.6 60.95,15.9 131.58,59.7 131.58,59.7 0,0 -50.28,732.2 -169.78,1155.1 -30.61,108.5 -65.85,196.6 -106,246.7 -196.42,245.4 -404.02,-256.8 -404.02,-256.8"
         style="fill:#233862;fill-opacity:1;fill-rule:nonzero;stroke:none"
         transform="matrix(0.13333333,0,0,-0.13333333,0,2666.6667)" />
      <path
         id="path123"
         d="m 9050.04,11855.2 c 127.94,37.4 488.25,-25 849.69,-106 l 79.5,123.4 786.57,39.9 c 0,0 243.3,-581.4 91.6,-943.5 -22.3,-53.2 -61.7,-76.8 -132.4,-76.1 0,0 -5.7,0 -14,0 0,0 -467.3,-4.1 -618.9,0 -390.38,10.7 -819.06,298.6 -875.13,311.4 -91.76,21 -133.69,-162.6 -231.24,-353.8 -97.54,-191.3 -890.66,-834.4 -890.66,-834.4 0,0 -119.14,2 -167.85,21.8 -52.38,21.3 -71.03,47.6 -71.03,47.6 0,0 905.31,1685.2 1193.85,1769.7"
         style="fill:#2b478b;fill-opacity:1;fill-rule:nonzero;stroke:none"
         transform="matrix(0.13333333,0,0,-0.13333333,0,2666.6667)" />
      <path
         id="path124"
         d="m 10013.3,12953.4 c 275.3,-161.5 833.6,-496 836.6,-494 0,0 206.3,-84.2 326.6,-8.9 200.7,125.5 315.9,474.8 -36.2,787.7 -175.6,156.1 -302.3,196.4 -315.1,438.3 -7,131.2 -174.2,568.3 -472.7,536.4 -25,-2.6 -50.1,-4.4 -75.1,-2.9 -34.7,2.1 -92.2,-1.4 -152,-34.8 -171.05,-95.7 -529.49,-1150.8 -112.1,-1221.8"
         style="fill:#233862;fill-opacity:1;fill-rule:nonzero;stroke:none"
         transform="matrix(0.13333333,0,0,-0.13333333,0,2666.6667)" />
      <path
         id="path125"
         d="m 10251.1,13078 c -1.2,-0.8 136.2,-51.9 230.1,-13.3 88.3,36.1 158.4,177.9 157.1,178.1 -39.7,2.9 -82.3,38.8 -109.7,267.4 l -17,-5.6 -287.1,-94.5 c 0,0 18.1,-91.8 29.1,-179 9.2,-73.2 13.3,-143.2 -2.5,-153.1"
         style="fill:#ffb27d;fill-opacity:1;fill-rule:nonzero;stroke:none"
         transform="matrix(0.13333333,0,0,-0.13333333,0,2666.6667)" />
      <path
         id="path126"
         d="m 10224.5,13410.1 c 0,0 18.1,-91.8 29.1,-179 164,25 232.6,185.9 258,273.5 l -287.1,-94.5"
         style="fill:#ed975d;fill-opacity:1;fill-rule:nonzero;stroke:none"
         transform="matrix(0.13333333,0,0,-0.13333333,0,2666.6667)" />
      <path
         id="path127"
         d="m 10179.7,13320.7 c 0,0 390.3,41.6 360.7,284.3 -29.7,242.7 0.8,411.5 -249.7,395.2 -250.5,-16.3 -287.5,-114.8 -297.32,-198.2 -9.81,-83.4 84.02,-485.8 186.32,-481.3"
         style="fill:#ffb27d;fill-opacity:1;fill-rule:nonzero;stroke:none"
         transform="matrix(0.13333333,0,0,-0.13333333,0,2666.6667)" />
      <path
         id="path128"
         d="m 10011.2,13934.1 c 0,0 243.1,-221.4 412,-243.3 168.8,-21.9 234.4,30.7 234.4,30.7 0,0 -97.5,85.6 -154,221 -16.6,39.9 -53.3,68 -96.2,72.9 -120.6,13.7 -349.7,24.7 -396.2,-81.3"
         style="fill:#233862;fill-opacity:1;fill-rule:nonzero;stroke:none"
         transform="matrix(0.13333333,0,0,-0.13333333,0,2666.6667)" />
      <path
         id="path129"
         d="m 10167.3,13949.1 c 0,0 -85.5,-78.3 -113.3,-137.3 -26.9,-57 -38.3,-194.6 -19.6,-249.9 0,0 -122.88,255.8 -46.07,376.4 81.47,127.9 178.97,10.8 178.97,10.8"
         style="fill:#233862;fill-opacity:1;fill-rule:nonzero;stroke:none"
         transform="matrix(0.13333333,0,0,-0.13333333,0,2666.6667)" />
      <path
         id="path130"
         d="m 9908.02,12514 c -9.69,-787.6 -13.74,-622.8 70.34,-699.9 20.26,-18.5 78.34,-30.8 154.94,-38 241,-22.6 666.4,5.6 683.8,49.8 59.9,152.8 21.9,201.9 74.7,436.9 5.6,25 12.3,52.1 20.1,81.5 43.2,161.3 82.4,215.5 -47.9,480 -118.2,239.6 -242.4,434.8 -254.3,428.2 -334.1,-186.2 -356.1,-21.4 -356.1,-21.4 0,0 -340.88,-332.9 -345.58,-717.1"
         style="fill:#ffffff;fill-opacity:1;fill-rule:nonzero;stroke:none"
         transform="matrix(0.13333333,0,0,-0.13333333,0,2666.6667)" />
      <path
         id="path131"
         d="m 9010.07,10507 234.22,-687.1 c 0,0 68.41,-8.5 134.6,8.6 60.95,15.9 131.58,59.7 131.58,59.7 0,0 -50.28,732.2 -169.78,1155.1 L 9010.07,10507"
         style="fill:#2b478b;fill-opacity:1;fill-rule:nonzero;stroke:none"
         transform="matrix(0.13333333,0,0,-0.13333333,0,2666.6667)" />
      <path
         id="path132"
         d="m 10253.6,13231.1 c 0,0 -339.9,-48.1 -383.6,-192.7 -43.69,-144.6 -300.8,-994.5 -300.8,-994.5 0,0 171.15,-35.6 252.76,41.7 81.62,77.3 296.54,729.6 296.54,729.6 l 135.1,415.9"
         style="fill:#ffffff;fill-opacity:1;fill-rule:nonzero;stroke:none"
         transform="matrix(0.13333333,0,0,-0.13333333,0,2666.6667)" />
      <path
         id="path133"
         d="m 10133.3,11776.1 c 241,-22.6 666.4,5.6 683.8,49.8 59.9,152.8 21.9,201.9 74.7,436.9 l -107.5,331.1 c 0,0 9.3,-365.7 -100.9,-458.8 -110.2,-93.1 -445.9,-173.3 -500.5,-252.2 -26.3,-37.8 -43.9,-75.9 -49.6,-106.8"
         style="fill:#ebf3ff;fill-opacity:1;fill-rule:nonzero;stroke:none"
         transform="matrix(0.13333333,0,0,-0.13333333,0,2666.6667)" />
      <path
         id="path134"
         d="m 10414.1,11922.1 c 0,0 -236.7,59.5 -275.7,39.4 -39,-20 -135.1,-94.5 -147.55,-120.9 -12.49,-26.5 86.15,18 117.95,25.6 20.7,5 74.1,-15.3 100.6,-24.9 111.4,-40.5 180.8,-23.1 180.8,-23.1 l 23.9,103.9"
         style="fill:#ffb27d;fill-opacity:1;fill-rule:nonzero;stroke:none"
         transform="matrix(0.13333333,0,0,-0.13333333,0,2666.6667)" />
      <path
         id="path135"
         d="m 10609.9,13252.7 c 0,0 319.3,-28.4 425.8,-185.8 149.9,-221.6 433.8,-1156.3 253.3,-1275 -203.4,-133.7 -909.1,-11.7 -909.1,-11.7 0,0 -20.6,110.9 13.7,163.3 34.3,52.4 569.7,124 595,147.9 25.3,24 -294.5,488.2 -292.5,562 2,73.8 -86.2,599.3 -86.2,599.3"
         style="fill:#ffffff;fill-opacity:1;fill-rule:nonzero;stroke:none"
         transform="matrix(0.13333333,0,0,-0.13333333,0,2666.6667)" />
      <path
         id="path136"
         d="m 10125,11895.6 c 0,0 -51.6,-63 -68.2,-70.3 -16.6,-7.2 -27.1,-5 -27.1,-5 l 35.3,59.6 60,15.7"
         style="fill:#ffb27d;fill-opacity:1;fill-rule:nonzero;stroke:none"
         transform="matrix(0.13333333,0,0,-0.13333333,0,2666.6667)" />
      <path
         id="path137"
         d="m 10138.4,11961.5 -147.04,-66.5 c 0,0 5.89,-10.2 23.74,-9.9 17.9,0.3 63.4,15.6 63.4,15.6 l 59.9,60.8"
         style="fill:#ffb27d;fill-opacity:1;fill-rule:nonzero;stroke:none"
         transform="matrix(0.13333333,0,0,-0.13333333,0,2666.6667)" />
      <path
         id="path138"
         d="m 10054.1,11726.7 -1147.64,31.3 -321.84,867.9 1145.88,-31.2 323.6,-868"
         style="fill:#f99746;fill-opacity:1;fill-rule:nonzero;stroke:none"
         transform="matrix(0.13333333,0,0,-0.13333333,0,2666.6667)" />
      <path
         id="path139"
         d="m 8893.93,11791.8 1515.47,-41.3 -0.9,-33.4 -1502.04,40.9 -12.53,33.8"
         style="fill:#ed7d2b;fill-opacity:1;fill-rule:nonzero;stroke:none"
         transform="matrix(0.13333333,0,0,-0.13333333,0,2666.6667)" />
      <path
         id="path140"
         d="m 9207.87,12179.4 c -7.84,30.4 10.28,54.4 40.46,53.5 30.18,-0.8 60.99,-26.1 68.82,-56.5 7.83,-30.5 -10.28,-54.4 -40.46,-53.6 -30.18,0.8 -60.99,26.1 -68.82,56.6"
         style="fill:#ffffff;fill-opacity:1;fill-rule:nonzero;stroke:none"
         transform="matrix(0.13333333,0,0,-0.13333333,0,2666.6667)" />
    </g>
  </g>
</svg>
