<?xml version="1.0" encoding="UTF-8"?>
<!DOCTYPE svg PUBLIC "-//W3C//DTD SVG 1.1//EN" "http://www.w3.org/Graphics/SVG/1.1/DTD/svg11.dtd">
<!-- Creator: CorelDRAW (Evaluation Version) -->
<svg xmlns="http://www.w3.org/2000/svg" xml:space="preserve" width="210mm" height="297mm" version="1.1" style="shape-rendering:geometricPrecision; text-rendering:geometricPrecision; image-rendering:optimizeQuality; fill-rule:evenodd; clip-rule:evenodd"
viewBox="0 0 21000 29700"
 xmlns:xlink="http://www.w3.org/1999/xlink"
 xmlns:xodm="http://www.corel.com/coreldraw/odm/2003">
 <defs>
  <style type="text/css">
   <![CDATA[
    .str0 {stroke:#00BBA7;stroke-width:7.62;stroke-miterlimit:22.9256}
    .str1 {stroke:#1F8E9F;stroke-width:7.62;stroke-miterlimit:22.9256}
    .fil122 {fill:#00BBA7;fill-rule:nonzero}
    .fil120 {fill:#054947;fill-rule:nonzero}
    .fil115 {fill:#1B6163;fill-rule:nonzero}
    .fil123 {fill:#1F8E9F;fill-rule:nonzero}
    .fil134 {fill:#470404;fill-rule:nonzero}
    .fil135 {fill:#5E0B0A;fill-rule:nonzero}
    .fil127 {fill:#7C0A0A;fill-rule:nonzero}
    .fil116 {fill:#9DBFC1;fill-rule:nonzero}
    .fil130 {fill:#A03105;fill-rule:nonzero}
    .fil128 {fill:#A31010;fill-rule:nonzero}
    .fil129 {fill:#DD4B0A;fill-rule:nonzero}
    .fil132 {fill:#FF5933;fill-rule:nonzero}
    .fil133 {fill:#FFE4C0;fill-rule:nonzero}
    .fil126 {fill:#FFF4D9;fill-rule:nonzero}
    .fil0 {fill:#FAFCFD;fill-rule:nonzero;fill-opacity:0.023529}
    .fil1 {fill:#F9FBFD;fill-rule:nonzero;fill-opacity:0.027451}
    .fil2 {fill:#F8FBFC;fill-rule:nonzero;fill-opacity:0.031373}
    .fil3 {fill:#F7FAFC;fill-rule:nonzero;fill-opacity:0.035294}
    .fil4 {fill:#F6FAFB;fill-rule:nonzero;fill-opacity:0.039216}
    .fil5 {fill:#F5F9FB;fill-rule:nonzero;fill-opacity:0.043137}
    .fil6 {fill:#F4F9FB;fill-rule:nonzero;fill-opacity:0.047059}
    .fil7 {fill:#F3F8FA;fill-rule:nonzero;fill-opacity:0.050980}
    .fil8 {fill:#F2F7FA;fill-rule:nonzero;fill-opacity:0.054902}
    .fil9 {fill:#F1F7F9;fill-rule:nonzero;fill-opacity:0.058824}
    .fil10 {fill:#F0F6F9;fill-rule:nonzero;fill-opacity:0.062745}
    .fil11 {fill:#EFF6F9;fill-rule:nonzero;fill-opacity:0.066667}
    .fil12 {fill:#EEF5F8;fill-rule:nonzero;fill-opacity:0.070588}
    .fil13 {fill:#EDF4F8;fill-rule:nonzero;fill-opacity:0.078431}
    .fil14 {fill:#ECF4F7;fill-rule:nonzero;fill-opacity:0.082353}
    .fil15 {fill:#EBF3F7;fill-rule:nonzero;fill-opacity:0.086275}
    .fil16 {fill:#EAF3F7;fill-rule:nonzero;fill-opacity:0.090196}
    .fil17 {fill:#E9F2F6;fill-rule:nonzero;fill-opacity:0.094118}
    .fil18 {fill:#E8F1F6;fill-rule:nonzero;fill-opacity:0.098039}
    .fil19 {fill:#E7F1F5;fill-rule:nonzero;fill-opacity:0.101961}
    .fil20 {fill:#E6F0F5;fill-rule:nonzero;fill-opacity:0.105882}
    .fil21 {fill:#E5F0F5;fill-rule:nonzero;fill-opacity:0.109804}
    .fil22 {fill:#E4EFF4;fill-rule:nonzero;fill-opacity:0.113725}
    .fil23 {fill:#E3EFF4;fill-rule:nonzero;fill-opacity:0.117647}
    .fil24 {fill:#E2EEF3;fill-rule:nonzero;fill-opacity:0.121569}
    .fil25 {fill:#E1EDF3;fill-rule:nonzero;fill-opacity:0.125490}
    .fil26 {fill:#E0EDF2;fill-rule:nonzero;fill-opacity:0.129412}
    .fil27 {fill:#DFECF2;fill-rule:nonzero;fill-opacity:0.137255}
    .fil28 {fill:#DEECF2;fill-rule:nonzero;fill-opacity:0.141176}
    .fil29 {fill:#DDEBF1;fill-rule:nonzero;fill-opacity:0.145098}
    .fil30 {fill:#DCEAF1;fill-rule:nonzero;fill-opacity:0.149020}
    .fil31 {fill:#DBEAF0;fill-rule:nonzero;fill-opacity:0.152941}
    .fil32 {fill:#DAE9F0;fill-rule:nonzero;fill-opacity:0.156863}
    .fil33 {fill:#D9E9F0;fill-rule:nonzero;fill-opacity:0.160784}
    .fil34 {fill:#D8E8EF;fill-rule:nonzero;fill-opacity:0.164706}
    .fil35 {fill:#D7E7EF;fill-rule:nonzero;fill-opacity:0.168627}
    .fil36 {fill:#D6E7EE;fill-rule:nonzero;fill-opacity:0.172549}
    .fil37 {fill:#D5E6EE;fill-rule:nonzero;fill-opacity:0.176471}
    .fil38 {fill:#D4E6EE;fill-rule:nonzero;fill-opacity:0.180392}
    .fil39 {fill:#D3E5ED;fill-rule:nonzero;fill-opacity:0.184314}
    .fil40 {fill:#D2E5ED;fill-rule:nonzero;fill-opacity:0.188235}
    .fil41 {fill:#D1E4EC;fill-rule:nonzero;fill-opacity:0.196078}
    .fil117 {fill:#9DBFC1;fill-rule:nonzero;fill-opacity:0.200000}
    .fil42 {fill:#D0E3EC;fill-rule:nonzero;fill-opacity:0.200000}
    .fil43 {fill:#CFE3EC;fill-rule:nonzero;fill-opacity:0.203922}
    .fil44 {fill:#CEE2EB;fill-rule:nonzero;fill-opacity:0.207843}
    .fil45 {fill:#CDE2EB;fill-rule:nonzero;fill-opacity:0.211765}
    .fil46 {fill:#CCE1EA;fill-rule:nonzero;fill-opacity:0.215686}
    .fil47 {fill:#CBE0EA;fill-rule:nonzero;fill-opacity:0.219608}
    .fil48 {fill:#CAE0EA;fill-rule:nonzero;fill-opacity:0.223529}
    .fil49 {fill:#C9DFE9;fill-rule:nonzero;fill-opacity:0.227451}
    .fil50 {fill:#C8DFE9;fill-rule:nonzero;fill-opacity:0.231373}
    .fil51 {fill:#C7DEE8;fill-rule:nonzero;fill-opacity:0.235294}
    .fil52 {fill:#C6DDE8;fill-rule:nonzero;fill-opacity:0.239216}
    .fil53 {fill:#C5DDE8;fill-rule:nonzero;fill-opacity:0.243137}
    .fil54 {fill:#C4DCE7;fill-rule:nonzero;fill-opacity:0.247059}
    .fil55 {fill:#C4DCE7;fill-rule:nonzero;fill-opacity:0.254902}
    .fil56 {fill:#C3DBE6;fill-rule:nonzero;fill-opacity:0.258824}
    .fil57 {fill:#C2DBE6;fill-rule:nonzero;fill-opacity:0.262745}
    .fil58 {fill:#C1DAE6;fill-rule:nonzero;fill-opacity:0.266667}
    .fil59 {fill:#C0D9E5;fill-rule:nonzero;fill-opacity:0.270588}
    .fil60 {fill:#BFD9E5;fill-rule:nonzero;fill-opacity:0.274510}
    .fil61 {fill:#BED8E4;fill-rule:nonzero;fill-opacity:0.278431}
    .fil62 {fill:#BDD8E4;fill-rule:nonzero;fill-opacity:0.282353}
    .fil63 {fill:#BCD7E4;fill-rule:nonzero;fill-opacity:0.286275}
    .fil64 {fill:#BBD6E3;fill-rule:nonzero;fill-opacity:0.290196}
    .fil65 {fill:#BAD6E3;fill-rule:nonzero;fill-opacity:0.294118}
    .fil66 {fill:#B9D5E2;fill-rule:nonzero;fill-opacity:0.298039}
    .fil67 {fill:#B8D5E2;fill-rule:nonzero;fill-opacity:0.301961}
    .fil68 {fill:#B7D4E2;fill-rule:nonzero;fill-opacity:0.305882}
    .fil69 {fill:#B6D3E1;fill-rule:nonzero;fill-opacity:0.313725}
    .fil70 {fill:#B5D3E1;fill-rule:nonzero;fill-opacity:0.317647}
    .fil71 {fill:#B4D2E0;fill-rule:nonzero;fill-opacity:0.321569}
    .fil72 {fill:#B3D2E0;fill-rule:nonzero;fill-opacity:0.325490}
    .fil73 {fill:#B2D1E0;fill-rule:nonzero;fill-opacity:0.329412}
    .fil74 {fill:#B1D1DF;fill-rule:nonzero;fill-opacity:0.333333}
    .fil75 {fill:#B0D0DF;fill-rule:nonzero;fill-opacity:0.337255}
    .fil76 {fill:#AFCFDE;fill-rule:nonzero;fill-opacity:0.341176}
    .fil77 {fill:#AECFDE;fill-rule:nonzero;fill-opacity:0.345098}
    .fil78 {fill:#ADCEDE;fill-rule:nonzero;fill-opacity:0.349020}
    .fil79 {fill:#ACCEDD;fill-rule:nonzero;fill-opacity:0.352941}
    .fil80 {fill:#ABCDDD;fill-rule:nonzero;fill-opacity:0.356863}
    .fil81 {fill:#AACCDC;fill-rule:nonzero;fill-opacity:0.360784}
    .fil82 {fill:#A9CCDC;fill-rule:nonzero;fill-opacity:0.364706}
    .fil83 {fill:#A8CBDC;fill-rule:nonzero;fill-opacity:0.372549}
    .fil84 {fill:#A7CBDB;fill-rule:nonzero;fill-opacity:0.376471}
    .fil85 {fill:#A6CADB;fill-rule:nonzero;fill-opacity:0.380392}
    .fil86 {fill:#A5C9DA;fill-rule:nonzero;fill-opacity:0.384314}
    .fil87 {fill:#A4C9DA;fill-rule:nonzero;fill-opacity:0.388235}
    .fil88 {fill:#A3C8D9;fill-rule:nonzero;fill-opacity:0.392157}
    .fil89 {fill:#A2C8D9;fill-rule:nonzero;fill-opacity:0.396078}
    .fil125 {fill:#00BBA7;fill-rule:nonzero;fill-opacity:0.400000}
    .fil124 {fill:#840084;fill-rule:nonzero;fill-opacity:0.400000}
    .fil90 {fill:#A1C7D9;fill-rule:nonzero;fill-opacity:0.400000}
    .fil131 {fill:#DD4B0A;fill-rule:nonzero;fill-opacity:0.400000}
    .fil91 {fill:#A0C7D8;fill-rule:nonzero;fill-opacity:0.403922}
    .fil92 {fill:#9FC6D8;fill-rule:nonzero;fill-opacity:0.407843}
    .fil93 {fill:#9EC5D7;fill-rule:nonzero;fill-opacity:0.411765}
    .fil94 {fill:#9DC5D7;fill-rule:nonzero;fill-opacity:0.415686}
    .fil95 {fill:#9CC4D7;fill-rule:nonzero;fill-opacity:0.419608}
    .fil96 {fill:#9BC4D6;fill-rule:nonzero;fill-opacity:0.423529}
    .fil97 {fill:#9AC3D6;fill-rule:nonzero;fill-opacity:0.431373}
    .fil98 {fill:#99C2D5;fill-rule:nonzero;fill-opacity:0.435294}
    .fil99 {fill:#98C2D5;fill-rule:nonzero;fill-opacity:0.439216}
    .fil100 {fill:#97C1D5;fill-rule:nonzero;fill-opacity:0.443137}
    .fil101 {fill:#96C1D4;fill-rule:nonzero;fill-opacity:0.447059}
    .fil102 {fill:#95C0D4;fill-rule:nonzero;fill-opacity:0.450980}
    .fil103 {fill:#94BFD3;fill-rule:nonzero;fill-opacity:0.454902}
    .fil104 {fill:#93BFD3;fill-rule:nonzero;fill-opacity:0.458824}
    .fil105 {fill:#92BED3;fill-rule:nonzero;fill-opacity:0.462745}
    .fil106 {fill:#91BED2;fill-rule:nonzero;fill-opacity:0.466667}
    .fil107 {fill:#90BDD2;fill-rule:nonzero;fill-opacity:0.470588}
    .fil108 {fill:#8FBDD1;fill-rule:nonzero;fill-opacity:0.474510}
    .fil109 {fill:#8EBCD1;fill-rule:nonzero;fill-opacity:0.478431}
    .fil110 {fill:#8DBBD1;fill-rule:nonzero;fill-opacity:0.482353}
    .fil111 {fill:#8CBBD0;fill-rule:nonzero;fill-opacity:0.490196}
    .fil112 {fill:#8BBAD0;fill-rule:nonzero;fill-opacity:0.494118}
    .fil113 {fill:#8ABACF;fill-rule:nonzero;fill-opacity:0.498039}
    .fil114 {fill:#89B9CF;fill-rule:nonzero;fill-opacity:0.501961}
    .fil121 {fill:#9DBFC1;fill-rule:nonzero;fill-opacity:0.501961}
    .fil118 {fill:#BDE0E0;fill-rule:nonzero;fill-opacity:0.501961}
    .fil119 {fill:#CCF2F1;fill-rule:nonzero;fill-opacity:0.501961}
   ]]>
  </style>
 </defs>
 <g id="Layer_x0020_1">
  <metadata id="CorelCorpID_0Corel-Layer"/>
  <g id="_105553322197824">
   <path class="fil0" d="M16644.75 18919.79c0,1045.41 -2988.86,1892.82 -6675.93,1892.82 -3687.46,0 -6676.17,-847.65 -6676.17,-1892.82 0,-1045.24 2988.71,-1892.82 6676.17,-1892.82 3687.07,0 6675.93,847.58 6675.93,1892.82z"/>
   <path class="fil1" d="M16588.58 18919.79c0,1036.54 -2963.73,1876.95 -6619.76,1876.95 -3656.42,0 -6619.93,-840.41 -6619.93,-1876.95 0,-1036.38 2963.58,-1876.79 6619.93,-1876.79 3656.18,0 6619.76,840.41 6619.76,1876.79z"/>
   <path class="fil2" d="M16532.34 18919.79c0,1027.75 -2938.69,1861.16 -6563.52,1861.16 -3625.31,0 -6563.76,-833.18 -6563.76,-1861.16 0,-1027.74 2938.45,-1860.92 6563.76,-1860.92 3625.14,0 6563.52,833.18 6563.52,1860.92z"/>
   <path class="fil3" d="M16476.17 18919.79c0,1019.11 -2913.33,1845.05 -6507.35,1845.05 -3594.27,0 -6507.59,-826.17 -6507.59,-1845.05 0,-1018.87 2913.32,-1845.05 6507.59,-1845.05 3594.02,0 6507.35,826.18 6507.35,1845.05z"/>
   <path class="fil4" d="M16420.16 18919.79c0,1010.24 -2888.2,1829.26 -6451.19,1829.26 -3563.38,0 -6451.34,-819.02 -6451.34,-1829.26 0,-1010 2888.04,-1829.02 6451.34,-1829.02 3562.76,0 6451.19,819.02 6451.19,1829.02z"/>
   <path class="fil5" d="M16363.99 18919.79c0,1001.37 -2863.15,1813.16 -6394.94,1813.16 -3532.26,0 -6395.18,-811.79 -6395.18,-1813.16 0,-1001.14 2862.92,-1813.15 6395.18,-1813.15 3531.64,0 6394.94,812.01 6394.94,1813.15z"/>
   <path class="fil6" d="M16307.82 18919.79c0,992.5 -2838.02,1797.29 -6338.77,1797.29 -3501.22,0 -6339.01,-804.79 -6339.01,-1797.29 0,-992.5 2837.79,-1797.13 6339.01,-1797.13 3500.75,0 6338.77,804.63 6338.77,1797.13z"/>
   <path class="fil7" d="M16251.66 18919.79c0,983.87 -2812.9,1781.5 -6282.61,1781.5 -3470.1,0 -6282.76,-797.63 -6282.76,-1781.5 0,-983.63 2812.66,-1781.26 6282.76,-1781.26 3469.71,0 6282.61,797.55 6282.61,1781.26z"/>
   <path class="fil8" d="M16195.41 18919.79c0,975 -2787.61,1765.39 -6226.36,1765.39 -3439.22,0 -6226.6,-790.39 -6226.6,-1765.39 0,-974.84 2787.38,-1765.23 6226.6,-1765.23 3438.59,0 6226.36,790.39 6226.36,1765.23z"/>
   <path class="fil9" d="M16139.24 18919.79c0,966.21 -2762.48,1749.6 -6170.42,1749.6 -3408.18,0 -6170.43,-783.16 -6170.43,-1749.6 0,-965.97 2762.25,-1749.36 6170.43,-1749.36 3407.78,0 6170.42,783.39 6170.42,1749.36z"/>
   <path class="fil10" d="M16083.07 18919.79c0,957.34 -2737.35,1733.5 -6114.18,1733.5 -3377.06,0 -6114.18,-776.16 -6114.18,-1733.5 0,-957.34 2737.12,-1733.49 6114.18,-1733.49 3376.83,0 6114.18,776.15 6114.18,1733.49z"/>
   <path class="fil11" d="M16026.83 18919.79c0,948.71 -2712.23,1717.63 -6058.01,1717.63 -3346.02,0 -6058.02,-769 -6058.02,-1717.63 0,-948.47 2712.07,-1717.47 6058.02,-1717.47 3345.78,0 6058.01,769 6058.01,1717.47z"/>
   <path class="fil12" d="M15970.66 18919.79c0,939.84 -2687.1,1701.84 -6001.84,1701.84 -3314.91,0 -6001.85,-762 -6001.85,-1701.84 0,-939.6 2686.94,-1701.6 6001.85,-1701.6 3314.74,0 6001.84,762 6001.84,1701.6z"/>
   <path class="fil13" d="M15914.49 18919.79c0,930.97 -2661.81,1685.73 -5945.67,1685.73 -3284.02,0 -5945.68,-754.76 -5945.68,-1685.73 0,-930.73 2661.58,-1685.57 5945.68,-1685.57 3283.62,0 5945.67,754.76 5945.67,1685.57z"/>
   <path class="fil14" d="M15858.25 18919.79c0,922.1 -2636.69,1669.94 -5889.43,1669.94 -3252.98,0 -5889.44,-747.61 -5889.44,-1669.94 0,-922.1 2636.46,-1669.7 5889.44,-1669.7 3252.58,0 5889.43,747.6 5889.43,1669.7z"/>
   <path class="fil15" d="M15802.08 18919.79c0,913.47 -2611.56,1653.84 -5833.26,1653.84 -3221.86,0 -5833.27,-740.61 -5833.27,-1653.84 0,-913.31 2611.41,-1653.83 5833.27,-1653.83 3221.7,0 5833.26,740.52 5833.26,1653.83z"/>
   <path class="fil16" d="M15745.91 18919.79c0,904.6 -2586.51,1638.04 -5777.09,1638.04 -3190.82,0 -5777.1,-733.37 -5777.1,-1638.04 0,-904.44 2586.28,-1637.81 5777.1,-1637.81 3190.58,0 5777.09,733.37 5777.09,1637.81z"/>
   <path class="fil17" d="M15689.67 18919.79c0,895.81 -2561.39,1622.17 -5720.85,1622.17 -3159.94,0 -5720.86,-726.21 -5720.86,-1622.17 0,-895.57 2561.15,-1621.94 5720.86,-1621.94 3159.54,0 5720.85,726.37 5720.85,1621.94z"/>
   <path class="fil18" d="M15633.5 18919.79c0,887.17 -2536.26,1606.07 -5664.68,1606.07 -3128.82,0 -5664.69,-719.21 -5664.69,-1606.07 0,-886.93 2535.87,-1605.91 5664.69,-1605.91 3128.42,0 5664.68,718.98 5664.68,1605.91z"/>
   <path class="fil19" d="M15577.33 18919.79c0,878.3 -2510.97,1590.28 -5608.51,1590.28 -3097.78,0 -5608.52,-711.98 -5608.52,-1590.28 0,-878.06 2510.74,-1590.04 5608.52,-1590.04 3097.54,0 5608.51,711.98 5608.51,1590.04z"/>
   <path class="fil20" d="M15521.09 18919.79c0,869.43 -2485.85,1574.17 -5552.27,1574.17 -3066.66,0 -5552.28,-704.74 -5552.28,-1574.17 0,-869.2 2485.62,-1574.17 5552.28,-1574.17 3066.5,0 5552.27,704.97 5552.27,1574.17z"/>
   <path class="fil21" d="M15464.92 18919.79c0,860.57 -2460.72,1558.38 -5496.1,1558.38 -3035.78,0 -5496.11,-697.74 -5496.11,-1558.38 0,-860.4 2460.49,-1558.14 5496.11,-1558.14 3035.38,0 5496.1,697.74 5496.1,1558.14z"/>
   <path class="fil22" d="M15408.75 18919.79c0,851.93 -2435.59,1542.51 -5439.93,1542.51 -3004.74,0 -5439.94,-690.58 -5439.94,-1542.51 0,-851.69 2435.2,-1542.27 5439.94,-1542.27 3004.34,0 5439.93,690.5 5439.93,1542.27z"/>
   <path class="fil23" d="M15352.58 18919.79c0,843.06 -2410.3,1526.49 -5383.69,1526.49 -2973.61,0 -5383.69,-683.35 -5383.69,-1526.49 0,-842.9 2410.08,-1526.25 5383.69,-1526.25 2973.39,0 5383.69,683.35 5383.69,1526.25z"/>
   <path class="fil24" d="M15296.34 18919.79c0,834.27 -2385.18,1510.62 -5327.52,1510.62 -2942.58,0 -5327.53,-676.35 -5327.53,-1510.62 0,-834.03 2384.95,-1510.38 5327.53,-1510.38 2942.34,0 5327.52,676.35 5327.52,1510.38z"/>
   <path class="fil25" d="M15240.17 18919.79c0,825.56 -2360.05,1494.51 -5271.35,1494.51 -2911.46,0 -5271.36,-669.19 -5271.36,-1494.51 0,-825.16 2359.82,-1494.35 5271.36,-1494.35 2911.3,-0.24 5271.35,669.19 5271.35,1494.35z"/>
   <path class="fil26" d="M15184 18919.79c0,816.77 -2334.92,1478.72 -5215.11,1478.72 -2880.57,0 -5215.11,-661.95 -5215.11,-1478.72 0,-816.3 2334.77,-1478.48 5215.11,-1478.48 2880.11,0 5215.11,661.95 5215.11,1478.48z"/>
   <path class="fil27" d="M15127.76 18919.79c0,807.9 -2309.88,1462.85 -5158.94,1462.85 -2849.54,0 -5158.95,-654.95 -5158.95,-1462.85 0,-807.66 2309.41,-1462.61 5158.95,-1462.61 2849.3,0 5158.94,654.95 5158.94,1462.61z"/>
   <path class="fil28" d="M15071.59 18919.79c0,799.03 -2284.51,1446.82 -5102.77,1446.82 -2818.42,0 -5102.78,-647.71 -5102.78,-1446.82 0,-798.79 2284.28,-1446.59 5102.78,-1446.59 2818.26,0 5102.77,647.72 5102.77,1446.59z"/>
   <path class="fil29" d="M15015.42 18919.79c0,790.39 -2259.38,1430.95 -5046.6,1430.95 -2787.38,0 -5046.61,-640.56 -5046.61,-1430.95 0,-790 2259.23,-1430.72 5046.61,-1430.72 2787.14,0 5046.6,640.72 5046.6,1430.72z"/>
   <path class="fil30" d="M14959.18 18919.79c0,781.53 -2234.34,1415.08 -4990.36,1415.08 -2756.5,0 -4990.37,-633.55 -4990.37,-1415.08 0,-781.13 2234.11,-1414.69 4990.37,-1414.69 2756.1,0 4990.36,633.56 4990.36,1414.69z"/>
   <path class="fil31" d="M14903.01 18919.79c0,772.66 -2209.21,1399.06 -4934.19,1399.06 -2725.38,0 -4934.2,-626.32 -4934.2,-1399.06 0,-772.5 2208.98,-1398.82 4934.2,-1398.82 2724.98,0 4934.19,626.32 4934.19,1398.82z"/>
   <path class="fil32" d="M14846.84 18919.79c0,763.87 -2184.08,1383.19 -4878.02,1383.19 -2694.34,0 -4878.03,-619.17 -4878.03,-1383.19 0,-763.63 2183.69,-1382.95 4878.03,-1382.95 2694.1,0 4878.02,619.32 4878.02,1382.95z"/>
   <path class="fil33" d="M14790.6 18919.79c0,755.23 -2158.8,1367.16 -4821.78,1367.16 -2663.22,0 -4821.79,-612.16 -4821.79,-1367.16 0,-754.76 2158.57,-1366.92 4821.79,-1366.92 2663.06,0 4821.78,612.16 4821.78,1366.92z"/>
   <path class="fil34" d="M14734.43 18919.79c0,746.36 -2133.67,1351.29 -4765.61,1351.29 -2632.18,0 -4765.62,-604.93 -4765.62,-1351.29 0,-745.97 2133.44,-1351.05 4765.62,-1351.05 2631.94,0 4765.61,605.08 4765.61,1351.05z"/>
   <path class="fil35" d="M14678.26 18919.79c0,737.49 -2108.54,1335.42 -4709.44,1335.42 -2601.3,0 -4709.45,-597.77 -4709.45,-1335.42 0,-737.26 2108.31,-1335.03 4709.45,-1335.03 2600.9,0 4709.44,597.77 4709.44,1335.03z"/>
   <path class="fil36" d="M14622.02 18919.79c0,728.63 -2083.42,1319.4 -4653.2,1319.4 -2570.26,0 -4653.21,-590.77 -4653.21,-1319.4 0,-728.47 2083.03,-1319.16 4653.21,-1319.16 2569.78,0 4653.2,590.69 4653.2,1319.16z"/>
   <path class="fil37" d="M14565.85 18919.79c0,719.99 -2058.29,1303.53 -4597.03,1303.53 -2539.14,0 -4597.04,-583.54 -4597.04,-1303.53 0,-719.6 2057.9,-1303.29 4597.04,-1303.29 2538.9,-0.08 4597.03,583.69 4597.03,1303.29z"/>
   <path class="fil38" d="M14509.68 18919.79c0,711.12 -2033,1287.5 -4540.86,1287.5 -2508.02,0 -4540.87,-576.3 -4540.87,-1287.5 0,-710.73 2032.77,-1287.26 4540.87,-1287.26 2507.86,0 4540.86,576.3 4540.86,1287.26z"/>
   <path class="fil39" d="M14453.51 18919.79c0,702.33 -2007.87,1271.63 -4484.62,1271.63 -2476.97,0 -4484.62,-569.3 -4484.62,-1271.63 0,-702.09 2007.65,-1271.39 4484.62,-1271.39 2476.67,0 4484.62,569.3 4484.62,1271.39z"/>
   <path class="fil40" d="M14397.27 18919.79c0,693.46 -1982.75,1255.76 -4428.45,1255.76 -2446.1,0 -4428.46,-562.14 -4428.46,-1255.76 0,-693.22 1982.6,-1255.37 4428.46,-1255.37 2445.7,0 4428.45,562.15 4428.45,1255.37z"/>
   <path class="fil41" d="M14341.1 18919.79c0,684.83 -1957.7,1239.74 -4372.28,1239.74 -2415.06,0 -4372.29,-554.91 -4372.29,-1239.74 0,-684.36 1957.23,-1239.5 4372.29,-1239.5 2414.81,0 4372.28,555.07 4372.28,1239.5z"/>
   <path class="fil42" d="M14284.93 18919.79c0,675.96 -1932.57,1223.87 -4316.04,1223.87 -2383.93,0 -4316.04,-547.91 -4316.04,-1223.87 0,-675.72 1932.11,-1223.63 4316.04,-1223.63 2383.63,-0.08 4316.04,547.91 4316.04,1223.63z"/>
   <path class="fil43" d="M14228.69 18919.79c0,667.09 -1907.21,1207.84 -4259.87,1207.84 -2352.9,0 -4259.88,-540.75 -4259.88,-1207.84 0,-666.93 1907.06,-1207.6 4259.88,-1207.6 2352.66,0 4259.87,540.67 4259.87,1207.6z"/>
   <path class="fil44" d="M14172.52 18919.79c0,658.46 -1882.16,1191.97 -4203.7,1191.97 -2322.02,0 -4203.71,-533.51 -4203.71,-1191.97 0,-658.06 1881.93,-1191.73 4203.71,-1191.73 2321.54,0 4203.7,533.67 4203.7,1191.73z"/>
   <path class="fil45" d="M14116.35 18919.79c0,649.59 -1857.03,1176.1 -4147.53,1176.1 -2290.9,0 -4147.54,-526.51 -4147.54,-1176.1 0,-649.19 1856.8,-1175.71 4147.54,-1175.71 2290.73,0 4147.53,526.52 4147.53,1175.71z"/>
   <path class="fil46" d="M14060.11 18919.79c0,640.72 -1831.91,1160.07 -4091.29,1160.07 -2259.86,0 -4091.3,-519.27 -4091.3,-1160.07 0,-640.32 1831.52,-1159.84 4091.3,-1159.84 2259.61,0 4091.29,519.52 4091.29,1159.84z"/>
   <path class="fil47" d="M14003.94 18919.79c0,631.93 -1806.55,1144.2 -4035.12,1144.2 -2228.74,0 -4035.13,-512.12 -4035.13,-1144.2 0,-631.69 1806.39,-1144.04 4035.13,-1144.04 2228.57,0 4035.12,512.35 4035.12,1144.04z"/>
   <path class="fil48" d="M13947.77 18919.79c0,623.29 -1781.49,1128.18 -3978.95,1128.18 -2197.7,0 -3978.96,-505.12 -3978.96,-1128.18 0,-622.82 1781.26,-1127.94 3978.96,-1127.94 2197.46,0 3978.95,505.12 3978.95,1127.94z"/>
   <path class="fil49" d="M13891.76 18919.79c0,614.42 -1756.37,1112.31 -3922.94,1112.31 -2166.82,0 -3922.72,-497.89 -3922.72,-1112.31 0,-614.03 1756.14,-1112.07 3922.72,-1112.07 2166.34,-0.08 3922.94,498.04 3922.94,1112.07z"/>
   <path class="fil50" d="M13835.59 18919.79c0,605.55 -1731.24,1096.44 -3866.54,1096.44 -2135.69,0 -3866.54,-490.73 -3866.54,-1096.44 0,-605.16 1730.85,-1096.04 3866.54,-1096.04 2135.3,0 3866.54,490.65 3866.54,1096.04z"/>
   <path class="fil51" d="M13779.35 18919.79c0,596.92 -1706.12,1080.41 -3810.38,1080.41 -2104.65,0 -3810.37,-483.72 -3810.37,-1080.41 0,-596.53 1705.72,-1080.17 3810.37,-1080.17 2104.26,0 3810.38,483.64 3810.38,1080.17z"/>
   <path class="fil52" d="M13723.18 18919.79c0,588.05 -1680.83,1064.54 -3754.36,1064.54 -2073.54,0 -3754.13,-476.49 -3754.13,-1064.54 0,-587.66 1680.59,-1064.15 3754.13,-1064.15 2073.37,0 3754.36,476.49 3754.36,1064.15z"/>
   <path class="fil53" d="M13667.01 18919.79c0,579.18 -1655.7,1048.75 -3698.19,1048.75 -2042.5,0 -3697.97,-469.49 -3697.97,-1048.75 0,-578.79 1655.47,-1048.28 3697.97,-1048.28 2042.26,0 3698.19,469.49 3698.19,1048.28z"/>
   <path class="fil54" d="M13610.77 18919.79c0,570.39 -1630.58,1032.65 -3641.95,1032.65 -2011.62,0 -3641.8,-462.34 -3641.8,-1032.65 0,-570.15 1630.42,-1032.49 3641.8,-1032.49 2011.37,0 3641.95,462.34 3641.95,1032.49z"/>
   <path class="fil55" d="M13554.6 18919.79c0,561.68 -1605.53,1016.78 -3585.78,1016.78 -1980.5,0 -3585.79,-455.1 -3585.79,-1016.78 0,-561.28 1605.06,-1016.38 3585.79,-1016.38 1980.33,0 3585.78,455.1 3585.78,1016.38z"/>
   <path class="fil56" d="M13498.43 18919.79c0,552.89 -1580.4,1000.75 -3529.61,1000.75 -1949.46,0 -3529.39,-448.1 -3529.39,-1000.75 0,-552.42 1579.93,-1000.51 3529.39,-1000.51 1949.21,-0.08 3529.61,448.02 3529.61,1000.51z"/>
   <path class="fil57" d="M13442.26 18919.79c0,544.02 -1555.03,984.88 -3473.37,984.88 -1918.33,0 -3473.37,-440.86 -3473.37,-984.88 0,-543.63 1554.88,-984.72 3473.37,-984.72 1918.1,0 3473.37,441.09 3473.37,984.72z"/>
   <path class="fil58" d="M13386.02 18919.79c0,535.15 -1529.91,969.09 -3417.2,969.09 -1887.46,0 -3417.21,-433.71 -3417.21,-969.09 0,-534.76 1529.75,-968.62 3417.21,-968.62 1887.06,0 3417.2,433.86 3417.2,968.62z"/>
   <path class="fil59" d="M13329.85 18919.79c0,526.52 -1504.86,952.99 -3361.03,952.99 -1856.42,0 -3361.04,-426.71 -3361.04,-952.99 0,-526.12 1504.62,-952.82 3361.04,-952.82 1856.17,0 3361.03,426.7 3361.03,952.82z"/>
   <path class="fil60" d="M13273.68 18919.79c0,517.65 -1479.73,937.12 -3304.86,937.12 -1825.3,0 -3304.87,-419.47 -3304.87,-937.12 0,-517.25 1479.34,-936.72 3304.87,-936.72 1825.13,0 3304.86,419.47 3304.86,936.72z"/>
   <path class="fil61" d="M13217.44 18919.79c0,508.86 -1454.61,921.09 -3248.62,921.09 -1794.26,0 -3248.63,-412.31 -3248.63,-921.09 0,-508.38 1454.22,-920.85 3248.63,-920.85 1794.01,-0.08 3248.62,412.47 3248.62,920.85z"/>
   <path class="fil62" d="M13161.27 18919.79c0,499.99 -1429.32,905.22 -3192.45,905.22 -1763.14,0 -3192.46,-405.08 -3192.46,-905.22 0,-499.52 1429.09,-904.83 3192.46,-904.83 1762.97,-0.23 3192.45,405.24 3192.45,904.83z"/>
   <path class="fil63" d="M13105.1 18919.79c0,491.35 -1404.19,889.43 -3136.28,889.43 -1732.26,0 -3136.29,-398.08 -3136.29,-889.43 0,-490.88 1403.96,-888.96 3136.29,-888.96 1732.09,0 3136.28,398.08 3136.28,888.96z"/>
   <path class="fil64" d="M13048.86 18919.79c0,482.48 -1379.07,873.32 -3080.04,873.32 -1701.22,0 -3080.05,-390.84 -3080.05,-873.32 0,-482.09 1378.83,-873.16 3080.05,-873.16 1700.97,0 3080.04,391.07 3080.04,873.16z"/>
   <path class="fil65" d="M12992.69 18919.79c0,473.62 -1353.94,857.53 -3023.87,857.53 -1670.1,0 -3023.88,-383.84 -3023.88,-857.53 0,-473.22 1353.55,-857.06 3023.88,-857.06 1669.93,0 3023.87,383.84 3023.87,857.06z"/>
   <path class="fil66" d="M12936.52 18919.79c0,464.75 -1328.89,841.43 -2967.7,841.43 -1639.06,0 -2967.71,-376.68 -2967.71,-841.43 0,-464.35 1328.42,-841.27 2967.71,-841.27 1638.81,0 2967.7,376.92 2967.7,841.27z"/>
   <path class="fil67" d="M12880.27 18919.79c0,456.11 -1303.52,825.56 -2911.45,825.56 -1608.17,0 -2911.46,-369.45 -2911.46,-825.56 0,-455.72 1303.29,-825.16 2911.46,-825.16 1607.93,0 2911.45,369.44 2911.45,825.16z"/>
   <path class="fil68" d="M12824.11 18919.79c0,447.24 -1278.4,809.77 -2855.29,809.77 -1577.06,0 -2855.3,-362.29 -2855.3,-809.77 0,-446.85 1278.24,-809.29 2855.3,-809.29 1576.89,-0.08 2855.29,362.44 2855.29,809.29z"/>
   <path class="fil69" d="M12767.94 18919.79c0,438.45 -1253.27,793.66 -2799.12,793.66 -1546.02,0 -2799.13,-355.29 -2799.13,-793.66 0,-437.98 1253.11,-793.5 2799.13,-793.5 1545.77,0 2799.12,355.52 2799.12,793.5z"/>
   <path class="fil70" d="M12711.69 18919.79c0,429.82 -1228.22,777.87 -2742.87,777.87 -1514.9,0 -2742.88,-348.05 -2742.88,-777.87 0,-429.19 1227.75,-777.4 2742.88,-777.4 1514.73,0 2742.87,348.21 2742.87,777.4z"/>
   <path class="fil71" d="M12655.53 18919.79c0,420.95 -1203.1,761.77 -2686.71,761.77 -1484.01,0 -2686.72,-341.05 -2686.72,-761.77 0,-420.48 1202.71,-761.61 2686.72,-761.61 1483.85,0 2686.71,341.06 2686.71,761.61z"/>
   <path class="fil72" d="M12599.36 18919.79c0,412.08 -1177.73,745.97 -2630.54,745.97 -1452.97,0 -2630.55,-333.89 -2630.55,-745.97 0,-411.69 1177.58,-745.5 2630.55,-745.5 1452.73,0 2630.54,333.81 2630.54,745.5z"/>
   <path class="fil73" d="M12543.19 18919.79c0,403.21 -1152.68,730.1 -2574.3,730.1 -1421.85,0 -2574.3,-326.66 -2574.3,-730.1 0,-402.82 1152.45,-729.63 2574.3,-729.63 1421.62,-0.08 2574.3,326.81 2574.3,729.63z"/>
   <path class="fil74" d="M12486.95 18919.79c0,394.58 -1127.56,714 -2518.13,714 -1390.82,0 -2518.14,-319.42 -2518.14,-714 0,-393.95 1127.32,-713.84 2518.14,-713.84 1390.57,0 2518.13,319.89 2518.13,713.84z"/>
   <path class="fil75" d="M12430.78 18919.79c0,385.71 -1102.43,698.21 -2461.96,698.21 -1359.7,0 -2461.97,-312.42 -2461.97,-698.21 0,-385.31 1102.04,-697.74 2461.97,-697.74 1359.53,0 2461.96,312.43 2461.96,697.74z"/>
   <path class="fil76" d="M12374.61 18919.79c0,376.92 -1077.3,682.1 -2405.79,682.1 -1328.89,0 -2405.8,-305.26 -2405.8,-682.1 0,-376.45 1076.91,-681.94 2405.8,-681.94 1328.65,0 2405.79,305.49 2405.79,681.94z"/>
   <path class="fil77" d="M12318.36 18919.79c0,368.2 -1052.01,666.31 -2349.54,666.31 -1297.77,0 -2349.55,-298.03 -2349.55,-666.31 0,-367.58 1051.78,-665.84 2349.55,-665.84 1297.53,0 2349.54,298.19 2349.54,665.84z"/>
   <path class="fil78" d="M12262.2 18919.79c0,359.41 -1026.89,650.44 -2293.38,650.44 -1266.66,0 -2293.39,-291.03 -2293.39,-650.44 0,-358.79 1026.66,-650.05 2293.39,-650.05 1266.49,0 2293.38,291.26 2293.38,650.05z"/>
   <path class="fil79" d="M12206.03 18919.79c0,350.54 -1001.76,634.34 -2237.21,634.34 -1235.62,0 -2237.22,-283.87 -2237.22,-634.34 0,-350.15 1001.37,-634.18 2237.22,-634.18 1235.37,0 2237.21,284.03 2237.21,634.18z"/>
   <path class="fil80" d="M12149.78 18919.79c0,341.68 -976.63,618.55 -2180.96,618.55 -1204.5,0 -2180.97,-276.87 -2180.97,-618.55 0,-341.28 976.24,-618.07 2180.97,-618.07 1204.33,-0.08 2180.96,276.79 2180.96,618.07z"/>
   <path class="fil81" d="M12093.62 18919.79c0,333.04 -951.35,602.68 -2124.8,602.68 -1173.69,0 -2124.81,-269.64 -2124.81,-602.68 0,-332.41 951.12,-602.28 2124.81,-602.28 1173.45,0 2124.8,269.87 2124.8,602.28z"/>
   <path class="fil82" d="M12037.45 18919.79c0,324.17 -926.22,586.65 -2068.63,586.65 -1142.57,0 -2068.64,-262.4 -2068.64,-586.65 0,-323.54 926.07,-586.18 2068.64,-586.18 1142.33,0 2068.63,262.64 2068.63,586.18z"/>
   <path class="fil83" d="M11981.2 18919.79c0,315.3 -901.09,570.78 -2012.38,570.78 -1111.53,0 -2012.39,-255.4 -2012.39,-570.78 0,-314.91 900.93,-570.39 2012.39,-570.39 1111.29,0 2012.38,255.48 2012.38,570.39z"/>
   <path class="fil84" d="M11925.04 18919.79c0,306.51 -876.05,554.76 -1956.22,554.76 -1080.42,0 -1956.23,-248.25 -1956.23,-554.76 0,-306.04 875.58,-554.28 1956.23,-554.28 1080.17,0 1956.22,248.24 1956.22,554.28z"/>
   <path class="fil85" d="M11868.87 18919.79c0,297.88 -850.92,538.88 -1900.05,538.88 -1049.53,0 -1900.06,-241 -1900.06,-538.88 0,-297.25 850.53,-538.49 1900.06,-538.49 1049.37,0 1900.05,241.24 1900.05,538.49z"/>
   <path class="fil86" d="M11812.62 18919.79c0,289.01 -825.55,523.01 -1843.8,523.01 -1018.49,0 -1843.81,-234 -1843.81,-523.01 0,-288.38 825.4,-522.62 1843.81,-522.62 1018.25,0 1843.8,234.24 1843.8,522.62z"/>
   <path class="fil87" d="M11756.46 18919.79c0,280.14 -800.51,506.99 -1787.64,506.99 -987.37,0 -1787.64,-226.85 -1787.64,-506.99 0,-279.75 800.27,-506.52 1787.64,-506.52 987.21,-0.08 1787.64,226.77 1787.64,506.52z"/>
   <path class="fil88" d="M11700.29 18919.79c0,271.51 -775.38,491.12 -1731.47,491.12 -956.33,0 -1731.48,-219.61 -1731.48,-491.12 0,-270.88 775.15,-490.73 1731.48,-490.73 956.09,0 1731.47,219.85 1731.47,490.73z"/>
   <path class="fil89" d="M11644.28 18919.79c0,262.64 -750.25,475.09 -1675.23,475.09 -925.21,0 -1675.23,-212.61 -1675.23,-475.09 0,-262.01 749.86,-474.62 1675.23,-474.62 924.98,0 1675.23,212.61 1675.23,474.62z"/>
   <path class="fil90" d="M11587.87 18919.79c0,253.77 -725.12,459.22 -1619.05,459.22 -894.33,0 -1619.06,-205.45 -1619.06,-459.22 0,-253.14 724.73,-458.83 1619.06,-458.83 894.17,0 1619.05,205.69 1619.05,458.83z"/>
   <path class="fil91" d="M11531.71 18919.79c0,244.98 -699.84,443.35 -1562.89,443.35 -863.29,0 -1562.9,-198.22 -1562.9,-443.35 0,-244.51 699.61,-442.96 1562.9,-442.96 863.05,0 1562.89,198.45 1562.89,442.96z"/>
   <path class="fil92" d="M11475.69 18919.79c0,236.11 -674.71,427.33 -1506.72,427.33 -832.17,0 -1506.72,-191.22 -1506.72,-427.33 0,-235.64 674.48,-426.86 1506.72,-426.86 831.86,-0.07 1506.72,191.15 1506.72,426.86z"/>
   <path class="fil93" d="M11419.53 18919.79c0,227.47 -649.59,411.46 -1450.48,411.46 -801.13,0 -1450.48,-183.99 -1450.48,-411.46 0,-226.85 649.2,-411.06 1450.48,-411.06 800.66,0 1450.48,184.21 1450.48,411.06z"/>
   <path class="fil94" d="M11363.36 18919.79c0,218.6 -624.46,395.43 -1394.54,395.43 -770.25,0 -1394.32,-176.83 -1394.32,-395.43 0,-217.98 624.07,-394.96 1394.32,-394.96 770.01,0 1394.54,176.98 1394.54,394.96z"/>
   <path class="fil95" d="M11307.11 18919.79c0,209.74 -599.4,379.56 -1338.14,379.56 -739.12,0 -1338.14,-169.82 -1338.14,-379.56 0,-209.34 598.94,-379.17 1338.14,-379.17 738.82,0 1338.14,169.83 1338.14,379.17z"/>
   <path class="fil96" d="M11250.95 18919.79c0,201.1 -574.05,363.69 -1281.9,363.69 -708.09,0 -1281.9,-162.59 -1281.9,-363.69 0,-200.47 573.89,-363.3 1281.9,-363.3 707.62,0 1281.9,162.83 1281.9,363.3z"/>
   <path class="fil97" d="M11194.78 18919.79c0,192.23 -548.92,347.67 -1225.96,347.67 -676.97,0 -1225.74,-155.44 -1225.74,-347.67 0,-191.61 548.77,-347.27 1225.74,-347.27 676.81,0 1225.96,155.66 1225.96,347.27z"/>
   <path class="fil98" d="M11138.53 18919.79c0,183.36 -523.86,331.8 -1169.71,331.8 -645.93,0 -1169.57,-148.44 -1169.57,-331.8 0,-182.81 523.4,-331.4 1169.57,-331.4 645.92,0 1169.71,148.59 1169.71,331.4z"/>
   <path class="fil99" d="M11082.37 18919.79c0,174.57 -498.74,315.77 -1113.55,315.77 -615.05,0 -1113.32,-141.2 -1113.32,-315.77 0,-174.1 498.35,-315.3 1113.32,-315.3 614.81,-0.08 1113.55,141.2 1113.55,315.3z"/>
   <path class="fil100" d="M11026.2 18919.79c0,165.94 -473.61,299.9 -1057.38,299.9 -583.93,0 -1057.15,-133.96 -1057.15,-299.9 0,-165.31 473.22,-299.51 1057.15,-299.51 583.77,0 1057.38,134.2 1057.38,299.51z"/>
   <path class="fil101" d="M10969.95 18919.79c0,157.07 -448.33,284.03 -1001.13,284.03 -552.89,0 -1000.99,-126.96 -1000.99,-284.03 0,-156.44 448.1,-283.64 1000.99,-283.64 552.65,0 1001.13,127.2 1001.13,283.64z"/>
   <path class="fil102" d="M10913.78 18919.79c0,148.2 -423.2,268 -944.96,268 -521.77,0 -944.74,-119.8 -944.74,-268 0,-147.57 422.97,-267.61 944.74,-267.61 521.61,0 944.96,120.04 944.96,267.61z"/>
   <path class="fil103" d="M10857.62 18919.79c0,139.57 -398.08,252.13 -888.8,252.13 -490.89,0 -888.57,-112.56 -888.57,-252.13 0,-138.94 397.68,-251.74 888.57,-251.74 490.72,0 888.8,112.8 888.8,251.74z"/>
   <path class="fil104" d="M10801.37 18919.79c0,130.7 -372.94,236.11 -832.55,236.11 -459.85,0 -832.41,-105.57 -832.41,-236.11 0,-130.07 372.56,-235.64 832.41,-235.64 459.61,-0.07 832.55,105.57 832.55,235.64z"/>
   <path class="fil105" d="M10745.2 18919.79c0,121.83 -347.81,220.24 -776.38,220.24 -428.73,0 -776.16,-98.41 -776.16,-220.24 0,-121.2 347.43,-219.84 776.16,-219.84 428.57,0 776.38,98.56 776.38,219.84z"/>
   <path class="fil106" d="M10689.04 18919.79c0,113.04 -322.54,204.37 -720.22,204.37 -397.69,0 -719.99,-91.18 -719.99,-204.37 0,-112.41 322.3,-203.97 719.99,-203.97 397.45,0 720.22,91.56 720.22,203.97z"/>
   <path class="fil107" d="M10632.87 18919.79c0,104.32 -297.41,188.34 -663.98,188.34 -366.56,0 -663.82,-84.17 -663.82,-188.34 0,-103.54 297.02,-187.95 663.82,-187.95 366.49,0 663.98,84.41 663.98,187.95z"/>
   <path class="fil108" d="M10576.62 18919.79c0,95.53 -272.28,172.47 -607.8,172.47 -335.69,0 -607.66,-77.01 -607.66,-172.47 0,-94.91 271.89,-172.08 607.66,-172.08 335.52,0 607.8,77.17 607.8,172.08z"/>
   <path class="fil109" d="M10520.46 18919.79c0,86.67 -247.23,156.6 -551.64,156.6 -304.65,0 -551.41,-69.78 -551.41,-156.6 0,-86.04 246.76,-156.05 551.41,-156.05 304.41,0 551.64,70.01 551.64,156.05z"/>
   <path class="fil110" d="M10464.29 18919.79c0,77.8 -222.1,140.58 -495.47,140.58 -273.53,0 -495.24,-62.78 -495.24,-140.58 0,-77.17 221.71,-140.18 495.24,-140.18 273.37,0 495.47,63.01 495.47,140.18z"/>
   <path class="fil111" d="M10408.04 18919.79c0,69.16 -196.74,124.71 -439.22,124.71 -242.49,0 -439.08,-55.55 -439.08,-124.71 0,-68.3 196.59,-124.31 439.08,-124.31 242.48,0 439.22,55.93 439.22,124.31z"/>
   <path class="fil112" d="M10351.88 18919.79c0,60.29 -171.7,108.68 -383.06,108.68 -211.37,0 -382.83,-48.39 -382.83,-108.68 0,-59.67 171.22,-108.29 382.83,-108.29 211.36,0 383.06,48.62 383.06,108.29z"/>
   <path class="fil113" d="M10295.71 18919.79c0,51.42 -146.57,92.81 -326.89,92.81 -180.49,0 -326.66,-41.39 -326.66,-92.81 0,-50.88 146.17,-92.42 326.66,-92.42 180.32,0 326.89,41.54 326.89,92.42z"/>
   <path class="fil114" d="M10239.46 18919.79c0,42.79 -121.44,77.02 -270.64,77.02 -149.45,0 -270.5,-34.15 -270.5,-77.02 0,-42.01 121.05,-76.39 270.5,-76.39 149.2,0 270.64,34.38 270.64,76.39z"/>
   <path class="fil115" d="M12416.15 10073.55c-382.67,158.07 -2196.84,1289.36 -2763.1,1585.76 -971.35,509.24 -1895.7,1124.44 -2833.28,1679.58 -456.34,270.49 -1249.85,729.25 -1416.09,1255.61 -119.18,377.45 119.57,611.07 385.55,863.44 527.99,501.38 1124.67,965.12 1741.35,1351.52 1165.21,730.1 5501.24,3337.77 6377.9,4121.16 270.5,242.1 4715.99,-1844.27 5073.53,-2026.39 -604.93,-466.22 -5285.98,-1797.91 -6751.48,-2273.62 -886.07,-287.53 -1694.44,-633.32 -2532.98,-1032.64 -416.2,-198.22 -953.84,-469.34 -1130.83,-917.98 -202.73,-514.38 48.55,-417.6 389.21,-813.03 482.87,-560.9 6131.69,-3487.84 6131.69,-3487.84 0,0 10.5,-117.08 27.61,-179.08 -635.42,-17.27 -834.27,33.53 -1439.35,-130.46 -565.41,-152.95 -890.2,-200.87 -1404.43,137.93l144.7 -133.96z"/>
   <path class="fil115" d="M8988.22 13837.01c-154.19,156.06 -354.44,483.1 -243.27,722.24 -129.06,-128.82 -166.09,-472.21 -71.02,-628.81 47.92,-79.27 161.81,-164.07 255.63,-177.45 146.95,-20.77 82.93,129.45 15.4,124.08l43.26 -40.06z"/>
   <path class="fil116" d="M12602 9917.57c-382.43,157.84 -2196.84,1289.36 -2763.1,1585.76 -971.73,509.4 -1896.09,1124.68 -2833.51,1679.58 -456.5,270.5 -1250,729.25 -1416.33,1255.61 -119.18,377.46 119.57,610.92 385.32,863.44 528.15,501.23 1124.83,965.12 1741.35,1351.52 1165.21,730.1 5501.47,3337.93 6377.91,4121.17 270.49,242.09 4715.98,-1844.28 5073.52,-2026.63 -604.93,-465.99 -5285.98,-1797.75 -6751.09,-2273.62 -886.07,-287.53 -1694.59,-633.17 -2533.14,-1032.64 -416.2,-198.22 -953.84,-469.11 -1130.82,-917.98 -202.73,-514.14 132.56,-806.42 546.89,-1082.04 674.48,-448.96 5140.43,-3019.75 5815.77,-3241.62 -514.38,-167.96 -1998.62,-621.19 -1998.62,-621.19 0,0 0.08,0 -514.15,338.64l0 0z"/>
   <path class="fil117" d="M13170.53 9685.2c-167.11,-27.62 -319.66,211.99 -446.23,292.5 -164.69,104.79 -375.44,160.1 -548.77,254.24 -207.71,112.41 -398.07,244.74 -590.3,380.8 -602.91,427.48 -1266.88,785.26 -1884.57,1191.73 -507.14,333.66 -1052.41,607.42 -1570.91,919.69 -475.87,286.28 -1029.53,555.76 -1419.82,959.36 -41.16,42.79 -87.29,94.44 -104.56,146.72 151.47,27.62 346.65,-114.04 477.97,-173.32 275.62,-124.09 566.89,-203.13 852.94,-296.17 580.27,-188.96 949.32,-723.25 1512.48,-947.46 608.43,-242.09 1126.93,-592.56 1692.34,-913.07 435.57,-246.61 882.81,-413.48 1337.91,-611.54 505.9,-220.01 1025.49,-426.47 1567.79,-525.12 165.08,-30.03 328.53,-62.15 491.35,-97.94 102.3,-22.87 274.62,-19.99 351.32,-83.78 -188.57,-20.15 -366.8,-15.02 -550.16,-71.65 -172.47,-53.53 -333.66,-129.92 -500.14,-197.21 -138.71,-56.17 -260.61,-127.2 -395.2,-185.08 -109.3,-46.91 -238.59,-15.87 -342.68,-59.9l69.24 17.2z"/>
   <path class="fil117" d="M8672.29 13655.2c-89.15,63.64 -143.3,204.22 -164.22,311.03 -51.27,259.52 67.52,343.93 166.71,557.16 96.54,207.09 43.41,431.45 99.81,646.32 60.14,229.26 272.75,360.42 441.95,509.01 518.27,456.11 1072.56,913.46 1699.35,1215.61 633.16,304.8 1262.76,611.7 1890.32,928.72 887.72,447.86 1750.23,953.21 2616.7,1435.85 151.31,84.41 319.04,164.07 465.21,257.5 89.78,57.41 207.09,221.48 305.66,252.36 173.09,54.15 446.46,-206.23 583.53,-290.01 261.63,-160.11 545.65,-394.34 845.32,-477.12 348.67,-95.69 740.13,-108.05 1026.89,-365.94 -295.16,1.47 -640.33,-124.55 -922.57,-206.47 -412.08,-119.8 -813.42,-250.26 -1204.96,-426.47 -844.54,-380.18 -1745.86,-543 -2624.55,-819.64 -360.42,-113.43 -711.74,-259.99 -1066.18,-389.83 -238.12,-87.05 -452.84,-222.1 -689.33,-312.89 -501.62,-192.85 -1016.15,-321.29 -1505.87,-537.64 -328.06,-144.93 -644.68,-297.25 -950.34,-489.09 -235.87,-148.43 -500.37,-254.39 -694.24,-453.62 -276.01,-283.25 -540.9,-881.57 -350.93,-1262.61l31.74 -82.23z"/>
   <path class="fil118" d="M5693.46 14676.34c-55.15,282.78 396.68,604.69 598.16,749.39 332.42,238.75 610.69,518.89 911.21,797.39 388.43,360.19 857.92,597.78 1304.54,875.58 442.96,275.63 893.93,535.15 1331.53,819.41 771.64,501.85 1563.28,982.47 2346.9,1465.49 286.91,176.99 608.82,294.14 890.67,475.48 208.49,134.2 403.6,267.77 602.68,412.94 163.44,119.41 313.51,256.87 522,241.63 468.24,-34 1007.51,-213.01 1436.94,-396.68 501,-214.24 969.48,-479.6 1451.96,-730.49 241.24,-125.79 496.01,-226.38 744.26,-335.29 169.43,-74.14 562.53,-179.09 649.58,-353.81 -256.25,-32.91 -577.39,93.04 -832.79,132.33 -515.39,79.42 -1029.38,230.97 -1553.01,242.25 -388.58,8.4 -749.63,-92.19 -1132.3,-132.56 -353.81,-37.27 -721,17.73 -1070.53,-43.02 -320.9,-55.78 -627.41,-231.99 -920.7,-367.82 -356.69,-164.84 -714.23,-333.27 -1075.04,-487.85 -861.42,-369.29 -1699.73,-767.36 -2515.64,-1233.12 -636.67,-363.53 -1321.89,-687.47 -1924.09,-1108.18 -280.14,-195.73 -553.51,-451.99 -745.51,-733.13 -113.66,-166.1 -226.38,-334.29 -190.98,-547.91 35.78,-218.37 310.4,-341.29 307.52,-552.03 -4.51,-337.16 -677.2,39.29 -795.53,176.59 -111.32,129.45 -420.09,490.26 -358.55,674.09l16.72 -40.68z"/>
   <path class="fil117" d="M8683.65 14622.27c-49.63,286.13 274.15,639.55 508.23,752.12 364.55,175.81 655.81,428.72 1013.9,626.55 833.02,460.23 1658.34,910.98 2518.75,1317.14 810.54,382.67 1593.15,886.08 2441.97,1176.33 341.44,116.93 1303.91,403.44 1299.01,840.81 160.34,40.76 335.3,-60.3 485.75,-105.81 235.25,-70.63 481.63,-119.8 723.88,-160.33 249.25,-41.78 972.74,-63.01 1130.2,-279.9 -454.09,-176.99 -986.75,-255.4 -1460.59,-393.72 -477.74,-139.57 -931.98,-336.15 -1405.21,-483.88 -934.46,-291.89 -1852.67,-615.2 -2775.24,-938.36 -1302.51,-456.11 -2678.46,-965.98 -3815.66,-1746.26 -286.13,-196.58 -480.23,-421.95 -679.07,-692.44 -68.93,51.65 -52.05,91.79 -11.51,149.21l25.59 -61.46z"/>
   <path class="fil119" d="M5951.43 15040.88c98.18,350.15 589.29,608.82 854.65,830.3 469.49,392.09 986.51,684.83 1483.85,1033.89 798.64,560.67 1638.82,1060.03 2455.2,1591.52 1074.26,699.61 2153.43,1373.7 3226.6,2044.75 353.66,221.25 811.63,-59.67 1183.96,-173.09 477.34,-145.71 1168.47,-345.41 1528.11,-730.88 -507.37,-84.41 -1031.01,125.95 -1545.15,67.29 -187.95,-21.39 -346.42,-123.3 -530.25,-149.05 -181.34,-25.13 -346.81,43.41 -525.27,45.9 -439.85,6.61 -966.36,-147.58 -1335.26,-375.21 -526.75,-325.65 -1068.66,-589.68 -1620.31,-869.04 -995.38,-504.26 -1887.45,-1140.54 -2814.13,-1758.62 -605.32,-403.6 -1256.62,-755 -1830.28,-1203.33 -127.58,-99.81 -333.03,-364.31 -504.49,-352.8 39.52,3.12 79.04,5.37 118.56,9.26l-145.79 -10.89z"/>
   <path class="fil120" d="M16887.24 19897.67c0,0 -15.64,-0.23 -39.13,-0.62 -5.53,-0.24 -12.37,-0.24 -18.75,-0.24 -5.14,0.24 -16.88,-1.47 -29.02,-3.89 -24.12,-4.35 -49.79,-10.11 -74.29,-17.27 -11.52,-3.89 -19.37,-8.01 -28.79,-12.13 -9.02,-4.13 -17.73,-8.02 -26.37,-11.75 -18.13,-7.86 -31.27,-15.64 -42.4,-22.25 -22.87,-13.15 -38.04,-22.01 -38.04,-22.01l127.43 -213.47c0,0 11.74,6.77 29.87,17.11 9.26,5.37 19.76,11.36 29.02,14.86l14.86 6.15c4.51,2.25 10.89,5.52 14.23,6.38 5.37,0.38 10.27,1.86 14.86,4.35 1.87,1.48 3.89,3.27 12.53,2.65 6.77,0 12.99,0.23 19.13,0.23 23.03,0.23 38.9,0.23 38.9,0.23l-4.04 251.67z"/>
   <path class="fil120" d="M16143.99 19605.24c0,0 -118.17,-47.77 -236.26,-95.07 -29.41,-11.9 -58.89,-23.88 -86.43,-35 -15.64,-6.38 -24.28,-9.26 -43.26,-17.9 -12.37,-5.75 -24.5,-11.12 -35.16,-16.02 -43.41,-19.76 -72.43,-32.91 -72.43,-32.91l95.3 -215.33c0,0 29.02,12.76 72.66,31.89 10.89,4.98 22.64,10.12 35.16,15.41 11.52,4.51 23.89,9.49 36.65,14.62 27.77,10.74 57.41,22.02 87.28,33.53 118.56,46.13 237.12,92.03 237.12,92.03l-90.63 224.75z"/>
   <polygon class="fil120" points="15206.8,19198.45 14741.43,18990.35 14829.96,18786.61 15297.82,18988.72 "/>
   <polygon class="fil120" points="14276.45,18784.12 13809.61,18578.9 13891.99,18386.67 14360.86,18585.9 "/>
   <polygon class="fil120" points="13343.62,18364.88 12885.02,18142.78 12968.18,17965.95 13429.66,18181.91 "/>
   <polygon class="fil120" points="12427.28,17912.66 11974.44,17678.66 12055.96,17515.6 12512.07,17743.7 "/>
   <polygon class="fil120" points="11521.83,17441.7 11070,17204.97 11146.78,17054.36 11601.64,17285.25 "/>
   <polygon class="fil120" points="10618.4,16970.96 10163.77,16740.61 10232.31,16600.66 10689.81,16825.02 "/>
   <polygon class="fil120" points="9706.8,16510.5 9257.07,16269.88 9322.89,16143.15 9775.73,16377.93 "/>
   <polygon class="fil120" points="8810.61,16014.87 8376.28,15747.49 8442.8,15636.55 8880.63,15897.94 "/>
   <path class="fil120" d="M7948.41 15463.23c0,0 -26.14,-18.28 -65.42,-45.67 -5.37,-3.89 -11.36,-8.24 -17.12,-12.37 -5.13,-3.89 -10.73,-8.01 -15.87,-12.13 -11.12,-8.25 -22.25,-17.12 -34.38,-25.91 -23.88,-18.28 -49.4,-37.5 -74.68,-56.79 -25.75,-18.28 -50.65,-39.52 -73.29,-61.77 -23.02,-21.39 -44.26,-41.38 -62.54,-58.42 -36.64,-34.39 -60.92,-57.03 -60.92,-57.03l83.79 -80.28c0,0 22.87,20.62 56.4,51.27 16.88,15.25 36.64,33.14 57.65,52.51 20.14,19.53 43.87,39.52 70.4,58.03 25.75,18.91 51.27,37.89 75.3,55.78 12.14,8.87 23.65,17.27 34.78,25.52 5.37,4.12 10.73,8.01 15.87,11.75 4.51,3.26 8.87,6.14 13.15,9.25 39.52,27 65.89,44.89 65.89,44.89l-69.01 101.37z"/>
   <path class="fil120" d="M7307.23 14643.43c0,0 0.39,-32.13 0.86,-80.29 3.89,-26.99 8.01,-58.89 13.77,-92.42 4.74,-15.4 9.25,-31.5 14.23,-48.15 5.37,-15.87 8.64,-33.37 15.87,-49.01 6.77,-15.64 13.38,-31.27 20.39,-46.76 8.24,-16.49 10.5,-27.77 22.87,-47.76 16.02,-25.52 30.88,-49.17 43.87,-69.39 25.52,-40.53 42.63,-67.53 42.63,-67.53l87.29 54.15c0,0 -16.65,27.15 -41.78,68.3 -12.36,20.15 -26.99,44.03 -42.63,69.55 -3.89,5.37 -10.73,24.11 -16.02,35.78 -5.76,13.62 -11.52,27.15 -17.51,41 -5.99,13.38 -8.24,28.16 -12.99,42.01 -3.73,14 -7.86,27.62 -11.36,40.76 -3.89,25.52 -7.39,49.4 -10.26,70.02 0,47.76 0.23,79.66 0.23,79.66l-109.46 0.08z"/>
   <path class="fil120" d="M7827.75 13755.72c0,0 84.41,-96.16 168.82,-192.08 40.76,-48.54 89.77,-93.43 123.93,-128.05 34.77,-34.38 58.03,-57.41 58.03,-57.41l61.15 65.66c0,0 -22.02,22.01 -54.93,55.54 -32.28,34.15 -77.4,75.77 -118.32,125.8 -83.16,96.93 -166.09,193.86 -166.09,193.86l-72.59 -63.32z"/>
   <path class="fil120" d="M8575.98 13049.89c0,0 103.31,-74.69 206.62,-149.68 52.28,-37.03 104.56,-74.29 143.69,-102.3 39.13,-27.38 65.27,-45.67 65.27,-45.67l44.03 62.55c0,0 -25.9,18.52 -64.8,46.52 -38.28,28.4 -89.78,65.66 -140.81,103.16 -102.53,76.16 -204.83,152.32 -204.83,152.32l-49.17 -66.9z"/>
   <polygon class="fil120" points="9415.93,12466.35 9846.52,12193.21 9880.28,12246.74 9453.66,12525.39 "/>
   <polygon class="fil120" points="10285.59,11930.97 10730.19,11681.71 10754.46,11725.36 10313.6,11980.6 "/>
   <polygon class="fil120" points="11181.4,11443.35 11634.4,11209.35 11651.67,11242.1 11201.55,11482.09 "/>
   <polygon class="fil120" points="12083.5,10968.73 12533.86,10729.98 12545.21,10750.98 12097.97,10995.49 "/>
   <path class="fil120" d="M12990.2 10501.88c0,0 114.82,-56.01 232.37,-104.94 116.93,-50.88 233.62,-101.29 233.62,-101.29l4.35 9.49c0,0 -116.07,52.04 -232.37,104.32 -117.08,50.88 -230.74,107.83 -230.74,107.83l-7.23 -15.41z"/>
   <polygon class="fil120" points="13922.25,10088.79 14142.49,9968.99 14144.12,9967.98 14142.65,9969.61 14104.76,10011 14142.49,9969.22 14142.65,9969.61 13924.28,10092.29 "/>
   <path class="fil121" d="M8629.66 14238.74c-92.03,206.47 71.8,582.53 191.61,752.35 286.75,406.32 813.42,667.09 1203.87,957.11 481,357.54 1037.15,640.95 1555.89,943.96 593.03,346.03 1140.08,715.47 1681.22,1138.21 570.15,445.6 866.16,773.9 776.38,1518.62 -42.63,351.95 -201.48,640.18 -382.67,916.81 281.62,359.8 523.02,439.07 977.49,326.04 559.27,-138.94 1132.07,-447.71 1645.82,-709.72 464.12,-236.26 902.96,-509.4 1360.78,-757.25 219,-118.33 1213.21,-346.81 1232.97,-616.68 -753.52,-137.46 -1481.13,-483.26 -2225.62,-687.86 -834.04,-229.49 -1612.68,-558.8 -2419.34,-857.92 -777.01,-288.38 -5036.26,-1787.87 -5359.03,-2440.95 -56.63,-114.44 -302.54,-409.44 -221.87,-439.08l-17.5 -43.64z"/>
   <path class="fil122" d="M8278.11 13979.61c-0.39,130.93 -0.86,261.62 -0.86,392.55 0.62,-173.48 -104.94,-347.43 -315.77,-479.76 -418.45,-263.26 -1094.8,-263.26 -1511,0 -206.47,130.46 -310.01,301.76 -310.17,472.99l0.86 -392.55c0.62,-171.23 103.93,-342.53 310.4,-473.22 415.97,-263.26 1092.78,-263.03 1511,0 210.98,132.32 316,306.27 315.54,479.99z"/>
   <path class="fil122" d="M8921.16 13981.71c-0.63,130.69 -0.86,261.62 -1.01,392.55 -0.86,274.61 -166.49,548.37 -497.5,758.11 -666.31,421.57 -1749.75,421.57 -2420.19,0 -337.55,-212.23 -505.9,-490.73 -505.35,-768.77 0,-130.93 0.62,-261.85 0.85,-392.71 -0.62,278.28 167.96,556.55 505.51,769 670.36,421.34 1754.11,421.57 2420.35,0 331.01,-209.89 496.48,-483.8 497.34,-758.18z"/>
   <path class="fil122 str0" d="M8415.8 13212.94c670.36,421.57 674.33,1105.07 8.02,1526.88 -666.31,421.56 -1749.99,421.33 -2420.35,0 -670.35,-421.57 -674.09,-1105.08 -8.01,-1526.88 666.23,-421.8 1749.75,-421.8 2420.34,0zm-1959.25 1239.89c418.84,263.26 1095.03,263.26 1511.23,0 415.58,-263.02 413.33,-689.96 -5.36,-953.21 -418.46,-263.03 -1095.19,-263.26 -1511.01,0 -415.81,263.25 -413.32,690.19 5.14,953.21l0 0z"/>
   <path class="fil123" d="M9853.76 8435.35c0,-1597.67 -1247.52,-2893.18 -2786.76,-2893.18 -1539.01,0 -2786.99,1295.28 -2786.99,2893.18 0,1080.8 531.26,1967.34 1208.62,2672.32 543.01,564.63 1759.48,3150.44 1759.48,3150.44 0,0 973.6,-2593.04 1517.61,-3249.01 535,-645.93 1088.04,-1646.29 1088.04,-2573.75z"/>
   <path class="fil122 str1" d="M9761.57 8437.99c0,-1585.29 -1234.75,-2870.54 -2758.51,-2870.54 -1523.38,0 -2758.52,1285.25 -2758.52,2870.54 0,1072.79 525.5,1952.49 1196.32,2651.32 537.87,560.51 1741.51,3126.79 1741.51,3126.79 0,0 964.34,-2573.28 1502.76,-3224.11 530.17,-640.8 1076.44,-1633.45 1076.44,-2554z"/>
   <path class="fil124" d="M8513.98 6192.61c320.9,781.99 402.59,1733.96 98.8,2533.15 -260.15,683.34 -806.03,1530.76 -1563.52,1743.99 -468.24,131.09 -978.49,163.45 -1435.46,-17.5 -285.04,-113.19 -516.87,-296.01 -772.27,-454.24 224.75,550.16 716.88,971.49 1098.54,1412.82 396.05,457.12 578.56,1060.03 767.99,1620.93 72.04,213 133.8,435.1 204.99,645.69 31.27,92.19 99.81,348.06 183.98,401.19 198.22,126.42 211.84,-388.43 255.24,-522.62 107.05,-324.8 284.89,-621.19 394.19,-947 316.78,-939.83 922.95,-1737.38 1395.09,-2603.78 460.46,-844.92 580.42,-1884.57 239.61,-2785.9 -136.69,-361.43 -449.97,-1089.43 -881.34,-1142.95 -1.24,17.5 3.5,85.18 -2.02,65.65l16.18 50.57z"/>
   <path class="fil125" d="M7403.93 5668.59c574.51,437.82 890.44,1313.01 850.92,2008.73 -47.54,830.77 -560.9,1588.17 -1294.89,1990.22 -470.97,258.12 -1208.85,339.18 -1707.2,122.29 -359.18,-156.83 -514.61,-430.2 -765.73,-688.72 -23.03,404.69 229.1,913.31 491.97,1211.11 356.92,405.08 798.79,754.61 1089.43,1216.24 472.21,750.25 606.41,1704.48 1126.54,2414.58 90.4,-289.78 110.55,-603.06 204.99,-894.55 89.93,-277.65 229.26,-531.26 380.42,-780.75 306.9,-507.14 644.84,-1029.14 904.59,-1567.64 122.45,-253.76 286.29,-477.5 427.09,-721.46 126.42,-218.84 195.97,-484.97 268.78,-726.22 165.08,-550.78 172.09,-1056.76 33.53,-1607.93 -139.33,-555.76 -458.36,-1155.33 -883.2,-1553.63 -362.29,-340.28 -815.91,-212.23 -1195.47,-439.7l68.23 17.43z"/>
   <path class="fil122" d="M5884.14 5972.76c-550.4,453.47 -1199.36,1046.42 -1097.68,1823.04 64.8,495.01 400.56,1079.4 912.84,1235.38 498.12,151.46 1243,23.02 1670.95,-254.24 1073.79,-697.97 605.31,-2788.38 -670.59,-2952.45 -135.68,-17.51 -306.9,-17.12 -439.23,8.4 -110.94,21.24 -343.31,200.48 -410.06,139.8l33.77 0.07z"/>
   <path class="fil126" d="M8672.29 8406.95c0,927.86 -749.24,1680.44 -1673.44,1680.44 -923.81,0 -1673.59,-752.5 -1673.59,-1680.44 0,-928.08 749.63,-1680.59 1673.59,-1680.59 924.2,0 1673.44,752.51 1673.44,1680.59z"/>
   <polygon class="fil122" points="7902.9,9545.79 7070.11,9120.56 6254.36,9578.15 6393.92,8640.34 5714.47,7991.61 6633.3,7837.03 7029.12,6978.26 7457.45,7820.54 8381.65,7938.71 7727.32,8614.04 "/>
   <path class="fil126" d="M7780.22 6918.59c243.89,293.28 145.94,976.24 0.39,1287.89 -203.98,437.36 -580.89,633.32 -1045.63,683.97 -312.89,34.15 -617.54,30.03 -901.95,-118.8 -209.12,-109.92 -288,-273.37 -440.48,-433.23 -60.52,851.54 522.16,1538.38 1345.54,1688.45 812.02,147.96 1594.16,-231.6 1866.29,-1052.02 147.18,-444.2 153.33,-924.2 -85.81,-1329.89 -97.17,-164.85 -203.12,-328.69 -349.92,-456.11 -95.53,-82.93 -329.15,-181.96 -371.55,-287.14l-16.88 16.88z"/>
   <path class="fil127" d="M16418.37 18789.88c-0.39,115.68 -0.86,231.12 -1.01,347.04 0.62,-153.57 -99.42,-307.14 -300.29,-424.22 -398.31,-232.76 -1042.52,-232.76 -1438.73,0 -196.59,115.29 -295.15,266.53 -295.39,418.07l0.86 -346.81c0.39,-151.46 98.8,-302.77 295.54,-418.22 395.82,-232.76 1040.04,-232.61 1438.73,0.23 200.63,116.62 300.44,270.81 300.29,423.91z"/>
   <path class="fil128" d="M17030.46 18791.74c-0.39,115.68 -0.86,231.36 -0.86,346.81 -0.86,242.64 -158.47,484.74 -473.61,669.97 -634.34,372.55 -1665.97,372.55 -2304.28,0 -321.29,-187.49 -481.86,-433.71 -481.23,-679.46 0,-115.68 0.85,-231.36 0.85,-347.04 -0.62,245.98 159.95,491.97 481.01,679.69 638.46,372.56 1670.32,372.56 2304.5,0 315.38,-185.46 472.84,-427.48 473.62,-669.97z"/>
   <path class="fil129" d="M16549.22 18112.29c638.46,372.55 641.8,976.63 7.62,1349.42 -634.18,372.56 -1666.2,372.56 -2304.5,0 -638.31,-372.79 -641.57,-976.87 -7.24,-1349.42 634.26,-372.72 1665.89,-372.72 2304.12,0zm-1865.05 1095.89c398.7,232.76 1042.53,232.6 1438.35,0 396.05,-232.76 393.95,-609.68 -4.52,-842.44 -398.69,-232.61 -1042.91,-232.76 -1438.73,-0.23 -396.44,232.76 -393.95,609.83 4.9,842.67l0 0z"/>
   <path class="fil130" d="M17918.4 13889.44c0,-1411.97 -1187.61,-2557.02 -2652.95,-2557.02 -1465.49,0 -2653.57,1145.05 -2653.57,2557.02 0,955.24 505.51,1739.1 1150.58,2362.16 517.49,498.97 1675.46,2784.65 1675.46,2784.65 0,0 927.08,-2291.9 1445.12,-2871.94 509.32,-570.93 1035.36,-1454.99 1035.36,-2274.87z"/>
   <path class="fil129" d="M17830.73 13891.93c0,-1401.31 -1175.94,-2536.88 -2626.58,-2536.88 -1450.48,0 -2626.42,1135.57 -2626.42,2536.88 0,948.24 500.14,1725.72 1139.07,2343.56 512.12,495.24 1658.34,2763.5 1658.34,2763.5 0,0 918.21,-2274.4 1430.57,-2849.77 504.88,-566.19 1025.02,-1443.63 1025.02,-2257.29z"/>
   <path class="fil131" d="M16643.12 11907.32c305.42,691.2 383.29,1532.63 93.9,2238.85 -247.39,604.15 -767.14,1353.15 -1488.76,1541.49 -445.61,115.92 -931.59,144.47 -1366.3,-15.24 -271.74,-100.28 -492.36,-261.86 -735.24,-401.58 214.09,485.98 682.57,858.31 1045.4,1248.6 377.31,404.22 550.79,936.96 731.35,1432.82 68.77,188.34 127.58,384.7 195.11,570.55 29.87,81.53 94.91,307.75 175.19,354.43 188.96,111.79 201.96,-343.15 243.11,-461.71 101.68,-287.37 271.27,-549.15 375.2,-837.3 301.53,-830.77 878.92,-1535.51 1328.42,-2301.4 438.45,-746.75 552.89,-1665.58 227.86,-2462.35 -130.07,-319.42 -428.1,-963.1 -838.93,-1010.01 -0.86,15.41 3.73,75.15 -2.03,58.27l15.72 44.58z"/>
   <path class="fil131" d="M15586.2 11444.21c546.66,386.79 847.65,1160.3 809.92,1775.5 -45.28,734.61 -533.9,1403.8 -1232.73,1759.25 -448.33,228.09 -1151.05,299.5 -1625.44,107.82 -342.06,-138.71 -489.87,-380.42 -729.25,-608.67 -21.62,357.32 218.37,807.05 468.48,1070.54 339.81,357.93 760.75,666.69 1037.39,1075.04 449.11,663.2 577.16,1506.25 1072.17,2134.06 86.04,-256.26 105.41,-533.28 195.1,-790.63 85.81,-245.52 218.37,-469.49 362.06,-689.96 292.04,-448.33 614.19,-909.81 861.42,-1385.67 116.69,-224.36 272.9,-421.96 406.94,-637.69 120.19,-193.24 186.48,-428.72 255.63,-641.8 157.46,-486.76 163.84,-934.08 32.13,-1421.46 -132.79,-491.12 -436.58,-1020.9 -841.27,-1372.92 -344.55,-300.52 -776.62,-187.72 -1137.82,-388.58l65.27 15.17z"/>
   <path class="fil132" d="M14139.15 11712.99c-523.87,400.72 -1141.95,924.97 -1045.25,1611.43 61.92,437.6 381.42,953.84 869.04,1091.77 474.24,134.2 1183.57,20.62 1591.29,-224.75 1022.37,-616.67 575.91,-2464.45 -638.7,-2609.3 -129.29,-15.41 -292.04,-15.02 -418.45,7.23 -105.41,18.91 -326.66,177.45 -390.45,123.69l32.52 -0.07z"/>
   <path class="fil133" d="M16793.81 13864.39c0,820.04 -713.38,1485.26 -1593.31,1485.26 -879.7,0 -1593.55,-665.22 -1593.55,-1485.26 0,-820.26 713.85,-1485.25 1593.55,-1485.25 879.7,0.16 1593.31,665.22 1593.31,1485.25z"/>
   <path class="fil133" d="M15944.13 12549.12c232.22,259.14 139.18,862.67 0.63,1138.21 -194.1,386.33 -553.28,559.89 -995.85,604.7 -297.41,30.03 -587.43,26.14 -858.7,-105.18 -199.07,-97.32 -274.15,-241.63 -419.08,-383.06 -57.8,752.51 496.88,1359.54 1281.12,1492.26 773.51,130.46 1518.01,-204.6 1776.91,-929.57 140.34,-392.94 146.17,-816.92 -81.69,-1175.71 -92.03,-145.55 -193.24,-290.41 -332.65,-403.05 -91.17,-73.28 -313.51,-160.73 -354.04,-253.61l-16.65 15.01z"/>
   <path class="fil134" d="M14849.88 14226.22l-196.75 594.42 -252.52 0 642.59 -1890.56 294.76 0 645.07 1890.56 -260.84 0 -201.73 -594.42 -670.58 0zm620.02 -190.99l-185.23 -544.02c-42.01,-123.3 -70.17,-235.87 -98.18,-345.17l-5.6 0c-28.16,112.18 -58.89,227.24 -95.06,342.53l-185.23 546.66 569.3 0z"/>
   <path class="fil127" d="M13943.41 10114.08c-0.38,81.53 -0.62,162.82 -0.62,244.5 0.24,-108.05 -67.13,-216.34 -202.11,-298.88 -267.38,-163.84 -700.23,-163.84 -966.36,0 -132.17,81.29 -198.22,187.95 -198.46,294.37l0.63 -244.12c0.39,-106.65 66.67,-213.23 198.61,-294.53 265.9,-164.07 698.59,-164.07 966.36,0 135.05,82.15 202.19,190.6 201.95,298.66z"/>
   <path class="fil128" d="M14354.48 10115.17c-0.39,81.52 -0.62,163.05 -0.62,244.5 -0.39,170.84 -106.42,341.44 -318.03,472.22 -426.31,262.24 -1119.07,262.24 -1548.03,0 -215.88,-132.18 -323.55,-305.66 -323.39,-478.75 0,-81.69 0.39,-163.06 0.62,-244.35 -0.39,172.93 107.44,346.42 323.39,478.59 428.96,262.4 1121.96,262.4 1548.04,0 211.83,-130.77 317.63,-300.99 318.02,-472.21z"/>
   <path class="fil129" d="M14031.32 9636.57c428.96,262.4 431.22,688.1 5.14,950.5 -426.08,262.4 -1119.08,262.4 -1548.04,0 -428.72,-262.4 -430.98,-688.1 -4.98,-950.5 426.09,-262.4 1118.92,-262.4 1547.88,0zm-1253.11 772.27c267.77,163.6 700.23,163.45 966.36,0 265.9,-163.84 264.5,-429.58 -3.27,-593.42 -267.76,-164.07 -700.46,-164.07 -966.36,0 -265.98,163.68 -264.5,429.58 3.27,593.42l0 0z"/>
   <path class="fil130" d="M14950.78 6662.33c0,-994.75 -797.79,-1801.25 -1782.12,-1801.25 -984.1,0 -1782.27,806.42 -1782.27,1801.25 0,673.08 339.8,1224.88 772.89,1663.72 347.43,351.55 1125.45,1961.59 1125.45,1961.59 0,0 622.43,-1614.32 970.48,-2022.89 342.38,-402.2 695.57,-1025.1 695.57,-1602.42z"/>
   <path class="fil129" d="M14892.12 6664.2c0,-987.13 -789.77,-1787.02 -1764.38,-1787.02 -974.38,0 -1764.15,800.04 -1764.15,1787.02 0,667.94 336.15,1215.46 765.11,1650.8 344.16,348.91 1113.79,1946.73 1113.79,1946.73 0,0 616.91,-1602.18 961.22,-2007.25 339.11,-399.4 688.41,-1017.48 688.41,-1590.28z"/>
   <path class="fil131" d="M14094.1 5266c205.46,486.76 257.74,1079.4 63.4,1577.05 -166.32,425.23 -515.38,952.98 -1000.12,1085.55 -299.28,81.68 -625.55,101.67 -917.98,-10.9 -182.35,-70.4 -330.39,-184.21 -493.76,-282.62 144.08,342.29 458.6,604.69 702.33,879.31 253.61,284.88 370.3,660.08 491.35,1009.38 45.9,132.56 85.81,271.12 130.93,401.81 20.15,57.41 63.79,216.97 117.7,249.88 126.81,78.65 135.44,-242.1 163.45,-325.42 68.3,-202.34 182.19,-386.79 251.97,-589.52 202.58,-585.41 590.31,-1081.89 892.31,-1620.93 294.76,-526.13 371.08,-1173.45 153.33,-1734.74 -87.44,-224.98 -287.76,-678.21 -563.78,-711.59 -0.85,10.89 2.26,53.14 -1.47,41l10.34 31.74z"/>
   <path class="fil131" d="M13384.38 4939.73c367.43,272.28 569.54,817.54 544.25,1250.86 -30.49,517.25 -358.78,988.61 -828.43,1239.11 -300.91,160.72 -772.89,211.21 -1091.77,75.93 -229.88,-97.56 -329.15,-267.77 -489.48,-428.73 -15.02,251.51 146.33,568.52 314.68,753.75 228.25,252.37 511.11,469.88 696.72,757.49 301.77,467.23 387.81,1061.04 720.23,1503.38 57.8,-180.72 71.18,-375.83 131.08,-557.01 57.65,-172.94 146.72,-330.78 243.11,-486.14 196.35,-315.77 412.46,-640.72 578.79,-976.09 78.42,-157.84 183.36,-297.25 273.14,-449.11 80.9,-136.06 125.56,-301.92 172.08,-451.98 105.41,-343.15 109.92,-658.07 21.39,-1001.14 -88.92,-346.03 -293.28,-719.21 -565.18,-967.22 -231.59,-211.6 -521.38,-132.17 -764.25,-273.76l43.64 10.66z"/>
   <path class="fil132" d="M12412.26 5129.32c-351.94,282 -767.36,651.45 -702.09,1135.17 41.77,308.3 256.25,671.84 583.77,768.77 318.64,94.29 794.9,14.39 1068.89,-158.31 686.7,-434.49 387.19,-1735.99 -428.95,-1838.05 -86.9,-10.9 -196.12,-10.74 -281,5.13 -70.79,13.15 -219.38,124.94 -262.01,87.05l21.39 0 0 0.24z"/>
   <path class="fil133" d="M14195.39 6644.83c0,577.55 -479.21,1046.03 -1070.3,1046.03 -590.92,0 -1070.29,-468.48 -1070.29,-1046.03 0,-577.78 479.21,-1046.26 1070.29,-1046.26 591.09,-0.15 1070.3,468.25 1070.3,1046.26z"/>
   <path class="fil133" d="M13624.77 5718.14c156.05,182.35 93.27,607.81 0.39,801.75 -130.46,271.89 -371.55,394.34 -668.72,425.85 -200.09,21 -394.97,18.28 -577.16,-73.91 -133.42,-68.77 -183.99,-170.44 -281.38,-270.25 -39.14,530.24 333.66,957.96 860.56,1051.39 519.12,91.8 1019.5,-144.31 1193.21,-654.95 94.44,-276.64 98.18,-575.53 -54.77,-828.05 -61.92,-102.53 -129.68,-204.6 -223.5,-284.03 -61.15,-51.65 -210.59,-113.42 -237.51,-178.69l-11.12 10.89z"/>
   <path class="fil135" d="M12744.83 5971.36c84.41,-16.88 217.75,-29.4 353.42,-29.4 193.48,0 317.8,31.5 411.46,103.31 77.79,54.77 124.55,139.33 124.55,251.12 0,137.31 -95.69,257.5 -253.61,312.27l0 4.35c142.44,33.53 309.15,145.71 309.15,356.69 0,122.45 -51.03,215.1 -126.57,284.88 -104.55,90.56 -273.76,132.95 -518.26,132.95 -133.58,0 -235.49,-8.4 -299.9,-17.11l0 -1399.06 -0.24 0zm193.32 582.3l175.74 0c204.6,0 324.56,-101.06 324.56,-238.37 0,-166.71 -133.42,-232.21 -329.15,-232.21 -88.68,0 -139.95,6.14 -171.07,12.75l0.16 457.83 -0.24 0zm0 681.71c37.89,6.14 93.43,8.4 162.21,8.4 200.24,0 384.69,-69.78 384.69,-276.4 0,-194.1 -175.58,-274.38 -386.95,-274.38l-160.18 0 0 542.38 0.23 0z"/>
  </g>
 </g>
</svg>
