<?xml version="1.0" encoding="UTF-8"?>
<!DOCTYPE svg PUBLIC "-//W3C//DTD SVG 1.1//EN" "http://www.w3.org/Graphics/SVG/1.1/DTD/svg11.dtd">
<!-- Creator: CorelDRAW (Evaluation Version) -->
<svg xmlns="http://www.w3.org/2000/svg" xml:space="preserve" width="210mm" height="297mm" version="1.1" style="shape-rendering:geometricPrecision; text-rendering:geometricPrecision; image-rendering:optimizeQuality; fill-rule:evenodd; clip-rule:evenodd"
viewBox="0 0 21000 29700"
 xmlns:xlink="http://www.w3.org/1999/xlink"
 xmlns:xodm="http://www.corel.com/coreldraw/odm/2003">
 <defs>
  <style type="text/css">
   <![CDATA[
    .fil38 {fill:#7D97F4;fill-rule:nonzero}
    .fil2 {fill:#91B3FA;fill-rule:nonzero}
    .fil3 {fill:#BDD0FB;fill-rule:nonzero}
    .fil11 {fill:white;fill-rule:nonzero}
    .fil1 {fill:#91B3FA;fill-rule:nonzero;fill-opacity:0.301961}
    .fil4 {fill:white;fill-rule:nonzero;fill-opacity:0.431373}
    .fil7 {fill:#BDD0FB;fill-rule:nonzero;fill-opacity:0.474510}
    .fil8 {fill:white;fill-rule:nonzero;fill-opacity:0.501961}
    .fil5 {fill:white;fill-rule:nonzero;fill-opacity:0.521569}
    .fil6 {fill:#BDD0FB;fill-rule:nonzero;fill-opacity:0.678431}
    .fil37 {fill:url(#id0);fill-rule:nonzero}
    .fil20 {fill:url(#id1);fill-rule:nonzero}
    .fil15 {fill:url(#id2);fill-rule:nonzero}
    .fil17 {fill:url(#id3);fill-rule:nonzero}
    .fil16 {fill:url(#id4);fill-rule:nonzero}
    .fil30 {fill:url(#id5);fill-rule:nonzero}
    .fil14 {fill:url(#id6);fill-rule:nonzero}
    .fil25 {fill:url(#id7);fill-rule:nonzero}
    .fil29 {fill:url(#id8);fill-rule:nonzero}
    .fil34 {fill:url(#id9);fill-rule:nonzero}
    .fil35 {fill:url(#id10);fill-rule:nonzero}
    .fil0 {fill:url(#id11);fill-rule:nonzero}
    .fil32 {fill:url(#id12);fill-rule:nonzero}
    .fil28 {fill:url(#id13);fill-rule:nonzero}
    .fil21 {fill:url(#id14);fill-rule:nonzero}
    .fil31 {fill:url(#id15);fill-rule:nonzero}
    .fil19 {fill:url(#id16);fill-rule:nonzero}
    .fil12 {fill:url(#id17);fill-rule:nonzero}
    .fil36 {fill:url(#id18);fill-rule:nonzero}
    .fil13 {fill:url(#id19);fill-rule:nonzero}
    .fil10 {fill:url(#id20);fill-rule:nonzero}
    .fil26 {fill:url(#id21);fill-rule:nonzero}
    .fil18 {fill:url(#id22);fill-rule:nonzero}
    .fil9 {fill:url(#id23);fill-rule:nonzero}
    .fil24 {fill:url(#id24);fill-rule:nonzero}
    .fil23 {fill:url(#id25);fill-rule:nonzero}
    .fil27 {fill:url(#id26);fill-rule:nonzero}
    .fil33 {fill:url(#id27);fill-rule:nonzero}
    .fil22 {fill:url(#id28);fill-rule:nonzero}
   ]]>
  </style>
  <linearGradient id="id0" gradientUnits="userSpaceOnUse" x1="14437" y1="15465.58" x2="15432.66" y2="15465.58">
   <stop offset="0" style="stop-opacity:1; stop-color:#E1473D"/>
   <stop offset="1" style="stop-opacity:1; stop-color:#E9605A"/>
  </linearGradient>
  <linearGradient id="id1" gradientUnits="userSpaceOnUse" x1="6009.39" y1="19808.67" x2="8631.09" y2="19808.67">
   <stop offset="0" style="stop-opacity:1; stop-color:#DAE3FE"/>
   <stop offset="1" style="stop-opacity:1; stop-color:#E9EFFD"/>
  </linearGradient>
  <linearGradient id="id2" gradientUnits="userSpaceOnUse" xlink:href="#id1" x1="5731.56" y1="10414.59" x2="8749.59" y2="10414.59">
  </linearGradient>
  <linearGradient id="id3" gradientUnits="userSpaceOnUse" xlink:href="#id1" x1="5693.43" y1="11351.59" x2="6717.6" y2="11351.59">
  </linearGradient>
  <linearGradient id="id4" gradientUnits="userSpaceOnUse" xlink:href="#id1" x1="7730.87" y1="11373.39" x2="8771.39" y2="11373.39">
  </linearGradient>
  <linearGradient id="id5" gradientUnits="userSpaceOnUse" xlink:href="#id0" x1="13735.57" y1="15089.35" x2="13912.81" y2="15089.35">
  </linearGradient>
  <linearGradient id="id6" gradientUnits="userSpaceOnUse" xlink:href="#id1" x1="5622.61" y1="11019.29" x2="8831.31" y2="11019.29">
  </linearGradient>
  <linearGradient id="id7" gradientUnits="userSpaceOnUse" x1="35092.16" y1="23941.24" x2="35071.24" y2="25864.29">
   <stop offset="0" style="stop-opacity:1; stop-color:#09005D"/>
   <stop offset="1" style="stop-opacity:1; stop-color:#1A0F91"/>
  </linearGradient>
  <linearGradient id="id8" gradientUnits="userSpaceOnUse" x1="-40787.49" y1="-90333.12" x2="-38195.12" y2="-86706.43">
   <stop offset="0" style="stop-opacity:1; stop-color:#FF928E"/>
   <stop offset="1" style="stop-opacity:1; stop-color:#FE7062"/>
  </linearGradient>
  <linearGradient id="id9" gradientUnits="userSpaceOnUse" x1="33586.44" y1="12479.68" x2="34686.87" y2="13869.72">
   <stop offset="0" style="stop-opacity:1; stop-color:#FEBBBA"/>
   <stop offset="1" style="stop-opacity:1; stop-color:#FF928E"/>
  </linearGradient>
  <linearGradient id="id10" gradientUnits="userSpaceOnUse" xlink:href="#id7" x1="33520.24" y1="12800.82" x2="32259.69" y2="12800.82">
  </linearGradient>
  <linearGradient id="id11" gradientUnits="userSpaceOnUse" xlink:href="#id1" x1="18882.8" y1="22223.39" x2="8409.49" y2="12681.97">
  </linearGradient>
  <linearGradient id="id12" gradientUnits="userSpaceOnUse" xlink:href="#id9" x1="33951.43" y1="15312.37" x2="31407.35" y2="15312.37">
  </linearGradient>
  <linearGradient id="id13" gradientUnits="userSpaceOnUse" xlink:href="#id7" x1="19586.39" y1="11846.6" x2="16991.73" y2="15555.9">
  </linearGradient>
  <linearGradient id="id14" gradientUnits="userSpaceOnUse" xlink:href="#id7" x1="5889.59" y1="4340.24" x2="4866.87" y2="5955.8">
  </linearGradient>
  <linearGradient id="id15" gradientUnits="userSpaceOnUse" xlink:href="#id9" x1="35204.4" y1="17049.89" x2="33842.48" y2="17049.89">
  </linearGradient>
  <linearGradient id="id16" gradientUnits="userSpaceOnUse" x1="4914.41" y1="21675" x2="13412.83" y2="14908.95">
   <stop offset="0" style="stop-opacity:1; stop-color:#4F52FF"/>
   <stop offset="1" style="stop-opacity:1; stop-color:#4042E2"/>
  </linearGradient>
  <linearGradient id="id17" gradientUnits="userSpaceOnUse" xlink:href="#id16" x1="11070.32" y1="7674.39" x2="1542.28" y2="15720.66">
  </linearGradient>
  <linearGradient id="id18" gradientUnits="userSpaceOnUse" xlink:href="#id9" x1="31212.47" y1="13446.22" x2="30497.85" y2="12687.17">
  </linearGradient>
  <linearGradient id="id19" gradientUnits="userSpaceOnUse" xlink:href="#id16" x1="5579.03" y1="12174.2" x2="13750.59" y2="6802.76">
  </linearGradient>
  <linearGradient id="id20" gradientUnits="userSpaceOnUse" xlink:href="#id8" x1="14949.08" y1="4590.99" x2="12257.91" y2="8360.8">
  </linearGradient>
  <linearGradient id="id21" gradientUnits="userSpaceOnUse" xlink:href="#id9" x1="35939.85" y1="22033.56" x2="36037.9" y2="21281.9">
  </linearGradient>
  <linearGradient id="id22" gradientUnits="userSpaceOnUse" xlink:href="#id16" x1="12671.94" y1="12299.5" x2="2457.49" y2="25946">
  </linearGradient>
  <linearGradient id="id23" gradientUnits="userSpaceOnUse" xlink:href="#id0" x1="14818.34" y1="4492.93" x2="12121.72" y2="8257.3">
  </linearGradient>
  <linearGradient id="id24" gradientUnits="userSpaceOnUse" xlink:href="#id9" x1="33062.63" y1="21768.79" x2="33162.52" y2="20996.18">
  </linearGradient>
  <linearGradient id="id25" gradientUnits="userSpaceOnUse" xlink:href="#id7" x1="32977.54" y1="23814.13" x2="32961.46" y2="25646.1">
  </linearGradient>
  <linearGradient id="id26" gradientUnits="userSpaceOnUse" xlink:href="#id7" x1="34159.89" y1="19152.71" x2="31486.35" y2="19152.71">
  </linearGradient>
  <linearGradient id="id27" gradientUnits="userSpaceOnUse" xlink:href="#id9" x1="34866.65" y1="13858.85" x2="33984.12" y2="13059.48">
  </linearGradient>
  <linearGradient id="id28" gradientUnits="userSpaceOnUse" xlink:href="#id7" x1="-131590.27" y1="-3380.84" x2="-129731.63" y2="-3141.02">
  </linearGradient>
 </defs>
 <g id="Layer_x0020_1">
  <metadata id="CorelCorpID_0Corel-Layer"/>
  <g id="_105553325063712">
   <path class="fil0" d="M17360.77 17535.13c-1454.98,3425.89 -5330.7,5345.1 -8691.74,4827.4 -546.91,-84.24 -2046.28,-335.18 -3373.76,-1519.02 -2555.49,-2278.98 -3102,-6791.65 -1040.56,-9971.84 1500.36,-2314.61 4189.92,-3626.69 6745.52,-3561.06 550.48,14.14 2660.14,101.26 4514.16,1630.05 272.32,224.55 872.95,758.15 1414.26,1604.65 1271.09,1987.75 1380.35,4757.13 432.12,6989.82z"/>
   <path class="fil1" d="M12250.55 9546.39c-29.7,-1.21 -52.79,-26.29 -51.57,-55.97 2.36,-57.69 2.26,-116.34 -0.31,-174.32 -1.3,-29.34 21.15,-54.22 50.32,-56.08 0.35,-0.02 0.7,-0.04 1.05,-0.06 29.68,-1.32 54.81,21.68 56.13,51.38 2.71,61.03 2.83,122.77 0.33,183.5 -1.13,27.77 -23.15,49.76 -50.29,51.48 -1.86,0.12 -3.75,0.16 -5.66,0.07zm-83.77 -511.66c-10.44,-57.06 -23.43,-114.21 -38.61,-169.93 -7.81,-28.64 9.08,-58.24 37.76,-66.06 28.8,-7.75 58.25,9.11 66.06,37.78 15.98,58.61 29.65,118.77 40.66,178.81 5.35,29.23 -14.02,57.27 -43.25,62.62 -2.12,0.39 -4.24,0.65 -6.34,0.78 -26.84,1.71 -51.31,-16.89 -56.28,-44zm-131.85 -437.14c-22.83,-53.16 -48.24,-105.97 -75.56,-156.99 -14.03,-26.2 -4.16,-58.81 22.03,-72.84 26.19,-13.98 58.79,-4.15 72.84,22.04 28.77,53.73 55.54,109.36 79.56,165.33 11.72,27.31 -0.92,58.94 -28.21,70.68 -5.83,2.49 -11.84,3.89 -17.82,4.27 -22.06,1.4 -43.62,-11.01 -52.84,-32.49zm-226.32 -396.67c-34.17,-46.77 -70.77,-92.6 -108.77,-136.22 -19.52,-22.41 -17.18,-56.41 5.22,-75.92 22.42,-19.49 56.4,-17.14 75.92,5.22 40.01,45.94 78.54,94.19 114.52,143.4 17.53,23.99 12.3,57.66 -11.69,75.19 -8.59,6.27 -18.41,9.64 -28.29,10.27 -17.74,1.12 -35.64,-6.55 -46.91,-21.94zm-309.05 -336.37c-43.6,-37.92 -89.44,-74.52 -136.26,-108.74 -23.99,-17.56 -29.2,-51.22 -11.67,-75.21 17.54,-24 51.21,-29.22 75.19,-11.65 49.25,36 97.49,74.51 143.37,114.41 22.42,19.49 24.79,53.48 5.28,75.9 -9.83,11.31 -23.33,17.51 -37.19,18.39 -13.63,0.87 -27.59,-3.42 -38.72,-13.1zm-375.76 -259.6c-50.98,-27.39 -103.77,-52.91 -156.91,-75.88 -27.28,-11.79 -39.83,-43.47 -28.04,-70.74 11.79,-27.28 43.44,-39.84 70.73,-28.05 55.92,24.17 111.49,51.05 165.15,79.86 26.17,14.07 36,46.68 21.94,72.87 -9.14,17.01 -26.1,27.1 -44.05,28.24 -9.69,0.61 -19.64,-1.36 -28.82,-6.3zm-1997.94 -25.05c-13.99,-26.22 -4.07,-58.82 22.15,-72.8 53.72,-28.64 109.43,-55.32 165.55,-79.29 27.33,-11.68 58.95,1.02 70.61,28.35 11.68,27.31 -1.02,58.93 -28.34,70.6 -53.29,22.76 -106.18,48.1 -157.18,75.3 -7.01,3.73 -14.45,5.76 -21.88,6.24 -20.41,1.29 -40.67,-9.17 -50.91,-28.4zm1574.23 -144.7c-55.76,-15.35 -112.87,-28.47 -169.74,-38.97 -29.23,-5.41 -48.54,-33.48 -43.14,-62.7 5.39,-29.24 33.46,-48.39 62.69,-43.13 59.9,11.07 120.04,24.88 178.76,41.05 28.64,7.89 45.48,37.51 37.59,66.17 -6.25,22.72 -26.19,38.02 -48.46,39.43 -5.81,0.37 -11.77,-0.23 -17.7,-1.85zm-1142.79 -39.08c-7.76,-28.68 9.21,-58.23 37.9,-65.99 58.76,-15.88 118.99,-29.43 178.99,-40.32 29.25,-5.44 57.24,14.12 62.55,43.36 5.29,29.23 -14.11,57.23 -43.36,62.54 -57.02,10.34 -114.26,23.22 -170.1,38.32 -3.56,0.96 -7.14,1.53 -10.68,1.75 -25,1.59 -48.51,-14.55 -55.3,-39.66zm691.86 -31.7c-57.76,-2.49 -116.38,-2.51 -174.26,-0.06 -29.69,1.27 -54.78,-21.77 -56.04,-51.48 -1.24,-29.3 21.19,-54.12 50.33,-55.97 0.38,-0.02 0.77,-0.05 1.14,-0.05 60.94,-2.6 122.65,-2.58 183.44,0.02 29.69,1.3 52.73,26.39 51.46,56.09 -1.19,27.73 -23.19,49.65 -50.28,51.37 -1.92,0.13 -3.85,0.14 -5.79,0.08z"/>
   <path class="fil1" d="M8860.84 7815.52c10.57,-0.67 21.06,-4.46 29.99,-11.55 21.73,-17.26 44.18,-34.33 66.72,-50.8 24,-17.51 29.27,-51.18 11.75,-75.18 -17.51,-24.01 -51.19,-29.3 -75.18,-11.74 -23.72,17.31 -47.33,35.27 -70.2,53.42 -23.26,18.48 -27.16,52.34 -8.69,75.6 11.39,14.35 28.61,21.32 45.61,20.25z"/>
   <path class="fil1" d="M8076.4 9256.27c25.92,-1.65 47.54,-21.89 50.1,-48.57 2.64,-27.61 5.91,-55.64 9.71,-83.28 4.05,-29.45 -16.53,-56.6 -45.97,-60.64 -29.56,-4.07 -56.59,16.54 -60.64,45.97 -4,29.1 -7.44,58.62 -10.23,87.69 -2.83,29.58 18.85,55.86 48.43,58.69 2.91,0.28 5.78,0.31 8.6,0.14z"/>
   <path class="fil1" d="M10187.12 11553.34c-29.71,0.43 -54.15,-23.31 -54.57,-53.04 -0.42,-29.72 23.29,-54.09 53.03,-54.57 56.57,-0.81 113.99,-4.05 171.31,-9.63 29.42,-2.96 55.88,18.78 58.76,48.35 2.88,29.58 -18.77,55.88 -48.34,58.78 -24.84,2.42 -49.62,4.41 -74.33,5.98 -35.25,2.23 -70.87,3.63 -105.86,4.13zm404.68 -98.2c-6.85,-28.9 11.04,-57.9 39.95,-64.75 55.51,-13.17 111.07,-28.81 165.12,-46.51 28.17,-9.33 58.63,6.13 67.89,34.37 9.24,28.23 -6.15,58.63 -34.38,67.87 -56.91,18.65 -115.4,35.13 -173.81,48.97 -3.03,0.72 -6.07,1.16 -9.07,1.35 -25.68,1.63 -49.56,-15.41 -55.7,-41.3zm-697.46 82.32c-59.41,-7.32 -119.33,-17.29 -178.08,-29.65 -29.08,-6.12 -47.7,-34.65 -41.59,-63.75 6.12,-29.07 34.64,-47.65 63.73,-41.57 55.8,11.75 112.68,21.22 169.11,28.16 29.49,3.65 50.45,30.5 46.82,60 -3.22,26.09 -24.62,45.49 -49.94,47.1 -3.29,0.21 -6.65,0.13 -10.05,-0.29zm1135.89 -226.32c-13.03,-26.7 -1.96,-58.93 24.75,-71.95 51.19,-24.99 101.92,-52.47 150.78,-81.66 25.52,-15.27 58.54,-6.94 73.79,18.58 15.24,25.51 6.92,58.53 -18.58,73.78 -51.46,30.75 -104.89,59.69 -158.79,86 -6.51,3.17 -13.35,4.94 -20.17,5.37 -21.1,1.33 -41.92,-9.94 -51.78,-30.12zm-1595.87 116.8c-56.31,-20.21 -112.54,-43.11 -167.15,-68.07 -27.03,-12.35 -38.92,-44.27 -26.58,-71.29 12.35,-27.05 44.29,-38.93 71.31,-26.58 51.87,23.71 105.28,45.46 158.76,64.64 27.98,10.04 42.52,40.86 32.48,68.83 -7.48,20.84 -26.5,34.22 -47.26,35.54 -7.11,0.45 -14.44,-0.52 -21.56,-3.07zm-424.81 -207.76c-50.66,-32.1 -100.55,-66.71 -148.29,-102.88 -23.69,-17.95 -28.34,-51.69 -10.4,-75.39 17.98,-23.72 51.71,-28.36 75.38,-10.39 45.36,34.36 92.77,67.26 140.91,97.77 25.1,15.91 32.55,49.16 16.64,74.26 -9.59,15.12 -25.48,23.83 -42.08,24.89 -10.94,0.7 -22.2,-1.94 -32.16,-8.26zm-369.46 -295.4c-42.49,-42.4 -83.65,-87.06 -122.35,-132.73 -19.22,-22.68 -16.4,-56.62 6.26,-75.84 22.7,-19.23 56.64,-16.4 75.84,6.27 36.77,43.4 75.89,85.83 116.27,126.12 21.03,20.99 21.07,55.06 0.08,76.08 -9.64,9.67 -22.03,14.9 -34.66,15.7 -14.88,0.95 -30.07,-4.25 -41.44,-15.6zm-296.21 -368.97c-32.19,-50.65 -62.58,-103.26 -90.33,-156.39 -13.76,-26.33 -3.57,-58.84 22.79,-72.61 26.29,-13.74 58.83,-3.54 72.6,22.8 26.34,50.42 55.2,100.38 85.78,148.5 15.93,25.08 8.52,58.32 -16.56,74.26 -7.93,5.03 -16.65,7.73 -25.4,8.28 -18.96,1.22 -37.97,-7.67 -48.88,-24.84zm-208.01 -425.25c-20.19,-56.36 -38.22,-114.33 -53.61,-172.33 -7.63,-28.72 9.48,-58.2 38.2,-65.82 28.64,-7.58 58.19,9.48 65.81,38.21 14.62,55.09 31.75,110.15 50.91,163.69 10.02,27.96 -4.54,58.77 -32.52,68.78 -4.87,1.74 -9.82,2.75 -14.74,3.07 -23.33,1.48 -45.79,-12.49 -54.05,-35.6zm-109.45 -460.07c-5.47,-43.77 -9.66,-88.26 -12.45,-132.2 -1.01,-15.92 -1.84,-31.79 -2.5,-47.65 -1.23,-29.68 21.43,-55.32 51.52,-55.98 29.69,-1.26 54.76,21.81 56.01,51.51 0.63,15.07 1.41,30.18 2.37,45.3 2.65,41.79 6.63,84.06 11.83,125.68 3.69,29.48 -17.23,56.37 -46.71,60.06 -1.11,0.13 -2.22,0.25 -3.32,0.32 -28.16,1.78 -53.21,-18.66 -56.75,-47.04z"/>
   <path class="fil1" d="M11472.67 11093.37c10.68,-0.68 21.25,-4.53 30.22,-11.72 22.73,-18.22 45.49,-37.27 67.67,-56.62 22.4,-19.54 24.72,-53.53 5.19,-75.92 -19.54,-22.39 -53.51,-24.74 -75.92,-5.18 -21.07,18.37 -42.7,36.47 -64.27,53.78 -23.18,18.57 -26.9,52.44 -8.31,75.63 11.4,14.2 28.54,21.09 45.42,20.03z"/>
   <path class="fil2" d="M11574.32 10176.54c6.24,-8.74 6.26,-20.45 0.05,-29.21l-177.27 -249.52c54.48,-132.16 88.27,-273.95 97.94,-420.72l268.96 -145.69c9.44,-5.11 14.58,-15.64 12.83,-26.23l-60.07 -362.18c-1.75,-10.59 -10.03,-18.9 -20.6,-20.69l-301.6 -51.06c-56.52,-135.8 -134.28,-259.1 -228.5,-366.59l87.23 -293.38c3.06,-10.29 -0.74,-21.38 -9.47,-27.62l-298.58 -213.64c-8.72,-6.24 -20.46,-6.26 -29.2,-0.05l-249.52 177.26c-132.15,-54.47 -273.94,-88.27 -420.73,-97.93l-145.68 -268.96c-5.11,-9.44 -15.64,-14.59 -26.23,-12.83l-362.19 60.06c-10.59,1.76 -18.89,10.03 -20.68,20.61l-51.06 301.6c-135.81,56.52 -259.1,134.28 -366.6,228.5l-293.38 -87.24c-10.28,-3.05 -21.38,0.75 -27.62,9.48l-213.64 298.58c-6.24,8.72 -6.26,20.45 -0.05,29.19l177.27 249.53c-54.48,132.15 -88.27,273.94 -97.93,420.72l-268.97 145.68c-9.43,5.11 -14.59,15.64 -12.83,26.23l60.06 362.19c1.76,10.59 10.04,18.89 20.61,20.68l301.6 51.07c56.53,135.81 134.28,259.1 228.5,366.59l-87.23 293.38c-3.06,10.28 0.74,21.38 9.47,27.62l298.58 213.64c8.73,6.24 20.45,6.26 29.2,0.05l249.53 -177.27c132.15,54.48 273.93,88.27 420.72,97.94l145.69 268.97c5.11,9.42 15.64,14.58 26.22,12.82l362.19 -60.06c10.59,-1.76 18.89,-10.03 20.68,-20.62l51.06 -301.59c135.81,-56.53 259.1,-134.28 366.59,-228.5l293.39 87.24c10.28,3.06 21.38,-0.75 27.62,-9.47l213.64 -298.58z"/>
   <path class="fil3" d="M10125.95 9755.59c-202.79,-16.87 -354.05,-195.55 -337.2,-398.36 8.16,-98.23 54.1,-187.41 129.33,-251.1 75.22,-63.68 170.76,-94.28 269.01,-86.09 202.79,16.87 354.05,195.55 337.2,398.36 -15.34,184.49 -164.61,326.33 -344.14,337.73 -17.81,1.12 -35.92,0.97 -54.2,-0.54zm-152.25 -583.74c-57.69,48.84 -92.9,117.2 -99.16,192.53 -12.92,155.47 103.06,292.49 258.54,305.41 155.52,12.99 292.49,-103.06 305.42,-258.54 12.91,-155.47 -103.06,-292.5 -258.54,-305.42 -14.1,-1.17 -28.11,-1.29 -41.97,-0.41 -60.21,3.82 -117.4,26.75 -164.29,66.43z"/>
   <path class="fil3" d="M10206.38 10288.55c30.83,-1.95 61.75,-5.47 92.64,-10.59l0 0c9.72,-1.61 19.43,-3.39 29.1,-5.3 47.67,-9.49 94.52,-22.76 139.82,-39.6 0.61,-0.23 1.23,-0.46 1.85,-0.69 1.75,-0.66 3.5,-1.32 5.25,-2 3.4,-1.29 6.79,-2.62 10.17,-3.95 8.9,-3.51 14.14,-12.29 13.58,-21.35 -0.15,-2.2 -0.63,-4.43 -1.49,-6.58 -4.37,-11.06 -16.88,-16.43 -27.92,-12.09 -56.88,22.5 -116.56,39.01 -177.4,49.08 -302.16,50.16 -594.28,-63.73 -785.2,-276.28 -106.2,-118.21 -181.08,-266.96 -208.94,-435.03 -4.89,-29.47 -8.26,-58.97 -10.11,-88.38 -12.54,-197.93 42.91,-392.53 159.88,-556 134.34,-187.77 333.78,-311.99 561.54,-349.76 470.4,-77.96 916.18,241.14 994.14,711.31 4.81,28.99 8.14,58.12 9.97,87.25 7.99,126.26 -11.73,252.86 -58.2,370.65 -1.19,3.05 -1.66,6.2 -1.45,9.26 0.51,8.05 5.56,15.5 13.58,18.66 11.07,4.33 23.56,-1.03 27.92,-12.14 48.79,-123.66 69.5,-256.59 61.11,-389.14 -1.92,-30.58 -5.42,-61.15 -10.45,-91.58 -81.86,-493.64 -550.19,-828.58 -1043.65,-746.75 -239.12,39.65 -448.47,170.05 -589.51,367.18 -122.8,171.6 -181,375.9 -167.85,583.69 1.97,30.88 5.5,61.84 10.62,92.77 39.66,239.13 170.06,448.49 367.18,589.53 171.63,122.83 375.99,181.03 583.82,167.83z"/>
   <path class="fil1" d="M14178.53 10845.13c14.35,-0.91 26.97,-11.11 30.29,-25.86 6.22,-27.51 11.69,-55.6 16.25,-83.47 2.96,-18.1 -9.31,-35.18 -27.43,-38.16 -18.13,-3.04 -35.2,9.33 -38.16,27.43 -4.35,26.56 -9.56,53.32 -15.49,79.59 -4.04,17.88 7.2,35.67 25.1,39.74 3.18,0.7 6.34,0.92 9.44,0.73z"/>
   <path class="fil1" d="M14208.31 10591.7c-18.34,-0.72 -32.63,-16.14 -31.92,-34.5 1.76,-46.29 1.17,-93.2 -1.76,-139.42 -0.63,-9.75 -1.36,-19.53 -2.19,-29.33 -1.53,-18.27 12.02,-34.36 30.32,-35.91 17.35,-0.77 34.36,12.04 35.92,30.34 0.86,10.26 1.63,20.49 2.27,30.69 3.07,48.45 3.7,97.65 1.83,146.19 -0.65,17.18 -14.25,30.82 -31.06,31.89 -1.12,0.07 -2.25,0.07 -3.41,0.05zm-60.31 -370.24c-11.51,-54.97 -26.51,-109.73 -44.62,-162.73 -5.93,-17.37 3.32,-36.24 20.7,-42.19 17.28,-5.88 36.26,3.33 42.19,20.7 18.99,55.54 34.73,112.95 46.78,170.59 3.76,17.98 -7.76,35.58 -25.73,39.36 -1.57,0.33 -3.17,0.52 -4.74,0.62 -16.23,1.03 -31.15,-9.98 -34.58,-26.35zm-109.06 -318.73c-24.58,-50.4 -52.59,-99.78 -83.27,-146.81 -10.01,-15.36 -5.68,-35.96 9.68,-45.98 15.43,-10.05 35.96,-5.73 46,9.67 32.17,49.3 61.54,101.12 87.33,153.96 8.04,16.5 1.21,36.41 -15.29,44.45 -4.03,1.94 -8.25,3.03 -12.46,3.29 -13.04,0.83 -25.9,-6.12 -31.99,-18.58zm-184.04 -282.2c-36.25,-42.9 -75.5,-83.95 -116.63,-121.92 -13.49,-12.48 -14.32,-33.5 -1.86,-46.97 12.44,-13.44 33.47,-14.32 46.96,-1.88 43.14,39.87 84.28,82.88 122.3,127.88 11.85,14.01 10.08,35 -3.93,46.85 -5.67,4.75 -12.45,7.33 -19.32,7.76 -10.15,0.64 -20.45,-3.35 -27.52,-11.72zm-247.36 -228.71c-45.57,-32.78 -93.59,-63.04 -142.74,-89.96 -16.09,-8.8 -21.99,-29.01 -13.18,-45.11 8.82,-16.11 29.01,-22.04 45.11,-13.18 51.52,28.21 101.86,59.94 149.63,94.27 14.88,10.74 18.28,31.49 7.57,46.39 -6.05,8.41 -15.31,13.16 -24.9,13.77 -7.39,0.47 -14.99,-1.52 -21.49,-6.18zm-295.38 -161.74c-52.12,-20.69 -106.02,-38.31 -160.23,-52.36 -17.75,-4.6 -28.43,-22.75 -23.82,-40.5 4.62,-17.76 22.69,-28.4 40.52,-23.84 56.84,14.73 113.39,33.22 168.07,54.93 17.05,6.78 25.4,26.09 18.63,43.14 -4.91,12.34 -16.38,20.12 -28.81,20.91 -4.74,0.3 -9.63,-0.4 -14.36,-2.28zm-325.82 -84.55c-55.44,-7.25 -112.07,-11.1 -168.33,-11.43 -18.35,-0.14 -33.14,-15.1 -33.02,-33.45 0.11,-18.34 15.05,-32.85 33.45,-33.05 58.98,0.39 118.35,4.42 176.5,12.02 18.2,2.39 31.03,19.07 28.65,37.27 -2.09,16 -15.27,27.86 -30.82,28.85 -2.1,0.13 -4.25,0.08 -6.43,-0.21zm-543.12 3.39c-4.35,-17.84 6.57,-35.8 24.41,-40.15 49.36,-12.05 100.23,-21.58 151.06,-28.36 7.72,-1.07 15.42,-2.01 23.13,-2.93 18.08,-2.64 34.74,10.94 36.83,29.21 2.11,18.24 -10.95,34.71 -29.19,36.84 -7.24,0.82 -14.47,1.74 -21.84,2.76 -48.65,6.46 -97.17,15.56 -144.25,27.04 -1.94,0.48 -3.89,0.77 -5.8,0.89 -15.79,1 -30.48,-9.42 -34.35,-25.3z"/>
   <path class="fil1" d="M12879.34 11936.77c-57.85,2.92 -116.37,2.31 -173.96,-1.74 -18.29,-1.31 -32.1,-17.18 -30.81,-35.51 1.29,-18.33 17.31,-31.93 35.51,-30.81 54.92,3.9 110.74,4.45 165.92,1.66 18.33,-0.93 33.94,13.2 34.86,31.51 0.91,18.19 -12.96,33.7 -31.07,34.85 0,0.01 -0.31,0.03 -0.45,0.04zm134.63 -46.34c-3.11,-18.07 9.03,-35.27 27.11,-38.37 54.41,-9.37 108.8,-22.12 161.67,-37.93 17.49,-5.18 36.1,4.73 41.35,22.35 5.26,17.59 -4.73,36.07 -22.32,41.35 -55.4,16.55 -112.41,29.93 -169.42,39.73 -1.21,0.21 -2.38,0.35 -3.58,0.42 -16.72,1.06 -31.9,-10.63 -34.81,-27.55zm-481.18 21.7c-56.87,-11.16 -113.54,-25.86 -168.44,-43.75 -17.45,-5.69 -27,-24.47 -21.3,-41.9 5.67,-17.47 24.37,-26.94 41.88,-21.33 52.36,17.07 106.41,31.1 160.66,41.77 18.02,3.54 29.74,21.01 26.22,38.99 -2.98,15.15 -15.79,25.85 -30.5,26.78 -2.78,0.18 -5.64,0.01 -8.52,-0.56zm808.68 -111.43c-7.38,-16.8 0.28,-36.4 17.08,-43.78 50.57,-22.17 100.25,-47.66 147.69,-75.81 15.79,-9.33 36.18,-4.12 45.54,11.61 9.36,15.8 4.16,36.19 -11.64,45.55 -49.74,29.53 -101.87,56.28 -154.9,79.52 -3.67,1.59 -7.46,2.49 -11.23,2.73 -13.54,0.86 -26.78,-6.69 -32.54,-19.82zm-1138.89 3.81c-52.39,-24.45 -103.84,-52.37 -152.93,-82.97 -15.58,-9.71 -20.33,-30.23 -10.62,-45.8 9.71,-15.58 30.21,-20.35 45.8,-10.61 46.81,29.22 95.88,55.83 145.86,79.12 16.63,7.76 23.83,27.53 16.05,44.19 -5.3,11.39 -16.29,18.36 -28.03,19.11 -5.36,0.34 -10.9,-0.61 -16.13,-3.04zm-294.79 -183.72c-45.11,-36.36 -88.4,-75.79 -128.68,-117.17 -12.8,-13.14 -12.53,-34.16 0.62,-46.96 13.13,-12.8 34.18,-12.54 47,0.62 38.42,39.45 79.73,77.06 122.78,111.75 14.29,11.52 16.53,32.45 5.01,46.74 -6.09,7.54 -14.8,11.74 -23.79,12.31 -7.99,0.5 -16.2,-1.87 -22.94,-7.29zm-242.33 -249.04c-35.13,-46.12 -67.71,-94.82 -96.86,-144.67 -9.26,-15.87 -3.92,-36.21 11.93,-45.47 15.83,-9.27 36.19,-3.89 45.45,11.91 27.79,47.57 58.86,93.98 92.37,137.94 11.12,14.61 8.3,35.47 -6.31,46.58 -5.41,4.14 -11.69,6.33 -18,6.73 -10.73,0.68 -21.58,-3.84 -28.58,-13.02z"/>
   <path class="fil1" d="M13667.28 11646.44c6.39,-0.41 12.74,-2.67 18.19,-6.89 22.51,-17.39 44.59,-35.54 65.67,-53.92 13.82,-12.06 15.27,-33.06 3.2,-46.9 -12.08,-13.77 -33.04,-15.23 -46.9,-3.2 -20.09,17.54 -41.17,34.84 -62.64,51.46 -14.52,11.22 -17.18,32.11 -5.95,46.61 7.02,9.06 17.78,13.51 28.43,12.84z"/>
   <path class="fil2" d="M13755.46 11019.93c4.18,-5.84 4.19,-13.68 0.04,-19.54l-118.62 -166.97c36.45,-88.43 59.06,-183.31 65.53,-281.53l179.98 -97.48c6.31,-3.43 9.75,-10.47 8.58,-17.56l-40.19 -242.35c-1.17,-7.09 -6.71,-12.65 -13.79,-13.84l-201.82 -34.17c-37.83,-90.87 -89.85,-173.38 -152.9,-245.31l58.37 -196.32c2.04,-6.88 -0.5,-14.31 -6.35,-18.48l-199.79 -142.96c-5.84,-4.17 -13.68,-4.19 -19.54,-0.03l-166.97 118.62c-88.43,-36.46 -183.31,-59.07 -281.54,-65.54l-97.48 -179.97c-3.42,-6.32 -10.46,-9.76 -17.55,-8.59l-242.36 40.2c-7.09,1.17 -12.64,6.71 -13.84,13.79l-34.17 201.82c-90.87,37.82 -173.38,89.85 -245.3,152.9l-196.33 -58.37c-6.88,-2.05 -14.3,0.49 -18.48,6.33l-142.96 199.8c-4.17,5.84 -4.18,13.69 -0.03,19.53l118.62 166.98c-36.46,88.43 -59.07,183.3 -65.54,281.52l-179.98 97.49c-6.31,3.42 -9.76,10.47 -8.58,17.55l40.19 242.37c1.18,7.08 6.71,12.63 13.79,13.83l201.81 34.17c37.83,90.87 89.86,173.38 152.9,245.31l-58.37 196.32c-2.05,6.88 0.5,14.3 6.34,18.48l199.79 142.96c5.84,4.17 13.69,4.19 19.54,0.03l166.97 -118.62c88.43,36.46 183.31,59.07 281.53,65.53l97.49 179.98c3.42,6.31 10.46,9.76 17.55,8.58l242.36 -40.19c7.08,-1.18 12.64,-6.71 13.84,-13.79l34.16 -201.81c90.88,-37.83 173.38,-89.86 245.31,-152.9l196.32 58.37c6.88,2.05 14.3,-0.5 18.48,-6.34l142.99 -199.8z"/>
   <path class="fil3" d="M12785.93 10742.67c-66.93,-5.54 -127.68,-36.84 -171.06,-88.1 -43.38,-51.23 -64.21,-116.31 -58.64,-183.24 11.48,-138.12 133.01,-240.95 271.35,-229.7 138.14,11.52 241.16,133.24 229.67,271.33 -5.56,66.92 -36.84,127.67 -88.08,171.06 -41.66,35.26 -92.47,55.62 -145.98,59.02 -12.29,0.77 -24.76,0.65 -37.26,-0.37zm-163.47 -265.85c-4.09,49.23 11.22,97.1 43.15,134.82 31.9,37.68 76.6,60.7 125.81,64.79l0 0c49.23,4.03 97.09,-11.23 134.81,-43.15 37.69,-31.89 60.69,-76.6 64.79,-125.8 8.45,-101.61 -67.33,-191.14 -168.94,-199.61 -9.17,-0.75 -18.23,-0.83 -27.15,-0.26 -89.97,5.7 -164.79,76.79 -172.47,169.21z"/>
   <path class="fil3" d="M12841.93 11113.61c20.99,-1.34 42.07,-3.75 63.25,-7.24 42.05,-6.96 83.43,-18.2 123.09,-33.47 1.78,-0.7 3.56,-1.4 5.34,-2.1 13.73,-5.42 21.83,-18.98 20.96,-32.97 -0.22,-3.4 -0.97,-6.83 -2.29,-10.16 -6.75,-17.06 -26.06,-25.34 -43.12,-18.66 -36.9,14.6 -75.53,25.28 -114.83,31.77l-0.01 0c-2.16,0.37 -4.33,0.7 -6.47,1.03 -93.14,14.53 -186.38,5.3 -272.84,-25.63 -46.93,-16.8 -91.89,-40.03 -133.74,-69.4 -0.34,-0.24 -0.68,-0.48 -1.02,-0.72 -1.04,-0.75 -2.07,-1.45 -3.1,-2.21 -121.54,-86.98 -201.96,-216.08 -226.41,-363.53 -3.18,-19.09 -5.35,-38.17 -6.56,-57.21 -8.12,-128.13 27.79,-254.11 103.5,-359.96 86.99,-121.55 216.09,-201.94 363.53,-226.38 147.36,-24.38 295.6,9.99 417.17,96.93 121.55,86.98 201.97,216.08 226.42,363.54 3.12,18.75 5.26,37.61 6.46,56.46 5.17,81.76 -7.6,163.7 -37.68,239.95 -1.85,4.7 -2.57,9.56 -2.25,14.29 0.79,12.43 8.59,23.94 20.96,28.81 17.09,6.69 36.37,-1.62 43.12,-18.74 33.66,-85.31 47.95,-177.02 42.18,-268.45 -1.34,-21.12 -3.73,-42.2 -7.22,-63.19 -27.36,-164.99 -117.32,-309.42 -253.33,-406.73 -135.99,-97.29 -301.66,-135.94 -466.69,-108.46 -164.98,27.35 -309.41,117.29 -406.71,253.32 -84.73,118.38 -124.88,259.33 -115.8,402.68 1.35,21.28 3.78,42.66 7.32,63.99 52.98,319.4 340.36,542.52 656.77,522.44z"/>
   <path class="fil2" d="M17879.02 14285.59c-0.83,-48.11 -20.94,-93.88 -55.79,-127.06 -34.85,-33.18 -81.56,-50.99 -129.67,-49.46l-3892.13 124.37c-99.06,3.16 -176.87,85.93 -173.92,185l192.04 6445.97c2.92,97.82 83.55,175.33 181.41,174.38l3813.9 -37.1c47.9,-0.46 93.64,-20.03 127.06,-54.37 33.41,-34.33 51.73,-80.59 50.9,-128.48l-113.8 -6533.25z"/>
   <path class="fil4" d="M17472.97 14600.86l-3465.96 0c-33.71,0 -60.76,17.99 -60.41,49.95l3.31 302.62c0.35,32.1 28.15,66.73 61.95,66.76l3475.83 2.8c34.41,0.04 61.04,-37.34 59.94,-69.73l-10.54 -301.68c-1.1,-32.25 -29.8,-50.72 -64.12,-50.72z"/>
   <path class="fil4" d="M17495.48 15252.98l-3481.05 -5.79c-33.86,-0.05 -60.95,32.26 -60.6,64.49l3.34 309.24c0.34,32.39 28.2,63.09 62.15,63.18l3491 9.64c34.57,0.1 61.53,-30.73 60.42,-63.41l-10.64 -312.05c-1.11,-32.54 -30.16,-65.25 -64.62,-65.3z"/>
   <path class="fil4" d="M17518.96 15950.08l-3496.79 -11.89c-34.01,-0.12 -61.41,15.59 -61.06,48.11l3.37 311.95c0.35,32.66 28.26,57.35 62.37,57.5l3506.31 15.61c34.71,0.16 62.01,-24.52 60.88,-57.49l-10.73 -314.81c-1.12,-32.82 -29.73,-48.86 -64.35,-48.98z"/>
   <path class="fil4" d="M17541.87 16629.93l-3512.16 -17.89c-34.15,-0.17 -61.6,21.97 -61.25,54.78l3.4 314.68c0.36,32.95 28.32,51.52 62.57,51.74l3521.76 21.67c34.86,0.21 62.5,-18.19 61.36,-51.45l-10.83 -317.6c-1.12,-33.11 -30.08,-55.75 -64.85,-55.93z"/>
   <path class="fil4" d="M17564.97 17315.77l-3527.64 -24.01c-34.31,-0.23 -61.81,28.47 -61.44,61.57l3.42 317.45c0.36,33.25 28.64,69.27 63.04,69.54l3537.88 28.06c35.02,0.28 62.19,-35.63 61.05,-69.19l-10.92 -320.43c-1.15,-33.41 -30.46,-62.76 -65.39,-62.99z"/>
   <path class="fil4" d="M17588.29 18007.65l-3543.28 -30.22c-34.46,-0.29 -62,35.07 -61.65,68.46l3.46 320.27c0.36,33.54 28.7,63.43 63.25,63.77l3553.59 34.33c35.19,0.35 62.69,-29.29 61.54,-63.14l-11.02 -323.3c-1.15,-33.71 -30.82,-69.88 -65.89,-70.17z"/>
   <path class="fil4" d="M17612.62 18729.83l-3559.6 -36.75c-34.61,-0.36 -62.47,17.83 -62.11,51.51l3.49 323.12c0.37,33.83 28.76,57.49 63.46,57.89l3569.46 40.73c35.34,0.4 63.19,-22.83 62.03,-56.99l-11.13 -326.2c-1.15,-34 -30.36,-52.94 -65.6,-53.31z"/>
   <path class="fil4" d="M17636.34 19434.28l-3575.51 -43.19c-34.76,-0.42 -62.68,24.45 -62.31,58.43l3.53 326.01c0.36,34.14 28.81,51.45 63.67,51.91l3585.47 47.24c35.51,0.47 63.7,-16.26 62.53,-50.72l-11.23 -329.14c-1.17,-34.32 -30.74,-60.11 -66.15,-60.54z"/>
   <path class="fil4" d="M17660.29 20145.02l-3591.57 -49.74c-34.92,-0.48 -62.89,31.19 -62.52,65.49l3.56 328.93c0.37,34.45 29.14,69.82 64.16,70.35l3602.17 54.08c35.68,0.54 63.39,-34.31 62.2,-69.09l-11.32 -332.13c-1.18,-34.62 -31.11,-67.4 -66.68,-67.89z"/>
   <path class="fil3" d="M9129.81 20911.33c0,0 1285.94,-7891.03 -2006.52,-13545.04 -42.92,-73.72 -147.43,-79.08 -196.88,-9.57 -781.13,1097.9 -5411.08,8239.81 2203.4,13554.61z"/>
   <path class="fil5" d="M6828.72 9665.79c0,0 -4.75,43.33 -11.37,125.05 -6.82,81.66 -15.42,201.57 -24.07,354.34 -9.26,152.73 -16.46,338.43 -22.59,551.44 -1.81,106.57 -5.29,219.9 -5.41,339.45 -0.5,59.76 -1.01,121.05 -1.52,183.79 0.23,62.75 0.46,126.96 0.69,192.52 -0.11,65.58 0.89,132.51 2.31,200.7 1.23,68.19 2.49,137.68 3.77,208.35 2.33,70.64 4.69,142.48 7.1,215.42 1.2,36.49 2.42,73.23 3.64,110.25 1.75,36.99 3.51,74.26 5.3,111.76 3.66,75.05 7.36,151.09 11.11,228.06 4.26,76.97 9.9,154.78 14.88,233.49 9.12,157.46 22.9,318.02 35.77,481.38 5.76,81.73 15.25,163.83 22.95,246.68 8.38,82.78 15.71,166.27 25.09,250.07 9.84,83.73 19.74,167.98 29.68,252.65 4.98,42.32 9.96,84.77 14.96,127.31 5.83,42.43 11.69,84.95 17.54,127.54 11.77,85.22 23.57,170.76 35.42,256.56 11.82,85.79 26.87,171.36 40.2,257.36 14.11,85.88 26.66,172.2 42.13,258.09 15.64,85.86 31.29,171.83 46.94,257.77l23.18 128.97c7.84,42.96 17.24,85.61 25.77,128.4 17.47,85.51 34.92,170.94 52.34,256.2 16.47,85.47 37.15,169.83 56.36,254.27 19.45,84.38 38.84,168.51 58.15,252.31 41.16,166.98 85.21,331.83 126.95,495.15 46.79,161.95 93.01,321.93 138.46,479.29 49.83,156.02 98.82,309.43 146.78,459.6 52.23,148.75 103.33,294.28 153.08,435.95 52.42,140.67 106.64,276.31 157.35,408.19 12.9,32.9 25.17,65.71 38.29,97.85 13.66,31.9 27.2,63.54 40.62,94.86 26.83,62.68 53.16,124.17 78.94,184.4 25.79,60.26 51.04,119.24 75.73,176.9 26.65,56.78 52.67,112.24 78.03,166.31 50.71,108.18 98.82,210.8 144.03,307.24 48.74,94.7 94.36,183.33 136.55,265.29 21.09,40.99 41.32,80.31 60.66,117.89 19.4,37.53 37.31,73.67 56.74,106.61 150.2,266.64 236.02,418.99 236.02,418.99l0.23 0.43c3.22,5.71 1.2,12.95 -4.51,16.17 -5.64,3.16 -12.78,1.22 -16.06,-4.32 0,0 -88.99,-150.97 -244.72,-415.18 -20,-32.75 -38.51,-68.67 -58.53,-106 -19.98,-37.36 -40.87,-76.44 -62.67,-117.22 -43.58,-81.54 -90.71,-169.71 -141.08,-263.94 -46.85,-96.02 -96.7,-198.19 -149.26,-305.91 -26.11,-53.96 -52.9,-109.3 -80.32,-165.93 -25.32,-57.63 -51.22,-116.57 -77.68,-176.77 -26.45,-60.2 -53.46,-121.67 -80.98,-184.31 -13.76,-31.33 -27.66,-62.94 -41.67,-94.85 -13.47,-32.13 -26.09,-64.93 -39.36,-97.81 -52.14,-131.84 -107.87,-267.5 -161.84,-408.23 -51.28,-141.73 -103.97,-287.33 -157.82,-436.17 -48.96,-150.51 -98.97,-304.28 -149.83,-460.64 -46.14,-157.84 -93.04,-318.29 -140.52,-480.72 -42.43,-163.82 -87.17,-329.18 -129,-496.68 -19.66,-84.04 -39.39,-168.45 -59.18,-253.08 -19.55,-84.7 -40.57,-169.33 -57.37,-255.06 -17.76,-85.52 -35.55,-171.22 -53.36,-257.01 -8.7,-42.93 -18.26,-85.71 -26.26,-128.8l-23.68 -129.38c-15.57,-86.28 -31.15,-172.59 -46.72,-258.8 -15.24,-86.25 -27.55,-172.93 -41.44,-259.14 -13.1,-86.36 -27.93,-172.27 -39.51,-258.42 -11.61,-86.12 -23.18,-172 -34.71,-257.51 -5.75,-42.77 -11.47,-85.45 -17.19,-128.04 -4.88,-42.7 -9.74,-85.29 -14.59,-127.77 -9.7,-84.99 -19.37,-169.53 -28.97,-253.58 -9.13,-84.09 -16.22,-167.87 -24.35,-250.93 -7.46,-83.14 -16.71,-165.51 -22.24,-247.53 -12.11,-163.9 -26.26,-324.92 -33.74,-482.98 -4.21,-78.97 -9.11,-157.05 -12.63,-234.27 -3.01,-77.25 -5.99,-153.53 -8.92,-228.8 -1.42,-37.63 -2.83,-75 -4.23,-112.12 -0.86,-37.11 -1.72,-73.97 -2.57,-110.55 -1.7,-73.16 -3.36,-145.21 -5.01,-216.05 -0.59,-70.86 -1.18,-140.53 -1.74,-208.9 -0.77,-68.39 -1.11,-135.48 -0.36,-201.19 -0.16,-262.92 7.52,-503.85 15.63,-717.25 9.55,-213.39 19.73,-399.3 31.45,-552.21 10.78,-152.97 22.66,-272.89 31.04,-354.64 8.39,-81.73 14.1,-125.3 14.1,-125.3l0.02 -0.12c0.85,-6.5 6.81,-11.09 13.31,-10.23 6.43,0.8 10.98,6.63 10.29,13.04z"/>
   <path class="fil2" d="M7964.34 21682.7c0,0 -28.41,-9208.47 -4374.09,-11917.92 -77.12,-48.08 -178.96,-11.31 -208.04,74.79 -338.31,1001.79 -1779.09,6440.73 4582.13,11843.13z"/>
   <path class="fil5" d="M3953.6 11381.38c0,0 37.82,163.18 112.77,446.93 37.36,141.87 83.93,313.83 139.59,510.49 54.98,196.84 120.37,417.98 193.3,658.71 73.75,240.49 154.74,500.69 244.56,774.56 44.11,137.18 92.02,277.28 139.55,420.94 49.4,143.02 98.41,289.64 150.97,437.8 52.16,148.3 105.14,299.1 160.86,450.99 54.6,152.31 111.97,305.69 169.87,460.26 14.44,38.65 28.92,77.39 43.43,116.19 14.86,38.66 29.76,77.37 44.68,116.16 29.83,77.56 59.75,155.34 89.74,233.3 60.61,155.63 123.1,311.23 185.72,466.78 64.29,154.84 127.09,310.3 192.34,464.06 32.81,76.77 65.55,153.4 98.18,229.82 16.39,38.18 32.73,76.31 49.06,114.38 16.74,37.87 33.44,75.68 50.11,113.42 67.22,150.73 132.06,301.05 200.01,447.82 67.48,146.99 132.28,293.04 200.15,434.78 33.46,71.07 66.66,141.55 99.54,211.38 16.3,34.96 32.51,69.78 48.64,104.4 16.59,34.43 33.09,68.67 49.5,102.73 66.01,136.06 129.04,269.94 193.22,398.85 32.15,64.44 63.87,127.99 95.11,190.58 30.88,62.78 61.28,124.61 91.18,185.43 61.49,120.74 120.91,237.4 177.95,349.4 56.39,112.35 113.57,218.37 167.03,319.7 53.47,101.32 102.57,198.31 151.13,288.17 97.38,179.59 182.27,336.15 252.18,465.1 71.19,128.27 127.12,229.07 165.25,297.79 37.81,68.94 57.97,105.72 57.97,105.72l0.12 0.21c3.62,6.61 1.2,14.9 -5.41,18.51 -6.41,3.52 -14.43,1.32 -18.2,-4.87 0,0 -21.82,-35.85 -62.73,-103.05 -40.58,-67.44 -100.09,-166.33 -175.84,-292.2 -38.54,-62.58 -78.02,-133.67 -122.04,-210.49 -43.86,-76.92 -91.28,-160.12 -141.96,-249 -99.48,-178.82 -211.32,-380.89 -327.56,-604.35 -58.12,-111.74 -118.67,-228.12 -181.34,-348.58 -30.48,-60.66 -61.48,-122.36 -92.95,-184.99 -31.09,-62.84 -62.67,-126.63 -94.68,-191.3 -125.64,-259.82 -258.18,-533.82 -387.08,-821.08 -130.03,-286.71 -260.34,-584.81 -388.54,-889.43 -65.45,-151.72 -126.52,-306.73 -191.28,-460.87 -63.83,-154.53 -125.21,-310.76 -188.08,-466.38 -60.99,-156.37 -121.99,-312.74 -182.74,-468.47 -29.74,-78.12 -59.43,-156.1 -89.04,-233.83 -14.8,-38.86 -29.57,-77.66 -44.33,-116.4 -14.39,-38.89 -28.74,-77.7 -43.07,-116.43 -57.42,-154.91 -114.32,-308.62 -168.45,-461.23 -55.25,-152.21 -107.77,-303.3 -159.47,-451.9 -52.1,-148.44 -100.65,-295.36 -149.6,-438.64 -47.09,-143.93 -94.55,-284.28 -138.23,-421.73 -88.97,-274.37 -169.14,-535.05 -242.13,-775.95 -71.92,-241.22 -136.98,-462.61 -192.38,-659.5 -55.8,-196.77 -102.49,-368.87 -139.96,-510.88 -75.13,-283.9 -113.18,-447.6 -113.18,-447.6 -1.73,-7.34 2.82,-14.68 10.14,-16.41 7.33,-1.73 14.67,2.82 16.41,10.14l0.01 0.06z"/>
   <path class="fil2" d="M15500.15 12392.75c-0.95,-41.37 -18.96,-80.49 -49.76,-108.11 -30.81,-27.61 -71.67,-41.25 -112.88,-37.67l-4163.23 360.62c-77.41,6.71 -139.24,71.49 -139.24,149.19l0 8369.09c0,82.71 71.86,143.52 154.57,143.52l4359.58 0c40.31,0 78.91,-13.13 107.09,-41.96 28.18,-28.83 43.54,-66.22 42.62,-106.53l-198.75 -8728.15z"/>
   <path class="fil6" d="M11859.62 13020.37l-317.76 21.52c-34.83,2.28 -52.67,34.44 -52.67,71.84l0 7634.04c0,38.18 7.76,83.56 42.96,83.56l331.64 -0.01c35.41,0 64.5,-38.28 64.47,-76.61l-4.76 -7666.95c-0.01,-37.54 -28.84,-69.69 -63.88,-67.39z"/>
   <path class="fil7" d="M12630.49 12969.82l-332.4 21.8c-35.27,2.31 -69.3,35.05 -69.26,72.69l7.97 7690.22c0.04,38.43 34.5,76.8 70.15,76.8l335.98 0c35.88,0 59.75,-38.49 59.68,-77.07l-12.86 -7716.31c-0.05,-37.78 -23.76,-70.46 -59.26,-68.13z"/>
   <path class="fil6" d="M13411.43 12918.61l-336.75 22.09c-35.74,2.34 -56.34,34.4 -56.26,72.28l16.36 7741.08c0.08,38.69 21.04,77.27 57.16,77.27l340.43 0c36.35,0 74.59,-38.69 74.49,-77.54l-21.37 -7767.57c-0.11,-38.02 -38.1,-69.97 -74.06,-67.61z"/>
   <path class="fil6" d="M14202.61 12866.73l-341.18 22.37c-36.2,2.38 -62.66,35.02 -62.54,73.15l24.75 7791.35c0.13,38.95 27.07,77.73 63.68,77.73l344.96 0c36.83,0 69.83,-38.91 69.68,-78.01l-29.9 -7818.22c-0.14,-38.29 -33.01,-70.76 -69.45,-68.37z"/>
   <path class="fil6" d="M15004.26 12814.16l-345.7 22.67c-36.68,2.41 -69.15,35.64 -68.99,74.02l33.38 7842.28c0.16,39.2 33.26,78.19 70.36,78.19l349.58 0c37.33,0 64.93,-39.11 64.73,-78.47l-38.66 -7869.56c-0.18,-38.52 -27.78,-71.55 -64.7,-69.13z"/>
   <path class="fil3" d="M12240.68 14132.71c-0.61,-43.73 -18.86,-85.37 -50.6,-115.44 -31.76,-30.08 -74.31,-46.06 -118.02,-44.31l-3320.77 133.14c-57,2.28 -101.63,49.85 -100.28,106.89l168.57 7099.07 3357.78 -40.97c43.05,-0.52 84.11,-18.14 114.16,-48.98 30.03,-30.83 46.58,-72.34 45.98,-115.38l-96.82 -6974.02z"/>
   <polygon class="fil8" points="9566.24,15441.14 9031.87,15441.29 9025.55,14527.99 9561.11,14527.99 "/>
   <polygon class="fil8" points="10333.32,15439.45 9800.93,15439.59 9796.31,14527.99 10329.86,14527.99 "/>
   <polygon class="fil8" points="11139.91,15437.67 10609.62,15437.8 10606.76,14527.99 11138.21,14527.99 "/>
   <polygon class="fil8" points="11944.64,15438.02 11405.17,15437.1 11392.82,14527.99 11944.64,14527.99 "/>
   <polygon class="fil8" points="9573.54,16737.9 9040.84,16740.76 9034.56,15834.16 9568.44,15832.48 "/>
   <polygon class="fil8" points="10338.23,16733.81 9807.5,16736.65 9802.91,15831.74 10334.79,15830.06 "/>
   <polygon class="fil8" points="11142.33,16729.51 10613.67,16732.33 10610.84,15829.19 11140.64,15827.52 "/>
   <polygon class="fil8" points="11944.64,16725.33 11406.79,16728.15 11411.25,15826.72 11944.64,15825.05 "/>
   <polygon class="fil8" points="9581.04,18067.33 9050.05,18071.89 9043.82,17171.09 9575.97,17167.68 "/>
   <polygon class="fil8" points="10343.28,18060.78 9814.25,18065.32 9809.69,17166.18 10339.87,17162.79 "/>
   <polygon class="fil8" points="11144.81,18053.9 10617.84,18058.42 10615.02,17161.03 11143.13,17157.65 "/>
   <polygon class="fil8" points="11944.64,18047.23 11408.47,18051.74 11412.93,17156.03 11944.64,17152.67 "/>
   <polygon class="fil8" points="9588.38,19367.05 9059.06,19373.26 9053.01,18499.47 9583.46,18494.36 "/>
   <polygon class="fil8" points="10348.22,19358.13 9820.85,19364.32 9816.42,18492.12 10344.91,18487.04 "/>
   <polygon class="fil8" points="11147.23,19348.75 10621.92,19354.91 10619.18,18484.4 11145.6,18479.34 "/>
   <polygon class="fil8" points="11944.64,19339.65 11410.11,19345.8 11414.61,18476.91 11944.64,18471.86 "/>
   <polygon class="fil8" points="9595.78,20679.76 9068.15,20687.64 9062.15,19819.38 9590.89,19812.61 "/>
   <polygon class="fil8" points="10353.2,20668.45 9827.51,20676.3 9823.11,19809.63 10349.91,19802.88 "/>
   <polygon class="fil8" points="11149.68,20656.57 10626.03,20664.38 10623.31,19799.37 11148.07,19792.65 "/>
   <polygon class="fil8" points="11944.64,20645.03 11411.76,20652.82 11416.27,19789.42 11944.64,19782.72 "/>
   <path class="fil9" d="M9554.45 17218.6l-5012.93 0c-65.18,0 -118.03,-52.84 -118.03,-118.03l0 -3462.14c0,-65.18 52.85,-118.03 118.03,-118.03l5012.93 0c65.19,0 118.03,52.85 118.03,118.03l0 3462.14c0,65.18 -52.84,118.03 -118.03,118.03z"/>
   <path class="fil10" d="M9758.45 17218.6l-5012.93 0c-65.18,0 -118.03,-52.84 -118.03,-118.03l0 -3462.14c0,-65.18 52.85,-118.03 118.04,-118.03l5012.92 0c65.19,0 118.03,52.85 118.03,118.03l0 3462.14c0,65.18 -52.84,118.03 -118.03,118.03z"/>
   <path class="fil11" d="M6125.73 16731.63c-40.37,0 -74.46,-0.49 -101.48,-1.02 -46.12,-0.92 -83.96,-34.89 -89.85,-80.74 -5.92,-46.17 22.32,-88.81 67.14,-101.46 239.86,-67.22 501.41,-181.48 693.99,-273.99 -918.44,-74.87 -1101.8,-546.57 -1137.23,-762.35 -89.41,-544.13 382.85,-1159.82 1052.73,-1372.51 683.59,-216.86 1376.03,-138.73 1764.34,199.18 206.33,179.59 430.14,523.46 324.61,1142.3 -197.38,1157.82 -2002.98,1250.59 -2574.25,1250.59zm-78.93 -22.84l0.05 0 -0.05 0zm-19.1 -144.86l0.21 0c0,0 -0.13,0 -0.21,0zm1326.95 -452.77l-290.97 162.23c-15.33,8.52 -271.44,150.56 -582.93,280.83 709.07,-42.75 1908.67,-243.07 2054.94,-1101.18 74.22,-435.56 -16.49,-768.2 -269.7,-988.54 -392.81,-341.92 -1088.83,-329.65 -1604.54,-166.08 -584.04,185.45 -1013.9,728.82 -938.7,1186.63 68.28,415.6 541.55,648.09 1298.83,632.19l333.07 -6.08z"/>
   <path class="fil12" d="M9618.49 12870.18l-5012.93 0c-65.19,0 -118.03,-52.85 -118.03,-118.03l0 -3462.14c0,-65.18 52.84,-118.03 118.03,-118.03l5012.93 0c65.18,0 118.03,52.85 118.03,118.03l0 3462.14c0,65.18 -52.85,118.03 -118.03,118.03z"/>
   <path class="fil13" d="M9821.75 12888.39l-5012.92 0c-65.19,0 -118.03,-52.84 -118.03,-118.03l0 -3462.13c0,-65.19 52.84,-118.03 118.03,-118.03l5012.92 0c65.19,0 118.03,52.84 118.03,118.03l0 3462.13c0,65.19 -52.84,118.03 -118.03,118.03z"/>
   <path class="fil14" d="M8467.29 12346.22l-2474.03 0c-202.72,0 -367.64,-164.92 -367.64,-367.64l0 -1910.64c0,-202.72 164.91,-367.64 367.64,-367.64l2474.03 0c202.73,0 367.65,164.91 367.65,367.64l0 1910.64c0,202.72 -164.92,367.64 -367.65,367.64zm-2474.03 -2518.4c-132.4,0 -240.12,107.72 -240.12,240.12l0 1910.64c0,132.4 107.72,240.12 240.12,240.12l2474.03 0c132.4,0 240.13,-107.72 240.13,-240.12l0 -1910.64c0,-132.4 -107.73,-240.12 -240.13,-240.12l-2474.03 0z"/>
   <polygon class="fil15" points="7224.5,11030.17 5733.16,9911.38 5809.69,9809.37 7226.6,10872.33 8679.38,9841.82 8753.17,9945.82 "/>
   <polygon class="fil16" points="8660.75,12227.45 7732.98,10583.25 7844.03,10520.59 8771.8,12164.8 "/>
   <polygon class="fil17" points="5806.51,12212.7 5694.86,12151.11 6606.68,10498.06 6718.34,10559.66 "/>
   <path class="fil18" d="M9554.45 21668.59l-5012.93 0c-65.18,0 -118.03,-52.85 -118.03,-118.03l0 -3462.14c0,-65.18 52.85,-118.03 118.03,-118.03l5012.93 0.01c65.19,0 118.03,52.84 118.03,118.03l0 3462.13c0,65.18 -52.84,118.03 -118.03,118.03z"/>
   <path class="fil19" d="M9758.45 21668.59l-5012.93 0c-65.18,0 -118.03,-52.85 -118.03,-118.03l0 -3462.14c0,-65.18 52.85,-118.03 118.03,-118.03l5012.93 0.01c65.19,0 118.03,52.84 118.03,118.03l0 3462.13c0,65.18 -52.84,118.03 -118.03,118.03z"/>
   <path class="fil20" d="M8073.41 21138.29c-204.7,0 -445.36,-95.99 -717.41,-286.43l-0.02 0c-179.9,-125.98 -964.97,-911.05 -1090.93,-1090.93 -226.94,-324.24 -319.72,-603.88 -275.74,-831.19 28.4,-146.93 115.63,-271.7 252.23,-360.81l119.43 -77.94c88.51,-57.66 208.24,-33.16 266.9,54.72l329.8 494.75c67.81,101.58 42.93,236.74 -56.6,307.69l-2.3 1.54 -56.86 36.9c-51.55,33.5 -84.2,87.87 -89.53,149.16 -5.32,61.25 17.43,120.4 62.42,162.27l1.64 1.6 602.43 602.48c41.91,45.01 101.12,67.74 162.3,62.47 61.29,-5.33 115.69,-37.97 149.23,-89.57l38.39 -59.04c70.88,-99.65 206.09,-124.52 307.75,-56.65l494.69 329.77c87.94,58.68 112.49,178.41 54.76,266.9l-77.94 119.46c-89.11,136.58 -213.88,223.81 -360.81,252.22 -36.61,7.08 -74.57,10.63 -113.83,10.63zm-644.3 -390.9c294.86,206.42 541.88,292.24 733.89,255.08 113.84,-22.03 207.46,-88.21 278.23,-196.71l77.94 -119.46c19.71,-30.21 11.33,-71.09 -18.7,-91.13l-494.69 -329.77c-43.71,-29.16 -101.56,-18.75 -132.36,23.5l-36.08 55.58c-55.13,84.79 -144.46,138.39 -245.14,147.13 -100.25,8.69 -197.07,-28.39 -265.85,-101.74l-599.32 -599.31c-73.35,-68.77 -110.41,-165.59 -101.71,-265.86 8.76,-100.68 62.4,-190 147.15,-245.07l55.58 -36.06c42.24,-30.87 52.62,-88.76 23.54,-132.36l-329.8 -494.72c-20.02,-29.98 -60.94,-38.34 -91.15,-18.69l-119.41 77.94c-108.52,70.78 -174.71,164.39 -196.73,278.24 -37.14,192.08 48.64,438.97 255.02,733.81 118.25,168.89 890.69,941.33 1059.61,1059.6l-0.02 0 0 0z"/>
   <path class="fil21" d="M13425.87 17825.16c-1.96,0.1 -3.93,0.15 -5.92,0.13l-2574.56 -2.61c-63.64,-0.05 -115.17,-52.63 -115.1,-117.42 0.06,-64.81 51.9,-118.36 115.37,-117.2l2574.57 2.62c63.64,0.05 115.17,52.63 115.1,117.42 -0.07,62.77 -48.56,113.99 -109.46,117.06z"/>
   <path class="fil22" d="M9848.35 15253.65c0.92,1.78 1.79,3.57 2.62,5.42l1083.26 2382.08c26.8,58.87 1.79,128.7 -55.85,155.95 -57.65,27.27 -127.12,1.91 -152.85,-57.28l-1083.27 -2382.07c-26.8,-58.88 -1.78,-128.71 55.85,-155.96 55.85,-26.4 121.83,-3.15 150.24,51.86z"/>
   <path class="fil23" d="M13673.48 21653.87c0,0 22.53,125.13 31.43,273.67 3.8,63.29 -43.11,118.29 -106.23,124.41 -219.77,21.31 -720.01,60.67 -1039.42,14.58 -44.75,-6.46 -62.52,-61.42 -29.45,-92.24 131.71,-122.71 449.78,-361.4 973.31,-413.57l170.36 93.15z"/>
   <path class="fil24" d="M13782.73 21371.82l-111.11 272.35c-15.23,37.32 -53.09,60.52 -93.18,56.33 -27.2,-2.85 -59.42,-8.07 -90.76,-17.58 -62.7,-19.04 -98.07,-85.51 -79.3,-148.29l83.86 -280.51 290.49 117.7z"/>
   <path class="fil25" d="M15682.38 21870.78c0,0 -222.5,186.16 -309.19,424.96 -23.84,65.68 26.56,134.86 96.43,134.86l457.87 0c67.02,0 118.4,-60.28 106.72,-126.27 -29.16,-164.9 -113.27,-432.86 -351.83,-433.55z"/>
   <path class="fil26" d="M15958.02 21628.5c0,0 -44.95,198.93 -79.5,330.38 -6.27,23.87 -31.72,36.96 -54.96,28.65 -69.3,-24.77 -125.68,-35.73 -166.67,-30.23 -18.95,2.54 -35.49,-13.22 -35.74,-32.33l-4.31 -330.4 341.18 33.93z"/>
   <path class="fil27" d="M14774.68 17152.31l-1353.36 4128.74c0,0 259.58,170 383.25,162.92l1607.48 -3318.11c0,0 281.29,2044.51 144.99,3512.31l460.42 35.12c0,0 748.66,-3750.97 181.61,-5035.71l-1424.39 514.73z"/>
   <path class="fil28" d="M15403.35 18090.19c0.53,0 1.1,-0.04 1.65,-0.1 7.18,-0.91 12.27,-7.46 11.36,-14.64l-52.52 -416.86c-0.89,-7.17 -7.38,-12.17 -14.64,-11.36 -7.18,0.91 -12.28,7.46 -11.37,14.64l52.52 416.85c0.84,6.63 6.48,11.47 13,11.47z"/>
   <path class="fil29" d="M14520.94 13519.23c0,0 1096.48,97.37 941.37,878.63 0,0 606.11,1140.62 889.47,2484.26 9.22,43.72 -20.07,86.37 -64.11,93.91l-1826 312.64c-50.36,8.63 -98.95,-22.78 -111.75,-72.26l-436.29 -1686.18 -170.01 783.96 -540.2 -140.75 454.76 -2303.65c0,-0.01 63.44,-336.12 862.76,-350.56z"/>
   <path class="fil30" d="M13904.35 15454.81c0.95,0 1.92,-0.09 2.9,-0.3 7.33,-1.61 11.99,-8.84 10.4,-16.18l-152.21 -698.9c-1.61,-7.33 -8.75,-11.95 -16.18,-10.4 -7.33,1.61 -11.99,8.84 -10.4,16.18l152.21 698.9c1.4,6.36 7.02,10.7 13.28,10.7z"/>
   <path class="fil31" d="M14014.57 17534.55c57.52,-31.63 124.85,-40.39 188.55,-24.53l127.05 31.62c27,6.72 53.75,-11.87 56.86,-39.53l131.48 -1170.19c164.38,78.06 401.55,68.73 479.76,63.02l-302.6 1379.56 -1058.89 0 377.79 -239.95z"/>
   <path class="fil32" d="M11201.11 14996.28l32.01 -106.37c18.42,-61.21 63.67,-110.73 122.97,-134.58l578.86 -232.78c0,0 8.74,-74.24 -122.31,-124.69 -131.04,-50.45 -100.41,-197.21 -100.41,-197.21 0,0 179.04,81.67 441.12,211.19 149.9,74.08 234,204.87 278.59,303.32l1311.67 1599.03 -154 105.82c-202.51,139.14 -481.03,70.78 -596.1,-146.3l-710.57 -1362.58c-356.75,107.17 -717.76,127.66 -1081.83,85.15z"/>
   <path class="fil33" d="M14165.72 12773.28l337.25 943.86c0,0 -298.63,233.47 -516.56,154.52l-169.94 -541.04c0,0 129.8,-661.26 349.25,-557.34z"/>
   <path class="fil34" d="M13159.21 12434.31c0,14.54 324.87,919.63 324.87,919.63l512.84 -196.48 -180.45 -903.58c0,0 -657.26,-63.07 -657.26,180.43z"/>
   <path class="fil35" d="M13726.51 12474.01l132.25 468.23c1.69,6 2.56,12.05 2.57,18.29 0.05,38.19 -9.4,169.59 -143.25,151.73 -121.45,-16.22 -232.54,-29.21 -303.18,4.05 -31.72,14.94 -46.89,51.44 -35.03,84.43 29.54,82.23 99.52,266.29 184.72,416.92 17.3,30.57 55.22,42.45 87.18,27.91 96.32,-43.82 296.88,-141.93 439.74,-258.65 19.35,-15.81 28.65,-40.69 24.04,-65.26 -22.47,-119.77 -89.43,-484.07 -92.38,-588.47 -2.77,-98 107.19,-172.8 155.59,-200.92 15.87,-9.22 27.17,-24.4 31.47,-42.25 15.19,-63.07 28.09,-205.82 -153.99,-237.27 -38.11,-6.58 -62.95,-43.06 -55.22,-80.95 15.41,-75.43 10.49,-186.43 -132.76,-227.32 -145.6,-41.55 -237.22,46.08 -283.81,113.29 -18.84,27.17 -54.1,35.98 -84.28,22.49 -17.19,-7.67 -37.96,-8.02 -60.27,10.8 -30.06,25.34 -75.84,17.63 -97.93,-14.9 -42.45,-62.49 -119.58,-124.87 -250.15,-82.62 -231.71,74.97 -220.63,342.11 -135.69,487.34 84.93,145.22 331.52,49.66 448.25,-46.57 88.75,-73.17 223.89,-29.41 283.57,-4.22 18.9,7.98 32.99,24.17 38.56,43.92z"/>
   <path class="fil36" d="M14069.61 12904.15c0,0 -137.12,-259.41 -46.44,-340.86 90.68,-81.46 244.31,-68.13 240.17,134.72 -5.14,252.31 -193.73,206.14 -193.73,206.14z"/>
   <path class="fil37" d="M14891.86 16412.5c74.83,0 128.25,-5.68 134.02,-6.32l9.73 -1.08 399.26 -1861.5c1.57,-7.34 -3.1,-14.57 -10.44,-16.14 -7.42,-1.63 -14.56,3.1 -16.14,10.44l-395.12 1842.17c-59.42,5.22 -376.72,26.29 -544.22,-92.38l345.87 -1617.27 -72.19 -136.04c-3.52,-6.64 -11.75,-9.17 -18.38,-5.65 -6.64,3.53 -9.17,11.75 -5.65,18.39l67.58 127.31 -347.46 1624.71 6.94 5.21c121.03,90.94 315.98,108.15 446.2,108.15z"/>
   <path class="fil38" d="M12707.26 18043.58c10.44,35.42 1007.49,3098.54 1260.28,3875.1 29.13,89.49 -52.23,177.37 -164.05,177.37 -77.98,0 -145.93,-44 -164.81,-106.72l-1106.8 -3675.86 175.38 -269.89z"/>
   <path class="fil38" d="M12161.27 18043.58c-10.44,35.42 -1007.49,3098.54 -1260.28,3875.1 -29.13,89.49 52.23,177.37 164.04,177.37 77.98,0 145.93,-44 164.82,-106.72l1106.8 -3675.86 -175.38 -269.89z"/>
   <path class="fil38" d="M12119.72 17921.29l620.97 0 0 498.69c0,71.67 -57.4,129.78 -128.22,129.78l-85.18 0 0 1120.12c0,54.26 -43.46,98.25 -97.08,98.25 -53.62,0 -97.08,-43.99 -97.08,-98.25l0 -1120.12 -43.22 0c-93.99,0 -170.19,-77.12 -170.19,-172.24l0 -456.23 0 0z"/>
   <path class="fil38" d="M14637.85 17801.52l-4344.99 0c-60.72,0 -113.75,33.18 -128.93,80.67l-60.66 189.83c-21.84,68.32 42.34,134.82 129.7,134.41l4458.41 -20.69c86.41,-0.4 149.47,-66.14 128.37,-133.82l-52.77 -169.13c-14.91,-47.79 -68.11,-81.27 -129.13,-81.27z"/>
  </g>
 </g>
</svg>
