<?xml version="1.0" encoding="UTF-8"?>
<!DOCTYPE svg PUBLIC "-//W3C//DTD SVG 1.1//EN" "http://www.w3.org/Graphics/SVG/1.1/DTD/svg11.dtd">
<!-- Creator: CorelDRAW (Evaluation Version) -->
<svg xmlns="http://www.w3.org/2000/svg" xml:space="preserve" width="100%" height="100%" version="1.1" style="shape-rendering:geometricPrecision; text-rendering:geometricPrecision; image-rendering:optimizeQuality; fill-rule:evenodd; clip-rule:evenodd"
viewBox="6939 11004 7105 3517"
 xmlns:xlink="http://www.w3.org/1999/xlink"
 xmlns:xodm="http://www.corel.com/coreldraw/odm/2003">
 <defs>
  <style type="text/css">
   <![CDATA[
    .fil8 {fill:#2B2B2A}
    .fil1 {fill:#727272}
    .fil7 {fill:whitesmoke}
    .fil3 {fill:#F7F7F7}
    .fil5 {fill:#F9F9F9}
    .fil6 {fill:#FAFAFA}
    .fil4 {fill:#FCFCFC}
    .fil2 {fill:#FDFDFD}
    .fil0 {fill:#F07F1C;fill-rule:nonzero}
   ]]>
  </style>
 </defs>
 <g id="Layer_x0020_1">
  <metadata id="CorelCorpID_0Corel-Layer"/>
  <g id="_105553193528928">
   <path class="fil0" d="M7922.39 11592.52l-98.26 515.69 -3.18 0 -193.37 -153.65c-19.02,-15.3 -25.89,-36.5 -20.6,-63.58l20.6 -104.19 -187.03 0c-24.31,0 -38.57,11.77 -42.79,35.32l-95.11 494.49 480.27 0 -25.37 130.69c-7.39,42.39 -32.76,63.58 -76.08,63.58l-692.66 0 153.75 -801.79c8.46,-41.21 23.78,-70.94 45.97,-89.19 22.19,-18.25 55.48,-27.37 99.86,-27.37l634 0zm935.17 0l-213.98 1121.45c-19.01,100.07 -78.19,150.11 -177.52,150.11l-599.14 0 25.36 -130.69c7.4,-42.38 32.76,-63.57 76.08,-63.57l372.48 0c23.26,0 37.52,-11.78 42.8,-35.33l23.78 -123.62 -515.14 0 174.36 -918.35 275.79 0 -137.9 724.08 201.3 0c26.42,0 41.74,-13.54 45.97,-40.62l129.97 -683.46 275.79 0zm651.45 918.35l-665.71 0 277.38 -1457 3.17 0 188.62 150.12c17.97,14.12 29.59,29.14 34.87,45.03 5.28,15.89 5.28,36.2 0,60.93l-53.89 282.57 515.13 0 -152.16 796.49c-8.45,41.21 -24.3,71.82 -47.55,91.84 -23.25,20.01 -56.53,30.02 -99.86,30.02zm-150.57 -194.27c25.36,0 40.15,-12.95 44.38,-38.85l93.52 -490.96 -202.89 0c-25.36,0 -40.15,12.95 -44.38,38.85l-93.52 490.96 202.89 0zm939.92 0c11.63,0 19.81,-1.76 24.57,-5.29 4.76,-3.54 8.18,-11.19 10.3,-22.96l7.93 -42.39c3.16,-15.3 7.13,-25.31 11.89,-30.02 4.75,-4.71 14,-9.42 27.73,-14.13l255.19 -75.94 3.17 0 -50.72 266.67c-8.45,41.21 -24.04,71.24 -46.75,90.07 -22.73,18.84 -55.75,28.26 -99.07,28.26l-665.72 0 152.17 -796.49c8.45,-41.21 24.3,-71.82 47.55,-91.84 23.25,-20.01 56.54,-30.02 99.86,-30.02l664.13 0 -68.16 356.74c-5.29,28.26 -13.74,49.75 -25.36,64.46 -11.63,14.72 -29.06,25.61 -52.31,32.68l-481.84 143.05 -23.78 127.15 209.22 0zm-145.82 -330.25l226.66 -67.11c16.9,-4.71 26.94,-15.89 30.11,-33.56l19.02 -98.89 -201.3 0c-24.3,0 -38.56,12.36 -42.79,37.08l-31.7 162.48zm1443.96 -393.83l-98.28 515.69 -3.17 0 -193.37 -153.65c-19.02,-15.3 -25.89,-36.5 -20.61,-63.58l20.61 -104.19 -133.14 0c-26.42,0 -41.75,13.54 -45.97,40.61l-129.97 683.47 -275.8 0 152.16 -796.49c8.46,-41.21 24.31,-71.82 47.56,-91.84 23.25,-20.01 56.53,-30.02 99.86,-30.02l580.12 0z"/>
   <path class="fil0" d="M7687.82 13393.91l-275.8 0 -101.45 529.81 147.42 0 50.71 -263.14 3.17 0 193.38 153.65c11.62,9.42 18.75,18.25 21.39,26.49 2.65,8.24 2.38,20.6 -0.79,37.09l-45.97 240.18 -681.55 0 252.01 -1324.54 3.17 0 188.63 150.11c32.75,25.9 44.38,62.99 34.87,111.26l-26.95 144.82 331.27 0 -26.95 141.28c-6.33,35.32 -28.53,52.99 -66.56,52.99zm984.3 -194.27l-98.28 515.69 -3.17 0 -193.37 -153.65c-19.02,-15.3 -25.89,-36.5 -20.61,-63.58l20.61 -104.19 -133.14 0c-26.42,0 -41.75,13.54 -45.97,40.61l-129.97 683.47 -275.8 0 152.16 -796.49c8.46,-41.21 24.31,-71.82 47.56,-91.84 23.24,-20.01 56.53,-30.02 99.85,-30.02l580.13 0zm380.4 194.27c-11.62,0 -19.82,1.76 -24.57,5.29 -4.75,3.54 -8.19,11.19 -10.3,22.96l-7.92 42.39c-3.18,15.3 -7.14,25.31 -11.9,30.02 -4.75,4.71 -14,9.42 -27.74,14.13l-255.18 75.94 -3.17 0 50.72 -266.68c8.45,-41.2 24.04,-71.23 46.76,-90.06 22.71,-18.84 55.74,-28.26 99.06,-28.26l665.71 0 -152.16 796.49c-8.46,41.21 -24.31,71.82 -47.55,91.84 -23.25,20.01 -56.53,30.02 -99.86,30.02l-664.12 0 68.15 -356.74c5.29,-28.26 13.74,-49.75 25.37,-64.47 11.62,-14.71 29.05,-25.6 52.3,-32.67l481.85 -143.05 23.77 -127.15 -209.22 0zm-129.98 529.81l201.3 0c24.31,0 38.58,-12.36 42.8,-37.08l31.7 -162.48 -226.66 67.11c-16.91,4.71 -26.94,15.89 -30.11,33.55l-19.03 98.9zm1553.33 -724.08l-98.27 515.69 -3.17 0 -193.38 -153.65c-19.02,-15.3 -25.88,-36.5 -20.59,-63.58l20.59 -104.19 -187.03 0c-24.3,0 -38.56,11.77 -42.79,35.32l-95.11 494.49 480.27 0 -25.36 130.69c-7.4,42.39 -32.76,63.58 -76.08,63.58l-692.66 0 153.75 -801.79c8.45,-41.21 23.77,-70.94 45.97,-89.19 22.18,-18.25 55.47,-27.37 99.85,-27.37l634.01 0zm245.68 918.35l-275.79 0 277.38 -1457 3.17 0 188.61 150.12c17.97,15.3 29.59,31.49 34.88,48.56 5.28,17.07 5.28,37.38 0,60.93l-107.79 568.67 293.24 -289.63 296.4 0 -399.43 372.64 250.43 545.71 -294.81 0 -153.75 -360.28 -53.89 51.22 -58.65 309.06zm1120.62 -1064.93c-6.35,35.32 -28.53,52.98 -66.58,52.98l-218.73 0 31.7 -171.31c6.34,-35.32 28.54,-52.98 66.57,-52.98l220.33 0 -33.29 171.31zm-255.19 1338.67l-3.17 0 -188.62 -150.12c-17.97,-14.12 -29.32,-30.02 -34.08,-47.68 -4.75,-17.66 -4.48,-39.44 0.79,-65.34l177.53 -928.95 275.8 0 -228.25 1192.09zm865.42 -997.82l-201.3 0c-26.41,0 -41.74,13.54 -45.97,40.61l-129.96 683.47 -275.8 0 152.16 -796.49c8.45,-41.21 24.3,-71.82 47.56,-91.84 23.24,-20.01 56.53,-30.02 99.85,-30.02l665.71 0 -226.65 1192.09 -3.18 0 -188.62 -150.12c-31.7,-24.72 -42.79,-62.99 -33.28,-114.79l139.48 -732.91zm1253.75 -194.27l-213.97 1121.45c-19.02,100.07 -78.73,150.11 -179.11,150.11l-614.99 0 25.36 -130.69c7.4,-42.38 32.75,-63.57 76.08,-63.57l388.33 0c25.36,0 40.16,-11.78 44.38,-35.33l23.78 -123.62 -515.14 0 152.16 -796.49c8.46,-41.21 24.31,-71.82 47.56,-91.84 23.25,-20.01 56.54,-30.02 99.86,-30.02l665.7 0zm-515.13 194.27c-25.35,0 -40.15,12.95 -44.38,38.85l-93.51 490.96 202.88 0c25.36,0 40.15,-12.95 44.38,-38.85l93.52 -490.96 -202.89 0z"/>
   <path class="fil1" d="M12976.44 12118.83c-5.44,-15.03 14.82,-20.65 25.2,-26.96l164.36 -101.73c20.33,-12.31 43.33,1.89 80.79,13.59 25.97,8.11 148.21,43.85 161.95,51.44 16.03,8.86 44.92,33.94 59.86,45.59 21.1,16.46 40.3,31.44 60.6,47.48l418.93 326.63c23.48,24.21 9.63,49.39 -20.36,67.21l-263.48 163.35c-28.61,13.52 -51.12,-11.45 -72.16,-27.87l-479.9 -373.73c-56.5,-44.07 -51.47,-44.26 -95.05,-118.24 -9.41,-15.99 -36.33,-54.6 -40.74,-66.76zm354.07 -157.28c8.18,10.06 14.62,39.71 16.2,54.04l-20.89 -4.68 4.69 -49.36zm-549.83 -141.51c9.6,-10.15 39.23,-25.93 54.37,-35.38l109.24 -68.05c23.86,-14.73 47.43,7.1 61.12,18.69 46.75,39.59 132.2,152.1 136.74,220.11 -8.42,-11.95 -17.56,-33.35 -26.16,-48.15 -8.09,-13.94 -21.5,-36.5 -31.32,-45.7 8,34.75 25.72,65.04 25.38,108.61 -12.2,-9.83 -31.74,-61.44 -61.33,-89.06 10.43,26.91 31.51,78.28 32.68,107.42l-48.55 -67.54c-4.84,-6.08 -12.98,-14.23 -17.06,-19.73 6.17,28.4 32.62,71.33 34.33,105.92 -21.92,-26.71 -44.17,-66.43 -68.36,-84.18 3.56,13 13.46,32.87 18.77,46.62 5.76,14.9 15.12,37.04 17.62,53.24 -12.87,-8.83 -42.55,-59.07 -71.87,-80.09 7.49,20.01 37.85,83.14 39.28,102.32 -1.08,-2.46 -29.81,-37.21 -33.22,-41.05 -13.45,-15.13 -22.19,-27.3 -39.77,-39.53 11.07,30.02 35.41,61.21 38.22,98.77 -3.35,-4.52 -49.93,-90.87 -76.35,-128.16 -15.44,-21.8 -71.83,-94.76 -93.76,-115.08zm131.42 -113.37c-5.93,-10.98 -28.63,-101.53 40.01,-78.54 -42.98,0.06 -22.84,41.18 -26.74,72.13l-13.27 6.41zm25.4 -121.79l159.74 -100.37c66.32,-41.49 51.39,-39.13 186.65,17.61 46.49,19.51 86.17,30.89 115.04,62.2 23.99,26.02 50.66,66.75 70.23,104.25 30.24,57.98 23.83,81.84 19.71,151.41 -2.2,37.13 -1.87,130.74 -20.79,153.19 -6.64,7.88 -41.38,27.35 -53.66,35.03 -32.82,20.54 -19.87,20.41 -60.74,10.56l11.03 -72.7c12.73,20.32 10.73,36.61 19.16,55.48 11.96,-16.8 11.27,-56.4 11.54,-79.67 11.69,13.91 13.33,43.95 24.52,58.96 6.26,-25.42 8.55,-47.85 7.92,-76.49 2.48,2.59 1.66,1.19 4.27,5.49l8.95 21.79c3.14,8.13 8.27,23.3 12.18,28.26 10.11,-17.37 7.72,-65.16 3.71,-85.44 -14.11,-71.48 -95.9,-186.48 -96.54,-188.32 14.83,46.98 41.06,99 48.75,154.41l-10.02 -16.41c-2.97,-6.02 -5.29,-10.73 -8.29,-16.6 -6.11,-11.94 -12.06,-22.3 -18.9,-33.66 -10.78,-17.93 -30.51,-51.2 -43.35,-62.1 11.84,42.45 42.15,93.31 46.98,142.38 -3.23,-3.27 -2.2,-1.9 -5.32,-6.6 -1.7,-2.56 -3.21,-5.6 -5,-9.04l-28.4 -49.08c-13.4,-21.32 -28.91,-42.14 -43.64,-60.06 15.05,40.21 42.74,94.35 49.72,141.55l-39.28 -62.22c-14.4,-21.67 -28.59,-38.29 -43.41,-57.26 10.88,37.02 44.59,91.88 48.96,135.23 -9.81,-9.61 -56.17,-92.35 -82.83,-113.39 15.28,42.46 43.68,86.1 51.24,134.76 -16.73,-25.94 -59.47,-93.56 -80.78,-106.34l37.86 92.33c10.01,27.76 22.5,67.74 28.76,96.71 -16.44,-0.56 -14.75,-7.96 -19.51,-23.17 -3.89,-12.42 -7.15,-21.13 -12.46,-34.46 -43.67,-109.74 -157.25,-284.55 -260.62,-334.92 -10.91,-5.32 -24.61,-8.35 -33.38,-13.3zm457.04 -41.22c2.51,-8.34 4.58,-8.34 14.4,-13.98 24.83,-14.27 31.47,-26.7 55.21,-5.46 35.16,31.45 72.23,85.6 84.11,134.74 6.14,25.42 2.54,26.92 -14.26,36.88 -8.16,4.84 -24.23,15.92 -32.45,18.18 0.52,-13.04 25.16,-19.09 34.26,-27.46 11.33,-10.41 3.47,-36.12 -3.36,-47.66 -4.1,10.38 -35.68,28.64 -45.9,31.84 -11.91,-16.22 -23.29,-40.43 -35.3,-58.99 -16.12,-24.92 -30.38,-39.81 -40.17,-54.54 8.6,-12 33.77,-22.99 46.45,-26.68 -25.85,-24.91 -34.93,10.96 -62.99,13.13zm-838.92 261.34c-8.72,4.63 -6.72,3.78 -17.98,4.29 -68.2,3.11 -58.58,1.49 -98.69,-29.37 -126.42,-97.25 -260.6,-206.22 -384.98,-299.56 -19.36,-14.53 -83.15,-59.17 -89.21,-79.97 -12.82,-43.99 36.93,-62.66 79.21,-88.95l157.36 -97.62c62.62,-38.93 63.98,-48.76 115.4,-9.29l476.84 373.98c23.59,19.08 22.85,15.36 34.97,51.09l33.47 93.7c1.19,3.07 5.64,14.17 5.89,17.02 1.18,13.78 4.19,5.17 -5.99,12.72 -7.81,-2.9 -7.43,-7.49 -10.51,-16.37l-19.17 -55.71c-9.35,2.57 -50.55,28.24 -55.07,33.95 18.4,17.44 47.18,32.85 62.38,50.74l-14.27 9.42 -65.8 -49.68c-43.38,17.7 -51.32,47.79 -78.87,27.16l62.19 -40.41c-15.27,-14.57 -35.41,-28.86 -52.35,-41.83 -18.68,-14.3 -35.12,-28.22 -53.73,-41.71l-91.53 55.36c8.33,17.31 66.14,49.49 86.69,73.27l-13.93 8.08c-19.14,-10.38 -64.47,-51.57 -88.81,-67.45 -10.78,2.36 -82.57,47.51 -92.32,55.78 3.6,6.08 42.3,36.47 47.74,38.63 11.24,4.46 66.82,1.03 84.12,1.96l-13.05 10.77zm-231.05 132.7c5.72,4.43 -2.89,1.55 7.69,2.4 15.98,1.28 -2.6,-1.76 8.18,-1.11 -3.34,-2.7 6.61,-5.95 -4.35,-0.72 -8.17,3.89 -2.3,-2.22 -4.32,5.35 -1.88,7.05 1.77,16.69 3.12,20.27 9.31,-2.39 7.91,-1.91 17.75,-4.95l-8.61 -6.1 282.77 -176.49c33.08,-20.16 52.84,-11.92 83.52,6.91 147.5,90.57 345.77,448.85 245.87,509.59 -16.27,9.88 -276.16,168.84 -284.51,177.79 -5.69,-5.49 -3.56,5.03 -3.39,-11.5 -9.13,7.09 -3.82,33.23 5.16,27.64 -0.39,-0.17 -0.69,-6.06 -6.33,1.87 -6.5,9.13 -3.49,-2.65 -3.33,12.61 13.8,-5.13 164.31,-100.29 180.04,-110.17 26.04,-16.35 136.3,-77.46 150.91,-101.37 3.25,-5.31 3.1,-6.15 5.08,-11.34l6.63 -13.59c32.93,44.88 -18.62,12.37 81.81,90.67 161.63,126.03 330.61,254.33 489.5,380.65 41.79,33.23 65.95,51.13 123.46,14.54l213.72 -132.83c41.51,-25.89 78.75,-33.16 73.34,-99.81 -4.62,-57 -26.71,-61.49 -74.37,-100.33 -32.06,-26.12 -65.08,-51.2 -97.16,-77.45l-388.96 -309.93c41.13,-39.83 71.23,-13.39 78.24,-113.32 4.31,-61.32 9.7,-120.67 10.93,-182.9 9.53,-4.28 45.17,-26.32 50.39,-32.71 13.68,-16.7 6.11,-48 -0.51,-66.41 -16.23,-45.11 -64.49,-124.57 -108.35,-143.83 -25.53,-11.21 -43.84,5.97 -60.41,16.66 -24.55,15.83 -23.87,5.1 -54.15,-7.61 -34.96,-14.66 -161.17,-67.44 -184.77,-68.73 -32.3,-1.76 -80.27,36 -113.97,56.51l-153.92 95.51c-17.13,12.33 -25.5,30.15 -29.1,57.51 -10.77,-13.07 -13.69,-42.66 -24.07,-57 -12.21,-16.89 -465.81,-367.36 -507.13,-399.14 -43.08,-33.13 -61.26,-42.23 -114.89,-8.9 -35.49,22.05 -67.91,41.79 -102.6,63.7 -34.73,21.93 -66.05,41.09 -100.94,62.63 -32.94,20.34 -78.7,38.26 -79.48,86.11 -0.3,18.05 6.57,52.49 12.91,66.78 10.16,22.9 112.61,96.25 135.62,113.91 62.34,47.85 123.55,96.52 185.43,144.38 31.71,24.53 59.97,47.3 91.68,71.8l70.26 54.41c15.45,10.62 16.65,5.56 30,10.81 -20.92,19.88 -122.38,70.56 -134.39,87.23z"/>
   <path class="fil2" d="M12870.62 11996.47c26.51,24.16 131.18,205.21 91.43,263.09l-26.56 -57.84c-0.62,33.39 2.56,46.82 -5.86,78.45 -10.72,-11.19 -14.34,-40.53 -26.54,-52.08 0.46,32.54 -0.34,41.97 -7.6,71.17 -6.51,-6.39 -8.87,-17.89 -12.38,-27.09 -3.61,-9.45 -7.3,-19.98 -12.18,-27.98 -2.22,22.66 0.89,57.65 -11.56,75.23l-20.87 -55.58c-3.14,34.81 -2.26,45.42 -12.53,76.43 -4.52,-6.83 -17.16,-47.52 -20.46,-56.82 -2.17,24.39 -1.42,59.69 -15.52,74.97l-17.5 -49.61c-1.54,21.37 -5.51,52.66 -15.8,69.17l-13.99 -50.27c-2.99,4.19 -1.16,-0.99 -4.14,8.65l-4.36 27.98c-3.82,18.91 -8.12,28.44 -13.9,34.61 -2.57,-17.88 -5.46,-38.3 -13.23,-52.87 -4.48,24.56 -6.02,53.29 -19.75,71.15l-35.3 -130.64c-6.78,-21.44 -13.82,-40.27 -22.02,-60.92 -6.43,-16.2 -22.6,-45.44 -26.31,-60.46 15.02,8.69 70.41,86.04 82.6,110.15 -2.52,-32.22 -43.27,-108.51 -49.49,-131.61 12.96,9.44 33.03,38.45 44.1,53.41 13.13,17.76 26.19,43.99 39.09,60.27 -4.17,-23.22 -14.7,-49.57 -22.79,-70.93 -8.18,-21.62 -23.48,-49.08 -28.39,-67.06 33.05,36.94 55.44,73.04 84.32,120.42 -0.92,-15.61 -15.8,-55.51 -21.67,-70.95 -8.34,-21.95 -22.15,-47.87 -27.31,-67.33 21.38,16.17 64.09,89.34 82.3,121.57 -3.74,-42.88 -37.42,-108.55 -50.98,-145.46 14.62,10.88 75.73,104.77 83.98,128.49 -0.28,-35.68 -38.97,-117.54 -50.65,-150.5 15.67,19.46 29.77,38.8 44.49,62.06 7.2,11.38 13.64,21.53 20.68,34.74 6.08,11.42 12.23,26.23 19.2,35.67 -7.91,-56.14 -36.34,-103.16 -49.38,-150.21 12.53,10.67 32.16,42.82 42.75,60.5 8.94,14.93 29.1,57.71 38.11,67.59 -3.14,-45.34 -38.33,-113.99 -45.44,-144.93 0.63,0.44 1.53,0.43 1.81,1.47l10.64 12.74c21.66,31.79 65.6,114.07 65.96,114.51 -3.83,-38.81 -32.63,-120.73 -47,-153.35zm-469.14 -62.23c13,6.43 37.06,33.96 43.45,50.72 -9.09,-7.38 -17.74,-13.15 -30.3,-20.28l-26.34 -12.45c-7,-3.38 -4.47,-2.43 -7.68,-5.84l20.87 -12.15zm33.3 -18.59c18.33,11.85 32.89,28.7 43.93,47.72 -12.6,-6.22 -20.04,-12.9 -32.35,-19.27 -10.48,-5.44 -29.8,-11.35 -35.95,-15.8 6.81,-4.5 14.76,-10.66 24.37,-12.65zm30.53 -19.56c17.41,10.1 37.1,26.61 44.57,43.85 -11.32,-4.06 -20.21,-11.71 -33.63,-17.4 -10.94,-4.65 -22.58,-8.5 -35.06,-12.02 6.62,-6.26 13.43,-11.3 24.12,-14.43zm30.52 -19.45c18.67,8.3 41.38,30.17 49.26,43.34 -10.65,-3.31 -22.87,-11.86 -35.36,-16.94 -11.84,-4.83 -24.17,-7.64 -38.41,-12.71l24.51 -13.69zm7.4 -3.75c16.85,-22.32 29.93,-14.22 43.66,-4.19 12.68,9.25 26.7,20.52 33.64,32.93 -14.09,-11.95 -53.27,-25.34 -77.3,-28.74zm53.66 -34.74c19.66,5.12 48.59,28.8 55.26,39.85 -11.49,-3.31 -23.61,-10.15 -37.2,-15.04 -13.4,-4.83 -26.51,-7.43 -40.84,-9.62l22.78 -15.19zm8.33 -6.8c21,-9.2 22.24,-30.46 82.31,26.62 -11.57,-3.17 -24.45,-10.26 -38.82,-14.85 -13.28,-4.24 -33.73,-4.5 -43.49,-11.77zm30.86 -17.15c14.37,-13.89 24.69,-17.77 45.3,-6.46 12.56,6.88 30.83,16.92 38.28,28.78 -31.89,-11.32 -46.59,-15.3 -83.58,-22.32zm31.88 -22.32c25.65,-10.97 17.88,-17.97 50.42,-1.77 23.7,11.8 30.52,21.98 38.02,26.04 -11.52,-1.66 -27.59,-9.94 -42.34,-13.38l-46.1 -10.89zm-275.32 167.06c42.09,-4.55 140.34,102.34 167.43,138.52 15.03,20.07 29.24,39.42 43.53,61.73 26.07,40.69 50.54,84.16 71.37,133.66 13.22,31.43 46.54,127.8 33.32,166.29 -0.17,16.53 -2.3,6.01 3.39,11.5 8.35,-8.95 268.24,-167.91 284.51,-177.79 99.9,-60.74 -98.37,-419.02 -245.87,-509.59 -30.68,-18.83 -50.44,-27.07 -83.52,-6.91l-282.77 176.49 8.61 6.1z"/>
   <path class="fil2" d="M13433.34 11749.98c3.29,2.58 1.69,1.42 4.83,4.71 17.91,18.76 21.76,4.32 42.06,-14.51l-7.25 116.76c-6.92,-8.62 -31.99,-88.17 -39.64,-106.96zm-453.51 -174.98c0.45,-0.37 1.12,-0.89 1.6,-1.25l17.2 -7.99c11.28,12.57 33.35,27.47 39.99,44.73l-63.24 -31.15 4.45 -4.34zm97.78 17.46c-15.28,-5.87 -29.52,-16.73 -53.77,-24.92 -3.35,-1.13 -7.23,-2.02 -10.45,-3.34 -2.09,-0.85 -1.34,-0.6 -3.86,-1.85l-4.17 -3.41 20.52 -12c20.58,6.52 40.14,31.96 51.73,45.52zm-42.59 -51.35c20.14,-14.24 20.93,-17.73 42.71,-2.38 13.4,9.44 24.29,20.22 33.32,31.46 -11.37,-3.6 -23.82,-10.89 -37.33,-16.26 -12.11,-4.83 -27.6,-6.85 -38.7,-12.82zm30.43 -19.23c21.03,-12.6 18.93,-18.59 42.24,-4.72l28.36 21.4c5.69,5.48 2.87,1.96 6.5,8.59 -13.36,-3.99 -25.18,-10.82 -38.94,-15 -11.88,-3.61 -27.89,-4.89 -38.16,-10.27zm183.37 -20.33l89.31 32.75 -39.31 -1.02c-0.84,11.96 5.13,13.59 9.84,23.83l-59.84 -55.56zm-152.77 2.39c15.44,-14.56 22.8,-17.47 43.23,-7.27 15.37,7.67 32.54,19.78 39.64,30.19 -48.64,-14.97 -20.98,-10.59 -82.87,-22.92zm53.04 -33.39c9.47,-1.87 38.7,14.24 48.12,21 7.11,5.09 13.34,11.45 18.73,14.59 -21.76,-3.77 -31.41,-15.57 -88.38,-20.52l21.53 -15.07zm-211.59 114.33c8.77,4.95 22.47,7.98 33.38,13.3 103.37,50.37 216.95,225.18 260.62,334.92 5.31,13.33 8.57,22.04 12.46,34.46 4.76,15.21 3.07,22.61 19.51,23.17 -6.26,-28.97 -18.75,-68.95 -28.76,-96.71l-37.86 -92.33c21.31,12.78 64.05,80.4 80.78,106.34 -7.56,-48.66 -35.96,-92.3 -51.24,-134.76 26.66,21.04 73.02,103.78 82.83,113.39 -4.37,-43.35 -38.08,-98.21 -48.96,-135.23 14.82,18.97 29.01,35.59 43.41,57.26l39.28 62.22c-6.98,-47.2 -34.67,-101.34 -49.72,-141.55 14.73,17.92 30.24,38.74 43.64,60.06l28.4 49.08c1.79,3.44 3.3,6.48 5,9.04 3.12,4.7 2.09,3.33 5.32,6.6 -4.83,-49.07 -35.14,-99.93 -46.98,-142.38 12.84,10.9 32.57,44.17 43.35,62.1 6.84,11.36 12.79,21.72 18.9,33.66 3,5.87 5.32,10.58 8.29,16.6l10.02 16.41c-7.69,-55.41 -33.92,-107.43 -48.75,-154.41 0.64,1.84 82.43,116.84 96.54,188.32 4.01,20.28 6.4,68.07 -3.71,85.44 -3.91,-4.96 -9.04,-20.13 -12.18,-28.26l-8.95 -21.79c-2.61,-4.3 -1.79,-2.9 -4.27,-5.49 0.63,28.64 -1.66,51.07 -7.92,76.49 -11.19,-15.01 -12.83,-45.05 -24.52,-58.96 -0.27,23.27 0.42,62.87 -11.54,79.67 -8.43,-18.87 -6.43,-35.16 -19.16,-55.48l-11.03 72.7c40.87,9.85 27.92,9.98 60.74,-10.56 12.28,-7.68 47.02,-27.15 53.66,-35.03 18.92,-22.45 18.59,-116.06 20.79,-153.19 4.12,-69.57 10.53,-93.43 -19.71,-151.41 -19.57,-37.5 -46.24,-78.23 -70.23,-104.25 -28.87,-31.31 -68.55,-42.69 -115.04,-62.2 -135.26,-56.74 -120.33,-59.1 -186.65,-17.61l-159.74 100.37z"/>
   <path class="fil1" d="M11839.55 12568.82c-4.32,-61.57 93.68,31.84 73.31,83.72l-20.14 1.87c0.47,-1.82 1.4,-3.23 1.65,-2.74 0.01,0.01 5.68,-3.17 7.64,-10.4 7.66,-28.27 -45.35,-102.49 -62.46,-72.45zm89.24 55.97l-5.2 -21.5 325.44 -107.38 7.92 20.28 -328.16 108.6zm239.58 -173.73c7.37,6.88 28.35,37 32.83,46.48l-122.24 39.48 -13.16 -23.25 102.57 -62.71zm-129.53 -14.69l15.15 25.52c-5.79,5.77 -8.9,7.68 -15.63,10.2 -5.08,-6.48 -10.13,-13.78 -12.94,-24.58l13.42 -11.14zm4.86 -8.04c6.92,-5.7 4.98,-6.7 13.66,-11.21l10.85 14.6c4.8,7.73 6.29,7.69 8.9,17.16l-20.94 10.78 -12.47 -31.33zm33.09 -31c7.48,5.94 8.14,10.25 13.2,18.26 4.85,7.65 7.35,8.78 9.9,19.24l-21.16 11.06c-4.54,-14.17 -13.63,-23.96 -13.55,-39.94l11.61 -8.62zm19.43 -20.35c6.32,4.23 23.18,32.34 26.68,40.65 -5.61,8.02 -12.09,11.33 -20.93,13.38 -5.88,-14.15 -16.07,-27.43 -17.33,-44.51l11.58 -9.52zm106.64 5.66l-9.5 4.57c6.04,7.8 1.43,6.37 10.15,7.46l-11.34 -0.06 8.82 17.48c-4.71,5.81 -272.1,173.23 -285.38,177.15l-9.29 -20.3c11.53,-3.76 116.64,-70.33 134.71,-81.88 22.55,-14.4 44.66,-27.43 66.7,-41.34 13.36,-8.44 58.73,-33.27 65.36,-43.4 -2.13,-0.95 -2.32,-1.61 -2.58,-1.8l-2.14 -1.8c-7.48,3.59 -10.05,7.08 -16.65,11.52 -3.61,-14.62 -0.43,-8.8 -11.75,-10.53 1.39,12.77 1.51,11.3 -13.23,16.7 -8.76,-9.97 -22.64,-38.81 -21.32,-50.42 4.52,-3.06 5.3,-4.11 12.07,-6.98 -1.78,-11.12 1.32,-4.04 -7.38,-10.54 2.05,3.6 -1.13,2.76 8.73,2.68l-2.41 -12.07c-7.16,4.02 -1.03,0.09 -7.51,5.34l-158.2 160.56c-11.44,11.09 -49.29,50.33 -57.99,54.19 -3.87,-4.96 -9.35,-10.34 -12.12,-14.28l118.88 -121.34c20.09,-20.49 38.32,-40.55 58.84,-60.29 12.82,-12.34 53.31,-48.36 60.54,-62.99 -10.56,-4.17 -2.69,-5.34 -16.18,-2.54 3.23,2.39 8.27,5.1 2.09,8.45 -12.96,7.04 -7.33,-1.87 -9.35,-8.35 -2.61,-8.36 -4.13,-12.72 -12.04,-21.68 -6.74,-7.63 2.75,-1.16 -9.36,-7.91 0,30.5 4.42,27.12 -5.57,38.74 -12.25,-23.57 -7.53,-24.47 -11.72,-35.91 -6.46,-17.61 -0.33,-5.95 -10.46,-13.89 0,13.13 2.33,32.1 -0.94,41.48 -8.53,6.73 4.14,4.04 -2.54,-1.74 -0.08,-0.08 -0.53,-0.6 -0.62,-0.67 -0.09,-0.08 -0.53,-0.58 -0.63,-0.65l-5.73 -1.47c-0.4,0.06 -3.36,1.59 -3.44,1.78 -0.24,-7.32 -1.19,-10.59 -2.98,-17.12 -1.74,-6.32 -0.41,-3.38 -3.3,-8.88 -0.41,-0.78 -2.77,-3.09 -3.06,-4.47 -0.29,-1.43 -1.1,-1.56 -1.75,-2.27 -12.61,10.68 0.47,7.63 -11.76,13.4l-6.12 0.94c-6.18,0.2 -7.88,-6.43 -10.77,7.27 -1.38,6.51 5.6,26.26 7.93,33.2 3.81,11.38 5.51,22.76 7.78,36.95 -8.46,3.3 -0.82,-1.53 -10.03,3.32l13.78 31.71c-4.18,7.57 -5.3,7.72 -12.06,12.63 -21.64,-32.44 -56.62,-127.66 -63.66,-173.86 -6.01,-39.44 -6.01,-77.14 24.06,-93.07 27.33,-14.49 65.69,-16.64 99.67,-11.28 130.52,20.57 224.86,112.12 276.77,194.46 58.75,93.17 97.95,259.52 33.29,371.91 -42.27,73.46 -86.74,57.61 -145.61,11.12 -21.9,-17.3 -108.83,-100.04 -111.65,-123.9l122.06 -39.15c20.69,16.99 93.16,127.49 61.22,166.15 -24.69,4.7 -36.05,-4.19 -55.26,-10.02 117.91,90.6 93.31,-42.38 63.9,-120.03 -14.25,-37.6 -80.99,-178.01 -101.97,-192.28zm272.42 48.17c2.77,-16.02 -2.29,-8.88 -3.76,-14.7l0.08 -12.69c2.36,-21.18 16.2,-0.18 17.31,-25.1 -21.37,8.06 -74.11,49.85 -89.27,50.13 -0.34,-11.86 4.17,-10.55 26.98,-24.45l91.01 -58.31c4.31,-18.62 0.7,-39.36 -7.92,-54.42 -11.11,14.92 -43.62,31.84 -61.63,42.77 -17.03,10.34 -49.55,33.61 -66.03,39.77 -3.89,-5.07 -27.68,-53.35 -44.23,-78.09 -14.57,-21.8 -49.19,-60.25 -52.03,-66.22 18.42,-14.62 71.28,-44.6 96.48,-60.65 21.44,-13.65 26.9,-12.11 32.44,-16.07 -20.75,-12.37 -16.88,-16.21 -39.12,-1.76l-75.2 46.9c-26.66,16.68 -27.51,21.35 -36.66,12.21 5.76,-8.92 55.97,-37.07 69.46,-45.71 -4.4,-4.87 7.67,-7.36 -6.42,-2.79 -0.57,0.18 -1.47,1.5 -2.29,2.16 -0.23,-0.48 -1.06,-1.52 -1.2,-1.02l-3.72 -0.75c-1.81,0.67 -5.29,4.84 -5.88,5.24 -1.16,0.78 -13.98,4.21 -16.28,4.83 0.27,-0.89 1.59,-5.65 1.55,-6.35 -0.6,-10.61 2.18,1.64 -1.72,-6.23l-45.16 26.18c-46.1,-28.73 -57.84,-47.93 -131.33,-72.19 -51.63,-17.04 -119.43,-24.4 -169.43,-0.8 -109.84,51.82 25.4,290.96 24.01,299.39l-103.89 105.96c-4.57,1.67 -57.58,-20.6 -64.79,35.05 -9.04,69.87 78.24,164.98 124.37,128.66 15.05,-11.86 10.59,-18.12 18.13,-37.23l144.33 -48.33c5.33,11.85 37.37,49.19 45.8,57.97 19.11,19.9 32.16,32.95 51.29,51.22 23.33,22.28 90.75,76.61 142.59,56.36 65.06,-25.41 94.35,-137.64 94.73,-214.09 0.19,-38.08 -6.67,-63.07 -10.02,-96.84l44.35 -28.68c7.32,4.13 6.2,4.73 13.07,8.67z"/>
   <path class="fil3" d="M13541.92 12614.05c7.55,-7.22 81.54,-53.09 91.71,-56.21l77.18 59.52c9.21,7.31 18.67,12.81 25.67,21.59 -9.85,9.32 -35.2,22.8 -48.99,31.61 -14.7,9.39 -35.75,28.7 -54.93,16.51 -6.59,-4.19 -14.57,-11.86 -21.69,-17.14l-57.73 -44.8c-7.51,-5.83 -7.14,-4.04 -11.22,-11.08zm108.8 -66.39c6.6,-9.63 84.21,-54.93 91.14,-57.67 8.52,3.95 99.74,75.63 104.31,81.84 -29.84,18.84 -59.86,37.93 -90.44,56.01 -13.26,-5.55 -40.08,-29.04 -52.58,-38.88 -16.57,-13.05 -36.48,-26.43 -52.43,-41.3zm-230.92 -30.44l88.74 -55.32 107.53 82.99 -90.45 57.36c-14.29,-6.5 -100.55,-76.28 -102.9,-79.53l-2.92 -5.5zm108.04 -66.4l89.07 -56.28c18.6,6.1 84.28,66.49 108.8,80.49 -6.92,11.06 -33.75,24.15 -45.05,30.97 -14.74,8.9 -31.16,21.13 -47.03,28.01l-92.51 -71.17c-1.65,-1.29 -5.69,-4.41 -6.21,-4.86l-7.07 -7.16zm-232.04 -27.66l90.6 -57.29 107.47 84.12c-29.8,18.83 -60.01,38.32 -90.58,55.99 -9.71,-3.61 -100,-74.08 -107.49,-82.82zm201.85 -124.25l79.43 61.66c8.61,6.38 18.27,13.08 25.08,21.09 -7.9,8.24 -58.73,37.47 -75.54,48.29 -13.99,9.01 -13.67,11.67 -26.1,1.59 -31.73,-25.72 -64.73,-50.21 -96.23,-75.44 6.49,-6.93 84.53,-54.97 93.36,-57.19zm-233.11 -28.21c14.92,8.21 100.87,76.96 105.58,83.29 -6.97,6.86 -81.89,53.54 -91.71,56.3 -30.75,-19.61 -80.85,-65.8 -106,-80.4l45.11 -31.12c13.62,-8.6 32.61,-21.73 47.02,-28.07zm17.63 -10.77l90.19 -57.13c10.7,4.3 95.61,72.06 107.54,82.52 -9.24,9.42 -75.7,49.8 -90.48,57.53 -9.53,-3.86 -98.24,-73.42 -107.25,-82.92zm-218.92 -35.97c7.62,-7.17 69.89,-45.67 79.18,-48.32 28.42,19.23 73.49,57.28 105.52,80.85 -8.4,11.27 -90.85,58.52 -91.64,58.5 -2.71,-0.09 -67.49,-48.22 -76.37,-61.93 -5.25,-8.11 -13.51,-20.58 -16.69,-29.1zm95.78 -61.24l91.19 -55.85c15.5,8.97 39.76,30.03 54.31,41.24 9.24,7.12 47.07,34.55 52.45,44.21 -13.75,7.77 -29.6,17.39 -44.53,26.83 -11.98,7.58 -35.27,24.51 -47.91,28.09 -14.16,-9.49 -101.12,-76.11 -105.51,-84.52zm-0.35 -132.31c3.89,12.94 25.23,24.24 36.55,33.02 12.5,9.68 26.71,18.91 38.52,30.5 -6.35,9.2 -85.83,55.77 -91.32,57.88 -20.24,-12.4 -56.63,-46.45 -77.7,-58.83l-13.8 7c6.01,15.25 60.3,45.35 73.87,63.12 -11.39,8.89 -62.89,41.85 -74.28,44.57 -10.25,-21.47 -50.53,-73.95 -54.32,-91.16 18.73,-13.68 43.93,-27.55 64.42,-40.45 20.4,-12.84 115.9,-78.68 132.65,-74.68l161.68 52.22c39.19,12.34 43.38,14.04 70.03,35.32 40.84,32.62 79.95,61.97 120.05,93.35 79.64,62.34 158.05,124.29 238.31,185.7 41.58,31.82 79.21,60.86 119.78,93.61 14.48,11.69 56.95,33.44 28.77,56.9 -7.97,6.65 -58.53,37.8 -67.93,41.44 -9.88,-4.62 -99.61,-75.08 -104.36,-81.43l77.79 -48.12 -9.75 -12.31c-20.28,2.53 -62.04,41.7 -85.78,47.78 -18.77,-13.17 -34.51,-26.46 -52.51,-40.15 -10.27,-7.81 -17.8,-13.95 -26.46,-20.69 -8.67,-6.75 -17.94,-13.17 -25.72,-20.57 6.79,-9.96 25.34,-18.4 37.27,-25.71 9.2,-5.65 33.8,-18.77 39.87,-26.86l-8.25 -8.12c-19.88,0.33 -63.67,39.17 -86.31,46.94 -11.14,-6.06 -100.45,-76.24 -105.15,-83.08l77.56 -49.45c-3.15,-5.42 0.83,-1.09 -5.19,-6.32 -3.23,-2.81 -4.73,-3.23 -8.84,-5.14l-80.19 49.12 -107.19 -83.84c16.43,-13.89 68.46,-38.63 78.32,-51l-12.78 -10.44 -80.49 49.31c-8.75,-3.96 -101.77,-76 -107.36,-83.14 11.82,-12.67 46.46,-25.45 57.98,-39.76 -24.67,-6.98 -20.29,-5.87 -39.72,6.5 -44.32,28.24 -27.84,26.01 -75.71,-10.18 -9.34,-7.06 -31.12,-26.37 -40.81,-29.17l-11.5 6.32zm-182.24 88.42c4.41,12.16 31.33,50.77 40.74,66.76 43.58,73.98 38.55,74.17 95.05,118.24l479.9 373.73c21.04,16.42 43.55,41.39 72.16,27.87l263.48 -163.35c29.99,-17.82 43.84,-43 20.36,-67.21l-418.93 -326.63c-20.3,-16.04 -39.5,-31.02 -60.6,-47.48 -14.94,-11.65 -43.83,-36.73 -59.86,-45.59 -13.74,-7.59 -135.98,-43.33 -161.95,-51.44 -37.46,-11.7 -60.46,-25.9 -80.79,-13.59l-164.36 101.73c-10.38,6.31 -30.64,11.93 -25.2,26.96z"/>
   <path class="fil1" d="M13170.18 12024.09c9.69,2.8 31.47,22.11 40.81,29.17 47.87,36.19 31.39,38.42 75.71,10.18 19.43,-12.37 15.05,-13.48 39.72,-6.5 -11.52,14.31 -46.16,27.09 -57.98,39.76 5.59,7.14 98.61,79.18 107.36,83.14l80.49 -49.31 12.78 10.44c-9.86,12.37 -61.89,37.11 -78.32,51l107.19 83.84 80.19 -49.12c4.11,1.91 5.61,2.33 8.84,5.14 6.02,5.23 2.04,0.9 5.19,6.32l-77.56 49.45c4.7,6.84 94.01,77.02 105.15,83.08 22.64,-7.77 66.43,-46.61 86.31,-46.94l8.25 8.12c-6.07,8.09 -30.67,21.21 -39.87,26.86 -11.93,7.31 -30.48,15.75 -37.27,25.71 7.78,7.4 17.05,13.82 25.72,20.57 8.66,6.74 16.19,12.88 26.46,20.69 18,13.69 33.74,26.98 52.51,40.15 23.74,-6.08 65.5,-45.25 85.78,-47.78l9.75 12.31 -77.79 48.12c4.75,6.35 94.48,76.81 104.36,81.43 9.4,-3.64 59.96,-34.79 67.93,-41.44 28.18,-23.46 -14.29,-45.21 -28.77,-56.9 -40.57,-32.75 -78.2,-61.79 -119.78,-93.61 -80.26,-61.41 -158.67,-123.36 -238.31,-185.7 -40.1,-31.38 -79.21,-60.73 -120.05,-93.35 -26.65,-21.28 -30.84,-22.98 -70.03,-35.32l-161.68 -52.22c-16.75,-4 -112.25,61.84 -132.65,74.68 -20.49,12.9 -45.69,26.77 -64.42,40.45 3.79,17.21 44.07,69.69 54.32,91.16 11.39,-2.72 62.89,-35.68 74.28,-44.57 -13.57,-17.77 -67.86,-47.87 -73.87,-63.12l13.8 -7c21.07,12.38 57.46,46.43 77.7,58.83 5.49,-2.11 84.97,-48.68 91.32,-57.88 -11.81,-11.59 -26.02,-20.82 -38.52,-30.5 -11.32,-8.78 -32.66,-20.08 -36.55,-33.02l11.5 -6.32z"/>
   <path class="fil1" d="M12051.81 11454.97c13.52,-6.69 85.59,-50.59 90.46,-58.22 -13.91,-11.55 -70.31,-52.61 -75.52,-60.87l12.4 -9.55c12.52,6.73 30.16,22.17 40.72,30.24 14.53,11.11 26.65,21.04 40.17,30.65l92.07 -56.01c-14.9,-17.66 -69.04,-49.09 -76.5,-65.45 21.8,-9.19 15.57,-5.33 48.93,19.63 15.4,11.53 28.5,23.12 43.73,33.64 24.14,-6.69 58.52,-40.28 83.26,-48.01l12.3 8.91 -8.02 7.64c-15.28,11.06 -61.04,34.89 -70.28,45.5l104.95 82.48 82.9 -49.64c8.27,4.21 8.77,4.67 13.86,11.85 -16.03,9.85 -65.96,38 -77.83,49.42 7.12,11.27 100.73,80.81 105.85,83.41l69.1 -42.37c13.55,-8.59 15.53,-5.5 25.53,2.32 -9.33,13.26 -69.56,41.68 -77.82,53.47l105.29 82.11c22.17,-9.01 64.61,-43.83 83.26,-48.33l12.07 9.45 -78.55 50.46c7.11,9.83 101.36,81.15 105.33,83.66 9,-2.33 57.82,-32.73 64.23,-39.02 -2.48,-13.01 -8.34,-26.14 -12.35,-37.79 -6.66,-19.37 -6.87,-18.74 -20.8,-29.15l-458.32 -356.47c-12.43,-9.54 -46.9,-40.54 -61.35,-41.35 -16.91,-0.95 -227.12,134.23 -256.99,153.15 -14.3,9.05 -56.48,31.11 -20.49,59.98 12.83,10.3 46.07,38.72 58.41,44.26z"/>
   <path class="fil4" d="M12323.88 12342.53c23.02,20.46 59.19,115.81 65.07,159.79 6.69,49.98 -0.67,99.17 -17.18,145.77 -4.36,12.3 -10.55,30.51 -20.91,38.46 -3.04,-55.04 -21.85,-107.32 -40.29,-153.37 -15.5,-38.73 -58.09,-120.51 -62.51,-133.8 23.1,16.04 81.2,124.63 89.45,134.32 -8.55,-46.02 -49.49,-126.26 -68.13,-165.11 6.33,9.56 14.85,19.91 22.27,31.3l62.41 108.77c-6.89,-50.36 -44.81,-115.43 -57.48,-153.64l53.61 88.79c8.2,16.18 11.04,25.99 18.6,32.98 -3.57,-29.27 -32.91,-111.64 -44.91,-134.26zm-327.04 -201.56c16.76,-8.02 71.29,-3.19 92.88,3.67l8.27 3.73c0.35,-0.59 1.33,0.81 1.96,1.26 -20.73,0.97 -29.02,0.63 -47.57,6.06l-5.07 11.58c-0.15,-0.42 -0.62,1.38 -1.05,2.01 -15.67,-10.56 -34.99,-18.35 -49.42,-28.31zm1.48 217.28c-13.64,-13.19 -42.51,-105.12 -47.75,-135.66 -15.59,-90.9 41.68,-75.97 85.64,-41.17 32.71,25.9 65.01,60.54 92.06,93.62 9.49,11.59 71.84,91.84 74.59,107.6 20.98,14.27 87.72,154.68 101.97,192.28 29.41,77.65 54.01,210.63 -63.9,120.03 19.21,5.83 30.57,14.72 55.26,10.02 31.94,-38.66 -40.53,-149.16 -61.22,-166.15l-122.06 39.15c2.82,23.86 89.75,106.6 111.65,123.9 58.87,46.49 103.34,62.34 145.61,-11.12 64.66,-112.39 25.46,-278.74 -33.29,-371.91 -51.91,-82.34 -146.25,-173.89 -276.77,-194.46 -33.98,-5.36 -72.34,-3.21 -99.67,11.28 -30.07,15.93 -30.07,53.63 -24.06,93.07 7.04,46.2 42.02,141.42 63.66,173.86 6.76,-4.91 7.88,-5.06 12.06,-12.63l-13.78 -31.71z"/>
   <path class="fil3" d="M12404.25 11601.77c11.88,6.03 98.41,73.64 106.16,82.71l-45.5 30.07c-12.11,7.43 -34.87,23.33 -47.13,27.61 -14.65,-13.95 -35.79,-28.78 -52.13,-41.35 -19.21,-14.77 -34.94,-27.88 -52.93,-40.74 7.27,-9.14 77.73,-51.58 91.53,-58.3zm18.66 -11.36c8.19,-7.2 82.37,-53.33 92.35,-56.07 13.84,8.9 99.31,75.61 105.24,83.78l-90.93 56.17c-13.11,-6.31 -73.12,-55.99 -93.35,-71.44l-9.37 -7.49c-4.07,-4.18 -0.94,0.12 -3.94,-4.95zm-232.29 -27.66l90.97 -57.43c14.19,9.71 102.02,76.68 106.67,86.01 -24.77,10.89 -73.13,48.09 -92.24,54.39 -8.81,-4.96 -18.45,-13.54 -26.9,-20.2l-71.73 -55.77c-0.6,-0.53 -2.32,-2.12 -2.86,-2.65 -2.79,-2.76 -2.08,-1.94 -3.91,-4.35zm109.34 -66.4c6.62,-9.36 75.61,-50.41 90.42,-57.95l106.38 82.85c-8.18,8.35 -87.25,57.39 -92.51,56.37l-52.24 -40.3c-18.15,-14.43 -35.09,-25.26 -52.05,-40.97zm-232.4 -31.29c26.06,-10.02 69,-47.6 92.48,-54.33 16.63,10.79 36.27,27.33 53.23,40.83 13.85,11.02 42.08,30.44 51.71,42.02 -8.09,8.35 -39.89,26.18 -51.86,33.5 -37.5,22.94 -35,28.41 -51.66,15 -17.08,-13.74 -31.48,-24.49 -48.24,-37.77 -12.17,-9.65 -39.33,-27.49 -45.66,-39.25zm109.76 -65.54c8.99,-8.9 39.38,-25.7 51.77,-33.54 37.93,-23.99 36.14,-27.1 51.45,-14.77 15.38,12.39 88.46,65.38 94.31,77.08 -25.92,9.03 -68.99,47.82 -92.7,54.15 -13.84,-8.56 -97.21,-73.38 -104.83,-82.92zm-125.51 55.45c-12.34,-5.54 -45.58,-33.96 -58.41,-44.26 -35.99,-28.87 6.19,-50.93 20.49,-59.98 29.87,-18.92 240.08,-154.1 256.99,-153.15 14.45,0.81 48.92,31.81 61.35,41.35l458.32 356.47c13.93,10.41 14.14,9.78 20.8,29.15 4.01,11.65 9.87,24.78 12.35,37.79 -6.41,6.29 -55.23,36.69 -64.23,39.02 -3.97,-2.51 -98.22,-73.83 -105.33,-83.66l78.55 -50.46 -12.07 -9.45c-18.65,4.5 -61.09,39.32 -83.26,48.33l-105.29 -82.11c8.26,-11.79 68.49,-40.21 77.82,-53.47 -10,-7.82 -11.98,-10.91 -25.53,-2.32l-69.1 42.37c-5.12,-2.6 -98.73,-72.14 -105.85,-83.41 11.87,-11.42 61.8,-39.57 77.83,-49.42 -5.09,-7.18 -5.59,-7.64 -13.86,-11.85l-82.9 49.64 -104.95 -82.48c9.24,-10.61 55,-34.44 70.28,-45.5l8.02 -7.64 -12.3 -8.91c-24.74,7.73 -59.12,41.32 -83.26,48.01 -15.23,-10.52 -28.33,-22.11 -43.73,-33.64 -33.36,-24.96 -27.13,-28.82 -48.93,-19.63 7.46,16.36 61.6,47.79 76.5,65.45l-92.07 56.01c-13.52,-9.61 -25.64,-19.54 -40.17,-30.65 -10.56,-8.07 -28.2,-23.51 -40.72,-30.24l-12.4 9.55c5.21,8.26 61.61,49.32 75.52,60.87 -4.87,7.63 -76.94,51.53 -90.46,58.22zm516.86 339.26c-17.3,-0.93 -72.88,2.5 -84.12,-1.96 -5.44,-2.16 -44.14,-32.55 -47.74,-38.63 9.75,-8.27 81.54,-53.42 92.32,-55.78 24.34,15.88 69.67,57.07 88.81,67.45l13.93 -8.08c-20.55,-23.78 -78.36,-55.96 -86.69,-73.27l91.53 -55.36c18.61,13.49 35.05,27.41 53.73,41.71 16.94,12.97 37.08,27.26 52.35,41.83l-62.19 40.41c27.55,20.63 35.49,-9.46 78.87,-27.16l65.8 49.68 14.27 -9.42c-15.2,-17.89 -43.98,-33.3 -62.38,-50.74 4.52,-5.71 45.72,-31.38 55.07,-33.95l19.17 55.71c3.08,8.88 2.7,13.47 10.51,16.37 10.18,-7.55 7.17,1.06 5.99,-12.72 -0.25,-2.85 -4.7,-13.95 -5.89,-17.02l-33.47 -93.7c-12.12,-35.73 -11.38,-32.01 -34.97,-51.09l-476.84 -373.98c-51.42,-39.47 -52.78,-29.64 -115.4,9.29l-157.36 97.62c-42.28,26.29 -92.03,44.96 -79.21,88.95 6.06,20.8 69.85,65.44 89.21,79.97 124.38,93.34 258.56,202.31 384.98,299.56 40.11,30.86 30.49,32.48 98.69,29.37 11.26,-0.51 9.26,0.34 17.98,-4.29l13.05 -10.77z"/>
   <path class="fil1" d="M12520.81 12389c19.82,13.09 67.55,82.2 111.02,61.67 -17.16,61.19 -119.56,-41.04 -126.99,-53.08l15.97 -8.59zm-183.16 -259.12c-10.57,-13.49 -18.77,-52.61 -22.02,-72.37 -4.85,-29.42 -4.5,-62.69 28.58,-64.15 -0.5,0.62 -1.23,1.33 -1.6,1.75 -0.37,0.41 -1.13,1.23 -1.56,1.73 -6.82,7.76 -9.82,9.04 -10.47,27.79 -0.44,12.63 1.35,24.35 4.03,36.02 3.96,17.2 16.88,47.98 17.66,61.54l-14.62 7.69zm-40.42 29.63c3.9,7.87 1.12,-4.38 1.72,6.23 0.04,0.7 -1.28,5.46 -1.55,6.35 2.3,-0.62 15.12,-4.05 16.28,-4.83 0.59,-0.4 4.07,-4.57 5.88,-5.24l3.72 0.75c0.14,-0.5 0.97,0.54 1.2,1.02 0.82,-0.66 1.72,-1.98 2.29,-2.16 14.09,-4.57 2.02,-2.08 6.42,2.79 57.48,-32.35 53.46,-45.89 85.65,-21.38 42.89,32.66 87.87,105.05 105.47,157.66 24.16,72.27 -19.51,53.44 -35.4,77.62 -1.11,24.92 -14.95,3.92 -17.31,25.1l-0.08 12.69c1.47,5.82 6.53,-1.32 3.76,14.7 2.72,6.81 0.34,2.82 6.37,9.19 28.68,30.24 85.25,75.22 128.22,79.26 16.26,1.52 43.56,-3.4 53.92,-18 -0.16,-15.26 -3.17,-3.48 3.33,-12.61 5.64,-7.93 5.94,-2.04 6.33,-1.87 -8.98,5.59 -14.29,-20.55 -5.16,-27.64 13.22,-38.49 -20.1,-134.86 -33.32,-166.29 -20.83,-49.5 -45.3,-92.97 -71.37,-133.66 -14.29,-22.31 -28.5,-41.66 -43.53,-61.73 -27.09,-36.18 -125.34,-143.07 -167.43,-138.52 -9.84,3.04 -8.44,2.56 -17.75,4.95 -1.35,-3.58 -5,-13.22 -3.12,-20.27 2.02,-7.57 -3.85,-1.46 4.32,-5.35 10.96,-5.23 1.01,-1.98 4.35,0.72 -10.78,-0.65 7.8,2.39 -8.18,1.11 -10.58,-0.85 -1.97,2.03 -7.69,-2.4 -14.49,2.5 -35.16,19.26 -42.92,31.22 -22.25,34.29 -12.48,93.16 -2.33,130.55 4.77,17.56 15.7,43.68 17.91,60.04z"/>
   <path class="fil1" d="M12870.62 11996.47c14.37,32.62 43.17,114.54 47,153.35 -0.36,-0.44 -44.3,-82.72 -65.96,-114.51l-10.64 -12.74c-0.28,-1.04 -1.18,-1.03 -1.81,-1.47 7.11,30.94 42.3,99.59 45.44,144.93 -9.01,-9.88 -29.17,-52.66 -38.11,-67.59 -10.59,-17.68 -30.22,-49.83 -42.75,-60.5 13.04,47.05 41.47,94.07 49.38,150.21 -6.97,-9.44 -13.12,-24.25 -19.2,-35.67 -7.04,-13.21 -13.48,-23.36 -20.68,-34.74 -14.72,-23.26 -28.82,-42.6 -44.49,-62.06 11.68,32.96 50.37,114.82 50.65,150.5 -8.25,-23.72 -69.36,-117.61 -83.98,-128.49 13.56,36.91 47.24,102.58 50.98,145.46 -18.21,-32.23 -60.92,-105.4 -82.3,-121.57 5.16,19.46 18.97,45.38 27.31,67.33 5.87,15.44 20.75,55.34 21.67,70.95 -28.88,-47.38 -51.27,-83.48 -84.32,-120.42 4.91,17.98 20.21,45.44 28.39,67.06 8.09,21.36 18.62,47.71 22.79,70.93 -12.9,-16.28 -25.96,-42.51 -39.09,-60.27 -11.07,-14.96 -31.14,-43.97 -44.1,-53.41 6.22,23.1 46.97,99.39 49.49,131.61 -12.19,-24.11 -67.58,-101.46 -82.6,-110.15 3.71,15.02 19.88,44.26 26.31,60.46 8.2,20.65 15.24,39.48 22.02,60.92l35.3 130.64c13.73,-17.86 15.27,-46.59 19.75,-71.15 7.77,14.57 10.66,34.99 13.23,52.87 5.78,-6.17 10.08,-15.7 13.9,-34.61l4.36 -27.98c2.98,-9.64 1.15,-4.46 4.14,-8.65l13.99 50.27c10.29,-16.51 14.26,-47.8 15.8,-69.17l17.5 49.61c14.1,-15.28 13.35,-50.58 15.52,-74.97 3.3,9.3 15.94,49.99 20.46,56.82 10.27,-31.01 9.39,-41.62 12.53,-76.43l20.87 55.58c12.45,-17.58 9.34,-52.57 11.56,-75.23 4.88,8 8.57,18.53 12.18,27.98 3.51,9.2 5.87,20.7 12.38,27.09 7.26,-29.2 8.06,-38.63 7.6,-71.17 12.2,11.55 15.82,40.89 26.54,52.08 8.42,-31.63 5.24,-45.06 5.86,-78.45l26.56 57.84c39.75,-57.88 -64.92,-238.93 -91.43,-263.09z"/>
   <path class="fil4" d="M12816.93 11809.97c6.4,20.32 22.5,37.36 28.31,59.08 -8.86,-6.93 -16.26,-13.98 -26.14,-22.66 -11.84,-10.41 -22.06,-14.15 -27.12,-24.58 9.96,-4.38 11.6,-7.85 24.95,-11.84zm28.57 -18.07c12.15,13.27 27.08,38.54 35.3,55.44 -8.77,-4.68 -20,-15.23 -27.83,-20.9 -9.63,-6.99 -19.98,-15.22 -30.67,-19.21 5.46,-8.56 13.49,-13.42 23.2,-15.33zm27.75 -18.34c11.29,10.35 32.65,34.18 38.75,50.15 -3.45,-1.4 -55.21,-33.06 -60.48,-37.78l21.73 -12.37zm7.01 -7.23c10.06,-3.11 11.36,-6.49 20.74,-10.45 16.44,8.52 35.88,34.05 46.37,49.55 -7.79,-4.5 -62.54,-33.28 -67.11,-39.1zm29.76 -15.46c6.01,-6.33 12.27,-10.17 21.51,-12.09 15.57,9.12 38.42,28.8 45.64,42.89l-67.15 -30.8zm49.26 -30.14c20.34,10.05 43.89,26.54 52.59,41.45 -27.3,-9.78 -26.01,-13.78 -74.48,-29.29l21.89 -12.16zm-178.6 99.31c21.93,20.32 78.32,93.28 93.76,115.08 26.42,37.29 73,123.64 76.35,128.16 -2.81,-37.56 -27.15,-68.75 -38.22,-98.77 17.58,12.23 26.32,24.4 39.77,39.53 3.41,3.84 32.14,38.59 33.22,41.05 -1.43,-19.18 -31.79,-82.31 -39.28,-102.32 29.32,21.02 59,71.26 71.87,80.09 -2.5,-16.2 -11.86,-38.34 -17.62,-53.24 -5.31,-13.75 -15.21,-33.62 -18.77,-46.62 24.19,17.75 46.44,57.47 68.36,84.18 -1.71,-34.59 -28.16,-77.52 -34.33,-105.92 4.08,5.5 12.22,13.65 17.06,19.73l48.55 67.54c-1.17,-29.14 -22.25,-80.51 -32.68,-107.42 29.59,27.62 49.13,79.23 61.33,89.06 0.34,-43.57 -17.38,-73.86 -25.38,-108.61 9.82,9.2 23.23,31.76 31.32,45.7 8.6,14.8 17.74,36.2 26.16,48.15 -4.54,-68.01 -89.99,-180.52 -136.74,-220.11 -13.69,-11.59 -37.26,-33.42 -61.12,-18.69l-109.24 68.05c-15.14,9.45 -44.77,25.23 -54.37,35.38z"/>
   <path class="fil2" d="M12333.19 12164.42c-13.49,8.64 -63.7,36.79 -69.46,45.71 9.15,9.14 10,4.47 36.66,-12.21l75.2 -46.9c22.24,-14.45 18.37,-10.61 39.12,1.76 -5.54,3.96 -11,2.42 -32.44,16.07 -25.2,16.05 -78.06,46.03 -96.48,60.65 2.84,5.97 37.46,44.42 52.03,66.22 16.55,24.74 40.34,73.02 44.23,78.09 16.48,-6.16 49,-29.43 66.03,-39.77 18.01,-10.93 50.52,-27.85 61.63,-42.77 8.62,15.06 12.23,35.8 7.92,54.42l-91.01 58.31c-22.81,13.9 -27.32,12.59 -26.98,24.45 15.16,-0.28 67.9,-42.07 89.27,-50.13 15.89,-24.18 59.56,-5.35 35.4,-77.62 -17.6,-52.61 -62.58,-125 -105.47,-157.66 -32.19,-24.51 -28.17,-10.97 -85.65,21.38z"/>
   <path class="fil1" d="M11998.32 12358.25c9.21,-4.85 1.57,-0.02 10.03,-3.32 -2.27,-14.19 -3.97,-25.57 -7.78,-36.95 -2.33,-6.94 -9.31,-26.69 -7.93,-33.2 2.89,-13.7 4.59,-7.07 10.77,-7.27l6.12 -0.94c12.23,-5.77 -0.85,-2.72 11.76,-13.4 0.65,0.71 1.46,0.84 1.75,2.27 0.29,1.38 2.65,3.69 3.06,4.47 2.89,5.5 1.56,2.56 3.3,8.88 1.79,6.53 2.74,9.8 2.98,17.12 0.08,-0.19 3.04,-1.72 3.44,-1.78l5.73 1.47c0.1,0.07 0.54,0.57 0.63,0.65 0.09,0.07 0.54,0.59 0.62,0.67 6.68,5.78 -5.99,8.47 2.54,1.74 3.27,-9.38 0.94,-28.35 0.94,-41.48 10.13,7.94 4,-3.72 10.46,13.89 4.19,11.44 -0.53,12.34 11.72,35.91 9.99,-11.62 5.57,-8.24 5.57,-38.74 12.11,6.75 2.62,0.28 9.36,7.91 7.91,8.96 9.43,13.32 12.04,21.68 2.02,6.48 -3.61,15.39 9.35,8.35 6.18,-3.35 1.14,-6.06 -2.09,-8.45 13.49,-2.8 5.62,-1.63 16.18,2.54 9.14,3.23 12.48,8.24 15.57,17.76l-18.01 21.05 2.41 12.07c-9.86,0.08 -6.68,0.92 -8.73,-2.68 8.7,6.5 5.6,-0.58 7.38,10.54 1.42,7.68 5.14,13.08 10.14,21.81 2.37,4.14 3.73,6.87 5.99,10.83l6.35 8.06c11.32,1.73 8.14,-4.09 11.75,10.53 6.6,-4.44 9.17,-7.93 16.65,-11.52l2.14 1.8c0.26,0.19 0.45,0.85 2.58,1.8 8.94,-1.37 9.53,-3.69 19.08,-7.71l11.34 0.06c-8.72,-1.09 -4.11,0.34 -10.15,-7.46l9.5 -4.57c-2.75,-15.76 -65.1,-96.01 -74.59,-107.6 -27.05,-33.08 -59.35,-67.72 -92.06,-93.62 -43.96,-34.8 -101.23,-49.73 -85.64,41.17 5.24,30.54 34.11,122.47 47.75,135.66z"/>
   <path class="fil1" d="M12323.88 12342.53c12,22.62 41.34,104.99 44.91,134.26 -7.56,-6.99 -10.4,-16.8 -18.6,-32.98l-53.61 -88.79c12.67,38.21 50.59,103.28 57.48,153.64l-62.41 -108.77c-7.42,-11.39 -15.94,-21.74 -22.27,-31.3 18.64,38.85 59.58,119.09 68.13,165.11 -8.25,-9.69 -66.35,-118.28 -89.45,-134.32 4.42,13.29 47.01,95.07 62.51,133.8 18.44,46.05 37.25,98.33 40.29,153.37 10.36,-7.95 16.55,-26.16 20.91,-38.46 16.51,-46.6 23.87,-95.79 17.18,-145.77 -5.88,-43.98 -42.05,-139.33 -65.07,-159.79z"/>
   <path class="fil1" d="M12177.32 11399.52c7.62,9.54 90.99,74.36 104.83,82.92 23.71,-6.33 66.78,-45.12 92.7,-54.15 -5.85,-11.7 -78.93,-64.69 -94.31,-77.08 -15.31,-12.33 -13.52,-9.22 -51.45,14.77 -12.39,7.84 -42.78,24.64 -51.77,33.54z"/>
   <path class="fil1" d="M13159.03 12162.72c4.39,8.41 91.35,75.03 105.51,84.52 12.64,-3.58 35.93,-20.51 47.91,-28.09 14.93,-9.44 30.78,-19.06 44.53,-26.83 -5.38,-9.66 -43.21,-37.09 -52.45,-44.21 -14.55,-11.21 -38.81,-32.27 -54.31,-41.24l-91.19 55.85z"/>
   <path class="fil1" d="M12067.56 11465.06c6.33,11.76 33.49,29.6 45.66,39.25 16.76,13.28 31.16,24.03 48.24,37.77 16.66,13.41 14.16,7.94 51.66,-15 11.97,-7.32 43.77,-25.15 51.86,-33.5 -9.63,-11.58 -37.86,-31 -51.71,-42.02 -16.96,-13.5 -36.6,-30.04 -53.23,-40.83 -23.48,6.73 -66.42,44.31 -92.48,54.33z"/>
   <path class="fil1" d="M12422.91 11590.41c3,5.07 -0.13,0.77 3.94,4.95l9.37 7.49c20.23,15.45 80.24,65.13 93.35,71.44l90.93 -56.17c-5.93,-8.17 -91.4,-74.88 -105.24,-83.78 -9.98,2.74 -84.16,48.87 -92.35,56.07z"/>
   <path class="fil1" d="M12404.25 11601.77c-13.8,6.72 -84.26,49.16 -91.53,58.3 17.99,12.86 33.72,25.97 52.93,40.74 16.34,12.57 37.48,27.4 52.13,41.35 12.26,-4.28 35.02,-20.18 47.13,-27.61l45.5 -30.07c-7.75,-9.07 -94.28,-76.68 -106.16,-82.71z"/>
   <path class="fil1" d="M13282.17 12259.93c9.01,9.5 97.72,79.06 107.25,82.92 14.78,-7.73 81.24,-48.11 90.48,-57.53 -11.93,-10.46 -96.84,-78.22 -107.54,-82.52l-90.19 57.13z"/>
   <path class="fil1" d="M13264.54 12270.7c-14.41,6.34 -33.4,19.47 -47.02,28.07l-45.11 31.12c25.15,14.6 75.25,60.79 106,80.4 9.82,-2.76 84.74,-49.44 91.71,-56.3 -4.71,-6.33 -90.66,-75.08 -105.58,-83.29z"/>
   <path class="fil1" d="M13497.65 12298.91c-8.83,2.22 -86.87,50.26 -93.36,57.19 31.5,25.23 64.5,49.72 96.23,75.44 12.43,10.08 12.11,7.42 26.1,-1.59 16.81,-10.82 67.64,-40.05 75.54,-48.29 -6.81,-8.01 -16.47,-14.71 -25.08,-21.09l-79.43 -61.66z"/>
   <path class="fil1" d="M12190.62 11562.75c1.83,2.41 1.12,1.59 3.91,4.35 0.54,0.53 2.26,2.12 2.86,2.65l71.73 55.77c8.45,6.66 18.09,15.24 26.9,20.2 19.11,-6.3 67.47,-43.5 92.24,-54.39 -4.65,-9.33 -92.48,-76.3 -106.67,-86.01l-90.97 57.43z"/>
   <path class="fil1" d="M13534.91 12457.98c0.52,0.45 4.56,3.57 6.21,4.86l92.51 71.17c15.87,-6.88 32.29,-19.11 47.03,-28.01 11.3,-6.82 38.13,-19.91 45.05,-30.97 -24.52,-14 -90.2,-74.39 -108.8,-80.49l-89.07 56.28 7.07 7.16z"/>
   <path class="fil1" d="M12299.96 11496.35c16.96,15.71 33.9,26.54 52.05,40.97l52.24 40.3c5.26,1.02 84.33,-48.02 92.51,-56.37l-106.38 -82.85c-14.81,7.54 -83.8,48.59 -90.42,57.95z"/>
   <path class="fil1" d="M13295.8 12423.16c7.49,8.74 97.78,79.21 107.49,82.82 30.57,-17.67 60.78,-37.16 90.58,-55.99l-107.47 -84.12 -90.6 57.29z"/>
   <path class="fil1" d="M13422.72 12522.72c2.35,3.25 88.61,73.03 102.9,79.53l90.45 -57.36 -107.53 -82.99 -88.74 55.32 2.92 5.5z"/>
   <path class="fil1" d="M13650.72 12547.66c15.95,14.87 35.86,28.25 52.43,41.3 12.5,9.84 39.32,33.33 52.58,38.88 30.58,-18.08 60.6,-37.17 90.44,-56.01 -4.57,-6.21 -95.79,-77.89 -104.31,-81.84 -6.93,2.74 -84.54,48.04 -91.14,57.67z"/>
   <path class="fil1" d="M13063.25 12223.96c3.18,8.52 11.44,20.99 16.69,29.1 8.88,13.71 73.66,61.84 76.37,61.93 0.79,0.02 83.24,-47.23 91.64,-58.5 -32.03,-23.57 -77.1,-61.62 -105.52,-80.85 -9.29,2.65 -71.56,41.15 -79.18,48.32z"/>
   <path class="fil1" d="M13541.92 12614.05c4.08,7.04 3.71,5.25 11.22,11.08l57.73 44.8c7.12,5.28 15.1,12.95 21.69,17.14 19.18,12.19 40.23,-7.12 54.93,-16.51 13.79,-8.81 39.14,-22.29 48.99,-31.61 -7,-8.78 -16.46,-14.28 -25.67,-21.59l-77.18 -59.52c-10.17,3.12 -84.16,48.99 -91.71,56.21z"/>
   <path class="fil4" d="M13394.54 11543.66c28.06,-2.17 37.14,-38.04 62.99,-13.13 -12.68,3.69 -37.85,14.68 -46.45,26.68 9.79,14.73 24.05,29.62 40.17,54.54 12.01,18.56 23.39,42.77 35.3,58.99 10.22,-3.2 41.8,-21.46 45.9,-31.84 6.83,11.54 14.69,37.25 3.36,47.66 -9.1,8.37 -33.74,14.42 -34.26,27.46 8.22,-2.26 24.29,-13.34 32.45,-18.18 16.8,-9.96 20.4,-11.46 14.26,-36.88 -11.88,-49.14 -48.95,-103.29 -84.11,-134.74 -23.74,-21.24 -30.38,-8.81 -55.21,5.46 -9.82,5.64 -11.89,5.64 -14.4,13.98z"/>
   <path class="fil5" d="M12116.43 12339.08l18.01 -21.05c-3.09,-9.52 -6.43,-14.53 -15.57,-17.76 -7.23,14.63 -47.72,50.65 -60.54,62.99 -20.52,19.74 -38.75,39.8 -58.84,60.29l-118.88 121.34c2.77,3.94 8.25,9.32 12.12,14.28 8.7,-3.86 46.55,-43.1 57.99,-54.19l158.2 -160.56c6.48,-5.25 0.35,-1.32 7.51,-5.34z"/>
   <polygon class="fil6" points="12256.95,12516.19 12249.03,12495.91 11923.59,12603.29 11928.79,12624.79 "/>
   <path class="fil6" d="M12173.09 12402.32c-6.63,10.13 -52,34.96 -65.36,43.4 -22.04,13.91 -44.15,26.94 -66.7,41.34 -18.07,11.55 -123.18,78.12 -134.71,81.88l9.29 20.3c13.28,-3.92 280.67,-171.34 285.38,-177.15l-8.82 -17.48c-9.55,4.02 -10.14,6.34 -19.08,7.71z"/>
   <path class="fil4" d="M12065.8 12513.77l13.16 23.25 122.24 -39.48c-4.48,-9.48 -25.46,-39.6 -32.83,-46.48l-102.57 62.71z"/>
   <path class="fil6" d="M12337.65 12129.88l14.62 -7.69c-0.78,-13.56 -13.7,-44.34 -17.66,-61.54 -2.68,-11.67 -4.47,-23.39 -4.03,-36.02 0.65,-18.75 3.65,-20.03 10.47,-27.79 0.43,-0.5 1.19,-1.32 1.56,-1.73 0.37,-0.42 1.1,-1.13 1.6,-1.75 -33.08,1.46 -33.43,34.73 -28.58,64.15 3.25,19.76 11.45,58.88 22.02,72.37z"/>
   <path class="fil3" d="M12504.84 12397.59c7.43,12.04 109.83,114.27 126.99,53.08 -43.47,20.53 -91.2,-48.58 -111.02,-61.67l-15.97 8.59z"/>
   <path class="fil1" d="M13433.34 11749.98c7.65,18.79 32.72,98.34 39.64,106.96l7.25 -116.76c-20.3,18.83 -24.15,33.27 -42.06,14.51 -3.14,-3.29 -1.54,-2.13 -4.83,-4.71z"/>
   <path class="fil7" d="M11839.55 12568.82c17.11,-30.04 70.12,44.18 62.46,72.45 -1.96,7.23 -7.63,10.41 -7.64,10.4 -0.25,-0.49 -1.18,0.92 -1.65,2.74l20.14 -1.87c20.37,-51.88 -77.63,-145.29 -73.31,-83.72z"/>
   <path class="fil3" d="M12912.1 11706.67l13.27 -6.41c3.9,-30.95 -16.24,-72.07 26.74,-72.13 -68.64,-22.99 -45.94,67.56 -40.01,78.54z"/>
   <path class="fil1" d="M11996.84 12140.97c14.43,9.96 33.75,17.75 49.42,28.31 0.43,-0.63 0.9,-2.43 1.05,-2.01l5.07 -11.58c18.55,-5.43 26.84,-5.09 47.57,-6.06 -0.63,-0.45 -1.61,-1.85 -1.96,-1.26l-8.27 -3.73c-21.59,-6.86 -76.12,-11.69 -92.88,-3.67z"/>
   <path class="fil6" d="M12084.64 12386.5c1.26,17.08 11.45,30.36 17.33,44.51 8.84,-2.05 15.32,-5.36 20.93,-13.38 -3.5,-8.31 -20.36,-36.42 -26.68,-40.65l-11.58 9.52z"/>
   <path class="fil1" d="M13096.05 11503.94c61.89,12.33 34.23,7.95 82.87,22.92 -7.1,-10.41 -24.27,-22.52 -39.64,-30.19 -20.43,-10.2 -27.79,-7.29 -43.23,7.27z"/>
   <path class="fil1" d="M12596.08 11814.2c36.99,7.02 51.69,11 83.58,22.32 -7.45,-11.86 -25.72,-21.9 -38.28,-28.78 -20.61,-11.31 -30.93,-7.43 -45.3,6.46z"/>
   <path class="fil1" d="M12565.22 11831.35c9.76,7.27 30.21,7.53 43.49,11.77 14.37,4.59 27.25,11.68 38.82,14.85 -60.07,-57.08 -61.31,-35.82 -82.31,-26.62z"/>
   <path class="fil1" d="M13308.66 11557.11c-4.71,-10.24 -10.68,-11.87 -9.84,-23.83l39.31 1.02 -89.31 -32.75 59.84 55.56z"/>
   <path class="fil3" d="M12139.97 12399.71l-6.35 -8.06c-2.26,-3.96 -3.62,-6.69 -5.99,-10.83 -5,-8.73 -8.72,-14.13 -10.14,-21.81 -6.77,2.87 -7.55,3.92 -12.07,6.98 -1.32,11.61 12.56,40.45 21.32,50.42 14.74,-5.4 14.62,-3.93 13.23,-16.7z"/>
   <path class="fil1" d="M13035.02 11541.11c11.1,5.97 26.59,7.99 38.7,12.82 13.51,5.37 25.96,12.66 37.33,16.26 -9.03,-11.24 -19.92,-22.02 -33.32,-31.46 -21.78,-15.35 -22.57,-11.86 -42.71,2.38z"/>
   <path class="fil1" d="M12791.98 11821.81c5.06,10.43 15.28,14.17 27.12,24.58 9.88,8.68 17.28,15.73 26.14,22.66 -5.81,-21.72 -21.91,-38.76 -28.31,-59.08 -13.35,3.99 -14.99,7.46 -24.95,11.84z"/>
   <path class="fil1" d="M12822.3 11807.23c10.69,3.99 21.04,12.22 30.67,19.21 7.83,5.67 19.06,16.22 27.83,20.9 -8.22,-16.9 -23.15,-42.17 -35.3,-55.44 -9.71,1.91 -17.74,6.77 -23.2,15.33z"/>
   <path class="fil1" d="M13127.56 11485.62c56.97,4.95 66.62,16.75 88.38,20.52 -5.39,-3.14 -11.62,-9.5 -18.73,-14.59 -9.42,-6.76 -38.65,-22.87 -48.12,-21l-21.53 15.07z"/>
   <path class="fil1" d="M12880.26 11766.33c4.57,5.82 59.32,34.6 67.11,39.1 -10.49,-15.5 -29.93,-41.03 -46.37,-49.55 -9.38,3.96 -10.68,7.34 -20.74,10.45z"/>
   <path class="fil1" d="M13005.36 11558.94l4.17 3.41c2.52,1.25 1.77,1 3.86,1.85 3.22,1.32 7.1,2.21 10.45,3.34 24.25,8.19 38.49,19.05 53.77,24.92 -11.59,-13.56 -31.15,-39 -51.73,-45.52l-20.52 12z"/>
   <path class="fil1" d="M12410.41 11928.3c6.15,4.45 25.47,10.36 35.95,15.8 12.31,6.37 19.75,13.05 32.35,19.27 -11.04,-19.02 -25.6,-35.87 -43.93,-47.72 -9.61,1.99 -17.56,8.15 -24.37,12.65z"/>
   <path class="fil1" d="M12503.23 11872.89c24.03,3.4 63.21,16.79 77.3,28.74 -6.94,-12.41 -20.96,-23.68 -33.64,-32.93 -13.73,-10.03 -26.81,-18.13 -43.66,4.19z"/>
   <path class="fil1" d="M12441.19 11910.52c12.48,3.52 24.12,7.37 35.06,12.02 13.42,5.69 22.31,13.34 33.63,17.4 -7.47,-17.24 -27.16,-33.75 -44.57,-43.85 -10.69,3.13 -17.5,8.17 -24.12,14.43z"/>
   <path class="fil1" d="M13065.45 11521.88c10.27,5.38 26.28,6.66 38.16,10.27 13.76,4.18 25.58,11.01 38.94,15 -3.63,-6.63 -0.81,-3.11 -6.5,-8.59l-28.36 -21.4c-23.31,-13.87 -21.21,-7.88 -42.24,4.72z"/>
   <path class="fil1" d="M12627.96 11791.88l46.1 10.89c14.75,3.44 30.82,11.72 42.34,13.38 -7.5,-4.06 -14.32,-14.24 -38.02,-26.04 -32.54,-16.2 -24.77,-9.2 -50.42,1.77z"/>
   <path class="fil1" d="M12471.32 11890.33c14.24,5.07 26.57,7.88 38.41,12.71 12.49,5.08 24.71,13.63 35.36,16.94 -7.88,-13.17 -30.59,-35.04 -49.26,-43.34l-24.51 13.69z"/>
   <path class="fil1" d="M12534.11 11853.34c14.33,2.19 27.44,4.79 40.84,9.62 13.59,4.89 25.71,11.73 37.2,15.04 -6.67,-11.05 -35.6,-34.73 -55.26,-39.85l-22.78 15.19z"/>
   <path class="fil1" d="M12380.61 11946.39c3.21,3.41 0.68,2.46 7.68,5.84l26.34 12.45c12.56,7.13 21.21,12.9 30.3,20.28 -6.39,-16.76 -30.45,-44.29 -43.45,-50.72l-20.87 12.15z"/>
   <path class="fil8" d="M12851.52 11785.93c5.27,4.72 57.03,36.38 60.48,37.78 -6.1,-15.97 -27.46,-39.8 -38.75,-50.15l-21.73 12.37z"/>
   <path class="fil5" d="M12065.18 12405.95c-0.08,15.98 9.01,25.77 13.55,39.94l21.16 -11.06c-2.55,-10.46 -5.05,-11.59 -9.9,-19.24 -5.06,-8.01 -5.72,-12.32 -13.2,-18.26l-11.61 8.62z"/>
   <path class="fil1" d="M12910.02 11750.87l67.15 30.8c-7.22,-14.09 -30.07,-33.77 -45.64,-42.89 -9.24,1.92 -15.5,5.76 -21.51,12.09z"/>
   <path class="fil1" d="M12975.38 11579.34l63.24 31.15c-6.64,-17.26 -28.71,-32.16 -39.99,-44.73l-17.2 7.99c-0.48,0.36 -1.15,0.88 -1.6,1.25l-4.45 4.34z"/>
   <path class="fil1" d="M12937.39 11732.89c48.47,15.51 47.18,19.51 74.48,29.29 -8.7,-14.91 -32.25,-31.4 -52.59,-41.45l-21.89 12.16z"/>
   <path class="fil5" d="M12043.7 12428.33l12.47 31.33 20.94 -10.78c-2.61,-9.47 -4.1,-9.43 -8.9,-17.16l-10.85 -14.6c-8.68,4.51 -6.74,5.51 -13.66,11.21z"/>
   <path class="fil7" d="M13325.82 12010.91l20.89 4.68c-1.58,-14.33 -8.02,-43.98 -16.2,-54.04l-4.69 49.36z"/>
   <path class="fil3" d="M12025.42 12447.51c2.81,10.8 7.86,18.1 12.94,24.58 6.73,-2.52 9.84,-4.43 15.63,-10.2l-15.15 -25.52 -13.42 11.14z"/>
  </g>
 </g>
</svg>
