<?xml version="1.0" encoding="UTF-8"?>
<!DOCTYPE svg PUBLIC "-//W3C//DTD SVG 1.1//EN" "http://www.w3.org/Graphics/SVG/1.1/DTD/svg11.dtd">
<!-- Creator: CorelDRAW (Evaluation Version) -->
<svg xmlns="http://www.w3.org/2000/svg" xml:space="preserve" width="450mm" height="80mm" version="1.1" style="shape-rendering:geometricPrecision; text-rendering:geometricPrecision; image-rendering:optimizeQuality; fill-rule:evenodd; clip-rule:evenodd"
viewBox="0 0 45000 8000"
 xmlns:xlink="http://www.w3.org/1999/xlink"
 xmlns:xodm="http://www.corel.com/coreldraw/odm/2003">
 <defs>
  <style type="text/css">
   <![CDATA[
    .str0 {stroke:#A5ACB6;stroke-width:7.62;stroke-miterlimit:22.9256}
    .fil0 {fill:#93C9C4}
    .fil1 {fill:#A5ACB6}
   ]]>
  </style>
 </defs>
 <g id="Layer_x0020_1">
  <metadata id="CorelCorpID_0Corel-Layer"/>
  <g id="_105553221362496">
   <path class="fil0" d="M40715.02 1726.81c559.67,-41.67 1006.95,389.6 1042.76,902.95 39.11,560.4 -389.55,1007.84 -904.64,1042.3 -559.57,37.44 -1003.48,-387.18 -1040.56,-901.51 -40.63,-563.48 388.09,-1005.45 902.44,-1043.74zm-1372.73 1001.02c0,1091.86 905.55,1562.43 1283.37,2385.6 47.43,103.35 75.48,173.58 110.47,281.25 9.94,30.6 12.82,78.95 46.95,81.11 38.69,2.45 40.43,-48.09 50.81,-80.14 10.63,-32.83 20.85,-63.45 32.76,-96.58 348.42,-969.24 1361.3,-1412.57 1361.3,-2567.32 0,-334.99 -78.6,-592.5 -262.04,-861.94 -36.59,-53.75 -116.64,-150.01 -162.09,-194.38 -210.93,-205.89 -561.52,-419.03 -1001.69,-419.03l-35.26 0c-438.65,0 -795.39,215.09 -1002.42,422.19 -205.49,205.56 -422.16,562.35 -422.16,998.32l0 50.92z"/>
   <path class="fil0" d="M5354.1 3710.09c-48.99,545.93 -530.89,1005.96 -1141.22,949.87 -543.44,-49.94 -1005.33,-531.88 -946.75,-1143 52,-542.44 530.82,-1001.13 1139.85,-945.03 544.76,50.18 1002.67,530.29 948.12,1138.16zm-2595.49 -63.17c0,1286.69 1164.07,1758.42 1498.83,2868.3 10.23,33.91 13.39,88.47 55.14,85.66 35.6,-2.39 41.97,-59.9 52.22,-93.06 10.78,-34.89 22.31,-67.87 35.28,-103.6 70.54,-194.35 178.42,-393.34 289.99,-556.47 80.04,-117.03 157.44,-219.01 240.33,-324.06l251.84 -308.3c44.29,-52.72 82.34,-102.68 125.51,-156.65 114.34,-142.98 249.08,-341.44 333.38,-508.91 239.85,-476.5 310.91,-1079.27 79.2,-1581.67 -401.47,-870.49 -1492.69,-1181.04 -2295.77,-626.16 -66.55,45.98 -154.57,117.71 -209.95,173.37 -220.34,221.47 -456.01,604.82 -456.01,1076.8l0.01 54.75z"/>
   <path class="fil1 str0" d="M23571.26 2350.89c29.63,-51.33 -9.46,-110.74 -67.55,-115.54 -50.25,-4.16 -134.09,3.44 -186.24,6.59 -86.57,5.21 -291.49,-3.97 -321.42,62.14 -26.45,58.41 11.6,107.11 69.4,108.5 45.93,1.1 125.05,-12.19 176.02,-16.16 70.39,-5.48 301.4,3.65 329.79,-45.53z"/>
   <path class="fil1" d="M6675.86 6576.77c30.48,-57.09 -3.04,-117.71 -66.59,-117.53 -35.85,0.09 -126.72,23.02 -169.31,31.08 -66.32,12.54 -298.05,27.44 -327.65,76.73 -33.9,56.45 3.19,114.69 66.46,114.59 54.02,-0.08 476.85,-66.96 497.09,-104.87z"/>
   <path class="fil1" d="M27488.61 3602.14c10,50.8 224.22,106.82 290.66,128.36 67.83,21.99 304.36,125.2 274.99,-31.08 -11.26,-59.98 -74.75,-61.78 -136.97,-81.47 -53.19,-16.83 -105.82,-33.92 -158.91,-51.59 -64.55,-21.47 -304.53,-140.66 -269.77,35.78z"/>
   <path class="fil1" d="M15631.2 4023.2c12.46,45.93 83.7,66.19 133.33,91.08l297.82 149.16c59.35,24.69 124.64,-16.5 106.39,-87.48 -12.8,-49.73 -225.16,-140.17 -280.58,-168.15 -44.67,-22.54 -107.57,-59.09 -152.27,-75.64 -64.47,-23.86 -123.99,19.91 -104.69,91.03z"/>
   <path class="fil1" d="M13406.51 3231.68c10.04,77.17 158.65,71.65 302.29,99.59 80.53,15.67 291.37,99.59 279.14,-40.02 -5.58,-63.81 -59.94,-64.98 -124.65,-79.56 -57.13,-12.88 -110.1,-23.61 -167.79,-34.22 -86.17,-15.85 -307.28,-86.37 -288.99,54.21z"/>
   <path class="fil1" d="M21314.53 2982.05c37.17,-60.9 -13.76,-139.8 -89.25,-116.85 -40.62,12.35 -380.48,251.69 -398.03,276.36 -42.71,60.05 10.54,139.08 87.04,113.47 18.45,-6.18 109.85,-78.35 133.54,-95.1 26.42,-18.68 265.4,-175.75 266.7,-177.88z"/>
   <path class="fil1" d="M26402.35 3139.05c14.38,50.33 227.99,127.41 282.75,153.12 46.73,21.93 102.87,48.66 151.75,67.58 73.95,28.59 133.59,-20.79 109.52,-91.68 -13.46,-39.65 -93.88,-64.83 -136.76,-83.59l-301.61 -136.61c-67.3,-25.57 -125.89,20.34 -105.65,91.18z"/>
   <path class="fil1" d="M7795.17 6212.54c40.97,-54.26 -11.96,-127.51 -79.35,-113.87 -28.3,5.72 -121.05,50.93 -154.28,64.81 -58.85,24.58 -274.77,94.47 -299.65,129.93 -41.45,59.1 12.79,123.26 77.7,113.08 45.04,-7.05 425.93,-154.69 455.58,-193.95z"/>
   <path class="fil1" d="M25436.69 2755.22c55.05,21.3 103.32,38.41 158.05,60.84 63.77,26.12 294.76,149.76 273.87,-12.33 -7.53,-58.39 -74.95,-68.23 -128.98,-90.33 -53.84,-22.02 -104.03,-41.58 -157,-62 -64.35,-24.8 -292.88,-142.19 -273.55,16.1 7.25,59.31 70.39,65.59 127.61,87.72z"/>
   <path class="fil1 str0" d="M24308.91 2443.3c56.14,9.11 113.71,19.29 170.25,30.69 83.61,16.87 295.52,97.57 269.13,-48.67 -10.33,-57.28 -71.1,-60.53 -128.71,-73.29 -56.77,-12.56 -110.43,-24.17 -168.13,-34.98 -85.51,-16.02 -321.74,-87.69 -280.95,64.16 14.74,54.83 81.43,52.83 138.41,62.09z"/>
   <path class="fil1 str0" d="M22401.45 2528.31c22.41,-31.92 14.64,-129.25 -75.49,-120.42 -50.98,5 -441.21,125.75 -469.54,162.64 -40.73,53.05 0.29,124.07 71.12,116.51 8.26,-0.88 464.67,-145.57 473.91,-158.73z"/>
   <path class="fil1" d="M11672.27 3509.55c27.6,-64.64 -35.25,-120.78 -104.6,-94.32 -43.66,16.66 -104.53,50.5 -146.53,72.8 -54.29,28.82 -256.92,128.57 -275.01,171.5 -27.5,65.29 32.6,128.67 104.34,96.19 39.53,-17.9 94.95,-56.8 138.16,-81.35 46.94,-26.68 96.67,-53.13 148.13,-78.98 43.69,-21.95 117.02,-42.52 135.51,-85.84z"/>
   <path class="fil1" d="M12808.97 3223.26c29.66,-61.98 -15.57,-107.4 -77.8,-107.19 -79.21,0.26 -274.79,29.52 -358.52,44.41 -50.55,8.98 -113.85,10.06 -136.04,57.15 -25.92,54.99 16.01,106.4 72.36,105.58 35.48,-0.51 129.01,-23.48 173.15,-30.24 59.1,-9.05 119.72,-16.24 181.4,-22.06 67.12,-6.35 121.25,2.91 145.45,-47.65z"/>
   <path class="fil1 str0" d="M8822.58 5631.52c43.76,-58.97 -20.5,-132.66 -85.53,-111.98 -22.7,7.22 -112.65,71.38 -139.38,88.36 -42.39,26.94 -258.38,156.52 -273.72,181.43 -33.66,54.64 13.41,125.61 83.82,109.4 31.36,-7.22 395.03,-240.56 414.81,-267.21z"/>
   <path class="fil1" d="M14550.48 3543.24c14.26,47.15 90.43,62.86 137.8,81.03l310.6 127.97c62.97,21.9 120.22,-22 105.4,-87.85 -11.05,-49.13 -85.73,-66.51 -133.82,-86.5l-312.59 -125.43c-62.87,-20.12 -129.75,16.85 -107.39,90.78z"/>
   <path class="fil1" d="M10675.88 4166.35c42.59,-55.96 -15.45,-134.98 -86.42,-112.28 -22.56,7.21 -359.68,288.46 -374.11,308.37 -43.64,60.21 8.37,141.34 87.4,113.99l314.62 -259.47c20.53,-16.59 40.27,-26.64 58.51,-50.61z"/>
   <path class="fil1" d="M5504.37 6709.35c29,-50.88 -6.12,-103.16 -58.33,-109.45l-361.99 7.93c-57.92,0.35 -123.39,-10.44 -150.34,35.47 -32.63,55.58 2.16,104.94 57.23,112.57l371.09 -5.23c62,-2.06 116.31,4.38 142.34,-41.29z"/>
   <path class="fil1" d="M20378.37 3694.81c39.77,-58.47 -20.12,-137.52 -96.45,-105.98 -19.51,8.06 -96.98,82.98 -123.92,104.45l-241.11 213.75c-37.89,63.28 24.82,134.78 95.38,104.82l247.44 -208.55c21.83,-17.24 106.71,-90.93 118.66,-108.49z"/>
   <path class="fil1" d="M9775.92 4924.2c36.8,-61.04 -29.54,-138.03 -102.14,-101.56l-376.78 305.93c-31.64,62.02 30.43,128.58 99.03,98.89 26.03,-11.26 101.78,-75.6 130.1,-97.45 41.99,-32.37 230.47,-173.76 249.79,-205.81z"/>
   <path class="fil1" d="M28634.63 3888.48c15.04,50.47 64.68,49.68 127.83,55.66 57.88,5.49 115.28,9.77 172.84,12.55 81.54,3.95 287.87,38.65 255.65,-88.18 -20,-78.69 -161.46,-54.36 -306.4,-63.96 -81.91,-5.42 -292.64,-59.56 -249.92,83.93z"/>
   <path class="fil1" d="M30396.82 3888.64c29.63,-51.33 -9.46,-110.74 -67.55,-115.54 -50.25,-4.16 -134.09,3.44 -186.24,6.59 -86.57,5.21 -291.49,-3.97 -321.42,62.14 -26.45,58.41 11.6,107.11 69.4,108.5 45.93,1.1 125.05,-12.19 176.02,-16.16 70.39,-5.48 301.4,3.65 329.79,-45.53z"/>
   <path class="fil1" d="M34314.17 5139.89c10,50.8 224.22,106.82 290.66,128.36 67.83,21.99 304.36,125.2 274.99,-31.08 -11.26,-59.98 -74.75,-61.78 -136.97,-81.47 -53.19,-16.83 -105.82,-33.92 -158.91,-51.59 -64.55,-21.47 -304.53,-140.66 -269.77,35.78z"/>
   <path class="fil1 str0" d="M39042.47 6162.17c81.26,0 265.26,-11.07 338.76,-32.73 50.13,-14.78 74.37,-75 33.78,-121.2 -32.73,-37.25 -97.64,-18 -148.35,-11.41 -152.59,19.8 -322.97,9.36 -358.3,14.31 -52.32,7.32 -83.51,65.28 -51.02,116.8 26.5,42.01 124.32,34.23 185.13,34.23z"/>
   <path class="fil1" d="M36499.41 5529.34c10.04,77.17 158.65,71.65 302.29,99.59 80.53,15.67 291.37,99.59 279.14,-40.02 -5.58,-63.81 -59.94,-64.98 -124.65,-79.56 -57.13,-12.88 -110.1,-23.61 -167.79,-34.22 -86.17,-15.85 -307.28,-86.37 -288.99,54.21z"/>
   <path class="fil1 str0" d="M33227.91 4676.8c14.38,50.33 227.99,127.41 282.75,153.12 46.73,21.93 102.87,48.66 151.75,67.58 73.95,28.59 133.59,-20.79 109.52,-91.68 -13.46,-39.65 -93.88,-64.83 -136.76,-83.59l-301.61 -136.61c-67.3,-25.57 -125.89,20.34 -105.65,91.18z"/>
   <path class="fil1" d="M32262.25 4292.97c55.05,21.3 103.32,38.41 158.05,60.84 63.77,26.12 294.76,149.76 273.87,-12.33 -7.53,-58.39 -74.95,-68.23 -128.98,-90.33 -53.84,-22.02 -104.03,-41.58 -157,-62 -64.35,-24.8 -292.88,-142.19 -273.55,16.1 7.25,59.31 70.39,65.59 127.61,87.72z"/>
   <path class="fil1" d="M31134.47 3981.05c56.14,9.11 113.71,19.29 170.25,30.69 83.61,16.87 295.52,97.57 269.13,-48.67 -10.33,-57.28 -71.1,-60.53 -128.71,-73.29 -56.77,-12.56 -110.43,-24.17 -168.13,-34.98 -85.51,-16.02 -321.74,-87.69 -280.95,64.16 14.74,54.83 81.43,52.83 138.41,62.09z"/>
   <path class="fil1" d="M17728.19 4481.12c-47.74,51.59 -7.44,125.6 66.77,124.01 46.72,-0.99 115.43,-12.39 162.49,-19.26 60.81,-8.88 285.19,-34.64 316.66,-68.98 47.86,-52.24 12.6,-132.15 -65.89,-125.69 -43.25,3.55 -108.53,21.54 -157.48,30.13 -53.18,9.33 -108.91,17.51 -166.07,24.54 -48.52,5.97 -124.49,0.68 -156.48,35.25z"/>
   <path class="fil1" d="M18899.69 4328.04c-21.5,65.26 29.16,104.53 90.86,96.37 78.52,-10.38 268.76,-64.39 349.91,-89.85 48.98,-15.36 111.63,-24.53 127.62,-74.06 18.68,-57.86 -29.48,-103.49 -85.26,-95.48 -35.12,5.05 -124.95,39.78 -167.87,52.12 -57.46,16.53 -116.66,31.4 -177.09,45.06 -65.76,14.87 -120.63,12.6 -138.17,65.84z"/>
   <path class="fil1" d="M40501.05 5631.38c34.39,-59.83 -25.5,-131.71 -96.12,-103.36l-411.25 254.63c-37.79,60.32 15.45,137 96.87,106.17 67.65,-25.62 387.8,-217.98 410.5,-257.44z"/>
   <path class="fil1 str0" d="M37643.38 5840.9c14.26,47.15 90.43,62.86 137.8,81.03l310.6 127.97c62.97,21.9 120.22,-22 105.4,-87.85 -11.05,-49.13 -85.73,-66.51 -133.82,-86.5l-312.59 -125.43c-62.87,-20.12 -129.75,16.85 -107.39,90.78z"/>
   <path class="fil1" d="M35460.19 5426.23c15.04,50.47 64.68,49.68 127.83,55.66 57.88,5.49 115.28,9.77 172.84,12.55 81.54,3.95 287.87,38.65 255.65,-88.18 -20,-78.69 -161.46,-54.36 -306.4,-63.96 -81.91,-5.42 -292.64,-59.56 -249.92,83.93z"/>
   <path class="fil1" d="M16527.72 4487.03c24.72,40.67 98.78,40.37 153.36,50.51l327.52 60.7c63.86,7.26 115.17,-50.43 77.94,-113.56 -26.08,-44.23 -255.2,-72.21 -316.21,-83.72 -49.16,-9.26 -119.74,-26.93 -167.27,-30.43 -68.57,-5.05 -113.61,53.52 -75.34,116.5z"/>
  </g>
 </g>
</svg>
