<?xml version="1.0" encoding="UTF-8"?>
<!DOCTYPE svg PUBLIC "-//W3C//DTD SVG 1.1//EN" "http://www.w3.org/Graphics/SVG/1.1/DTD/svg11.dtd">
<!-- Creator: CorelDRAW (Evaluation Version) -->
<svg xmlns="http://www.w3.org/2000/svg" xml:space="preserve" width="210mm" height="297mm" version="1.1" style="shape-rendering:geometricPrecision; text-rendering:geometricPrecision; image-rendering:optimizeQuality; fill-rule:evenodd; clip-rule:evenodd"
viewBox="0 0 21000 29700"
 xmlns:xlink="http://www.w3.org/1999/xlink"
 xmlns:xodm="http://www.corel.com/coreldraw/odm/2003">
 <defs>
  <style type="text/css">
   <![CDATA[
    .fil7 {fill:black;fill-rule:nonzero}
    .fil4 {fill:#494CF3;fill-rule:nonzero}
    .fil3 {fill:#91B3FA;fill-rule:nonzero}
    .fil1 {fill:#BDD0FB;fill-rule:nonzero}
    .fil12 {fill:white;fill-rule:nonzero}
    .fil11 {fill:white;fill-rule:nonzero;fill-opacity:0.200000}
    .fil9 {fill:#91B3FA;fill-rule:nonzero;fill-opacity:0.227451}
    .fil46 {fill:#91B3FA;fill-rule:nonzero;fill-opacity:0.301961}
    .fil8 {fill:#91B3FA;fill-rule:nonzero;fill-opacity:0.411765}
    .fil2 {fill:white;fill-rule:nonzero;fill-opacity:0.501961}
    .fil10 {fill:#91B3FA;fill-rule:nonzero;fill-opacity:0.549020}
    .fil27 {fill:white;fill-rule:nonzero;fill-opacity:0.800000}
    .fil18 {fill:url(#id0);fill-rule:nonzero}
    .fil15 {fill:url(#id1);fill-rule:nonzero}
    .fil19 {fill:url(#id2);fill-rule:nonzero}
    .fil20 {fill:url(#id3);fill-rule:nonzero}
    .fil0 {fill:url(#id4);fill-rule:nonzero}
    .fil24 {fill:url(#id5);fill-rule:nonzero}
    .fil16 {fill:url(#id6);fill-rule:nonzero}
    .fil35 {fill:url(#id7);fill-rule:nonzero}
    .fil37 {fill:url(#id8);fill-rule:nonzero}
    .fil44 {fill:url(#id9);fill-rule:nonzero}
    .fil45 {fill:url(#id10);fill-rule:nonzero}
    .fil33 {fill:url(#id11);fill-rule:nonzero}
    .fil43 {fill:url(#id12);fill-rule:nonzero}
    .fil14 {fill:url(#id13);fill-rule:nonzero}
    .fil41 {fill:url(#id14);fill-rule:nonzero}
    .fil36 {fill:url(#id15);fill-rule:nonzero}
    .fil21 {fill:url(#id16);fill-rule:nonzero}
    .fil39 {fill:url(#id17);fill-rule:nonzero}
    .fil34 {fill:url(#id18);fill-rule:nonzero}
    .fil32 {fill:url(#id19);fill-rule:nonzero}
    .fil13 {fill:url(#id20);fill-rule:nonzero}
    .fil38 {fill:url(#id21);fill-rule:nonzero}
    .fil42 {fill:url(#id22);fill-rule:nonzero}
    .fil25 {fill:url(#id23);fill-rule:nonzero}
    .fil30 {fill:url(#id24);fill-rule:nonzero}
    .fil40 {fill:url(#id25);fill-rule:nonzero}
    .fil31 {fill:url(#id26);fill-rule:nonzero}
    .fil23 {fill:url(#id27);fill-rule:nonzero}
    .fil17 {fill:url(#id28);fill-rule:nonzero}
    .fil28 {fill:url(#id29);fill-rule:nonzero}
    .fil26 {fill:url(#id30);fill-rule:nonzero}
    .fil29 {fill:url(#id31);fill-rule:nonzero}
    .fil22 {fill:url(#id32);fill-rule:nonzero}
    .fil5 {fill:url(#id33);fill-rule:nonzero}
    .fil6 {fill:url(#id34);fill-rule:nonzero;fill-opacity:0.219608}
   ]]>
  </style>
  <linearGradient id="id0" gradientUnits="userSpaceOnUse" x1="6675.64" y1="16164.89" x2="5405.92" y2="19282.48">
   <stop offset="0" style="stop-opacity:1; stop-color:#E1473D"/>
   <stop offset="1" style="stop-opacity:1; stop-color:#E9605A"/>
  </linearGradient>
  <linearGradient id="id1" gradientUnits="userSpaceOnUse" x1="5403.78" y1="15976.41" x2="5697.29" y2="15976.41">
   <stop offset="0" style="stop-opacity:1; stop-color:#FEBBBA"/>
   <stop offset="1" style="stop-opacity:1; stop-color:#FF928E"/>
  </linearGradient>
  <linearGradient id="id2" gradientUnits="userSpaceOnUse" xlink:href="#id1" x1="5754.23" y1="14652.51" x2="6174.01" y2="14652.51">
  </linearGradient>
  <linearGradient id="id3" gradientUnits="userSpaceOnUse" x1="7382.82" y1="6407.26" x2="7014.44" y2="9020.43">
   <stop offset="0" style="stop-opacity:1; stop-color:#FF928E"/>
   <stop offset="1" style="stop-opacity:1; stop-color:#FE7062"/>
  </linearGradient>
  <linearGradient id="id4" gradientUnits="userSpaceOnUse" x1="18574.28" y1="25584.48" x2="6454.72" y2="9799.36">
   <stop offset="0" style="stop-opacity:1; stop-color:#DAE3FE"/>
   <stop offset="1" style="stop-opacity:1; stop-color:#E9EFFD"/>
  </linearGradient>
  <linearGradient id="id5" gradientUnits="userSpaceOnUse" xlink:href="#id3" x1="10657" y1="11988.54" x2="9198.55" y2="13979.79">
  </linearGradient>
  <linearGradient id="id6" gradientUnits="userSpaceOnUse" x1="24788.47" y1="20690.82" x2="25284.73" y2="21573.43">
   <stop offset="0" style="stop-opacity:1; stop-color:#53D8FF"/>
   <stop offset="1" style="stop-opacity:1; stop-color:#3840F7"/>
  </linearGradient>
  <linearGradient id="id7" gradientUnits="userSpaceOnUse" xlink:href="#id1" x1="36617.71" y1="21365.36" x2="36397.05" y2="21365.36">
  </linearGradient>
  <linearGradient id="id8" gradientUnits="userSpaceOnUse" xlink:href="#id3" x1="16852.63" y1="7641.11" x2="16459.64" y2="10294.87">
  </linearGradient>
  <linearGradient id="id9" gradientUnits="userSpaceOnUse" xlink:href="#id1" x1="33254.25" y1="19532.61" x2="33692.32" y2="15789.43">
  </linearGradient>
  <linearGradient id="id10" gradientUnits="userSpaceOnUse" xlink:href="#id1" x1="33691.34" y1="19179.72" x2="34049.29" y2="16262.97">
  </linearGradient>
  <linearGradient id="id11" gradientUnits="userSpaceOnUse" x1="33791.52" y1="18021.72" x2="36155.99" y2="20982.31">
   <stop offset="0" style="stop-opacity:1; stop-color:#09005D"/>
   <stop offset="1" style="stop-opacity:1; stop-color:#1A0F91"/>
  </linearGradient>
  <linearGradient id="id12" gradientUnits="userSpaceOnUse" xlink:href="#id1" x1="26653.31" y1="-4824.46" x2="26345.85" y2="-5279.12">
  </linearGradient>
  <linearGradient id="id13" gradientUnits="userSpaceOnUse" xlink:href="#id1" x1="5019.51" y1="33294.88" x2="9147.5" y2="-20856.28">
  </linearGradient>
  <linearGradient id="id14" gradientUnits="userSpaceOnUse" xlink:href="#id1" x1="26625.38" y1="-13018.21" x2="26281.4" y2="-13744.15">
  </linearGradient>
  <linearGradient id="id15" gradientUnits="userSpaceOnUse" xlink:href="#id11" x1="32963.46" y1="17268.25" x2="35173.11" y2="20599.81">
  </linearGradient>
  <linearGradient id="id16" gradientUnits="userSpaceOnUse" xlink:href="#id1" x1="8224.53" y1="14901.31" x2="4593.53" y2="16978.59">
  </linearGradient>
  <linearGradient id="id17" gradientUnits="userSpaceOnUse" xlink:href="#id3" x1="18261.41" y1="7602.41" x2="17852.4" y2="10341.72">
  </linearGradient>
  <linearGradient id="id18" gradientUnits="userSpaceOnUse" xlink:href="#id11" x1="34889.27" y1="20557.6" x2="37706.47" y2="23701.41">
  </linearGradient>
  <linearGradient id="id19" gradientUnits="userSpaceOnUse" xlink:href="#id1" x1="35691.65" y1="21368.99" x2="35433.32" y2="21368.99">
  </linearGradient>
  <linearGradient id="id20" gradientUnits="userSpaceOnUse" xlink:href="#id1" x1="4957.74" y1="21686.44" x2="6356.98" y2="18080.68">
  </linearGradient>
  <linearGradient id="id21" gradientUnits="userSpaceOnUse" xlink:href="#id1" x1="1715.38" y1="13193.64" x2="2167.45" y2="14461.33">
  </linearGradient>
  <linearGradient id="id22" gradientUnits="userSpaceOnUse" xlink:href="#id11" x1="25842.48" y1="-11716.62" x2="26446.63" y2="-10844.17">
  </linearGradient>
  <linearGradient id="id23" gradientUnits="userSpaceOnUse" xlink:href="#id3" x1="11851.76" y1="6902.78" x2="10630.1" y2="9017.81">
  </linearGradient>
  <linearGradient id="id24" gradientUnits="userSpaceOnUse" xlink:href="#id1" x1="2408.55" y1="14114.33" x2="2085.57" y2="13425.47">
  </linearGradient>
  <linearGradient id="id25" gradientUnits="userSpaceOnUse" xlink:href="#id1" x1="36157.19" y1="14733.73" x2="35502.92" y2="14733.73">
  </linearGradient>
  <linearGradient id="id26" gradientUnits="userSpaceOnUse" xlink:href="#id11" x1="34520.76" y1="21156.45" x2="37382.06" y2="24267.38">
  </linearGradient>
  <linearGradient id="id27" gradientUnits="userSpaceOnUse" xlink:href="#id1" x1="6392.03" y1="14557.84" x2="5720.03" y2="13666.15">
  </linearGradient>
  <linearGradient id="id28" gradientUnits="userSpaceOnUse" xlink:href="#id6" x1="28945.38" y1="8714.7" x2="29734.94" y2="9310.49">
  </linearGradient>
  <linearGradient id="id29" gradientUnits="userSpaceOnUse" xlink:href="#id3" x1="10457.87" y1="9895.04" x2="11604.19" y2="8953.24">
  </linearGradient>
  <linearGradient id="id30" gradientUnits="userSpaceOnUse" xlink:href="#id3" x1="11803.77" y1="6962.06" x2="10671" y2="9077.04">
  </linearGradient>
  <linearGradient id="id31" gradientUnits="userSpaceOnUse" xlink:href="#id1" x1="2269.53" y1="13284.42" x2="2686.13" y2="14529.93">
  </linearGradient>
  <linearGradient id="id32" gradientUnits="userSpaceOnUse" xlink:href="#id1" x1="8539.52" y1="15550.31" x2="5129.68" y2="17339.61">
  </linearGradient>
  <linearGradient id="id33" gradientUnits="userSpaceOnUse" x1="67877.19" y1="9948.5" x2="49355.97" y2="34944.54">
   <stop offset="0" style="stop-opacity:1; stop-color:#4F52FF"/>
   <stop offset="1" style="stop-opacity:1; stop-color:#4042E2"/>
  </linearGradient>
  <linearGradient id="id34" gradientUnits="userSpaceOnUse" xlink:href="#id6" x1="64098.93" y1="-26112.95" x2="67618.99" y2="-27497.29">
  </linearGradient>
 </defs>
 <g id="Layer_x0020_1">
  <metadata id="CorelCorpID_0Corel-Layer"/>
  <g id="Illustration">
   <g>
    <path class="fil0" d="M15890.88 19731.37c-308.01,320.34 -599.45,526.92 -829.71,690.13 -2706.66,1918.54 -5909.37,1359.29 -6590.03,1222.72 -1005.13,-201.67 -2948.02,-591.51 -4352.7,-2223.37 -2125.16,-2468.87 -1794.24,-6358.5 -145.83,-8926.11 301.52,-469.66 1894.24,-3076.37 5131.45,-3494.4 1959.11,-252.99 4242.81,257.26 5896.61,1626.03 3471.47,2873.17 3224.34,8677.48 890.21,11105z"/>
    <g>
     <g>
      <path class="fil1" d="M10632.56 20287.9c0,0 289.92,-8237.43 4510,-13387.98 55.03,-67.16 155.56,-53.96 189.32,25.4 533.07,1253.53 3571.02,9327.22 -4699.32,13362.58z"/>
      <path class="fil2" d="M14975.77 9285.68c0,0 -4.03,44.73 -13.83,128.73 -9.57,84 -25.22,207.06 -46.81,363.5 -21.1,156.47 -50.61,346.02 -86.49,563.05 -19.14,108.32 -38.01,223.82 -61.3,345.01 -11.15,60.67 -22.6,122.9 -34.32,186.59 -12.4,63.57 -25.09,128.61 -38.04,195.05 -25.27,132.97 -55.86,270.64 -85.22,413.56 -32.56,142.25 -63.28,289.93 -100.22,440.53 -18.04,75.4 -36.34,151.81 -54.85,229.16 -19.6,77.08 -39.44,155.11 -59.48,233.98 -39.3,157.95 -83.12,318.32 -126.87,481.62 -21.24,81.83 -46.07,163.36 -69.34,245.99 -23.91,82.43 -46.96,165.76 -72.02,249.02 -25.48,83.14 -51.12,166.78 -76.88,250.84 -12.88,42.03 -25.8,84.16 -38.74,126.39 -13.72,41.96 -27.47,84.02 -41.25,126.17 -27.59,84.28 -55.29,168.88 -83.08,253.73 -27.76,84.88 -58.56,168.92 -87.79,253.71 -29.96,84.53 -58.51,169.79 -89.76,254.1 -31.37,84.25 -62.78,168.58 -94.18,252.93l-46.68 126.66c-15.66,42.18 -32.74,83.75 -49.03,125.64 -32.95,83.61 -65.86,167.13 -98.72,250.49 -31.99,83.74 -67.77,165.61 -102.18,247.82 -34.61,82.12 -69.12,163.97 -103.5,245.52 -71.02,162 -144.4,321.35 -215.31,479.55 -75.43,155.89 -149.94,309.9 -223.23,461.39 -77.11,149.4 -152.94,296.33 -227.16,440.13 -77.87,141.68 -154.05,280.3 -228.23,415.25 -76.52,133.48 -153.82,261.51 -227.05,386.38 -18.48,31.11 -36.81,61.95 -54.97,92.52 -19.04,29.96 -37.91,59.66 -56.62,89.08 -37.4,58.86 -74.1,116.6 -110.05,173.18 -35.96,56.59 -71.18,111.99 -105.58,166.14 -36.08,52.93 -71.31,104.64 -105.67,155.05 -68.62,100.95 -133.71,196.71 -194.87,286.7 -128.94,174.71 -239.17,329.09 -333.88,452.85 -192.93,244.7 -303.17,384.52 -303.17,384.52l-0.47 0.6c-6.29,7.97 -5.41,19.68 1.95,26.16 7.23,6.35 18.03,5.28 24.38,-2.3 0,0 114.43,-136.83 314.67,-376.27 97.76,-121.89 211.76,-274.07 345.17,-446.52 63.42,-88.91 130.91,-183.5 202.05,-283.23 35.4,-50.03 71.71,-101.35 108.88,-153.87 35.32,-53.92 71.45,-109.08 108.35,-165.41 36.91,-56.34 74.6,-113.86 112.99,-172.48 19.21,-29.3 38.59,-58.9 58.14,-88.75 18.68,-30.46 37.51,-61.18 56.52,-92.18 75.31,-124.43 154.78,-252.1 233.55,-385.22 76.42,-134.64 154.94,-272.95 235.18,-414.33 75.76,-144.04 153.16,-291.21 231.88,-440.88 74.41,-152.05 150.05,-306.62 226.63,-463.09 72.04,-158.76 146.57,-318.7 218.74,-481.32 34.94,-81.86 70.02,-164.03 105.21,-246.44 34.97,-82.51 71.33,-164.72 103.88,-248.78 33.42,-83.67 66.89,-167.53 100.41,-251.45 16.56,-42.05 33.93,-83.79 49.87,-126.12l47.51 -127.16c31.39,-84.88 62.78,-169.78 94.15,-254.59 31.03,-84.93 59.35,-170.78 89.08,-255.91 29,-85.4 59.56,-170.05 87.08,-255.49 27.54,-85.43 55,-170.61 82.35,-255.45 13.66,-42.44 27.28,-84.77 40.87,-127.02 12.82,-42.5 25.6,-84.92 38.35,-127.22 25.51,-84.59 50.88,-168.77 76.1,-252.42 24.79,-83.81 47.58,-167.64 71.22,-250.59 23.01,-83.12 47.58,-165.16 68.53,-247.48 42.84,-164.36 87.32,-325.37 124.39,-484.63 19.04,-79.51 37.86,-158.14 56.47,-235.83 17.52,-77.93 34.82,-154.94 51.9,-230.88 34.97,-151.73 63.77,-300.46 94.46,-443.66 27.49,-143.9 56.25,-282.46 79.76,-416.28 50.15,-267.04 88.17,-513.22 120.51,-731.51 31.03,-218.5 56.29,-409.18 73.87,-566.61 18.57,-157.31 29.47,-281.3 36.78,-365.85 7.27,-84.51 9.96,-129.84 9.96,-129.84l0 -0.2c0.62,-10.28 -6.73,-18.92 -16.4,-19.31 -9.44,-0.39 -17.64,7.31 -18.55,17.28z"/>
     </g>
     <g>
      <path class="fil3" d="M11669.24 20788.31c0,0 782.5,-9478.54 5478.37,-11912.67 83.33,-43.2 185.18,2.99 208.08,94.02 266.37,1059.1 1304.87,6776.8 -5686.45,11818.65z"/>
      <path class="fil2" d="M16634.3 10508.05c0,0 -13.52,41.12 -38.86,118.19 -25.23,77 -64.08,189.47 -113.85,332.56 -24.34,71.72 -53.65,150.31 -84.31,236.32 -31.24,85.79 -63.6,179.09 -101.21,277.69 -37.03,98.81 -76.44,203.95 -117.98,314.79 -41.63,110.8 -88.54,226.13 -135.74,347.11 -93.54,242.33 -202.29,501.9 -315.24,777.25 -55.83,137.95 -118.41,277.46 -179.5,421.27 -62.47,143.21 -123.25,290.86 -190.59,438.58 -66.75,147.97 -134.6,298.41 -203.29,450.71 -34.69,75.97 -68.13,153.09 -104.39,229.39 -36.16,76.32 -72.52,153.01 -109.02,230.03 -72.99,154.02 -146.55,309.25 -220.42,465.09 -75.03,155.28 -154.18,309.31 -232.02,463.95l-117.06 231.7c-39.31,77.02 -76.98,154.78 -118.36,230.45 -81.64,151.89 -162.96,303.17 -243.64,453.25 -158.8,301.54 -327.38,591.49 -487.27,873.77 -40.03,70.53 -79.73,140.48 -119.05,209.76 -19.45,34.76 -38.8,69.36 -58.07,103.77 -20.15,33.91 -40.19,67.64 -60.13,101.18 -79.74,134.21 -157.77,265.5 -233.72,393.31 -76.22,127.63 -149.67,252.19 -220.05,373.1 -73.9,118.74 -145.3,233.48 -213.84,343.62 -136.2,220.92 -261.06,423.43 -371.74,602.92 -114.9,176.79 -216.68,329.89 -297.62,457.98 -81.56,127.71 -145.64,228.07 -189.33,296.49 -43.2,68.8 -66.24,105.5 -66.24,105.5l-0.4 0.62c-6.28,10.02 -3.26,23.24 6.76,29.53 9.58,6.02 22.12,3.45 28.7,-5.53 0,0 25.52,-35.04 73.38,-100.75 47.36,-66.08 116.81,-163.01 205.22,-286.37 89.02,-123.01 193.62,-274.8 315.44,-447.74 118.85,-174.9 246.69,-376.36 387.83,-595.09 69.91,-109.78 142.73,-224.16 218.1,-342.53 72.15,-120.32 146.05,-245.15 221.31,-373.88 150.36,-257.56 314.07,-526.24 465.46,-814.33 77.59,-142.95 156.48,-288.27 236.34,-435.38 19.94,-36.77 39.94,-73.67 59.99,-110.67 19.85,-37.12 38.48,-75 57.85,-112.61 38.41,-75.4 77,-151.18 115.76,-227.24 77.66,-152.04 155.93,-305.28 234.51,-459.13 40.33,-76.37 76.95,-154.83 115.19,-232.54l113.85 -233.78c75.95,-155.86 151.91,-311.72 227.57,-466.97 73.15,-156.44 146.03,-312.26 218.33,-466.86 36.14,-77.3 72.15,-154.28 107.97,-230.9 35.9,-76.56 69.01,-153.95 103.34,-230.21 67.99,-152.83 135.16,-303.81 201.21,-452.3 66.66,-148.23 126.78,-296.36 188.57,-440.07 60.43,-144.28 122.35,-284.26 177.54,-422.66 111.67,-276.23 219.19,-536.63 311.59,-779.7 95.14,-242.01 178.11,-465.46 252.39,-663.26 37.72,-98.68 70.2,-192.09 101.53,-277.98 30.77,-86.09 60.17,-164.76 84.6,-236.59 49.96,-143.26 88.97,-255.93 114.37,-333.28 25.45,-77.2 39.03,-118.38 39.03,-118.38 3.7,-11.23 -2.4,-23.35 -13.64,-27.05 -11.24,-3.7 -23.35,2.4 -27.05,13.63l-0.01 0.02 -0.09 0.25z"/>
     </g>
    </g>
    <g>
     <g>
      <path class="fil4" d="M4369.36 7708.46c-0.44,2297.59 9.82,10222.55 167,13027.13 16.65,297.13 260.9,529.92 558.48,532.34 1471.82,11.95 5705.44,29.84 8108.44,-130.26 500.5,-33.35 888.94,-448.98 887.01,-950.59 -9.31,-2411.38 -65.81,-9192.92 -404.34,-12291.85 -40.56,-371.3 -339.88,-660.41 -712.34,-688.44 -1605.53,-120.81 -5868.98,-407.8 -7943.84,-221.81 -374.21,33.54 -660.34,347.77 -660.41,723.48z"/>
      <path class="fil5" d="M4984.47 8407.23c-34.05,1882.53 -133.49,8144.95 3.85,10456.39 20.07,337.84 293.3,604.69 631.55,616.15 1392.67,47.17 4964.04,138.86 6999.79,-74.66 366.57,-38.46 647.49,-342.58 658.26,-711.01 56.16,-1921.11 209.64,-7753.81 76.28,-10039.39 -21.28,-364.61 -311.28,-655.68 -675.75,-679.38 -1507.81,-98.07 -5379.75,-324.41 -7110.77,-187.19 -324.94,25.75 -577.31,293.17 -583.21,619.09z"/>
      <path class="fil6" d="M7996.37 7313.46c1.74,70.45 58.08,127.21 128.53,129.16 347.8,9.65 1327.57,37.04 1765.5,51.66 86.35,2.88 152.12,-76.29 133.68,-160.7l-3.15 -14.4c-12.59,-57.59 -61.65,-99.97 -120.47,-103.9 -296.26,-19.81 -1190.06,-72.97 -1780.52,-37.34 -70.93,4.29 -125.32,64.48 -123.57,135.52z"/>
     </g>
     <g>
      <g>
       <path class="fil7" d="M4984.47 8407.23c-34.05,1882.53 -133.49,8144.95 3.85,10456.39 20.07,337.84 293.3,604.69 631.55,616.15 1392.67,47.17 4964.04,138.86 6999.79,-74.66 366.57,-38.46 647.49,-342.58 658.26,-711.01 56.16,-1921.11 209.64,-7753.81 76.28,-10039.39 -21.28,-364.61 -311.28,-655.68 -675.75,-679.38 -1507.81,-98.07 -5379.75,-324.41 -7110.77,-187.19 -324.94,25.75 -577.31,293.17 -583.21,619.09z"/>
      </g>
      <g>
       <path class="fil8" d="M4774.55 19372.92c10.65,276.77 228.18,494.43 490.96,491.26l2049.18 -24.72c270.9,-3.27 486.92,-239.47 480.08,-524.93l-72.51 -3027.38c-6.03,-251.74 -204.54,-450.67 -443.37,-444.31l-2637.48 70.19 133.14 3459.89z"/>
       <path class="fil8" d="M4803.49 8421.96c-267.48,12.28 -475.1,250.34 -464.25,532.3l59.78 1553.55c1105.57,-34.84 3517.35,-153.15 4701.37,-212.56 170.28,-8.55 303.89,-156.82 303.36,-336.49l-3.56 -1214.67c-0.86,-290.92 -231.2,-522.64 -506.95,-509.97l-4089.75 187.84z"/>
       <path class="fil8" d="M8753.45 19708.32l-87.46 -3650.95c-4.03,-168.23 122.09,-308.04 281.69,-312.29l1932.61 -51.43c69.23,-1.84 136.78,22.58 190.38,68.8l2196.53 1894.77c67.87,58.54 106.86,146.4 105.98,238.83l-18.49 1955.04c-1.62,171.23 -136.75,307.42 -299.11,301.47l-4023.2 -147.42c-152.83,-5.59 -275.08,-135.68 -278.93,-296.82z"/>
       <path class="fil8" d="M13843.16 16741.48l-2372.91 -1793.54c-39.19,-29.63 -86.81,-44.26 -134.97,-41.48l-1816.6 104.68c-178.67,10.3 -288.17,-203.14 -182.18,-355.09l1274.08 -1826.48c27.82,-39.88 42.27,-88.37 41.08,-137.85l-43.79 -1828.41c-2.95,-123.23 89.43,-225.66 206.35,-228.77l2548.57 -67.82c114.09,-3.03 209.95,89.77 216.74,209.86l336.73 5954.1 -73.1 10.8z"/>
       <g>
        <path class="fil9" d="M13211.54 9900.16c-632.96,0.95 -1948.21,-10.96 -2536.76,-16.66 -169.31,-1.64 -311.13,-135.38 -331.52,-312.54l-200.22 -1739.13c-25.94,-225.3 152.41,-418.15 366.76,-396.56l2663 268.23c166.63,16.79 296.35,159.89 304.66,336.11l70.18 1487.54c9.56,202.74 -143.51,372.72 -336.1,373.01z"/>
        <path class="fil10" d="M13227.79 10091.87c81.76,-0.12 157.8,-34.59 214.11,-97.05 56.35,-62.52 85.11,-144.42 81.08,-230.58l-70.17 -1487.56c-7.25,-153.66 -122.3,-280.57 -267.61,-295.21l-2662.99 -268.23c-89.74,-9.03 -177.29,24.79 -240.22,92.83 -62.93,68.04 -92.81,161.15 -81.93,255.49l200.22 1739.13c17.85,155.07 143.03,273.08 291.18,274.53 549.93,5.31 1897.94,17.6 2536.33,16.65z"/>
       </g>
       <path class="fil8" d="M9064.49 10822.8l-4267.87 448.93c-181.93,19.13 -318.19,184.4 -310.77,376.95l126.56 3289.02c7.78,202.18 170.47,358.87 362.22,348.81 796.52,-41.83 1886.92,-99.49 2558.49,-135.03 108.07,-5.72 205.39,-65.83 268.06,-158.79 0.31,-0.46 0.62,-0.92 0.93,-1.38l1490.01 -2194.41c101.48,-149.46 155.79,-328.77 155.26,-512.56l-3.24 -1100.46c-0.63,-214.87 -176.79,-382.42 -379.65,-361.08zm-1230.83 1958.5l-789.76 1309.4c-50.33,83.44 -136.78,134.99 -230.57,137.49l-1342.29 35.72c-155.49,4.14 -284.73,-125.37 -288.65,-289.26l-27.9 -1164.67c-3.78,-157.68 110.11,-290.95 259.29,-303.41l2159.95 -180.46c231.61,-19.34 384.58,248.53 259.93,455.19z"/>
      </g>
     </g>
    </g>
    <g>
     <g>
      <path class="fil4" d="M8535.1 15449.21l-4183.43 3447.36c-175.46,144.58 -190.56,407.98 -32.78,571.68l25.9 26.87c139.6,144.83 370.42,148.33 514.34,7.8l3899.26 -3807.29 -223.29 -246.42z"/>
      <path class="fil11" d="M12741.1 12777.3c-455.07,-1285.58 -1885.3,-1952.07 -3194.5,-1488.63 -1309.2,463.43 -2001.6,1881.29 -1546.53,3166.88 455.08,1285.58 1885.3,1952.06 3194.5,1488.63 1309.2,-463.44 2001.61,-1881.3 1546.53,-3166.88z"/>
      <path class="fil4" d="M9453.45 11026.53c-1456.78,515.6 -2227.29,2093.24 -1720.99,3523.74 506.31,1430.5 2097.71,2172.17 3554.49,1656.55 1456.78,-515.61 2227.29,-2093.23 1720.98,-3523.74 -506.3,-1430.49 -2097.7,-2172.16 -3554.48,-1656.55zm1698.82 4799.81c-1242.77,439.86 -2600.4,-192.84 -3032.34,-1413.22 -431.93,-1220.36 225.4,-2566.24 1468.18,-3006.11 1242.79,-439.87 2600.42,192.85 3032.35,1413.21 431.94,1220.38 -225.39,2566.25 -1468.19,3006.12z"/>
      <path class="fil3" d="M8040.33 14792.32c-3.63,0 -7.11,-1.99 -8.85,-5.44 -29.47,-58.41 -57,-118.74 -81.84,-179.28 -2.08,-5.05 0.34,-10.84 5.39,-12.91 5.03,-2.09 10.84,0.33 12.91,5.4 24.65,60.06 51.98,119.91 81.21,177.88 2.47,4.87 0.5,10.83 -4.38,13.29 -1.43,0.72 -2.95,1.06 -4.44,1.06zm-238.28 -730.66c-4.76,0 -8.95,-3.44 -9.74,-8.29 -28.98,-176.51 -39.08,-356.68 -29.98,-535.5 25.75,-506.34 201,-992.3 506.81,-1405.31 313.08,-422.85 743.27,-740.05 1244.03,-917.28 471,-166.7 975.13,-197.91 1457.98,-90.26 5.33,1.19 8.7,6.47 7.5,11.81 -1.18,5.33 -6.48,8.75 -11.81,7.5 -479.19,-106.83 -979.58,-75.84 -1447.06,89.6 -497.04,175.91 -924.01,490.74 -1234.75,910.41 -303.46,409.88 -477.37,892.1 -502.93,1394.54 -9.02,177.42 0.98,356.16 29.73,531.28 0.89,5.39 -2.77,10.48 -8.16,11.36 -0.54,0.1 -1.08,0.14 -1.62,0.14z"/>
      <path class="fil12" d="M4658.5 19486.53c-162.13,0.01 -267.18,-56.71 -312.33,-168.61 -45.92,-113.8 -11.19,-246.87 86.42,-331.1l497 -428.91c4.11,-3.58 10.39,-3.13 13.96,1.02 3.57,4.14 3.11,10.39 -1.03,13.96l-497 428.91c-91.19,78.7 -123.73,202.77 -80.99,308.72 41.83,103.67 140.74,156.2 294.02,156.22 1.66,0 3.15,-0.01 5.03,-0.02 5.43,0 9.85,4.38 9.9,9.83 0.03,5.45 -4.36,9.92 -9.83,9.96 -1.72,0.01 -3.45,0.02 -5.15,0.02z"/>
      <path class="fil12" d="M5089.2 18443.13c-2.77,0 -5.54,-1.16 -7.48,-3.43 -3.58,-4.14 -3.11,-10.38 1.02,-13.95l64.41 -55.6c4.11,-3.57 10.38,-3.13 13.95,1.03 3.58,4.14 3.11,10.38 -1.02,13.95l-64.41 55.6c-1.87,1.61 -4.18,2.4 -6.47,2.4z"/>
     </g>
     <g>
      <path class="fil13" d="M6071.98 18400.15l-496.6 124.15 124.15 931.12c0,0 -186.22,186.22 -248.3,434.52 -62.07,248.3 -119.31,1290.86 -119.31,1290.86l-117.82 71.24 -14.34 59.47 342.82 460.95 -56.85 -366.88c-9.03,-58.23 6.61,-176.34 1.68,-178.81 186.23,-496.6 584.57,-1895.5 584.57,-1895.5l0 -931.12z"/>
      <path class="fil14" d="M6217.08 21317.89c-5.37,-0.09 -10.65,0.34 -16.06,0.01 24,-299.37 133.67,-1616.95 243.41,-2110.77 124.15,-558.68 -186.22,-1676.02 -186.22,-1676.02l-558.68 558.68 310.38 1055.27c-212.7,319.04 34.69,2187.44 29.36,2186.63l0.34 4.15 -80.98 111.36 9.85 60.37 494.73 291.94 -194.66 -316.11c-30.91,-50.2 -47.98,-107.08 -51.47,-165.51z"/>
      <path class="fil15" d="M5588.7 15053.36c0,0 -1087.75,1225.95 0,1854.52l110.83 -80.25c0,0 -540.03,-517.12 0,-1150.15l-110.83 -624.12z"/>
      <path class="fil16" d="M6495.79 21845.3l-157.88 0c-29.56,0 -57.43,-13.57 -75.45,-36.99 -49.22,-63.96 -151.19,-188.73 -199.95,-191.98 -65.64,-4.39 -57.24,228.97 -57.24,228.97l-36.79 0 -46.61 -289.97c-11.72,-72.96 24.56,-145.24 90.07,-179.42l0 0c0,0 15.01,110.96 96.37,160.04 81.35,49.09 331.08,224.86 331.08,224.86 0,0 30.59,-4.35 64.17,1.71 49.81,9.01 42.85,82.78 -7.77,82.78z"/>
      <path class="fil17" d="M5554.85 21827.3l-145.52 -61.22c-27.24,-11.46 -47.67,-34.77 -55.2,-63.35 -20.57,-78.04 -66.18,-232.59 -109.86,-254.5 -58.8,-29.5 -141.56,188.86 -141.56,188.86l-33.91 -14.26 69.48 -285.36c17.48,-71.8 78.96,-124.35 152.6,-130.45l0 0c0,0 -29.2,108.1 26.75,184.89 55.96,76.79 217.99,335.66 217.99,335.66 0,0 29.88,7.83 58.48,26.45 42.43,27.61 7.41,92.91 -39.25,73.28z"/>
      <path class="fil18" d="M6400.48 16586.46c0,0 -18.26,111.89 8.49,419.49 26.75,307.61 154.61,1029.8 128.57,1720.78 0,0 -363.47,84.7 -994.96,44.58 0,0 -266.51,-1078.83 -201.58,-1488.96 64.92,-410.14 417.1,-704.36 417.1,-704.36l642.38 8.47z"/>
      <polygon class="fil19" points="6131.9,14530.99 6176.33,15053.36 5754.26,15053.36 5859.21,14255.99 "/>
      <path class="fil20" d="M5629.23 14981.13c145.67,-8.03 471.34,-22.9 702.06,-10.33 121.47,6.62 223.23,93.77 248.08,212.86l56.27 269.68c20.97,100.44 17.83,204.42 -9.14,303.42l-226.02 829.7c0,0 -201.04,120.81 -642.38,-8.47 0,0 -387.59,-924.26 -228.93,-1515.51 12.32,-45.92 52.59,-78.73 100.06,-81.35z"/>
      <path class="fil21" d="M6568.34 15135.29c62.17,163.77 118.32,335.5 178.65,496.33 30.67,80.49 61.78,159.4 95.07,231.87 16.83,36.09 35.33,69.25 52.3,99.32 17,29.77 36.13,54.53 46.09,65.93 1.96,1.69 -4.59,2.98 -6.78,3.08 -1.32,0.17 42.03,7.12 55.33,9.34l51.96 -0.31c74.46,-3.83 158.81,-16.96 243.41,-33.4 170.65,-31.81 348.07,-76.49 530.25,-110.29l1.4 -0.25c34.85,-6.47 68.36,16.54 74.83,51.4 4.26,22.99 -4.39,45.45 -20.7,59.9 -73.45,64.66 -151.32,117.77 -232.09,169.48 -40.65,24.85 -82.02,49.22 -124.06,72.62 -42.87,21.85 -85.86,43.88 -130.52,64.25 -89.91,39.18 -182.79,75.25 -289.77,98.44 -28.12,4.7 -55.87,9.64 -84.8,13.51 -32.45,1.13 -61.92,4.01 -97.36,1.95 -18.81,-1.86 -37.73,-4.17 -56.59,-6.91 -10.06,-1.77 -17.45,-1.97 -29.63,-5.33 -12.93,-3.87 -25.82,-8.22 -38.54,-12.99 -26.57,-9.54 -43.74,-21.08 -65.33,-33.09 -17.92,-11.81 -34.26,-24.16 -50.1,-36.83 -58.5,-49.83 -94.82,-99.28 -126.83,-146.75 -31.93,-47.43 -57.23,-94.96 -79.94,-141.54 -45.56,-93.03 -81.15,-185.21 -110.01,-278.03 -58.5,-186.01 -98.14,-368.82 -114.87,-563 -8.01,-93 60.89,-174.9 153.91,-182.91 76.98,-6.64 146.34,39.42 172.5,108.24l2.22 5.97z"/>
      <path class="fil22" d="M7757.27 15980.62l75.31 -178.79 396.41 -98.77c0,0 31.72,68.71 -134.78,98.77 0,0 59.47,65.74 27.75,143.04 -31.7,77.3 -368.66,154.75 -364.69,35.75z"/>
      <path class="fil23" d="M6310.61 13927.71c15.06,8.88 133.81,427.69 34.3,603.28 -99.5,175.59 -403.36,-21.09 -485.71,-275 -82.34,-253.9 49.96,-565.04 451.41,-328.28z"/>
      <path class="fil4" d="M5523.07 14255.99c-68.16,333.93 -293.98,242.54 -453.93,391.11 -259.23,240.78 -630.07,-7.43 -990.59,220.75 -260.27,164.72 -385.67,586.16 -260.77,926.41 172.99,471.27 764.16,665.07 1070.53,521.54 292.79,-137.18 251.1,-548.04 645.06,-706.82 167.25,-67.41 249.81,-23.61 349.98,-123.52 175.34,-174.9 128.02,-514.31 109.8,-645.06 -39.56,-283.72 -134.68,-335.09 -89.21,-459.78 88.43,-242.52 500.89,-192.48 535.26,-363.7 31.3,-155.91 -267.66,-451.45 -548.99,-404.88 -435.3,72.05 -336.78,495.18 -367.14,643.95z"/>
      <path class="fil3" d="M3947.77 15714.45c-5.16,0 -9.81,-3.49 -11.08,-8.72 -55.74,-231.36 -30.45,-421.11 75.18,-563.98 175.3,-237.09 515.99,-260.56 519.41,-260.76 5.37,-0.89 11.67,4.39 12.06,10.69 0.38,6.28 -4.38,11.68 -10.68,12.06 -3.31,0.21 -333.7,23.13 -502.57,251.71 -101.36,137.17 -125.32,320.52 -71.24,544.94 1.47,6.12 -2.29,12.29 -8.41,13.76 -0.89,0.19 -1.8,0.3 -2.67,0.3z"/>
      <path class="fil3" d="M5063.61 15926.25c-0.47,0 -0.96,-0.07 -1.45,-0.18 -3.03,-0.8 -4.86,-3.91 -4.07,-6.96 54.29,-208.28 149.54,-352.93 283.09,-429.97 97.15,-56.04 188.14,-61.25 268.39,-65.85 77.4,-4.46 144.23,-8.3 198.03,-56.14 111.2,-98.88 104.76,-336.63 -19.14,-706.65 -1,-2.99 0.62,-6.21 3.6,-7.21 3.01,-1 6.21,0.62 7.22,3.6 125.48,374.75 130.82,616.57 15.89,718.77 -56.76,50.48 -125.42,54.44 -204.95,59.01 -78.98,4.54 -168.52,9.68 -263.34,64.37 -130.81,75.43 -224.26,217.74 -277.75,422.97 -0.67,2.55 -2.99,4.24 -5.52,4.24z"/>
      <path class="fil3" d="M5684.31 14173.12c-0.6,0 -1.2,-0.09 -1.82,-0.29 -2.99,-1 -4.59,-4.25 -3.58,-7.23 43.15,-128.38 167.48,-109.31 299.22,-89.05 83.37,12.82 169.57,26.02 242.69,4.38 54.55,-16.18 86.96,-41.24 96.33,-74.51 16,-56.65 -40.04,-119.81 -40.6,-120.47 -2.11,-2.33 -1.91,-5.94 0.42,-8.03 2.31,-2.11 5.94,-1.91 8.04,0.42 2.49,2.76 60.78,68.4 43.13,131.14 -10.5,37.28 -45.52,65 -104.08,82.35 -75.6,22.39 -163.05,8.98 -247.67,-4.02 -132.24,-20.3 -246.57,-37.91 -286.67,81.43 -0.8,2.39 -3.03,3.88 -5.41,3.88z"/>
     </g>
    </g>
    <g>
     <circle class="fil24" cx="9861.61" cy="13081.87" r="291.84"/>
     <g>
      <g>
       <g>
        <circle class="fil25" cx="9831.24" cy="10412.13" r="1004.44"/>
        <path class="fil26" d="M10833.83 10314.32l-1002.6 0 -1004.44 0c0,0 -79.96,579.49 816.48,2106.51 39.12,66.63 110.58,117.43 187.84,117.47 77.25,0.04 148.85,-55.6 187.96,-122.22 896.35,-1527.16 814.76,-2101.76 814.76,-2101.76z"/>
       </g>
       <g>
        <path class="fil12" d="M9859.73 12581.88l0 9.95 -28.63 0c-87.44,0 -169.04,-50.26 -212.97,-125.09 -524,-892.59 -716.01,-1458.05 -784.79,-1773.86 -19.61,-72.65 -30.88,-144.4 -34.44,-217.42 -6.07,-74.69 -1.42,-106.42 -0.87,-109.75l2.64 -16.2c40.47,-539.55 489.52,-959.52 1030.57,-959.52 548.15,0 1001.25,425.82 1031.89,969.66 0.76,7.12 2.24,25.16 1.66,55.35l0.04 3.7c0,98.66 -13.94,196.37 -41.43,290.44 -71.15,315.54 -249.86,874.35 -764.94,1751.89 -44.2,75.33 -144.5,120.85 -198.73,120.85zm-1005.52 -2195.25c-0.24,0 0.22,44.99 2.87,77.38l0.06 4.1c3.34,69.17 14.03,137.88 32.7,206.82l0.34 2.21c67.75,311.52 257.77,869.37 778.25,1755.98 33.51,57.08 110.11,92.75 176.95,92.78l14.36 29.35 0 -29.15c18.07,0 130.66,-35.76 164.44,-93.32 511.77,-871.93 703.18,-1426.05 775.48,-1737.36l0 -1.8c18.08,-89.02 28.73,-181.52 28.73,-274.93l-10.65 -4.1 0 -0.33c0,-29.08 -6.55,-44.8 -7.03,-48.92l-2.96 -1.69c-28.51,-513.34 -457.62,-915.45 -975.1,-915.45 -516.5,0 -944.86,399.36 -974.3,917.19l-2.27 21.23 -1.87 0.01z"/>
       </g>
       <path class="fil27" d="M10414.46 10408.89c0,-320.31 -259.67,-579.97 -579.98,-579.97 -320.32,0 -579.98,259.66 -579.98,579.97 0,320.32 259.66,579.98 579.98,579.98 320.31,0 579.98,-259.66 579.98,-579.98z"/>
       <g>
        <path class="fil28" d="M9834.48 11021.28c-337.67,0 -612.39,-274.71 -612.39,-612.39 0,-337.66 274.71,-612.38 612.39,-612.38 337.67,0 612.38,274.71 612.38,612.38 -0.01,337.67 -274.72,612.39 -612.38,612.39zm0 -1159.96c-301.94,0 -547.58,245.64 -547.58,547.58 0,301.93 245.64,547.58 547.58,547.58 301.93,0 547.58,-245.65 547.58,-547.58 -0.01,-301.94 -245.65,-547.58 -547.58,-547.58z"/>
       </g>
      </g>
      <g>
       <path class="fil12" d="M9284.31 9805.04c-2.74,0 -5.46,-1.15 -7.38,-3.38 -3.5,-4.08 -3.03,-10.21 1.04,-13.71 162.93,-139.93 371.09,-216.99 586.15,-216.99 5.36,0 9.72,4.35 9.72,9.72 0,5.37 -4.35,9.72 -9.72,9.72 -210.42,0 -414.08,75.39 -573.49,212.29 -1.83,1.58 -4.08,2.35 -6.32,2.35z"/>
      </g>
      <g>
       <path class="fil12" d="M8973.74 10480.79c-5.38,0 -9.72,-4.35 -9.72,-9.72 0,-167.96 46.55,-331.8 134.65,-473.81 2.83,-4.57 8.82,-5.97 13.38,-3.14 4.57,2.84 5.97,8.83 3.14,13.39 -86.18,138.93 -131.73,299.23 -131.73,463.56 -0.01,5.37 -4.36,9.72 -9.72,9.72z"/>
      </g>
     </g>
    </g>
    <g>
     <g>
      <path class="fil29" d="M13365.36 13982.72c-6.98,22.19 73.85,55.99 121.44,-34.77 1.67,-43.5 28.12,-229.85 2.13,-265.28 -138.43,-188.74 -406.82,-425.32 -406.82,-425.32 -45.36,44.76 -7.99,88.72 -7.99,88.72l130.19 135.63c-27.24,49.22 -60.45,90.76 -76.01,150.28 -11.8,45.08 -4.58,93.26 18.19,134.28 22.85,41.17 54.04,94.69 83.52,136.59 55.79,79.28 135.35,79.87 135.35,79.87z"/>
      <path class="fil30" d="M13261.27 13569.71l118.65 100.58 37.25 100.14 -105.79 117.36c0,0 -35.56,-198.7 -62,-241.7 -26.44,-43.01 -12.73,-63.8 11.89,-76.38z"/>
     </g>
     <g>
      <path class="fil31" d="M15695.97 21390c0,0 29.97,169.69 44.67,337.66 5.74,65.65 -44.87,122.65 -110.72,125.4 -223.69,9.31 -702.19,27.43 -873.88,19.77 -25.81,-1.16 -42.69,-27.58 -33.14,-51.58 8.01,-20.12 23.45,-36.38 43.12,-45.43l790.38 -363.25 139.57 -22.57z"/>
      <path class="fil32" d="M15720.52 21290.3l-24.08 202.97c0,0 -138.46,64.45 -233.01,-8.12l57.34 -226.2 199.75 31.35z"/>
      <path class="fil33" d="M15702.42 17474.33c10.4,53.01 55.84,2645.09 -221.24,3806.69 -4.52,18.96 5.09,38.49 23.13,45.86 42.49,17.36 125.81,42.5 225.65,45.86 30.92,1.04 58.64,-19.05 67.37,-48.73 79.2,-269.51 458.71,-1619.84 508.23,-2909.75 55.32,-1441.36 0,-49.08 0,-49.08l-32.45 -890.96 -570.69 0.11z"/>
      <path class="fil34" d="M16605.17 21478.52c0,0 47.71,85.67 93.91,313.31 8.33,41.11 -20.39,80.45 -62.13,84.55 -73.87,7.26 -187.58,16.6 -278.66,15.98 -41.99,-0.28 -74.76,-36.85 -69.7,-78.53 10.09,-83.09 41.52,-219.41 138.62,-325.66l177.96 -9.65z"/>
      <path class="fil35" d="M16647.07 21217.46l-56.27 306.94c0,0 -55.64,41.39 -165.7,11.39l26.85 -330.26 195.12 11.93z"/>
      <path class="fil36" d="M16799.09 17553.87c226.61,1367.61 -49.15,3380.16 -142.16,3774.06 -5.69,24.11 -25.16,42.59 -49.6,46.64 -41.52,6.88 -109.86,12.5 -177.25,-7.07 -23.21,-6.74 -39.52,-27.68 -40.47,-51.84 -12.48,-318.46 9.98,-2273.49 -201.17,-3046.12 -10.7,-39.16 -34.61,-73.31 -67.69,-96.83l-409.83 -291.35 -31.42 -470.94 1119.59 143.45z"/>
      <g>
       <path class="fil37" d="M15355.13 14962.52c679.11,-11.21 1428.42,178.31 1428.42,178.31 202.43,1181.16 35.4,2543.54 35.4,2543.54 -525.75,137.88 -1118.82,-84.29 -1118.82,-84.29 -87.39,-493.7 -495.09,-1883.12 -495.09,-1883.12 -331.81,-41.18 -605.15,-136.91 -830.24,-263.48 171.7,-199.03 252.64,-452.27 287.8,-601.98 240.1,74.63 483.06,114.48 692.53,111.02z"/>
       <path class="fil38" d="M13349.17 13962.24c66.71,-80.58 151.14,-42.46 151.14,-42.46 99.94,422.14 623.94,764.42 1162.29,931.73 -35.16,149.7 -116.11,402.95 -287.8,601.98 -893.43,-502.34 -1025.63,-1491.25 -1025.63,-1491.25z"/>
      </g>
      <path class="fil39" d="M16523.07 15798.41l260.48 -657.58c0,0 634.32,431 738.64,977.45 -119.85,8.83 -337.95,40 -551.43,147.79 -46.91,-258.02 -447.69,-467.66 -447.69,-467.66z"/>
      <path class="fil40" d="M16043 14411.19l216.09 624.9c3.57,10.35 -0.68,21.81 -10.27,27.11 -58.89,32.57 -271.11,126.7 -526.84,-35.44 -26.64,-16.89 -44.78,-44.44 -48.82,-75.73l-69.97 -540.84 439.81 0 0 0z"/>
      <g>
       <path class="fil41" d="M15572.85 13832.52c0,0 -237.29,446.66 -206.87,627.09 30.41,180.41 324.48,167.47 581.28,20.93l179.44 -482.29 -553.85 -165.73z"/>
       <path class="fil42" d="M15935.91 14243.69c-10.44,-4.62 -14.29,-17.39 -8.04,-26.94 19.02,-29.04 54.65,-88.29 66.02,-140.16 0,0 42.65,-27.32 -108.57,-63.51 -151.22,-36.21 -376.73,-92.38 -424.14,-221.1 -46.21,-125.5 75.21,-441.1 268.94,-189.64 7.37,9.57 21.81,9.78 29.17,0.2 31.75,-41.33 115.25,-127.12 231.17,-75.12 108.47,48.68 120.7,128.17 119.2,168.23 -0.43,11.78 10.11,20.95 21.69,18.74 54.84,-10.46 186.46,-19.45 247.89,115.56 50.6,111.21 17.71,174.17 -12.24,204.96 -9.71,9.97 -5.46,26.4 7.85,30.47 36.04,11.03 82.59,41.59 77.93,126.04 -6.44,116.75 -136.97,106.46 -174.14,101.14 -6.09,-0.87 -12.22,1.22 -16.34,5.78 -31.87,35.27 -175.44,185 -330.83,203.05 -13.45,1.56 -23.88,-11.73 -19.47,-24.53l67.25 -195.48c3.12,-9.08 -1.23,-19.04 -10,-22.93l-33.34 -14.76z"/>
       <path class="fil43" d="M15908.88 14271.44c0,0 168.94,-115.92 181.28,-18.3 12.34,97.6 -152.13,141.39 -233.6,104.99l52.32 -86.69z"/>
      </g>
      <path class="fil44" d="M16970.76 16266.07c0,0 221.71,1000.21 20.88,1562.52 246.2,114.16 200.73,92.64 200.73,92.64 0,0 487.07,-1423.13 329.82,-1802.95 -310.02,-32.89 -463.81,50.42 -551.43,147.79z"/>
      <path class="fil45" d="M16991.64 17828.6c0,0 -126.88,164.21 -116.72,229.61 10.14,65.41 12.57,92.05 12.57,92.05 0,0 63.75,-43.6 59.73,-99.32 -8.87,176.83 -68.05,377.89 -14.23,368.2 53.82,-9.69 332.39,-266.46 269.4,-540.19 -142.91,-99.31 -182.98,-88.52 -210.75,-50.35z"/>
     </g>
    </g>
    <g>
     <g>
      <g>
       <path class="fil46" d="M6809.89 9364.34c26.87,-2.38 51.76,15.89 57.03,42.95 11.55,59.19 20.69,119.77 27.18,180.03 3.16,29.32 -18.04,55.66 -47.36,58.81 -0.35,0.03 -0.69,0.06 -1.04,0.09 -28.89,2.56 -54.64,-18.49 -57.76,-47.46 -6.16,-57.26 -14.86,-114.79 -25.81,-171.02 -5.65,-28.93 13.23,-56.98 42.18,-62.62 1.86,-0.37 3.73,-0.62 5.58,-0.78zm37.55 463.58c2.07,-0.18 4.19,-0.25 6.34,-0.18 29.47,0.86 52.66,25.46 51.79,54.93 -1.79,60.54 -6.19,121.6 -13.08,181.48 -3.36,29.29 -29.72,50.23 -59.13,46.95 -29.29,-3.37 -50.3,-29.86 -46.94,-59.13 6.55,-56.92 10.73,-114.92 12.42,-172.45 0.8,-27.34 22.01,-49.25 48.6,-51.6zm-65.47 460.32c5.92,-0.53 12.04,-0.06 18.12,1.51 28.53,7.43 45.67,36.56 38.26,65.1 -15.18,58.5 -33.1,117.07 -53.27,174.07 -9.85,27.8 -40.36,42.33 -68.14,32.54 -27.79,-9.84 -42.36,-40.35 -32.52,-68.14 19.15,-54.14 36.16,-109.74 50.58,-165.3 5.83,-22.45 25.12,-37.85 46.97,-39.78zm-166.78 434.21c9.78,-0.86 19.92,0.96 29.28,5.83 26.16,13.6 36.34,45.84 22.74,71.99 -27.92,53.66 -58.48,106.75 -90.84,157.81 -15.79,24.86 -48.76,32.26 -73.67,16.5 -24.9,-15.78 -32.29,-48.77 -16.5,-73.67 30.73,-48.49 59.77,-98.92 86.27,-149.91 8.75,-16.79 25.16,-27 42.72,-28.55zm-259.42 386.11c13.72,-1.22 27.9,2.85 39.23,12.46 22.49,19.08 25.26,52.77 6.19,75.24 -39.02,46.02 -80.56,91.01 -123.47,133.71 -20.88,20.81 -54.69,20.74 -75.5,-0.17 -20.79,-20.9 -20.71,-54.7 0.18,-75.51 40.79,-40.58 80.27,-83.35 117.35,-127.08 9.47,-11.15 22.52,-17.45 36.02,-18.65zm-338.35 319.09c17.78,-1.57 35.93,5.78 47.43,21.1 17.71,23.57 12.97,57.03 -10.59,74.75 -48.3,36.3 -98.78,71 -150.01,103.08 -25,15.66 -57.93,8.08 -73.58,-16.92 -15.65,-24.97 -8.07,-57.92 16.91,-73.57 48.68,-30.5 96.63,-63.44 142.52,-97.94 8.26,-6.22 17.73,-9.66 27.32,-10.5zm-1937.49 298.96c7.36,-0.65 14.97,0.23 22.39,2.84 54.11,19.04 109.78,35.97 165.45,50.3 28.55,7.36 45.73,36.47 38.38,65 -7.35,28.56 -36.45,45.75 -65.01,38.39 -58.64,-15.1 -117.28,-32.92 -174.26,-52.96 -27.81,-9.79 -42.43,-40.28 -32.64,-68.09 7.18,-20.39 25.48,-33.69 45.69,-35.48zm1537.1 -62.95c22.06,-1.95 43.91,10.06 53.44,31.41 12.04,26.92 -0.04,58.5 -26.95,70.53 -55.17,24.66 -112.09,47.22 -169.17,67.05 -27.89,9.54 -58.28,-5.05 -67.96,-32.91 -9.67,-27.85 5.07,-58.28 32.92,-67.96 54.21,-18.82 108.26,-40.25 160.65,-63.66 5.57,-2.47 11.33,-3.95 17.07,-4.46zm-1083.78 166.85c3.51,-0.31 7.1,-0.3 10.74,0.12 57.03,6.45 115.1,10.51 172.58,12.1 29.48,0.83 52.71,25.38 51.9,54.84 -0.83,29.47 -25.35,52.85 -54.85,51.89 -60.48,-1.68 -121.58,-5.95 -181.59,-12.72 -29.31,-3.31 -50.38,-29.75 -47.07,-59.04 2.89,-25.65 23.53,-45 48.29,-47.19zm640.71 -26.19c26.84,-2.37 51.7,15.84 57.03,42.86 5.69,28.93 -13.14,57 -42.06,62.72 -59.23,11.67 -119.77,20.94 -179.92,27.51 -0.37,0.06 -0.75,0.09 -1.13,0.13 -28.85,2.55 -54.58,-18.43 -57.75,-47.36 -3.21,-29.32 17.94,-55.68 47.26,-58.89 57.13,-6.26 114.62,-15.08 170.9,-26.17 1.89,-0.36 3.79,-0.63 5.67,-0.8z"/>
       <path class="fil46" d="M3739.01 11570.71c10.47,-0.92 21.33,1.21 31.15,6.83 23.89,13.67 48.47,27.06 73.05,39.83 26.17,13.58 36.38,45.82 22.79,71.97 -13.57,26.18 -45.82,36.42 -71.98,22.79 -25.86,-13.42 -51.7,-27.5 -76.85,-41.88 -25.59,-14.63 -34.49,-47.26 -19.85,-72.84 9.01,-15.79 24.86,-25.21 41.69,-26.7z"/>
      </g>
      <g>
       <path class="fil46" d="M2753.74 10275.15c25.66,-2.27 49.9,14.35 56.41,40.13 6.73,26.68 14.13,53.68 22,80.22 8.39,28.28 -7.74,57.99 -36,66.37 -28.39,8.42 -57.99,-7.74 -66.36,-36 -8.29,-27.95 -16.08,-56.38 -23.18,-84.48 -7.2,-28.59 10.13,-57.61 38.71,-64.83 2.81,-0.7 5.63,-1.16 8.42,-1.41z"/>
       <path class="fil46" d="M4584.2 7694.06c24.47,-2.16 49.07,-3.91 73.79,-5.26 29.44,-1.6 54.61,20.96 56.22,50.4 1.61,29.43 -21.08,54.72 -50.39,56.23 -57.05,3.12 -113.85,8.54 -169.46,16.22 -29.24,3.99 -56.15,-16.37 -60.19,-45.57 -4.03,-29.23 16.38,-56.18 45.59,-60.21 34.39,-4.75 69.54,-8.72 104.44,-11.81zm355.63 -1.37c2.97,-0.26 6.01,-0.28 9.09,-0.03 59.37,4.82 119.2,12.22 177.81,21.98 29.08,4.84 48.73,32.35 43.89,61.42 -4.84,29.09 -32.4,48.82 -61.43,43.89 -55.67,-9.27 -112.51,-16.28 -168.92,-20.88 -29.39,-2.38 -51.27,-28.15 -48.89,-57.52 2.14,-26.32 23.01,-46.61 48.45,-48.86zm-735.04 70.84c25.07,-2.22 48.97,13.6 56.03,38.71 7.99,28.39 -8.55,57.87 -36.93,65.87 -54.3,15.27 -108.67,33.08 -161.64,52.96 -27.62,10.32 -58.38,-3.63 -68.74,-31.23 -10.35,-27.62 3.63,-58.39 31.24,-68.75 55.77,-20.93 113.05,-39.69 170.22,-55.78 3.27,-0.91 6.56,-1.5 9.82,-1.78zm1184.47 16.26c6.75,-0.6 13.72,0.11 20.59,2.24 56.81,17.74 113.54,38.11 168.62,60.56 27.3,11.13 40.4,42.28 29.27,69.58 -11.13,27.32 -42.26,40.44 -69.58,29.29 -52.3,-21.32 -106.17,-40.67 -160.13,-57.5 -28.14,-8.77 -43.84,-38.73 -35.05,-66.86 6.64,-21.28 25.37,-35.46 46.28,-37.31zm-1608.35 155.63c20.56,-1.82 41.22,8.45 51.67,27.77 14.05,25.93 4.4,58.34 -21.53,72.38 -49.58,26.82 -98.71,56.17 -146.03,87.19 -24.66,16.17 -57.76,9.3 -73.92,-15.38 -16.16,-24.65 -9.27,-57.74 15.38,-73.9 49.81,-32.67 101.54,-63.56 153.74,-91.82 6.61,-3.57 13.65,-5.62 20.69,-6.24zm-375.9 260.75c16.44,-1.45 33.33,4.72 45,18.11 19.36,22.24 17.04,55.96 -5.2,75.32 -42.64,37.15 -84.21,76.52 -123.56,117.01 -20.51,21.19 -54.3,21.68 -75.49,1.11 -21.15,-20.55 -21.64,-54.34 -1.09,-75.5 41.4,-42.62 85.15,-84.05 130.02,-123.13 8.83,-7.69 19.47,-11.96 30.32,-12.92zm-310.12 336.5c12.51,-1.11 25.44,2.17 36.35,10.2 23.74,17.48 28.81,50.9 11.33,74.64 -33.58,45.58 -65.58,93.04 -95.14,141.13 -15.44,25.11 -48.29,32.97 -73.44,17.51 -25.11,-15.45 -32.95,-48.32 -17.51,-73.45 31.11,-50.59 64.8,-100.57 100.12,-148.51 9.45,-12.84 23.56,-20.22 38.29,-21.52zm-229.33 396.09c8.67,-0.76 17.63,0.58 26.16,4.33 26.99,11.86 39.24,43.36 27.36,70.35 -22.78,51.78 -43.59,105.1 -61.88,158.51 -9.55,27.89 -39.94,42.76 -67.78,33.23 -27.91,-9.55 -42.78,-39.91 -33.23,-67.8 19.26,-56.26 41.19,-112.42 65.16,-166.93 8.13,-18.47 25.44,-30.03 44.21,-31.69zm-136.83 436.95c4.87,-0.43 9.89,-0.19 14.92,0.8 28.94,5.62 47.84,33.66 42.21,62.58 -10.77,55.39 -19.33,111.96 -25.41,168.18 -3.17,29.32 -29.6,50.48 -58.82,47.33 -29.32,-3.16 -50.51,-29.51 -47.33,-58.83 6.4,-59.18 15.4,-118.75 26.75,-177.05 4.65,-23.9 24.58,-40.97 47.68,-43.01zm-37.47 456.02c1.09,-0.1 2.19,-0.15 3.3,-0.19 29.47,-0.81 54.01,22.44 54.81,51.91 1.14,41.6 3.57,83.65 7.23,125.04 1.32,14.97 2.82,29.91 4.46,44.78 3.23,29.31 -17.91,55.7 -47.21,58.92 -29.61,3.85 -55.68,-17.89 -58.92,-47.19 -1.73,-15.65 -3.29,-31.34 -4.69,-47.11 -3.85,-43.51 -6.4,-87.78 -7.59,-131.53 -0.78,-28.36 20.72,-52.16 48.61,-54.63z"/>
       <path class="fil46" d="M5809.57 7964.39c10.57,-0.94 21.51,1.26 31.39,6.96 25.02,14.47 50.2,29.74 74.86,45.4 24.89,15.8 32.27,48.79 16.46,73.68 -15.81,24.89 -48.77,32.28 -73.68,16.46 -23.42,-14.86 -47.35,-29.37 -71.1,-43.12 -25.51,-14.74 -34.24,-47.4 -19.48,-72.93 9.05,-15.64 24.82,-24.97 41.55,-26.45z"/>
      </g>
      <g>
       <path class="fil3" d="M5792.36 8587.55c-7.43,-7.62 -18.88,-9.69 -28.51,-5.15l-274.68 129.52c-119.55,-76.29 -252.13,-134.09 -393.8,-169.18l-95.27 -288.15c-3.35,-10.11 -12.73,-16.98 -23.38,-17.12l-364.24 -4.64c-10.64,-0.14 -20.2,6.5 -23.8,16.51l-102.58 285.63c-142.52,31.47 -276.53,85.86 -397.98,159.1l-271.3 -136.48c-9.51,-4.78 -21.01,-3.01 -28.63,4.43l-260.84 254.27c-7.62,7.44 -9.69,18.89 -5.15,28.51l129.52 274.68c-76.3,119.55 -134.08,252.13 -169.18,393.8l-288.15 95.28c-10.11,3.34 -16.98,12.72 -17.12,23.37l-4.64 364.24c-0.13,10.65 6.5,20.21 16.52,23.8l285.63 102.59c31.47,142.52 85.86,276.52 159.09,397.98l-136.47 271.3c-4.78,9.51 -3,21.01 4.42,28.63l254.28 260.83c7.44,7.63 18.88,9.7 28.51,5.16l274.69 -129.52c119.54,76.3 252.12,134.09 393.79,169.18l95.28 288.16c3.34,10.11 12.72,16.98 23.36,17.12l364.25 4.64c10.65,0.14 20.2,-6.5 23.8,-16.52l102.58 -285.63c142.52,-31.47 276.53,-85.87 397.98,-159.1l271.29 136.47c9.51,4.79 21.01,3.01 28.63,-4.42l260.84 -254.28c7.62,-7.42 9.69,-18.88 5.16,-28.5l-129.52 -274.69c76.3,-119.55 134.09,-252.13 169.18,-393.8l288.16 -95.27c10.1,-3.33 16.98,-12.73 17.1,-23.37l4.64 -364.24c0.14,-10.64 -6.49,-20.2 -16.51,-23.8l-285.63 -102.58c-31.47,-142.52 -85.86,-276.52 -159.09,-397.98l136.47 -271.3c4.78,-9.51 3.01,-21 -4.43,-28.63l-254.27 -260.85z"/>
       <g>
        <path class="fil1" d="M4742.21 9469.65c177.79,-15.73 345.46,101.02 388.15,279.67 46.92,196.4 -74.67,394.31 -271.04,441.24 -95.14,22.75 -193.43,7.06 -276.74,-44.13 -83.34,-51.19 -141.76,-131.77 -164.48,-226.9 -46.93,-196.39 74.67,-394.31 271.03,-441.24 17.71,-4.21 35.45,-7.08 53.08,-8.64zm56.16 644.53c13.73,-1.22 27.45,-3.43 41.1,-6.69 150.56,-35.98 243.78,-187.75 207.81,-338.3 -35.97,-150.56 -187.71,-243.86 -338.3,-207.82 -150.56,35.96 -243.78,187.75 -207.81,338.29 17.43,72.95 62.21,134.72 126.11,173.98 51.94,31.9 111.47,45.81 171.09,40.54z"/>
       </g>
       <g>
        <path class="fil1" d="M4688.16 8943.51c30.53,-2.71 61.38,-3.89 92.45,-3.49l0 0c9.78,0.11 19.56,0.4 29.33,0.84 48.19,2.16 96.13,8.16 143.08,17.89 0.64,0.13 1.28,0.26 1.92,0.39 1.81,0.38 3.63,0.77 5.44,1.17 3.53,0.76 7.06,1.56 10.57,2.35 9.25,2.12 15.71,9.94 16.52,18.91 0.19,2.18 0.04,4.44 -0.47,6.68 -2.63,11.5 -14.1,18.64 -25.58,16.04 -59.16,-13.55 -120.17,-20.8 -181.35,-21.56 -303.88,-3.92 -573.33,151.56 -728.73,388.64 -86.46,131.86 -137.6,288.98 -139.75,457.99 -0.38,29.64 0.73,59.08 3.32,88.2 17.36,196.01 100.9,378.57 240.12,521.37 159.9,164.03 374.13,255.99 603.18,258.9 473.06,5.98 862.46,-373.79 868.48,-846.62 0.37,-29.16 -0.74,-58.22 -3.3,-87.08 -11.08,-125.03 -49.39,-246.25 -112.62,-354.81 -1.63,-2.81 -2.56,-5.83 -2.81,-8.86 -0.71,-7.98 3.13,-16.04 10.52,-20.34 10.22,-5.91 23.27,-2.52 29.21,7.72 66.38,113.98 106.62,241.25 118.25,372.51 2.69,30.28 3.84,60.79 3.46,91.39 -6.32,496.44 -415.47,895.12 -911.73,888.81 -240.47,-3.06 -465.34,-99.6 -633.21,-271.8 -146.16,-149.91 -233.86,-341.56 -252.09,-547.34 -2.71,-30.58 -3.88,-61.48 -3.49,-92.58 3.07,-240.48 99.59,-465.37 271.79,-633.24 149.95,-146.18 341.67,-233.88 547.49,-252.08z"/>
       </g>
      </g>
     </g>
     <g>
      <g>
       <path class="fil46" d="M8500.69 7802.41c14.21,-1.26 28.12,6.85 33.59,20.82 10.22,26.06 19.79,52.78 28.44,79.44 5.62,17.31 -3.85,35.9 -21.19,41.54 -17.32,5.7 -35.91,-3.87 -41.54,-21.19 -8.24,-25.39 -17.36,-50.86 -27.11,-75.74 -6.65,-16.93 1.71,-36.06 18.66,-42.74 3.02,-1.17 6.09,-1.86 9.15,-2.13z"/>
       <path class="fil46" d="M8571.24 8046.05c16.64,-1.47 32.03,9.87 35.24,26.63 9.1,47.33 15.87,95.67 20.11,143.66 0.9,10.1 1.68,20.25 2.37,30.44 1.21,18.19 -13.56,33.29 -30.69,35.13 -18.18,1.23 -33.88,-12.52 -35.12,-30.67 -0.65,-9.74 -1.4,-19.44 -2.25,-29.09 -4.05,-45.77 -10.51,-91.88 -19.17,-137.01 -3.44,-17.9 8.27,-35.16 26.15,-38.62 1.13,-0.21 2.25,-0.37 3.36,-0.47zm22.93 341.6c1.56,-0.14 3.15,-0.18 4.74,-0.1 18.19,1.01 32.13,16.56 31.14,34.75 -3.18,58.34 -10.03,117 -20.33,174.33 -3.21,17.93 -20.44,29.8 -38.28,26.62 -17.93,-3.23 -29.84,-20.34 -26.63,-38.27 9.83,-54.7 16.34,-110.65 19.38,-166.29 0.93,-16.58 13.91,-29.62 29.98,-31.04zm-60.58 336.96c4.17,-0.37 8.47,0.06 12.71,1.37 17.38,5.42 27.07,23.92 21.66,41.31 -17.38,55.68 -38.42,110.91 -62.59,164.09 -7.53,16.61 -27.02,23.92 -43.66,16.38 -16.57,-7.53 -23.91,-27.08 -16.39,-43.65 23.04,-50.72 43.12,-103.35 59.68,-156.47 4.1,-13.13 15.68,-21.89 28.59,-23.03zm-141.58 311.77c6.8,-0.6 13.84,0.91 20.1,4.72 15.52,9.52 20.41,29.84 10.89,45.37 -30.56,49.83 -64.46,98.18 -100.8,143.74 -11.37,14.23 -32.13,16.52 -46.34,5.2 -14.24,-11.34 -16.57,-32.08 -5.21,-46.35 34.65,-43.41 67,-89.55 96.12,-137.06 5.69,-9.27 15.19,-14.73 25.24,-15.62zm-213.42 267.72c9.5,-0.84 19.29,2.44 26.49,9.78 12.74,13 12.52,33.87 -0.48,46.62 -41.71,40.84 -86.33,79.5 -132.63,114.89 -14.47,11.11 -35.16,8.32 -46.22,-6.16 -11.06,-14.48 -8.3,-35.18 6.16,-46.22 44.18,-33.77 86.74,-70.65 126.52,-109.63 5.68,-5.54 12.84,-8.62 20.16,-9.28zm-271.89 207.79c12.31,-1.08 24.72,4.84 31.38,16.2 9.2,15.71 3.91,35.89 -11.8,45.11 -50.38,29.47 -103.07,56.09 -156.61,79.05 -16.81,7.15 -36.13,-0.58 -43.31,-17.31 -7.19,-16.72 0.57,-36.12 17.29,-43.3 51.07,-21.91 101.29,-47.26 149.32,-75.37 4.34,-2.54 9.03,-3.96 13.73,-4.38zm-314.37 134.97c15.4,-1.36 30.1,8.29 34.55,23.68 5.06,17.5 -5.03,35.78 -22.52,40.85 -55.89,16.16 -113.53,29.01 -171.31,38.23 -18.07,2.57 -34.91,-9.42 -37.76,-27.4 -2.87,-17.98 9.39,-34.88 27.37,-37.76 55.14,-8.75 110.1,-21.02 163.39,-36.43 2.1,-0.6 4.2,-0.98 6.28,-1.17zm-509.58 49.28c1.89,-0.17 3.85,-0.18 5.82,0 47.89,4.2 96.85,5.85 145.53,4.9 7.38,-0.1 14.62,-0.29 21.84,-0.56 18.21,-0.65 33.49,13.55 34.15,31.75 0.69,18.24 -13.62,34.05 -31.75,34.17 -7.7,0.25 -15.39,0.49 -23.12,0.59 -50.87,0.97 -102.19,-0.76 -152.41,-5.17 -18.15,-1.6 -31.55,-17.58 -29.96,-35.73 1.41,-16.15 14.26,-28.57 29.9,-29.95z"/>
      </g>
      <g>
       <path class="fil46" d="M7063.3 6926.35c17.93,-1.59 33.87,11.56 35.7,29.53 1.84,18.1 -11.35,34.3 -29.47,36.12 -54.55,5.54 -109.21,14.45 -162.49,26.5 -17.69,3.82 -35.43,-7.11 -39.45,-24.89 -4.01,-17.78 7.15,-35.42 24.9,-39.45 55.88,-12.6 113.19,-21.96 170.36,-27.77l0.45 -0.04zm168.55 -6.92c1.19,-0.11 2.37,-0.14 3.58,-0.12 57.4,1.06 115.31,5.64 172.13,13.58 18.04,2.54 30.61,19.17 28.09,37.2 -2.51,18.07 -19.28,30.58 -37.21,28.12 -54.22,-7.58 -109.48,-11.94 -164.25,-12.98 -18.2,-0.33 -32.68,-15.37 -32.34,-33.57 0.31,-17.03 13.45,-30.77 30,-32.23zm-496.93 81.22c14.57,-1.28 28.74,7.29 33.93,21.7 6.15,17.1 -2.74,35.99 -19.87,42.17 -51.61,18.59 -102.52,40.45 -151.32,65.04 -16.33,8.14 -36.09,1.64 -44.27,-14.64 -8.19,-16.25 -1.64,-36.09 14.62,-44.29 51.16,-25.76 104.54,-48.68 158.64,-68.15 2.74,-0.99 5.51,-1.59 8.27,-1.83zm830.53 -34.37c3.74,-0.33 7.59,-0.03 11.43,0.99 55.49,14.84 110.63,33.27 163.85,54.79 16.89,6.81 25.05,26.03 18.23,42.93 -6.82,16.83 -26.05,24.99 -42.92,18.21 -50.76,-20.5 -103.31,-38.06 -156.22,-52.22 -17.58,-4.72 -28.04,-22.8 -23.33,-40.38 3.7,-13.75 15.56,-23.14 28.96,-24.32zm-1131.18 185.84c11.63,-1.03 23.45,4.16 30.36,14.55 10.12,15.17 6.02,35.64 -9.12,45.74 -45.54,30.34 -89.68,63.79 -131.21,99.47 -13.84,11.89 -34.65,10.27 -46.51,-3.55 -11.86,-13.82 -10.27,-34.65 3.55,-46.51 43.56,-37.38 89.84,-72.47 137.57,-104.3 4.76,-3.17 10.05,-4.93 15.36,-5.4zm-255.55 219.18c8.9,-0.79 18.07,2.02 25.17,8.51 13.44,12.29 14.38,33.15 2.08,46.59 -37.02,40.48 -71.9,83.55 -103.67,128 -10.61,14.84 -31.22,18.24 -46.01,7.66 -14.82,-10.59 -18.24,-31.17 -7.65,-45.97 33.31,-46.62 69.87,-91.78 108.66,-134.2 5.79,-6.33 13.49,-9.89 21.42,-10.59zm-195.71 274.11c6.26,-0.55 12.73,0.65 18.66,3.91 16,8.7 21.9,28.74 13.18,44.74 -26.28,48.13 -49.8,98.31 -69.93,149.13 -6.71,16.89 -25.87,25.21 -42.79,18.49 -16.93,-6.71 -25.22,-25.85 -18.51,-42.81 21.12,-53.27 45.78,-105.91 73.31,-156.41 5.49,-10.06 15.46,-16.11 26.08,-17.05z"/>
       <path class="fil46" d="M7879.17 7093.08c6.34,-0.56 12.9,0.71 18.88,4.02 24.69,13.69 49.06,28.18 72.49,43.05 15.37,9.76 19.93,30.14 10.17,45.53 -9.78,15.31 -30.13,19.89 -45.52,10.16 -22.33,-14.18 -45.6,-28 -69.15,-41.08 -15.92,-8.84 -21.66,-28.92 -12.82,-44.83 5.53,-9.93 15.42,-15.92 25.95,-16.85z"/>
      </g>
      <g>
       <path class="fil3" d="M7889.4 7519.81c-4.97,-5.1 -12.63,-6.49 -19.07,-3.45l-183.81 86.67c-80,-51.06 -168.71,-89.73 -263.51,-113.21l-63.76 -192.82c-2.23,-6.77 -8.51,-11.36 -15.64,-11.45l-243.73 -3.11c-7.13,-0.08 -13.52,4.35 -15.93,11.05l-68.65 191.13c-95.37,21.07 -185.04,57.46 -266.31,106.46l-181.53 -91.32c-6.36,-3.2 -14.06,-2.01 -19.16,2.96l-174.54 170.15c-5.1,4.98 -6.49,12.64 -3.45,19.08l86.67 183.8c-51.06,80 -89.73,168.71 -113.22,263.51l-192.81 63.76c-6.77,2.24 -11.36,8.51 -11.45,15.64l-3.11 243.74c-0.09,7.12 4.35,13.51 11.05,15.92l191.13 68.65c21.06,95.37 57.46,185.04 106.46,266.3l-91.32 181.55c-3.2,6.36 -2.01,14.05 2.96,19.15l170.15 174.55c4.97,5.1 12.64,6.48 19.08,3.45l183.81 -86.67c79.99,51.06 168.71,89.73 263.51,113.21l63.75 192.82c2.24,6.76 8.52,11.36 15.64,11.45l243.74 3.11c7.12,0.09 13.52,-4.35 15.93,-11.05l68.64 -191.13c95.37,-21.06 185.04,-57.46 266.31,-106.46l181.54 91.32c6.36,3.2 14.06,2.01 19.16,-2.96l174.54 -170.15c5.1,-4.97 6.48,-12.63 3.45,-19.08l-86.67 -183.8c51.06,-80 89.72,-168.71 113.21,-263.51l192.82 -63.76c6.76,-2.23 11.36,-8.51 11.45,-15.64l3.11 -243.73c0.08,-7.13 -4.35,-13.52 -11.05,-15.93l-191.14 -68.65c-21.06,-95.36 -57.45,-185.03 -106.45,-266.3l91.32 -181.54c3.2,-6.36 2.02,-14.06 -2.96,-19.16l-170.16 -174.55z"/>
       <g>
        <path class="fil1" d="M7186.66 8105.63c52.99,-4.69 105.87,7.67 152.02,36.02 56.76,34.87 96.54,89.77 112.02,154.57 31.97,133.72 -50.84,268.54 -184.6,300.54 -134,31.76 -268.61,-50.89 -300.57,-184.64 -15.49,-64.81 -4.81,-131.76 30.06,-188.51 34.87,-56.78 89.76,-96.57 154.58,-112.04 12.11,-2.88 24.31,-4.86 36.49,-5.94zm37.52 431.32c8.84,-0.78 17.71,-2.22 26.6,-4.33 98.38,-23.54 159.29,-122.7 135.78,-221.1 -11.39,-47.64 -40.65,-88.05 -82.4,-113.68 -41.77,-25.66 -91,-33.46 -138.68,-22.13l0 0c-47.66,11.39 -88.05,40.67 -113.69,82.41 -25.66,41.77 -33.51,91.02 -22.12,138.69 21.38,89.5 105.42,148.02 194.51,140.14z"/>
       </g>
       <g>
        <path class="fil1" d="M7149.51 7739.36c20.79,-1.84 41.83,-2.63 63.12,-2.38 42.28,0.53 84.55,5.35 125.74,14.38 1.85,0.42 3.7,0.84 5.55,1.26 14.29,3.26 24.26,15.35 25.5,29.2 0.3,3.36 0.07,6.85 -0.72,10.31 -4.06,17.74 -21.76,28.76 -39.5,24.76 -38.37,-8.79 -77.87,-13.47 -117.38,-13.96l-0.02 0c-2.17,-0.03 -4.35,-0.03 -6.5,-0.04 -93.53,-0.29 -183.59,22.74 -263.76,66.03 -43.52,23.5 -84.13,53.02 -120.77,88.11 -0.3,0.28 -0.6,0.57 -0.89,0.85 -0.91,0.9 -1.82,1.75 -2.72,2.64 -106.18,103.53 -165.71,242.2 -167.6,390.48 -0.25,19.2 0.48,38.24 2.15,57.1 11.23,126.89 65.33,245.07 155.45,337.54 103.53,106.19 242.2,165.69 390.47,167.57 148.19,1.83 288.44,-54.08 394.64,-157.58 106.18,-103.52 165.72,-242.2 167.6,-390.49 0.25,-18.87 -0.47,-37.68 -2.12,-56.35 -7.18,-80.96 -31.98,-159.42 -72.91,-229.7 -2.52,-4.34 -3.95,-8.99 -4.35,-13.67 -1.09,-12.32 4.84,-24.78 16.25,-31.41 15.76,-9.12 35.92,-3.85 45.1,11.92 45.79,78.64 73.55,166.44 81.59,256.98 1.85,20.92 2.66,41.95 2.39,63.06 -2.12,165.92 -68.71,321.06 -187.53,436.89 -118.8,115.79 -275.5,178.53 -441.48,176.3 -165.91,-2.1 -321.05,-68.68 -436.87,-187.51 -100.84,-103.42 -161.34,-235.65 -173.92,-377.61 -1.86,-21.08 -2.69,-42.41 -2.41,-63.86 4.12,-321.2 252.56,-583.1 565.9,-610.82z"/>
       </g>
      </g>
     </g>
    </g>
   </g>
  </g>
 </g>
</svg>
